<svg width="615" height="718" viewBox="0 0 615 718" fill="none" xmlns="http://www.w3.org/2000/svg">
<path d="M78.5655 159.65L256.257 52.0631C280.831 37.1846 311.495 36.6238 336.596 50.5939L533.405 160.128C558.772 174.247 574.5 201 574.5 230.031V482.913C574.5 511.44 559.31 537.809 534.632 552.119L337.876 666.217C312.132 681.145 280.229 680.55 255.059 664.672L77.3154 552.541C54.0876 537.887 40 512.343 40 484.88V228.084C40 200.097 54.6251 174.145 78.5655 159.65Z" fill="#603ED8" stroke="white" stroke-width="80"/>
<path d="M293.917 636.808L112.221 522.699C104.708 517.981 106.603 506.543 115.236 504.5L297.048 461.462C298.337 461.157 299.673 461.111 300.979 461.326L513.782 496.428C523.063 497.959 525.288 510.292 517.127 514.97L304.208 637.015C301.003 638.852 297.045 638.772 293.917 636.808Z" fill="#7A5CE4"/>
<path d="M266.382 110.45L104.904 212.185C98.9433 215.941 98.6309 224.517 104.302 228.697L181.881 285.86C185.257 288.347 189.805 288.477 193.306 286.169C230.078 261.927 294.225 220 296.5 220C298.628 220 288.6 158.44 281.536 117.179C280.336 110.168 272.4 106.658 266.382 110.45Z" fill="white"/>
</svg>
