<svg width="200" height="200" viewBox="0 0 200 200" fill="none" xmlns="http://www.w3.org/2000/svg">
<rect width="200" height="200" fill="#360CCC"/>
<path fill-rule="evenodd" clip-rule="evenodd" d="M73.1317 33.1089C76.8264 29.4142 82.8166 29.4142 86.5113 33.1089L134.182 80.78H134.188V80.7858L140.036 86.6333L140.045 86.6236L153.425 100.003L134.188 119.24V119.246H134.182L86.5113 166.917C82.8166 170.612 76.8264 170.612 73.1317 166.917C69.437 163.222 69.437 157.232 73.1317 153.537L117.464 109.205V109.069H55.5845V109.069L55.5844 109.069L50.5084 103.993C48.2664 101.751 48.2664 98.1163 50.5084 95.8743L55.5844 90.7982L55.5845 90.7984H117.442L73.1317 46.4885C69.437 42.7938 69.437 36.8036 73.1317 33.1089Z" fill="white"/>
</svg>
