<svg width="2812" height="1093" viewBox="0 0 2812 1093" fill="none" xmlns="http://www.w3.org/2000/svg">
<path d="M120.667 874V783.062H253.576V352.858H120.667V261.92H480.92V352.858H348.011V783.062H480.92V874H120.667ZM554.766 874V261.92H647.452L901.903 615.178L863.429 614.303L1118.75 261.92H1209.69V874H1115.26V617.801C1115.26 567.669 1116.42 521.617 1118.75 479.646C1121.09 437.091 1125.75 394.246 1132.74 351.109L1143.24 386.085L909.772 698.246H852.062L622.095 386.959L631.713 351.109C638.708 393.08 643.372 435.051 645.703 477.022C648.035 518.994 649.201 565.92 649.201 617.801V874H554.766ZM1288.44 874V261.92H1597.98C1632.96 261.92 1664.73 270.373 1693.29 287.278C1722.44 303.6 1745.46 326.043 1762.37 354.606C1779.85 383.17 1788.6 414.94 1788.6 449.916C1788.6 486.058 1779.56 518.702 1761.49 547.849C1743.42 576.995 1719.23 600.604 1688.92 618.675C1658.6 636.163 1625.09 644.907 1588.36 644.907H1382.88V874H1288.44ZM1382.88 553.97H1583.11C1602.35 553.97 1620.13 549.306 1636.45 539.979C1652.78 530.069 1665.6 517.245 1674.93 501.506C1684.84 485.766 1689.79 468.57 1689.79 449.916C1689.79 431.845 1684.84 415.523 1674.93 400.95C1665.6 386.376 1652.78 374.718 1636.45 365.974C1620.13 357.23 1602.35 352.858 1583.11 352.858H1382.88V553.97ZM1824.87 874V261.92H1919.3V783.062H2274.31V874H1824.87ZM2411.16 874V586.322L2423.4 643.158L2130.48 261.92H2253.77L2470.62 553.97L2449.63 553.095L2655.12 261.92H2768.79L2497.72 634.414L2505.59 579.327V874H2411.16Z" fill="white"/>
</svg>
