<svg width="500" height="500" viewBox="0 0 500 500" fill="none" xmlns="http://www.w3.org/2000/svg">
<mask id="mask0_139_28" style="mask-type:alpha" maskUnits="userSpaceOnUse" x="0" y="0" width="500" height="500">
<rect width="500" height="500" fill="#D8CFF7"/>
</mask>
<g mask="url(#mask0_139_28)">
<rect width="500" height="500" fill="#262626"/>
<path d="M97.5 516C97.5 516 65 516 65 482.5C65 449 97.5 348.5 260 348.5C422.5 348.5 455 449 455 482.5C455 516 422.5 516 422.5 516H97.5ZM260 315C285.859 315 310.658 304.412 328.943 285.564C347.228 266.717 357.5 241.154 357.5 214.5C357.5 187.846 347.228 162.283 328.943 143.436C310.658 124.588 285.859 114 260 114C234.141 114 209.342 124.588 191.057 143.436C172.772 162.283 162.5 187.846 162.5 214.5C162.5 241.154 172.772 266.717 191.057 285.564C209.342 304.412 234.141 315 260 315Z" fill="#6B6B6B"/>
</g>
</svg>
