<svg width="48" height="36" viewBox="0 0 48 36" fill="none" xmlns="http://www.w3.org/2000/svg">
<g clip-path="url(#clip0_59_140)">
<path d="M0 0H16V36H0V0Z" fill="#1E3A8A"/>
<path d="M16 0H32V36H16V0Z" fill="#FBBF24"/>
<path d="M32 0H48V36H32V0Z" fill="#EF4444"/>
<path d="M29.4567 20.5263C29.586 20.7406 29.6046 20.9896 29.5966 21.1969C29.5949 22.0092 29.0855 22.7189 28.3272 22.9864C27.7203 23.2008 27.0904 23.2176 26.4606 23.2389C26.2772 23.2451 26.0956 23.2362 25.9157 23.3C25.6323 23.4028 25.4099 23.4984 25.5499 23.9387C25.681 24.3516 25.2876 24.4942 25.0998 24.7298C24.9634 24.8999 24.7756 24.8282 24.6321 24.7174C24.4744 24.597 24.3557 24.5925 24.2254 24.7582C24.0731 24.9522 23.9074 24.9371 23.7559 24.7511C23.6425 24.6111 23.5362 24.5828 23.3847 24.7006C23.2315 24.8202 23.0366 24.9106 22.8833 24.7245C22.6831 24.4827 22.2969 24.3232 22.4421 23.8847C22.5644 23.5144 22.3828 23.4028 22.1365 23.3266C21.5872 23.1583 21.0176 23.2371 20.4577 23.1636C19.6675 23.0582 18.9721 22.8057 18.5522 21.9836C18.3147 21.5185 18.2811 21.0356 18.5176 20.5679C18.6354 20.3367 18.6718 20.187 18.4636 19.9867C18.2775 19.806 18.2891 19.5385 18.4166 19.3028C18.5291 19.092 18.6709 18.9148 18.9242 19.0442C19.0403 19.1026 19.0917 19.0247 19.151 18.944C19.4434 18.5418 19.2848 17.8827 18.8525 17.7313C18.7001 17.679 18.6 17.5736 18.6576 17.4185C18.7559 17.1536 18.6266 17.0314 18.4813 16.8684C17.7522 16.0569 17.87 14.853 18.709 14.4587C18.8046 14.4136 18.9393 14.3321 19.0049 14.3719C19.3424 14.5775 19.4691 13.9875 19.7853 14.1327C19.8163 14.1469 19.8217 14.0105 19.8057 13.9423C19.7517 13.7111 19.6427 13.5162 19.4841 13.3531C19.3087 13.1742 19.1555 12.9749 19.0447 12.7401C18.9101 12.4531 18.9048 12.1457 19.1262 11.9339C19.6684 11.4166 20.3089 11.1978 21.0203 11.336C21.3463 11.3989 21.5297 11.6354 21.4783 12.0234C21.4544 12.2068 21.4712 12.3335 21.6546 12.3884C21.9088 12.4646 22.1755 12.5824 22.4111 12.4017C22.591 12.2653 22.4563 12.058 22.3978 11.8861C22.3651 11.7904 22.3101 11.7018 22.2915 11.6044C22.2233 11.2438 22.2455 10.8797 22.5121 10.6379C22.7823 10.3925 23.0915 10.5138 23.3546 10.6981C23.7896 11.0011 24.2068 11.0046 24.6383 10.6981C24.9085 10.505 25.2301 10.4332 25.487 10.6529C25.7554 10.8833 25.7793 11.2536 25.6907 11.6168C25.6765 11.6726 25.6509 11.7249 25.6367 11.7807C25.5809 11.9906 25.3869 12.1953 25.5906 12.4203C25.7093 12.5514 26.3038 12.469 26.4606 12.3291C26.5385 12.2608 26.5199 12.1838 26.5208 12.0969C26.5288 11.5202 26.7662 11.2447 27.296 11.2784C27.7956 11.3094 28.282 11.4449 28.7028 11.7736C29.066 12.0571 29.128 12.4088 28.9021 12.8331C28.7798 13.0617 28.6036 13.2389 28.4467 13.4338C28.2988 13.6189 28.0862 13.9184 28.2084 14.0663C28.3201 14.2018 28.5477 14.4047 28.7728 14.3905C29.3539 14.3542 29.7499 14.651 29.9271 15.2304C30.1175 15.8505 29.9191 16.4095 29.5151 16.8675C29.3743 17.0279 29.2361 17.1457 29.3326 17.4159C29.3973 17.5966 29.2786 17.7259 29.1041 17.733C28.8587 17.7428 28.755 17.9022 28.7231 18.1432C28.6833 18.4524 28.6833 18.7562 28.8888 19.0087C28.9358 19.0672 28.9925 19.0822 29.0651 19.0468C29.3185 18.9192 29.462 19.0911 29.5745 19.3019C29.7092 19.5553 29.7074 19.8308 29.5045 20.0195C29.3123 20.1976 29.3415 20.3349 29.4576 20.5263H29.4567Z" fill="#A16207"/>
<path d="M23.468 18.4453V22.0341H22.6087C22.4315 22.0341 22.2579 22.0164 22.0904 21.9809C21.8468 21.9313 21.6156 21.8472 21.4021 21.7329C21.1434 21.5947 20.9095 21.414 20.7129 21.2005C20.2859 20.7389 20.0245 20.1232 20.0245 19.4499V18.4453H23.468Z" fill="#FBBF24"/>
<path d="M27.9746 18.4453V19.4499C27.9746 20.8709 26.8123 22.0341 25.3913 22.0341H24.5311V18.4453H27.9746Z" fill="#FBBF24"/>
<path d="M21.0876 13.793H23.468V17.3817H20.0245V14.856C20.0245 14.2714 20.5029 13.793 21.0876 13.793Z" fill="#EF4444"/>
<path d="M27.9746 14.856V17.3817H24.5311V13.793H26.9115C27.0435 13.793 27.1702 13.8169 27.2862 13.8621C27.6875 14.0144 27.9746 14.4034 27.9746 14.856Z" fill="#FBBF24"/>
<path d="M25.9078 13.793H25.2194V17.3817H25.9078V13.793Z" fill="#EF4444"/>
<path d="M27.2862 13.8621V17.3817H26.597V13.793H26.9115C27.0435 13.793 27.1702 13.8169 27.2862 13.8621Z" fill="#EF4444"/>
<path d="M21.4021 18.4453V21.7329C21.1434 21.5947 20.9095 21.414 20.7129 21.2005V18.4453H21.4021Z" fill="#EF4444"/>
<path d="M22.7796 18.4453V22.0341H22.6087C22.4315 22.0341 22.2579 22.0164 22.0904 21.9809V18.4453H22.7796Z" fill="#EF4444"/>
<path d="M26.853 19.7327H25.4755C25.3284 19.7327 25.2097 19.614 25.2097 19.4669C25.2097 19.3199 25.3284 19.2012 25.4755 19.2012H26.853C27.0001 19.2012 27.1188 19.3199 27.1188 19.4669C27.1188 19.614 27.0001 19.7327 26.853 19.7327Z" fill="#EF4444"/>
<path d="M26.853 20.7991H25.4755C25.3284 20.7991 25.2097 20.6804 25.2097 20.5333C25.2097 20.3863 25.3284 20.2676 25.4755 20.2676H26.853C27.0001 20.2676 27.1188 20.3863 27.1188 20.5333C27.1188 20.6804 27.0001 20.7991 26.853 20.7991Z" fill="#EF4444"/>
<path d="M22.8132 15.3086L22.0224 14.5178C21.8697 14.365 21.622 14.365 21.4693 14.5178L20.6785 15.3086C20.5258 15.4613 20.5258 15.7089 20.6785 15.8617L21.4693 16.6525C21.622 16.8052 21.8697 16.8052 22.0224 16.6525L22.8132 15.8617C22.9659 15.7089 22.9659 15.4613 22.8132 15.3086Z" fill="#FBBF24"/>
</g>
<defs>
<clipPath id="clip0_59_140">
<rect width="48" height="36" fill="white"/>
</clipPath>
</defs>
</svg>
