<svg width="48" height="36" viewBox="0 0 48 36" fill="none" xmlns="http://www.w3.org/2000/svg">
<g clip-path="url(#clip0_61_22)">
<path d="M0 0H16V36H0V0Z" fill="#262626"/>
<path d="M16 0H32V36H16V0Z" fill="#EF4444"/>
<path d="M32 0H48V36H32V0Z" fill="#22C55E"/>
<path d="M27.1864 12.1166C26.8298 11.8926 26.3589 12.0003 26.1349 12.3568C25.9109 12.7133 26.0186 13.1843 26.3751 13.4083C27.6897 14.2338 28.4747 15.6519 28.4747 17.2014C28.4747 19.669 26.4676 21.6762 24 21.6762C21.5324 21.6762 19.5253 19.669 19.5253 17.2014C19.5253 15.6519 20.3103 14.2338 21.6249 13.4083C21.9814 13.1843 22.0891 12.7133 21.8651 12.3568C21.6411 12.0003 21.1702 11.8926 20.8136 12.1166C19.052 13.2229 18 15.1237 18 17.2014C18 20.5098 20.6916 23.2014 24 23.2014C27.3084 23.2014 30 20.5098 30 17.2014C30 15.1237 28.948 13.2229 27.1864 12.1166Z" fill="#F5F5F5"/>
<path d="M24 20.3751C24.8951 20.3751 25.6206 19.6497 25.6206 18.7545V15.6487C25.6206 14.7536 24.8951 14.0281 24 14.0281C23.1049 14.0281 22.3794 14.7536 22.3794 15.6487V18.7545C22.3794 19.6497 23.1049 20.3751 24 20.3751Z" fill="#F5F5F5"/>
</g>
<defs>
<clipPath id="clip0_61_22">
<rect width="48" height="36" fill="white"/>
</clipPath>
</defs>
</svg>
