<svg width="48" height="36" viewBox="0 0 48 36" fill="none" xmlns="http://www.w3.org/2000/svg">
<g clip-path="url(#clip0_61_136)">
<rect width="48" height="36" fill="#262626"/>
<path fill-rule="evenodd" clip-rule="evenodd" d="M24.6722 2.57331L25.3311 6.65019C25.4278 7.23009 26.1571 7.42339 26.5261 6.9665L29.1356 3.75947C29.6189 3.162 30.5678 3.70675 30.2954 4.42724L28.8281 8.29325C28.6172 8.838 29.1532 9.37397 29.7068 9.17188L33.5728 7.70456C34.2932 7.43218 34.838 8.38111 34.2405 8.86436L31.0335 11.4739C30.5766 11.8429 30.7787 12.581 31.3498 12.6689L35.4267 13.3278C36.1911 13.4509 36.1911 14.5491 35.4267 14.6722L31.3498 15.3311C30.7699 15.4278 30.5766 16.1571 31.0335 16.5261L34.2405 19.1356C34.838 19.6189 34.2932 20.5678 33.5728 20.2954L29.7068 18.8281C29.162 18.6172 28.626 19.1532 28.8281 19.7068L30.2954 23.5728C30.5678 24.2932 29.6189 24.838 29.1356 24.2405L26.5261 21.0335C26.1571 20.5766 25.419 20.7787 25.3311 21.3498L24.6722 25.4267C24.5492 26.1911 23.4509 26.1911 23.3278 25.4267L22.6689 21.3498C22.5722 20.7699 21.8429 20.5766 21.4739 21.0335L18.8644 24.2405C18.3811 24.838 17.4322 24.2932 17.7046 23.5728L19.1719 19.7068C19.3828 19.162 18.8468 18.626 18.2932 18.8281L14.4272 20.2954C13.7068 20.5678 13.162 19.6189 13.7595 19.1356L16.9665 16.5261C17.4234 16.1571 17.2213 15.419 16.6502 15.3311L12.5733 14.6722C11.8089 14.5491 11.8089 13.4509 12.5733 13.3278L16.6502 12.6689C17.2301 12.5722 17.4234 11.8429 16.9665 11.4739L13.7595 8.86436C13.162 8.38111 13.7068 7.43218 14.4272 7.70456L18.2932 9.17188C18.838 9.38276 19.374 8.84679 19.1719 8.29325L17.7046 4.42724C17.4322 3.70675 18.3811 3.162 18.8644 3.75947L21.4739 6.9665C21.8429 7.42339 22.581 7.22131 22.6689 6.65019L23.3278 2.57331C23.4509 1.8089 24.5492 1.8089 24.6722 2.57331Z" fill="#FBBF24"/>
<path d="M0 18H48V36H0V18Z" fill="#F5F5F5"/>
<path d="M0 14H48V22H0V14Z" fill="#3B82F6"/>
<path d="M24 36L0 0V36H24Z" fill="#EF4444"/>
<path d="M24 36L48 0V36H24Z" fill="#EF4444"/>
</g>
<defs>
<clipPath id="clip0_61_136">
<rect width="48" height="36" fill="white"/>
</clipPath>
</defs>
</svg>
