<svg width="48" height="36" viewBox="0 0 48 36" fill="none" xmlns="http://www.w3.org/2000/svg">
<rect width="48" height="36" fill="#EF4444"/>
<path d="M30.6295 17.9827L31.6719 18.8162C32.0551 19.1223 32.5305 19.2892 33.0214 19.2892H34.2121C34.5247 19.2892 34.7734 19.0162 34.7345 18.6963C34.7021 18.429 34.4607 18.2362 34.1918 18.2362H33.0214C32.7695 18.2362 32.5257 18.1504 32.3297 17.9932L30.8012 16.7709C30.7542 16.7337 30.7275 16.677 30.7275 16.6179C30.7275 16.4875 30.8701 16.4081 30.981 16.4761L31.9984 17.1014C32.3523 17.3193 32.7606 17.4351 33.1769 17.4351H34.2121C34.5247 17.4351 34.7734 17.1622 34.7345 16.8422C34.7013 16.5749 34.4607 16.3822 34.1918 16.3822H33.1769C32.9558 16.3822 32.7387 16.3206 32.55 16.2048L30.8757 15.1745C30.8344 15.1494 30.8142 15.0983 30.8304 15.0505C30.8506 14.9898 30.9235 14.9647 30.9818 14.9914L31.6752 15.3081C32.0332 15.4717 32.4212 15.556 32.8132 15.556C32.912 15.556 33.0117 15.5503 33.1113 15.5398L34.2501 15.4142C34.5174 15.3851 34.7353 15.1664 34.7386 14.8974C34.7426 14.5751 34.4656 14.3313 34.1546 14.3653L32.9963 14.4925C32.6941 14.5257 32.3888 14.4771 32.1126 14.3507L31.0013 13.8428C30.9308 13.8104 30.8935 13.7278 30.9227 13.6501C30.9511 13.5755 31.0377 13.5399 31.1147 13.5626L31.578 13.7011C31.8526 13.7829 32.1353 13.8234 32.4179 13.8234C32.8229 13.8234 33.2271 13.74 33.603 13.5747L34.4057 13.2208C34.6519 13.1122 34.7944 12.8385 34.7167 12.5809C34.6227 12.2715 34.2858 12.1232 33.9998 12.2488L33.1785 12.6109C32.7687 12.7915 32.3078 12.8198 31.8793 12.6919L31.1406 12.4715C31.0393 12.4416 30.9786 12.3346 31.0126 12.2277C31.0377 12.1467 31.1187 12.0957 31.2038 12.0957H32.0915C32.4836 12.0957 32.8691 11.9936 33.2101 11.8009L34.4543 11.0962C34.6883 10.9633 34.8025 10.6766 34.6989 10.4279C34.5749 10.1307 34.2242 10.0157 33.9529 10.1704L32.6917 10.884C32.5087 10.9876 32.3021 11.0427 32.0915 11.0427H31.2678C31.16 11.0427 31.0758 10.9447 31.0969 10.8345C31.1082 10.7754 31.1519 10.7276 31.207 10.7041L32.7606 10.0343C33.2409 9.82693 33.671 9.50536 34.0047 9.10361L34.4615 8.55362C34.6608 8.31306 34.6106 7.94775 34.3392 7.77361C34.1132 7.62781 33.8103 7.68937 33.6386 7.89672L33.1947 8.43051C32.9663 8.7059 32.6723 8.92541 32.3442 9.06716L30.2674 9.963C30.2585 9.96705 30.2504 9.9711 30.2415 9.97515C30.2091 9.98325 30.1767 9.99297 30.1451 10.0059L27.9654 10.8669C27.6973 10.9731 27.5216 11.2323 27.5216 11.5198V11.8892C27.5216 12.3112 27.1498 12.6457 26.7156 12.5833C26.3673 12.5331 26.1171 12.2188 26.1171 11.8673V10.8661C26.1171 10.6013 26.2661 10.3599 26.5018 10.24L27.9995 9.48025C28.0424 9.45838 28.0878 9.44056 28.1347 9.42841L29.344 9.1028C29.7239 8.99993 29.9459 8.60465 29.8349 8.22639L29.8244 8.18913C29.7434 7.91616 29.506 7.71853 29.2225 7.68937L28.9731 7.66345C28.8248 7.64806 28.6855 7.5865 28.5754 7.48687L28.2344 7.17989C28.0464 7.01141 27.7824 6.95633 27.5426 7.03571L25.4974 7.71853C25.3071 7.78171 25.1524 7.92426 25.0738 8.10894L24.1504 10.2773C24.1261 10.334 24.0864 10.3801 24.0378 10.4125C23.9884 10.4441 23.9309 10.4628 23.8693 10.4628C23.8078 10.4628 23.7503 10.4441 23.7009 10.4125C23.6523 10.3801 23.6126 10.334 23.5883 10.2773L22.6649 8.10894C22.5863 7.92426 22.4316 7.78171 22.2413 7.71853L20.196 7.03571C19.9563 6.95633 19.6922 7.01141 19.5043 7.17989L19.1633 7.48687C19.0531 7.5865 18.9138 7.64806 18.7656 7.66345L18.5161 7.68937C18.2326 7.71853 17.9953 7.91616 17.9143 8.18913L17.9038 8.22639C17.7928 8.60465 18.0147 8.99993 18.3946 9.1028L19.6039 9.42841C19.6509 9.44056 19.6963 9.45838 19.7392 9.48025L21.2369 10.24C21.4726 10.3599 21.6216 10.6013 21.6216 10.8661V11.8673C21.6216 12.2188 21.3713 12.5331 21.023 12.5833C20.5889 12.6457 20.2171 12.3112 20.2171 11.8892V11.5198C20.2171 11.2323 20.0413 10.9731 19.7732 10.8669L17.5936 10.0059C17.562 9.99297 17.5296 9.98325 17.4972 9.97515C17.4883 9.9711 17.4802 9.96705 17.4712 9.963L15.3944 9.06716C15.0664 8.92541 14.7724 8.7059 14.5439 8.43051L14.1001 7.89672C13.9284 7.68937 13.6254 7.62781 13.3994 7.77361C13.1281 7.94775 13.0779 8.31306 13.2771 8.55362L13.734 9.10361C14.0677 9.50536 14.4978 9.82693 14.9781 10.0343L16.5317 10.7041C16.5867 10.7276 16.6305 10.7754 16.6418 10.8345C16.6629 10.9447 16.5786 11.0427 16.4709 11.0427H15.6472C15.4366 11.0427 15.23 10.9876 15.047 10.884L13.7858 10.1704C13.5145 10.0157 13.1637 10.1307 13.0398 10.4279C12.9361 10.6766 13.0503 10.9633 13.2844 11.0962L14.5286 11.8009C14.8696 11.9936 15.2551 12.0957 15.6472 12.0957H16.5349C16.6199 12.0957 16.7009 12.1467 16.7261 12.2277C16.7601 12.3346 16.6993 12.4416 16.5981 12.4715L15.8594 12.6919C15.4309 12.8198 14.97 12.7915 14.5601 12.6109L13.7388 12.2488C13.4529 12.1232 13.1159 12.2715 13.022 12.5809C12.9442 12.8385 13.0868 13.1122 13.333 13.2208L14.1357 13.5747C14.5115 13.74 14.9157 13.8234 15.3207 13.8234C15.6034 13.8234 15.8861 13.7829 16.1607 13.7011L16.624 13.5626C16.7009 13.5399 16.7876 13.5755 16.816 13.6501C16.8451 13.7278 16.8079 13.8104 16.7374 13.8428L15.6261 14.3507C15.3499 14.4771 15.0445 14.5257 14.7424 14.4925L13.5841 14.3653C13.2731 14.3313 12.9961 14.5751 13.0001 14.8974C13.0034 15.1664 13.2212 15.3851 13.4885 15.4142L14.6274 15.5398C14.727 15.5503 14.8266 15.556 14.9255 15.556C15.3175 15.556 15.7055 15.4717 16.0635 15.3081L16.7568 14.9914C16.8152 14.9647 16.8881 14.9898 16.9083 15.0505C16.9245 15.0983 16.9043 15.1494 16.8629 15.1745L15.1887 16.2048C15 16.3206 14.7829 16.3822 14.5618 16.3822H13.5469C13.2779 16.3822 13.0374 16.5749 13.0042 16.8422C12.9645 17.1622 13.2139 17.4351 13.5266 17.4351H14.5618C14.9781 17.4351 15.3863 17.3193 15.7403 17.1014L16.7576 16.4761C16.8686 16.4081 17.0112 16.4875 17.0112 16.6179C17.0112 16.677 16.9844 16.7337 16.9375 16.7709L15.409 17.9932C15.213 18.1504 14.9692 18.2362 14.7173 18.2362H13.5469C13.2779 18.2362 13.0366 18.429 13.0042 18.6963C12.9653 19.0162 13.2139 19.2892 13.5266 19.2892H14.7173C15.2081 19.2892 15.6836 19.1223 16.0667 18.8162L17.1092 17.9827C17.1262 18.0532 17.1067 18.1261 17.0581 18.1787L15.7273 19.6172C15.3248 20.053 14.7319 20.2741 14.1422 20.2102L13.5841 20.1494C13.2577 20.1146 12.9677 20.3843 13.0034 20.7318C13.0285 20.9805 13.2374 21.1708 13.4853 21.1975L14.028 21.2567C14.1325 21.268 14.2378 21.2737 14.3431 21.2737C15.1547 21.2737 15.9436 20.9343 16.5009 20.3325L18.1192 18.5821C18.1192 18.5821 18.1249 18.5756 18.1273 18.5732C18.2132 18.5845 18.2707 18.6655 18.2553 18.7506L18.1452 19.3435C18.1055 19.5614 17.9848 19.7558 17.8074 19.8886L16.9512 20.5317C16.7471 20.6848 16.6653 20.9643 16.7795 21.1935C16.8751 21.3871 17.063 21.4899 17.2542 21.4899C17.3635 21.4899 17.4745 21.4559 17.5693 21.3846L18.4392 20.731C18.828 20.4394 19.092 20.0125 19.1811 19.5346L19.3172 18.7992C19.3229 18.7676 19.3528 18.7457 19.3852 18.7497L19.8405 18.8145C19.8737 18.8186 19.898 18.8494 19.8923 18.8818C19.872 19.0081 19.821 19.1272 19.7441 19.2293L19.3942 19.6918C19.2354 19.9032 19.2411 20.2053 19.4274 20.3932C19.5327 20.4993 19.6687 20.5503 19.8032 20.5503C19.962 20.5503 20.1199 20.4783 20.2236 20.3414L20.6326 19.7995C20.712 19.6958 20.7638 19.5759 20.8165 19.4561C20.8691 19.3378 21.0498 19.3564 21.0708 19.4852C21.0773 19.5225 21.0805 19.5605 21.0805 19.5994V19.6667C21.0805 19.8999 20.9647 20.1178 20.7711 20.2482L19.0207 21.4308C18.6392 21.6892 18.5825 22.2286 18.9009 22.5607L17.9354 23.1042C17.886 23.1326 17.8236 23.1131 17.7985 23.0629L17.6511 22.7697C17.5814 22.6304 17.4243 22.5486 17.2736 22.5899C17.0687 22.6458 16.9763 22.8693 17.0662 23.0492L17.1853 23.2849C17.2185 23.3513 17.1691 23.4299 17.0946 23.4282L16.8411 23.4226C16.6313 23.4161 16.4571 23.6226 16.526 23.847C16.5673 23.9815 16.6985 24.0681 16.8386 24.0706L17.1772 24.0778C17.2436 24.0795 17.2898 24.1443 17.2687 24.2074L17.1805 24.4723C17.131 24.6213 17.1853 24.7931 17.3238 24.8692C17.3757 24.8976 17.4307 24.9113 17.4842 24.9113C17.6195 24.9113 17.7458 24.8255 17.7912 24.6894L17.9151 24.316C17.9337 24.2601 17.9969 24.2334 18.0504 24.2577L18.2893 24.3678C18.3331 24.3881 18.3792 24.3978 18.4246 24.3978C18.568 24.3978 18.7049 24.3022 18.7413 24.1443C18.7769 23.9936 18.6911 23.8397 18.5501 23.7749L18.4594 23.7328C18.3865 23.6988 18.3825 23.5967 18.4521 23.557L19.3634 23.0435C19.6631 23.3561 20.1677 23.3391 20.4447 23.007L21.5058 21.7402C21.8031 21.3854 22.3433 21.3304 22.6819 21.6455C23.0229 21.963 22.9767 22.47 22.6446 22.7276L21.2523 23.8057C20.9477 24.0414 20.7274 24.346 20.5978 24.6821C20.3556 25.3066 21.1567 25.812 21.6305 25.3382C21.9432 25.0255 22.4567 25.0385 22.7532 25.3754C23.0237 25.6832 22.9897 26.1555 22.6997 26.4454L22.2404 26.9047C21.8306 27.3146 21.7715 27.9593 22.1011 28.4364L23.8693 31L25.6375 28.4364C25.9672 27.9593 25.9081 27.3146 25.4982 26.9047L25.039 26.4454C24.749 26.1555 24.715 25.6832 24.9855 25.3754C25.282 25.0377 25.7955 25.0255 26.1081 25.3382C26.582 25.812 27.3831 25.3066 27.1409 24.6821C27.0105 24.3468 26.791 24.0414 26.4864 23.8057L25.094 22.7276C24.7619 22.47 24.7158 21.963 25.0568 21.6455C25.3954 21.3304 25.9356 21.3854 26.2329 21.7402L27.294 23.007C27.571 23.3391 28.0756 23.3561 28.3753 23.0435L29.2865 23.557C29.3562 23.5967 29.3521 23.6988 29.2792 23.7328L29.1885 23.7749C29.0476 23.8397 28.9617 23.9936 28.9974 24.1443C29.0338 24.3022 29.1707 24.3978 29.3141 24.3978C29.3594 24.3978 29.4056 24.3881 29.4493 24.3678L29.6883 24.2577C29.7417 24.2334 29.8049 24.2601 29.8236 24.316L29.9475 24.6894C29.9928 24.8255 30.1192 24.9113 30.2545 24.9113C30.3079 24.9113 30.363 24.8976 30.4148 24.8692C30.5534 24.7931 30.6076 24.6213 30.5582 24.4723L30.4699 24.2074C30.4489 24.1443 30.495 24.0795 30.5615 24.0778L30.9 24.0706C31.0402 24.0681 31.1714 23.9815 31.2127 23.847C31.2815 23.6226 31.1074 23.4161 30.8976 23.4226L30.6441 23.4282C30.5696 23.4299 30.5201 23.3513 30.5534 23.2849L30.6724 23.0492C30.7623 22.8693 30.67 22.6458 30.4651 22.5899C30.3144 22.5486 30.1573 22.6304 30.0876 22.7697L29.9402 23.0629C29.9151 23.1131 29.8527 23.1326 29.8033 23.1042L28.8378 22.5607C29.1561 22.2286 29.0994 21.6892 28.7179 21.4308L26.9675 20.2482C26.774 20.1178 26.6581 19.8999 26.6581 19.6667V19.5994C26.6581 19.5605 26.6614 19.5225 26.6678 19.4852C26.6889 19.3564 26.8695 19.3378 26.9222 19.4561C26.9748 19.5759 27.0267 19.6958 27.106 19.7995L27.5151 20.3414C27.6188 20.4783 27.7767 20.5503 27.9355 20.5503C28.0699 20.5503 28.206 20.4993 28.3113 20.3932C28.4976 20.2053 28.5033 19.9032 28.3445 19.6918L27.9946 19.2293C27.9177 19.1272 27.8666 19.0081 27.8464 18.8818C27.8407 18.8494 27.865 18.8186 27.8982 18.8145L28.3534 18.7497C28.3858 18.7457 28.4158 18.7676 28.4215 18.7992L28.5575 19.5346C28.6466 20.0125 28.9107 20.4394 29.2995 20.731L30.1694 21.3846C30.2642 21.4559 30.3752 21.4899 30.4845 21.4899C30.6757 21.4899 30.8636 21.3871 30.9592 21.1935C31.0734 20.9643 30.9916 20.6848 30.7874 20.5317L29.9313 19.8886C29.7539 19.7558 29.6332 19.5614 29.5935 19.3435L29.4834 18.7506C29.468 18.6655 29.5255 18.5845 29.6113 18.5732C29.6138 18.5756 29.6162 18.5797 29.6194 18.5821L31.2378 20.3325C31.7951 20.9343 32.584 21.2737 33.3956 21.2737C33.5009 21.2737 33.6062 21.268 33.7107 21.2567L34.2534 21.1975C34.5012 21.1708 34.7102 20.9805 34.7353 20.7318C34.771 20.3843 34.481 20.1146 34.1546 20.1494L33.5965 20.2102C33.0068 20.2741 32.4139 20.053 32.0113 19.6172L30.6805 18.1787C30.6319 18.1261 30.6125 18.0532 30.6295 17.9835V17.9827Z" fill="#262626"/>
</svg>
