<svg width="48" height="36" viewBox="0 0 48 36" fill="none" xmlns="http://www.w3.org/2000/svg">
<g clip-path="url(#clip0_62_289)">
<path d="M0 0H48V18H0V0Z" fill="#EF4444"/>
<path d="M0 18H48V36H0V18Z" fill="#262626"/>
<path d="M15.0921 11.4213L15.4472 12.4712C15.4859 12.585 15.5872 12.6617 15.7031 12.665L16.7711 12.6928C17.1748 12.7031 17.3409 13.237 17.0202 13.4923L16.1721 14.1689C16.0802 14.2418 16.0415 14.3665 16.0744 14.4824L16.3794 15.5492C16.4948 15.9525 16.0588 16.2824 15.7266 16.0434L14.8472 15.4115C14.7521 15.3429 14.6262 15.3429 14.5312 15.4115L13.6517 16.0434C13.3196 16.2824 12.884 15.9525 12.9989 15.5492L13.3039 14.4824C13.3368 14.367 13.2982 14.2424 13.2063 14.1689L12.3571 13.4923C12.0364 13.2365 12.203 12.7031 12.6062 12.6928L13.6742 12.665C13.7896 12.6623 13.8914 12.585 13.9301 12.4712L14.2852 11.4213C14.4194 11.0245 14.9579 11.0245 15.0921 11.4213Z" fill="#FBBF24"/>
<path fill-rule="evenodd" clip-rule="evenodd" d="M20.2602 25.6144C20.3697 25.5249 20.3448 25.35 20.2188 25.2845L19.491 24.9057C19.239 24.7739 18.9398 24.7639 18.6803 24.88C16.536 25.8365 13.8437 25.8025 10.9889 24.0461C10.7212 23.882 10.3705 23.9615 10.1998 24.2251L10.0928 24.3901C9.91878 24.6595 9.99669 25.0192 10.2661 25.1933C10.4286 25.2994 10.591 25.3989 10.7535 25.4942C11.0113 25.6451 11.1107 25.9692 10.9831 26.2394L10.9599 26.2899C10.8231 26.5801 10.9475 26.9249 11.2376 27.0617L11.9861 27.4131C12.2762 27.5491 12.6218 27.4247 12.7578 27.1338L12.8382 26.9614C12.9559 26.711 13.2336 26.5759 13.5013 26.6439C13.7069 26.6961 13.9116 26.7417 14.1155 26.779C14.3932 26.8304 14.5922 27.0749 14.5922 27.3567V27.4106C14.5922 27.7356 14.8558 27.9992 15.1807 27.9992H15.993C16.318 27.9992 16.5815 27.7356 16.5815 27.4106C16.5815 27.1205 16.7937 26.8743 17.0806 26.8304C17.3044 26.7956 17.5265 26.7525 17.7437 26.7019C18.0172 26.6373 18.2966 26.779 18.4076 27.0368L18.425 27.0791C18.5519 27.3725 18.8917 27.5084 19.186 27.3833L19.9419 27.06C20.237 26.934 20.3738 26.5917 20.247 26.2966L20.2379 26.2767C20.0348 25.9277 20.1218 25.7271 20.2594 25.6144H20.2602Z" fill="#FBBF24"/>
<path fill-rule="evenodd" clip-rule="evenodd" d="M16.8816 10.0077C23.5817 11.9904 24.5341 17.4753 22.4262 21.3563C22.3043 21.5801 22.3814 21.8594 22.5969 21.9954L23.1515 22.3444C23.3032 22.4397 23.4971 22.4455 23.6513 22.3543C23.8022 22.2648 23.992 22.2457 24.1636 22.3145L24.2274 22.3402C24.5241 22.4587 24.8607 22.3153 24.9809 22.0194L25.2909 21.2552C25.4111 20.9568 25.2668 20.6177 24.9684 20.4984L24.9179 20.4785C24.6551 20.3749 24.5043 20.0964 24.5656 19.8212C24.6079 19.6305 24.6452 19.4382 24.6758 19.2442C24.7206 18.9641 24.9643 18.7593 25.2478 18.7593H25.3191C25.6399 18.7593 25.8993 18.4999 25.8993 18.1791V17.3502C25.8993 17.0294 25.6399 16.7699 25.3191 16.7699H25.2594C24.9751 16.7699 24.7289 16.5635 24.6874 16.2817C24.6518 16.0446 24.6087 15.8084 24.5556 15.5738C24.4935 15.297 24.6477 15.0176 24.9121 14.914L24.9693 14.8916C25.2677 14.7756 25.4152 14.439 25.2992 14.1406L24.9983 13.3706C24.8822 13.073 24.5474 12.9255 24.2498 13.0407L24.1752 13.0689C23.9132 13.17 23.6148 13.0705 23.4714 12.8293C23.362 12.6453 23.2451 12.4654 23.1225 12.2889C22.9617 12.0592 22.994 11.7476 23.1921 11.5503C23.3065 11.4376 23.3628 11.2884 23.3628 11.1392C23.3628 10.99 23.3073 10.8432 23.1946 10.7305L22.6102 10.1428C22.3847 9.91569 22.0184 9.91403 21.7912 10.1387L21.7887 10.1412C21.5898 10.3384 21.2781 10.365 21.0494 10.2033C20.8678 10.0765 20.6797 9.95465 20.4857 9.83943C20.2437 9.69603 20.14 9.39928 20.2403 9.13652L20.2636 9.07518C20.3771 8.77428 20.2254 8.43857 19.9245 8.32584L19.1536 8.03738C18.8552 7.92465 18.5212 8.07551 18.4085 8.37392L18.3927 8.41537C18.2907 8.6831 18.0097 8.83645 17.7296 8.77594C17.5389 8.73532 17.345 8.69885 17.1469 8.66735C16.8153 8.61513 16.5103 8.85883 16.4821 9.19288L16.4647 9.40425C16.4415 9.67945 16.6164 9.93061 16.8816 10.0094V10.0077Z" fill="#FBBF24"/>
<path fill-rule="evenodd" clip-rule="evenodd" d="M28.1597 26.2295L22.7735 22.845L21.5136 22.0534L15.9002 18.5272C15.7369 18.4244 15.5537 18.3764 15.3705 18.3764C14.9751 18.3764 14.5756 18.601 14.3485 18.9972L13.9779 19.6429C13.6455 20.2232 13.8171 20.9377 14.3568 21.2195L19.5615 23.9301L20.9971 24.6777L27.1982 27.908C27.3176 27.9702 27.4469 28 27.577 28C27.7395 28 27.9028 27.9536 28.0487 27.8666C28.1946 27.7795 28.3222 27.6527 28.4151 27.4911C28.6737 27.0393 28.5618 26.4814 28.1597 26.2295Z" fill="#FBBF24"/>
</g>
<defs>
<clipPath id="clip0_62_289">
<rect width="48" height="36" fill="white"/>
</clipPath>
</defs>
</svg>
