<svg width="48" height="36" viewBox="0 0 48 36" fill="none" xmlns="http://www.w3.org/2000/svg">
<rect width="48" height="36" fill="#3B82F6"/>
<path d="M13.7369 18.3149L15.6395 21.6992C16.4217 23.0908 17.9647 24.0052 19.6934 24.102L22.8685 24.2796C23.7867 24.331 24.4907 25.0344 24.4519 25.8619C24.4142 26.6681 24.9946 27.3929 25.8566 27.6153L27.0344 27.9192C27.8111 28.1198 28.6479 27.9411 29.242 27.4481L32.5384 24.7119C33.3156 24.0664 33.8627 23.228 34.1098 22.3021L34.9504 19.1528C35.1887 18.2597 35.046 17.319 34.5503 16.5161L33.7561 15.2306C33.4577 14.7474 33.2495 14.2233 33.1396 13.6794L32.6745 11.3735C32.5406 10.7094 32.0705 10.1393 31.4031 9.83104L28.9469 8.69801C28.514 8.49796 28.0417 8.37553 27.5569 8.33727L23.4216 8.00988C22.2388 7.91641 21.1156 8.49304 20.6029 9.45664L19.5371 11.4604C18.8687 12.7164 17.6378 13.657 16.1522 14.0462C15.8232 14.1325 15.4679 14.0697 15.199 13.8778L12.7744 12.1474C12.3694 11.8583 11.8158 12.2758 12.0601 12.6858L13.4281 14.9786C13.8206 15.6367 13.896 16.4106 13.6369 17.1206C13.4926 17.5147 13.5287 17.9449 13.7369 18.3149Z" fill="#F5F5F5"/>
</svg>
