<svg width="48" height="36" viewBox="0 0 48 36" fill="none" xmlns="http://www.w3.org/2000/svg">
<g clip-path="url(#clip0_62_355)">
<path d="M0 0H48V12H0V0Z" fill="#93C5FD"/>
<path d="M0 12H48V24H0V12Z" fill="#F5F5F5"/>
<path d="M0 24H48V36H0V24Z" fill="#93C5FD"/>
<path fill-rule="evenodd" clip-rule="evenodd" d="M24.3361 12.2867L24.6656 14.3251C24.7139 14.615 25.0785 14.7117 25.263 14.4833L26.5678 12.8797C26.8094 12.581 27.2839 12.8534 27.1477 13.2136L26.4141 15.1466C26.3086 15.419 26.5766 15.687 26.8534 15.5859L28.7864 14.8523C29.1466 14.7161 29.419 15.1906 29.1203 15.4322L27.5167 16.737C27.2883 16.9215 27.3893 17.2905 27.6749 17.3344L29.7133 17.6639C30.0956 17.7254 30.0956 18.2746 29.7133 18.3361L27.6749 18.6656C27.385 18.7139 27.2883 19.0785 27.5167 19.263L29.1203 20.5678C29.419 20.8094 29.1466 21.2839 28.7864 21.1477L26.8534 20.4141C26.581 20.3086 26.313 20.5766 26.4141 20.8534L27.1477 22.7864C27.2839 23.1466 26.8094 23.419 26.5678 23.1203L25.263 21.5167C25.0785 21.2883 24.7095 21.3893 24.6656 21.6749L24.3361 23.7133C24.2746 24.0956 23.7254 24.0956 23.6639 23.7133L23.3344 21.6749C23.2861 21.385 22.9215 21.2883 22.737 21.5167L21.4322 23.1203C21.1906 23.419 20.7161 23.1466 20.8523 22.7864L21.5859 20.8534C21.6914 20.581 21.4234 20.313 21.1466 20.4141L19.2136 21.1477C18.8534 21.2839 18.581 20.8094 18.8797 20.5678L20.4833 19.263C20.7117 19.0785 20.6107 18.7095 20.3251 18.6656L18.2867 18.3361C17.9044 18.2746 17.9044 17.7254 18.2867 17.6639L20.3251 17.3344C20.615 17.2861 20.7117 16.9215 20.4833 16.737L18.8797 15.4322C18.581 15.1906 18.8534 14.7161 19.2136 14.8523L21.1466 15.5859C21.419 15.6914 21.687 15.4234 21.5859 15.1466L20.8523 13.2136C20.7161 12.8534 21.1906 12.581 21.4322 12.8797L22.737 14.4833C22.9215 14.7117 23.2905 14.6107 23.3344 14.3251L23.6639 12.2867C23.7254 11.9044 24.2746 11.9044 24.3361 12.2867Z" fill="#FBBF24"/>
</g>
<defs>
<clipPath id="clip0_62_355">
<rect width="48" height="36" fill="white"/>
</clipPath>
</defs>
</svg>
