<svg width="48" height="36" viewBox="0 0 48 36" fill="none" xmlns="http://www.w3.org/2000/svg">
<g clip-path="url(#clip0_62_401)">
<rect width="48" height="36" fill="#1E3A8A"/>
<path d="M2.49688 18.9363C1.63171 18.6119 1.63171 17.3881 2.49688 17.0637L46.6489 0.506653C47.3026 0.261497 48 0.744776 48 1.44298V34.557C48 35.2552 47.3026 35.7385 46.6489 35.4933L2.49688 18.9363Z" fill="#F5F5F5"/>
<path fill-rule="evenodd" clip-rule="evenodd" d="M45.9466 -1.36597L1.79463 15.191C-0.800873 16.1643 -0.800873 19.8357 1.79463 20.809L45.9466 37.366C47.9079 38.1015 50 36.6516 50 34.557V1.44302C50 -0.651598 47.9079 -2.10143 45.9466 -1.36597ZM2.49688 17.0637C1.63171 17.3881 1.63171 18.6119 2.49688 18.9363L46.6489 35.4934C47.3026 35.7385 48 35.2552 48 34.557V1.44302C48 0.744815 47.3026 0.261536 46.6489 0.506693L2.49688 17.0637Z" fill="#EF4444"/>
<path d="M43.9079 22.9614H27.6217V22.3367C27.6217 21.7466 27.0395 21.3323 26.482 21.5266L24.3583 22.2663L22.2977 22.984C21.9008 23.1221 21.9008 23.6838 22.2977 23.8219L24.3583 24.5396L26.482 25.2793C27.0395 25.4736 27.6217 25.0593 27.6217 24.4692V23.8445H43.9079C44.1515 23.8445 44.3494 23.6471 44.3494 23.4029C44.3494 23.1588 44.152 22.9614 43.9079 22.9614Z" fill="#FBBF24"/>
<path d="M36.7657 9H44.9652C45.5369 9 46.0005 9.46358 46.0005 10.0353V10.228C46.0005 11.2549 45.1684 12.087 44.1415 12.087V12.1631C44.1415 13.5912 42.9839 14.7483 41.5564 14.7483C41.5564 16.0823 40.4749 17.1638 39.1408 17.1638H36.7662V9H36.7657Z" fill="#713F12"/>
<path d="M36.7657 17.1638L41.7643 23.1867C42.3922 23.9432 41.854 25.0887 40.8707 25.0887H39.459C37.9716 25.0887 36.7657 23.8828 36.7657 22.3955V17.1638Z" fill="#D4D4D4"/>
<path d="M24.7143 15.1226V17.1638H23.0049V16.832C23.0049 15.8885 23.7708 15.1231 24.7137 15.1231L24.7143 15.1226Z" fill="#FBBF24"/>
<path d="M36.7657 9H35.3629C31.7283 9 28.782 11.9463 28.782 15.5809C28.782 19.2155 31.7283 22.1618 35.3629 22.1618H36.7657V9Z" fill="#A16207"/>
<path d="M34.503 22.1052L30.7686 22.1057C29.8787 22.1057 29.318 21.1486 29.7522 20.3721L30.1706 19.6245C30.3376 19.8387 30.5177 20.0424 30.7093 20.234C31.7094 21.2336 33.0298 21.9135 34.503 22.1052Z" fill="#713F12"/>
<path d="M28.782 15.5809C28.782 16.1264 28.8487 16.6567 28.9736 17.1638H24.7143V15.3095C24.7143 14.0794 25.7118 13.0819 26.9419 13.0819H29.2729C28.9563 13.8526 28.782 14.6963 28.782 15.5809Z" fill="#D4D4D4"/>
</g>
<defs>
<clipPath id="clip0_62_401">
<rect width="48" height="36" fill="white"/>
</clipPath>
</defs>
</svg>
