<svg width="48" height="36" viewBox="0 0 48 36" fill="none" xmlns="http://www.w3.org/2000/svg">
<g clip-path="url(#clip0_62_601)">
<path d="M0 0H48V12H0V0Z" fill="#93C5FD"/>
<path d="M0 12H48V24H0V12Z" fill="#EF4444"/>
<path d="M0 24H48V36H0V24Z" fill="#22C55E"/>
<path d="M29.4236 15.4463L29.8385 16.601C29.8837 16.7261 30.0021 16.8105 30.1375 16.8141L31.3855 16.8446C31.8572 16.856 32.0512 17.4432 31.6765 17.7239L30.6855 18.4679C30.5781 18.5481 30.533 18.6852 30.5714 18.8127L30.9278 19.9859C31.0626 20.4295 30.5531 20.7922 30.165 20.5295L29.1374 19.8345C29.0263 19.7591 28.8792 19.7591 28.7682 19.8345L27.7406 20.5295C27.3525 20.7922 26.8435 20.4295 26.9778 19.9859L27.3341 18.8127C27.3726 18.6858 27.3274 18.5487 27.22 18.4679L26.2278 17.7239C25.8531 17.4426 26.0478 16.856 26.5189 16.8446L27.7668 16.8141C27.9017 16.8111 28.0207 16.7261 28.0658 16.601L28.4808 15.4463C28.6376 15.0099 29.2667 15.0099 29.4236 15.4463Z" fill="#F5F5F5"/>
<path d="M25.3342 23.0058C25.3342 23.0058 25.3414 23.0058 25.3442 23.0058C25.5829 23.0058 25.6586 23.3285 25.4428 23.4313C24.6783 23.7959 23.8252 24 22.9249 24C19.6552 24 16.9843 21.2822 17.0001 17.9696C17.0158 14.657 19.6624 12 22.9249 12C23.8266 12 24.6812 12.2041 25.4457 12.5687C25.6601 12.6715 25.5829 12.9942 25.3457 12.9942C25.3414 12.9942 25.3385 12.9942 25.3342 12.9942C22.6048 12.9942 20.3912 15.2344 20.3912 18C20.3912 20.7656 22.6048 23.0058 25.3342 23.0058Z" fill="#F5F5F5"/>
</g>
<defs>
<clipPath id="clip0_62_601">
<rect width="48" height="36" fill="white"/>
</clipPath>
</defs>
</svg>
