<svg width="48" height="36" viewBox="0 0 48 36" fill="none" xmlns="http://www.w3.org/2000/svg">
<g clip-path="url(#clip0_88_62)">
<rect width="48" height="36" fill="#1E3A8A"/>
<path fill-rule="evenodd" clip-rule="evenodd" d="M44.31 0V33.41C44.31 34.67 42.81 35.32 41.88 34.46L5.21 0.34C5.1 0.24 5.01 0.12 4.95 0H44.31Z" fill="#FBBF24"/>
<path d="M3.49 3.57999L3.92 4.78999C3.97 4.91999 4.09 5.00999 4.23 5.00999L5.52 5.03999C6.01 5.04999 6.21 5.66999 5.82 5.95999L4.8 6.73999C4.69 6.81999 4.64 6.96999 4.68 7.09999L5.05 8.32999C5.19 8.78999 4.66 9.16999 4.26 8.89999L3.2 8.16999C3.09 8.08999 2.93 8.08999 2.82 8.16999L1.76 8.89999C1.36 9.17999 0.840002 8.79999 0.970002 8.32999L1.34 7.09999C1.38 6.96999 1.34 6.81999 1.22 6.73999L0.200002 5.95999C-0.189998 5.66999 0.0100018 5.04999 0.500002 5.03999L1.79 5.00999C1.93 5.00999 2.05 4.91999 2.1 4.78999L2.53 3.57999C2.69 3.11999 3.34 3.11999 3.5 3.57999H3.49Z" fill="#F5F5F5"/>
<path d="M9.63 9.34L10.06 10.55C10.11 10.68 10.23 10.77 10.37 10.77L11.66 10.8C12.15 10.81 12.35 11.43 11.96 11.72L10.94 12.5C10.83 12.58 10.78 12.73 10.82 12.86L11.19 14.09C11.33 14.55 10.8 14.93 10.4 14.66L9.34 13.93C9.23 13.85 9.07 13.85 8.96 13.93L7.9 14.66C7.5 14.94 6.98 14.56 7.11 14.09L7.48 12.86C7.52 12.73 7.48 12.58 7.36 12.5L6.34 11.72C5.95 11.43 6.15 10.81 6.64 10.8L7.93 10.77C8.07 10.77 8.19 10.68 8.24 10.55L8.67 9.34C8.83 8.88 9.48 8.88 9.64 9.34H9.63Z" fill="#F5F5F5"/>
<path d="M15.77 15.1L16.2 16.31C16.25 16.44 16.37 16.53 16.51 16.53L17.8 16.56C18.29 16.57 18.49 17.19 18.1 17.48L17.08 18.26C16.97 18.34 16.92 18.49 16.96 18.62L17.33 19.85C17.47 20.31 16.94 20.69 16.54 20.42L15.48 19.69C15.37 19.61 15.21 19.61 15.1 19.69L14.04 20.42C13.64 20.7 13.12 20.32 13.25 19.85L13.62 18.62C13.66 18.49 13.62 18.34 13.5 18.26L12.48 17.48C12.09 17.19 12.29 16.57 12.78 16.56L14.07 16.53C14.21 16.53 14.33 16.44 14.38 16.31L14.81 15.1C14.97 14.64 15.62 14.64 15.78 15.1H15.77Z" fill="#F5F5F5"/>
<path d="M21.9 20.86L22.33 22.07C22.38 22.2 22.5 22.29 22.64 22.29L23.93 22.32C24.42 22.33 24.62 22.95 24.23 23.24L23.21 24.02C23.1 24.1 23.05 24.25 23.09 24.38L23.46 25.61C23.6 26.07 23.07 26.45 22.67 26.18L21.61 25.45C21.5 25.37 21.34 25.37 21.23 25.45L20.17 26.18C19.77 26.46 19.25 26.08 19.38 25.61L19.75 24.38C19.79 24.25 19.75 24.1 19.63 24.02L18.61 23.24C18.22 22.95 18.42 22.33 18.91 22.32L20.2 22.29C20.34 22.29 20.46 22.2 20.51 22.07L20.94 20.86C21.1 20.4 21.75 20.4 21.91 20.86H21.9Z" fill="#F5F5F5"/>
<path d="M28.04 26.62L28.47 27.83C28.52 27.96 28.64 28.05 28.78 28.05L30.07 28.08C30.56 28.09 30.76 28.71 30.37 29L29.35 29.78C29.24 29.86 29.19 30.01 29.23 30.14L29.6 31.37C29.74 31.83 29.21 32.21 28.81 31.94L27.75 31.21C27.64 31.13 27.48 31.13 27.37 31.21L26.31 31.94C25.91 32.22 25.39 31.84 25.52 31.37L25.89 30.14C25.93 30.01 25.89 29.86 25.77 29.78L24.75 29C24.36 28.71 24.56 28.09 25.05 28.08L26.34 28.05C26.48 28.05 26.6 27.96 26.65 27.83L27.08 26.62C27.24 26.16 27.89 26.16 28.05 26.62H28.04Z" fill="#F5F5F5"/>
<path d="M36.49 34.77L35.47 35.55C35.36 35.63 35.31 35.78 35.35 35.91L35.38 36H31.99L32.02 35.91C32.06 35.78 32.01 35.63 31.9 35.55L30.88 34.77C30.49 34.47 30.69 33.86 31.18 33.85L32.46 33.82C32.6 33.81 32.73 33.72 32.77 33.59L33.2 32.38C33.36 31.93 34.01 31.93 34.17 32.38L34.6 33.59C34.65 33.72 34.77 33.81 34.91 33.82L36.19 33.85C36.68 33.86 36.88 34.47 36.49 34.77Z" fill="#F5F5F5"/>
</g>
<defs>
<clipPath id="clip0_88_62">
<rect width="48" height="36" fill="white"/>
</clipPath>
</defs>
</svg>
