<svg width="48" height="36" viewBox="0 0 48 36" fill="none" xmlns="http://www.w3.org/2000/svg">
<g clip-path="url(#clip0_87_186)">
<path d="M0 0H16V36H0V0Z" fill="#1E3A8A"/>
<path d="M16 0H32V36H16V0Z" fill="#FBBF24"/>
<path d="M32 0H48V36H32V0Z" fill="#1E3A8A"/>
<path d="M29.7407 13.2146C29.414 12.9076 28.9007 12.9238 28.5936 13.2505C27.2112 14.7222 26.568 17.1657 26.2725 18.9566C26.1845 19.4889 25.6807 19.8582 25.1491 19.7784L24.8089 19.7276V15.0434H25.5238C26.0628 15.0434 26.3996 14.4597 26.1304 13.9931L25.3675 12.6715L24.6046 11.35C24.3355 10.8833 23.6612 10.8833 23.392 11.35L22.6291 12.6715L21.8662 13.9931C21.597 14.4597 21.9338 15.0434 22.4729 15.0434H23.1877V19.7276L22.8475 19.7784C22.3159 19.8575 21.8121 19.4889 21.7242 18.9566C21.4286 17.1657 20.7854 14.7222 19.403 13.2505C19.096 12.9238 18.5826 12.9076 18.256 13.2146C17.9293 13.5217 17.9131 14.035 18.2201 14.3617C19.0811 15.2781 19.7567 17.0034 20.1226 19.2211C20.333 20.4946 21.4503 21.4124 22.7055 21.4124C22.8313 21.4124 22.9591 21.4029 23.087 21.384L23.1884 21.3691V24.5438C23.1884 24.9922 23.5516 25.3553 24 25.3553C24.4484 25.3553 24.8116 24.9922 24.8116 24.5438V21.3691L24.913 21.384C25.0409 21.4029 25.1687 21.4124 25.2945 21.4124C26.5497 21.4124 27.667 20.4946 27.8774 19.2211C28.2439 17.0034 28.9196 15.2781 29.7799 14.3617C30.0869 14.035 30.0707 13.5217 29.744 13.2146H29.7407Z" fill="#262626"/>
</g>
<defs>
<clipPath id="clip0_87_186">
<rect width="48" height="36" fill="white"/>
</clipPath>
</defs>
</svg>
