<svg width="48" height="36" viewBox="0 0 48 36" fill="none" xmlns="http://www.w3.org/2000/svg">
<g clip-path="url(#clip0_91_357)">
<path d="M24 17.91L19.83 20.72L18.21 21.81L17.06 22.59H17.05L5.91 30.09L0 34.07V1.91003L22.1 16.64L22.51 16.92L24 17.91Z" fill="#22C55E"/>
<path d="M48 0V2.01L24.14 18L24 17.91L22.51 16.92H22.5L22.48 16.91L22.1 16.65C22.1 16.65 22.1 16.65 22.09 16.65L0 1.99V0H48Z" fill="#EF4444"/>
<path d="M48 33.99V36H0V34.01L5.91 30.09L18.36 21.83L19.85 20.84L24.14 18L28.18 20.7L29.83 21.81C29.84 21.81 29.85 21.81 29.86 21.82L30.54 22.29L30.59 22.32L31.09 22.66L48 33.99Z" fill="#EF4444"/>
<path d="M48 1.91003V34.07L30.96 22.59L29.78 21.8H29.77L28.18 20.72L24.14 18L24 17.91L25.49 16.92L25.92 16.63L48 1.91003Z" fill="#22C55E"/>
<path d="M48 0V6.34L35.1 14.94C35.37 15.91 35.52 16.94 35.52 18C35.52 19.13 35.35 20.23 35.05 21.26L48 29.89V36H44.18L30.95 27.18C29.01 28.64 26.61 29.52 24 29.52C21.39 29.52 18.87 28.6 16.91 27.06L3.5 36H0V29.68L12.91 21.07C12.64 20.09 12.48 19.07 12.48 18C12.48 17 12.62 16.04 12.86 15.12L0 6.55V0H3.16L16.75 9.06C18.73 7.45 21.25 6.48 24 6.48C26.75 6.48 29.15 7.41 31.11 8.94L44.52 0H48Z" fill="#F5F5F5"/>
<path d="M24.47 11.5L24.88 12.71C24.92 12.84 25.04 12.93 25.17 12.93L26.4 12.96C26.87 12.97 27.06 13.59 26.69 13.88L25.71 14.66C25.6 14.74 25.56 14.89 25.6 15.02L25.95 16.25C26.08 16.71 25.58 17.09 25.2 16.82L24.19 16.09C24.08 16.01 23.94 16.01 23.83 16.09L22.82 16.82C22.44 17.1 21.94 16.72 22.07 16.25L22.42 15.02C22.46 14.89 22.42 14.74 22.31 14.66L21.33 13.88C20.96 13.59 21.15 12.97 21.62 12.96L22.85 12.93C22.98 12.93 23.1 12.84 23.14 12.71L23.55 11.5C23.7 11.04 24.32 11.04 24.48 11.5H24.47Z" fill="#EF4444"/>
<path d="M30.23 17.26L30.64 18.47C30.68 18.6 30.8 18.69 30.93 18.69L32.16 18.72C32.63 18.73 32.82 19.35 32.45 19.64L31.47 20.42C31.36 20.5 31.32 20.65 31.36 20.78L31.71 22.01C31.84 22.47 31.34 22.85 30.96 22.58L29.95 21.85C29.84 21.77 29.7 21.77 29.59 21.85L28.58 22.58C28.2 22.86 27.7 22.48 27.83 22.01L28.18 20.78C28.22 20.65 28.18 20.5 28.07 20.42L27.09 19.64C26.72 19.35 26.91 18.73 27.38 18.72L28.61 18.69C28.74 18.69 28.86 18.6 28.9 18.47L29.31 17.26C29.46 16.8 30.08 16.8 30.24 17.26H30.23Z" fill="#EF4444"/>
<path d="M18.71 17.26L19.12 18.47C19.16 18.6 19.28 18.69 19.41 18.69L20.64 18.72C21.11 18.73 21.3 19.35 20.93 19.64L19.95 20.42C19.84 20.5 19.8 20.65 19.84 20.78L20.19 22.01C20.32 22.47 19.82 22.85 19.44 22.58L18.43 21.85C18.32 21.77 18.18 21.77 18.07 21.85L17.06 22.58C16.68 22.86 16.18 22.48 16.31 22.01L16.66 20.78C16.7 20.65 16.66 20.5 16.55 20.42L15.57 19.64C15.2 19.35 15.39 18.73 15.86 18.72L17.09 18.69C17.22 18.69 17.34 18.6 17.38 18.47L17.79 17.26C17.94 16.8 18.56 16.8 18.72 17.26H18.71Z" fill="#EF4444"/>
</g>
<defs>
<clipPath id="clip0_91_357">
<rect width="48" height="36" fill="white"/>
</clipPath>
</defs>
</svg>
