<svg width="48" height="36" viewBox="0 0 48 36" fill="none" xmlns="http://www.w3.org/2000/svg">
<rect width="48" height="36" fill="#22C55E"/>
<path fill-rule="evenodd" clip-rule="evenodd" d="M27.7491 31.0225L43.9254 20.0821C45.3594 19.1122 45.3579 16.9251 43.9225 15.9576L27.634 4.97303C25.7064 3.67295 23.2259 3.67605 21.3012 4.97999L5.07292 15.9753C3.63743 16.9483 3.64336 19.1401 5.08479 20.1037L21.4385 31.0395C23.3624 32.3264 25.8311 32.3195 27.7491 31.0225Z" fill="#FBBF24"/>
<path fill-rule="evenodd" clip-rule="evenodd" d="M33.9296 18.0075C33.9296 23.222 29.6942 27.4501 24.4648 27.4501C19.2458 27.4419 15.0215 23.2042 15.0296 17.9852C15.0378 12.7662 19.2658 8.54412 24.4908 8.55006C29.709 8.55599 33.9341 12.7899 33.9296 18.0075Z" fill="#3B82F6"/>
<path fill-rule="evenodd" clip-rule="evenodd" d="M33.3066 21.4047C33.4905 20.9277 33.6344 20.4367 33.7368 19.936C28.7077 15.5225 23.1074 13.2602 16.031 13.7275C15.7744 14.2245 15.563 14.7429 15.4005 15.2778C23.7824 14.4767 29.939 18.1854 33.3066 21.4047Z" fill="#F5F5F5"/>
</svg>
