<svg width="48" height="36" viewBox="0 0 48 36" fill="none" xmlns="http://www.w3.org/2000/svg">
<g clip-path="url(#clip0_92_60)">
<rect width="48" height="36" fill="#EF4444"/>
<path d="M48 0L0 36V0H48Z" fill="#FBBF24"/>
<path d="M11.897 21.045C12.1859 19.8022 13.4231 18.7297 14.8903 18.8092C15.1758 18.8248 15.4635 18.8081 15.7502 18.812C16.0006 18.8154 16.1303 18.7102 16.1203 18.4469C16.1125 18.2343 16.1142 18.0217 16.1203 17.8091C16.1325 17.3377 16.3791 17.0944 16.8483 17.0928C17.6158 17.0905 18.3833 17.0872 19.1503 17.0955C19.9045 17.1033 20.5429 17.3833 21.0059 17.9855C21.3939 18.4903 21.7478 19.0213 22.1168 19.5406C22.905 20.0994 23.5122 20.8246 24.0487 21.6194C24.5814 22.4075 25.0706 23.2262 25.6567 23.9776C26.1576 24.6193 26.7247 25.1843 27.5374 25.418C28.0177 25.5566 28.493 25.5138 28.9332 25.2783C29.9779 24.7201 30.5835 23.2151 29.4219 21.9895C28.9811 21.5242 28.4251 21.232 27.8713 20.9359C27.0704 20.5079 26.3769 19.9575 25.8186 19.2345C25.5019 18.8243 25.2276 18.3874 24.9465 17.9543C24.642 17.9449 24.3365 17.9465 24.0331 17.9232C22.9395 17.8402 22.118 17.1351 21.8397 16.0737C21.646 15.3351 21.7445 14.5848 21.7261 13.8396C21.7144 13.3687 21.9477 13.1544 22.4291 13.1505C22.7185 13.1483 23.0079 13.1505 23.2979 13.1505C23.028 13.0425 22.7703 12.934 22.5393 12.7648C21.7835 12.2099 21.6477 11.4257 21.7395 10.5675C21.7679 10.3031 21.9588 10.1706 22.2237 10.1634C22.5193 10.1556 22.8148 10.1556 23.1103 10.1522C22.9573 9.93017 22.8398 9.69474 22.7853 9.42536C22.6985 9.00013 22.7079 8.98065 23.1393 8.98009C23.9808 8.97954 24.8224 8.98232 25.6639 8.97564C25.7374 8.97509 25.8888 9.06302 25.8737 8.86377C25.8426 8.44522 25.5776 8.19143 25.1496 8.18475C24.8352 8.17974 24.5201 8.17195 24.2062 8.18753C23.9814 8.19866 23.8267 8.13911 23.702 7.93596C23.5233 7.64542 23.3079 7.37771 23.1131 7.09664C23.063 7.02428 22.9601 6.95304 23.0096 6.85731C23.0558 6.76714 23.1699 6.7844 23.2623 6.7844C23.919 6.7844 24.5758 6.78273 25.232 6.78551C25.8737 6.78829 26.398 7.03542 26.7904 7.54858C27.0364 7.87028 27.2045 8.23539 27.2585 8.63112C27.2991 8.92889 27.4216 9.00792 27.7054 8.98677C28.0455 8.96173 28.39 8.97008 28.7312 8.99178C29.2967 9.02685 29.7965 9.22555 30.0375 9.77433C30.1844 10.1088 30.382 10.2535 30.7366 10.2118C30.8551 10.1979 30.9781 10.199 31.0967 10.2118C31.5453 10.258 31.9282 10.1317 32.2721 9.83388C32.4887 9.64632 32.7491 9.51886 33.043 9.47879C33.1421 9.46543 33.289 9.51775 33.2846 9.33575C33.2807 9.16989 33.289 8.98622 33.0836 8.92499C32.9701 8.89104 32.8476 8.87768 32.7285 8.87546C32.3773 8.86934 32.0228 8.84485 31.6749 8.87935C31.0182 8.94392 30.6013 8.63836 30.323 8.08178C30.2651 7.96657 30.2156 7.8469 30.1616 7.72947C29.7475 6.83783 29.9919 6.86733 28.8275 6.85954C28.3577 6.8562 27.8841 6.91297 27.4177 6.81668C27.1639 6.76436 27.0548 6.57123 27.1205 6.32077C27.1928 6.04359 27.4216 6.01521 27.6453 6.01131C28.1908 6.00185 28.7373 5.99072 29.2822 6.01298C29.9685 6.04081 30.5217 6.28515 30.7466 7.01148C30.8173 7.23968 30.9341 7.4534 31.021 7.67715C31.125 7.94597 31.316 8.05673 31.6009 8.05172C32.0445 8.04338 32.4914 8.01944 32.9322 8.06007C33.7014 8.13076 34.0315 8.48697 34.1077 9.11423C34.2246 10.0799 34.2469 11.0472 34.2213 12.0173C34.209 12.4743 33.9241 12.7743 33.4732 12.8277C33.3363 12.8439 33.1972 12.8544 33.0591 12.855C32.153 12.8572 31.2464 12.8611 30.3403 12.8539C30.0063 12.8511 29.7214 12.944 29.4976 13.1962C29.4208 13.283 29.2956 13.3604 29.3473 13.5001C29.403 13.6498 29.5494 13.6014 29.6624 13.6019C30.7627 13.6047 31.8636 13.6025 32.964 13.6041C33.3052 13.6041 33.4554 13.7956 33.3931 14.139C33.2818 14.7512 32.5616 15.364 31.9254 15.3702C31.0744 15.3779 30.2234 15.3718 29.3729 15.3724C29.0824 15.3724 29.0601 15.4035 29.1236 15.6902C29.2182 16.1176 29.4804 16.4238 29.8048 16.7037C30.4277 17.2414 31.1835 17.5614 31.8647 18.0033C33.6953 19.1905 34.7317 20.8352 34.8246 23.0415C34.8875 24.5359 34.5613 25.9223 33.687 27.154C33.5912 27.2892 33.6419 27.3644 33.712 27.4674C34.0999 28.0417 34.4845 28.6189 34.8719 29.1944C34.9866 29.3647 35.0517 29.5378 34.9482 29.7382C34.8435 29.9413 34.6632 29.9792 34.4573 29.9781C33.9207 29.9753 33.3803 29.9358 32.8493 29.9881C32.2093 30.0515 31.7495 29.869 31.4918 29.2612C31.4167 29.0837 31.3159 29.0898 31.1506 29.1777C29.8549 29.8645 28.4757 30.1283 27.0247 29.8907C25.006 29.5595 23.3981 28.5449 22.177 26.9047C21.3438 25.7854 20.4983 24.6756 19.6546 23.5641C19.3562 23.1711 18.9137 23.0359 18.4741 23.1878C18.0616 23.3303 17.8384 23.6787 17.839 24.1819C17.8401 24.8943 17.8418 25.6062 17.8462 26.3186C17.8473 26.4755 17.8485 26.6342 17.873 26.7883C17.957 27.3143 18.2826 27.6232 18.8091 27.6911C19.1202 27.7312 19.4325 27.7657 19.7425 27.8124C20.7187 27.9599 21.2453 28.4686 21.2876 29.2979C21.3104 29.751 21.1122 29.9742 20.6553 29.9758C19.6935 29.9792 18.7306 29.9959 17.77 29.9597C17.101 29.9341 16.4654 29.7426 15.8821 29.387C15.0901 28.9039 14.5396 28.2143 14.1155 27.4072C13.7292 27.4078 13.3424 27.4161 12.9562 27.4072C12.4714 27.3961 12.1185 27.1679 11.9042 26.7299C11.8781 26.6759 11.8808 26.5974 11.7968 26.5857V21.2571C11.8987 21.2209 11.8803 21.119 11.897 21.0472V21.045Z" fill="#F5F5F5"/>
</g>
<defs>
<clipPath id="clip0_92_60">
<rect width="48" height="36" fill="white"/>
</clipPath>
</defs>
</svg>
