<svg width="48" height="36" viewBox="0 0 48 36" fill="none" xmlns="http://www.w3.org/2000/svg">
<g clip-path="url(#clip0_92_179)">
<path d="M0 0H48V24H0V0Z" fill="#EF4444"/>
<path d="M0 24H48V36H0V24Z" fill="#22C55E"/>
<path d="M7.55 0H0V36H7.55V0Z" fill="#F5F5F5"/>
<path fill-rule="evenodd" clip-rule="evenodd" d="M5.59999 2.5L4.13999 1.04L2.67999 2.5L4.13999 3.96L5.59999 2.5ZM4.86999 0.3C4.46999 -0.1 3.80999 -0.1 3.40999 0.3L1.94999 1.76C1.54999 2.16 1.54999 2.82 1.94999 3.22L3.40999 4.68C3.80999 5.08 4.46999 5.08 4.86999 4.68L6.32999 3.22C6.72999 2.82 6.72999 2.16 6.32999 1.76L4.86999 0.3Z" fill="#EF4444"/>
<path fill-rule="evenodd" clip-rule="evenodd" d="M5.59999 7.66992L4.13999 6.20992L2.67999 7.66992L4.13999 9.12992L5.59999 7.66992ZM4.86999 5.46992C4.46999 5.06992 3.80999 5.06992 3.40999 5.46992L1.94999 6.92992C1.54999 7.32992 1.54999 7.98992 1.94999 8.38992L3.40999 9.84992C3.80999 10.2499 4.46999 10.2499 4.86999 9.84992L6.32999 8.38992C6.72999 7.98992 6.72999 7.32992 6.32999 6.92992L4.86999 5.46992Z" fill="#EF4444"/>
<path fill-rule="evenodd" clip-rule="evenodd" d="M5.59999 12.8301L4.13999 11.3701L2.67999 12.8301L4.13999 14.2901L5.59999 12.8301ZM4.86999 10.6401C4.46999 10.2401 3.80999 10.2401 3.40999 10.6401L1.94999 12.1001C1.54999 12.5001 1.54999 13.1601 1.94999 13.5601L3.40999 15.0201C3.80999 15.4201 4.46999 15.4201 4.86999 15.0201L6.32999 13.5601C6.72999 13.1601 6.72999 12.5001 6.32999 12.1001L4.86999 10.6401Z" fill="#EF4444"/>
<path fill-rule="evenodd" clip-rule="evenodd" d="M5.59999 18L4.13999 16.54L2.67999 18L4.13999 19.46L5.59999 18ZM4.86999 15.8C4.46999 15.4 3.80999 15.4 3.40999 15.8L1.94999 17.26C1.54999 17.66 1.54999 18.32 1.94999 18.72L3.40999 20.18C3.80999 20.58 4.46999 20.58 4.86999 20.18L6.32999 18.72C6.72999 18.32 6.72999 17.66 6.32999 17.26L4.86999 15.8Z" fill="#EF4444"/>
<path fill-rule="evenodd" clip-rule="evenodd" d="M5.59999 23.1699L4.13999 21.7099L2.67999 23.1699L4.13999 24.6299L5.59999 23.1699ZM4.86999 20.9699C4.46999 20.5699 3.80999 20.5699 3.40999 20.9699L1.94999 22.4299C1.54999 22.8299 1.54999 23.4899 1.94999 23.8899L3.40999 25.3499C3.80999 25.7499 4.46999 25.7499 4.86999 25.3499L6.32999 23.8899C6.72999 23.4899 6.72999 22.8299 6.32999 22.4299L4.86999 20.9699Z" fill="#EF4444"/>
<path fill-rule="evenodd" clip-rule="evenodd" d="M5.59999 28.3301L4.13999 26.8701L2.67999 28.3301L4.13999 29.7901L5.59999 28.3301ZM4.86999 26.1401C4.46999 25.7401 3.80999 25.7401 3.40999 26.1401L1.94999 27.6001C1.54999 28.0001 1.54999 28.6601 1.94999 29.0601L3.40999 30.5201C3.80999 30.9201 4.46999 30.9201 4.86999 30.5201L6.32999 29.0601C6.72999 28.6601 6.72999 28.0001 6.32999 27.6001L4.86999 26.1401Z" fill="#EF4444"/>
<path fill-rule="evenodd" clip-rule="evenodd" d="M5.59999 33.5L4.13999 32.04L2.67999 33.5L4.13999 34.96L5.59999 33.5ZM4.86999 31.3C4.46999 30.9 3.80999 30.9 3.40999 31.3L1.94999 32.76C1.54999 33.16 1.54999 33.82 1.94999 34.22L3.40999 35.68C3.80999 36.08 4.46999 36.08 4.86999 35.68L6.32999 34.22C6.72999 33.82 6.72999 33.16 6.32999 32.76L4.86999 31.3Z" fill="#EF4444"/>
<path fill-rule="evenodd" clip-rule="evenodd" d="M0 36V0H0.72V36H0Z" fill="#EF4444"/>
</g>
<defs>
<clipPath id="clip0_92_179">
<rect width="48" height="36" fill="white"/>
</clipPath>
</defs>
</svg>
