<svg width="48" height="36" viewBox="0 0 48 36" fill="none" xmlns="http://www.w3.org/2000/svg">
<g clip-path="url(#clip0_92_246)">
<path d="M0 0H12V36H0V0Z" fill="#EF4444"/>
<path d="M12 0H24V36H12V0Z" fill="#F5F5F5"/>
<path d="M24 0H36V36H24V0Z" fill="#F5F5F5"/>
<path d="M36 0H48V36H36V0Z" fill="#EF4444"/>
<path d="M32.9079 17.8072C32.4662 17.6612 32.1829 17.2217 32.2493 16.761C32.3406 16.1295 32.672 15.3264 32.9093 14.6554C32.986 14.4379 32.7881 14.224 32.5647 14.2831C31.7463 14.4992 30.7957 14.8102 30.4716 14.6722C30.1715 14.5386 29.9817 14.0604 29.7795 13.6297C29.6918 13.4428 29.4407 13.4063 29.3042 13.5618L27.3439 15.779C27.3125 15.8148 27.2731 15.8426 27.2293 15.8586C27.1081 15.9032 26.9993 15.89 26.9183 15.8228C26.8431 15.7601 26.8153 15.6571 26.8328 15.5607L27.7031 10.8546C27.7469 10.6152 27.4936 10.4326 27.2804 10.5509L26.1422 11.1824C26.0553 11.2569 25.9472 11.2576 25.8363 11.1802C25.799 11.154 25.7698 11.1167 25.7494 11.0758L24.3104 8.16062C24.2571 8.05403 24.1556 8 24.0527 8C23.9497 8 23.8483 8.05403 23.795 8.16062L22.356 11.0758C22.3355 11.1167 22.3063 11.154 22.2691 11.1802C22.1581 11.2576 22.0501 11.2569 21.9632 11.1824L20.825 10.5509C20.6118 10.4326 20.3585 10.6152 20.4023 10.8546L21.2725 15.5607C21.29 15.6571 21.2623 15.7601 21.1871 15.8228C21.1061 15.89 20.9973 15.9032 20.8761 15.8586C20.8323 15.8426 20.7929 15.8148 20.7615 15.779L18.8012 13.5618C18.6647 13.4063 18.4135 13.4428 18.3259 13.6297C18.1237 14.0604 17.9338 14.5386 17.6338 14.6722C17.3096 14.8102 16.3591 14.4992 15.5406 14.2831C15.3172 14.224 15.1194 14.4379 15.196 14.6554C15.4333 15.3264 15.7648 16.1295 15.856 16.761C15.9225 17.2217 15.6392 17.6612 15.1975 17.8072C14.9865 17.8773 14.931 18.1496 15.0975 18.2964L19.1451 21.8555C19.1837 21.8891 19.213 21.9329 19.2283 21.9818C19.329 22.3031 19.3436 22.5491 19.3079 22.7543C19.2276 23.2171 19.6006 23.6311 20.0672 23.572C20.6191 23.5026 21.2762 23.4194 21.8763 23.3434C22.8137 23.2252 23.6373 23.9691 23.6146 24.9146L23.5526 27.4983C23.546 27.7772 23.7731 28.005 24.0527 27.9999C24.3323 28.005 24.5594 27.7772 24.5528 27.4983L24.4907 24.9146C24.4681 23.9691 25.2916 23.2252 26.2291 23.3434C26.8292 23.4194 27.4863 23.5026 28.0382 23.572C28.5047 23.6311 28.8778 23.2171 28.7975 22.7543C28.7617 22.5491 28.7763 22.3031 28.8771 21.9818C28.8924 21.9329 28.9216 21.8891 28.9603 21.8555L33.0079 18.2964C33.1743 18.1496 33.1189 17.8773 32.9079 17.8072Z" fill="#EF4444"/>
</g>
<defs>
<clipPath id="clip0_92_246">
<rect width="48" height="36" fill="white"/>
</clipPath>
</defs>
</svg>
