<svg width="48" height="36" viewBox="0 0 48 36" fill="none" xmlns="http://www.w3.org/2000/svg">
<g clip-path="url(#clip0_92_306)">
<path d="M48 0H0V36H48V0Z" fill="#3B82F6"/>
<path fill-rule="evenodd" clip-rule="evenodd" d="M48 0.36V4.33L5.78 36H0V31.68L42.24 0H47.79L48 0.36Z" fill="#EF4444"/>
<path fill-rule="evenodd" clip-rule="evenodd" d="M38.77 0L0 29.08V31.68L42.24 0H38.77ZM47.79 0L48 0.36V0H47.79ZM5.78 36H9.25L48 6.93V4.33L5.78 36Z" fill="#FBBF24"/>
<path d="M10.8148 4.57369L11.5243 6.58022C11.6019 6.80194 11.8014 6.94605 12.0342 6.94605L14.1627 7.00148C14.972 7.02365 15.3046 8.04355 14.6616 8.53132L12.9655 9.82836C12.777 9.97248 12.6994 10.2053 12.7659 10.427L13.3756 12.4668C13.6084 13.2428 12.7326 13.8747 12.0675 13.4091L10.3159 12.2007C10.1275 12.0677 9.87251 12.0677 9.68405 12.2007L7.9325 13.4091C7.26735 13.8636 6.40266 13.2317 6.62437 12.4668L7.23409 10.427C7.30061 10.2053 7.22301 9.97248 7.03455 9.82836L5.33842 8.53132C4.69544 8.04355 5.02802 7.02365 5.83728 7.00148L7.96576 6.94605C8.19856 6.94605 8.3981 6.79085 8.4757 6.58022L9.18519 4.57369C9.45125 3.80877 10.5266 3.80877 10.7926 4.57369H10.8148Z" fill="#FBBF24"/>
</g>
<defs>
<clipPath id="clip0_92_306">
<rect width="48" height="36" fill="white"/>
</clipPath>
</defs>
</svg>
