<svg width="48" height="36" viewBox="0 0 48 36" fill="none" xmlns="http://www.w3.org/2000/svg">
<g clip-path="url(#clip0_92_366)">
<path d="M0 0H48V9H0V0Z" fill="#3B82F6"/>
<path d="M0 9H48V18H0V9Z" fill="#F5F5F5"/>
<path d="M0 18H48V27H0V18Z" fill="#22C55E"/>
<path d="M0 27H48V36H0V27Z" fill="#FBBF24"/>
<path d="M20 0H28V36H20V0Z" fill="#EF4444"/>
<path d="M7.03871 2.2998L7.40948 3.34838C7.45003 3.46424 7.55431 3.53955 7.67597 3.53955L8.78827 3.56852C9.21118 3.58011 9.38498 4.11308 9.04897 4.36799L8.1626 5.0458C8.06412 5.12111 8.02356 5.24277 8.05832 5.35863L8.37695 6.42459C8.49861 6.83011 8.04094 7.16033 7.69335 6.91701L6.77802 6.28555C6.67953 6.21603 6.54629 6.21603 6.4478 6.28555L5.53247 6.91701C5.18488 7.15454 4.733 6.82432 4.84887 6.42459L5.1675 5.35863C5.20226 5.24277 5.1617 5.12111 5.06322 5.0458L4.17685 4.36799C3.84084 4.11308 4.01464 3.58011 4.43755 3.56852L5.54985 3.53955C5.67151 3.53955 5.77579 3.45845 5.81634 3.34838L6.18711 2.2998C6.32614 1.90007 6.88809 1.90007 7.02713 2.2998H7.03871Z" fill="#FBBF24"/>
</g>
<defs>
<clipPath id="clip0_92_366">
<rect width="48" height="36" fill="white"/>
</clipPath>
</defs>
</svg>
