<svg width="48" height="36" viewBox="0 0 48 36" fill="none" xmlns="http://www.w3.org/2000/svg">
<rect width="48" height="36" fill="#EF4444"/>
<path d="M32.1709 14.6644H29.1424C28.1396 14.6644 27.3233 13.8514 27.3233 12.8451V9.81939C27.3267 8.81306 26.5137 8 25.5076 8H22.4791C21.4763 8 20.66 8.81306 20.66 9.81939V12.8484C20.66 13.8514 19.8471 14.6678 18.8409 14.6678H15.8191C14.8129 14.6644 14 15.4775 14 16.4838V19.5128C14 20.5158 14.8129 21.3322 15.8191 21.3322H18.8476C19.8504 21.3322 20.6667 22.1453 20.6667 23.1516V26.1806C20.6667 27.1836 21.4796 28 22.4858 28H25.5142C26.5171 28 27.3333 27.1869 27.3333 26.1806V23.1516C27.3333 22.1486 28.1463 21.3322 29.1524 21.3322H32.1809C33.1837 21.3322 34 20.5192 34 19.5128V16.4838C34 15.4808 33.1871 14.6644 32.1809 14.6644H32.1709Z" fill="#F5F5F5"/>
</svg>
