<svg width="48" height="36" viewBox="0 0 48 36" fill="none" xmlns="http://www.w3.org/2000/svg">
<g clip-path="url(#clip0_92_525)">
<path d="M0 0H48V18H0V0Z" fill="#F5F5F5"/>
<path d="M0 18H48V36H0V18Z" fill="#EF4444"/>
<rect width="22" height="18" fill="#1E3A8A"/>
<path d="M11.7567 5.03563L12.4228 6.92538C12.4953 7.13012 12.6854 7.26825 12.9029 7.27413L14.9062 7.32409C15.6635 7.34271 15.975 8.30375 15.3735 8.76321L13.7826 9.98091C13.6102 10.1122 13.5377 10.3365 13.5994 10.5452L14.1715 12.4653C14.388 13.1912 13.57 13.7849 12.9469 13.3548L11.2972 12.2175C11.1189 12.094 10.8828 12.094 10.7045 12.2175L9.05477 13.3548C8.43171 13.7849 7.61468 13.1912 7.83021 12.4653L8.40232 10.5452C8.46404 10.3375 8.39155 10.1132 8.21913 9.98091L6.62621 8.76321C6.02471 8.30277 6.33722 7.34271 7.09351 7.32409L9.0969 7.27413C9.3134 7.26923 9.50443 7.13012 9.57693 6.92538L10.2431 5.03563C10.4949 4.32146 11.5049 4.32146 11.7567 5.03563Z" fill="#F5F5F5"/>
</g>
<defs>
<clipPath id="clip0_92_525">
<rect width="48" height="36" fill="white"/>
</clipPath>
</defs>
</svg>
