<svg width="48" height="36" viewBox="0 0 48 36" fill="none" xmlns="http://www.w3.org/2000/svg">
<rect width="48" height="36" fill="#EF4444"/>
<path d="M10.3124 6.78391L11.0263 8.79764C11.0996 9.01732 11.3101 9.16377 11.5389 9.17292L13.6808 9.22784C14.4863 9.24615 14.825 10.2713 14.1751 10.7656L12.4725 12.0654C12.2895 12.2027 12.2071 12.4407 12.2803 12.6695L12.8936 14.7198C13.1224 15.4979 12.2529 16.1294 11.5847 15.6718L9.82724 14.4544C9.63502 14.3262 9.38788 14.3262 9.19566 14.4544L7.43822 15.6718C6.77003 16.1294 5.90047 15.4979 6.1293 14.7198L6.74257 12.6695C6.80664 12.4498 6.73342 12.2118 6.55035 12.0654L4.84783 10.7656C4.2071 10.2713 4.53662 9.24615 5.34211 9.22784L7.48399 9.17292C7.71282 9.17292 7.92335 9.01732 7.99658 8.79764L8.71053 6.78391C8.97598 6.02418 10.0561 6.02418 10.3215 6.78391H10.3124Z" fill="#FBBF24"/>
<path d="M16.5092 2.92116L17.3604 3.31475C17.452 3.36052 17.5618 3.34221 17.635 3.26898L18.3307 2.60994C18.5961 2.36281 19.0172 2.57333 18.9623 2.93031L18.825 3.8731C18.8066 3.97379 18.8616 4.07448 18.9531 4.12024L19.7769 4.5596C20.0881 4.72436 20.0057 5.20033 19.6579 5.27356L18.7243 5.45663C18.6236 5.47493 18.5412 5.55731 18.5229 5.658L18.3398 6.59164C18.2666 6.94862 17.7998 7.031 17.635 6.71063L17.1957 5.88683C17.1499 5.7953 17.0492 5.74953 16.9485 5.75869L16.0057 5.89599C15.6488 5.95091 15.4382 5.5207 15.6854 5.26441L16.3444 4.56875C16.4176 4.49553 16.4359 4.38569 16.3902 4.29416L15.9966 3.4429C15.8501 3.12253 16.1888 2.7747 16.5092 2.93031V2.92116Z" fill="#FBBF24"/>
<path d="M20.2071 8.92574L21.0858 8.60538C21.1774 8.56876 21.2414 8.47723 21.2506 8.37654L21.278 7.41545C21.278 7.04931 21.7357 6.90286 21.9462 7.18661L22.5137 7.94634C22.5778 8.02872 22.6785 8.06533 22.7792 8.03787L23.6762 7.76327C24.0149 7.66259 24.2895 8.05618 24.0881 8.34908L23.5572 9.14542C23.5023 9.2278 23.5023 9.3468 23.5572 9.42918L24.0881 10.2255C24.2895 10.5276 24.0149 10.9212 23.6762 10.8113L22.7792 10.5367C22.6785 10.5093 22.5778 10.5367 22.5137 10.6283L21.9462 11.3971C21.7357 11.69 21.2872 11.5344 21.278 11.1683L21.2506 10.2072C21.2506 10.1065 21.1865 10.015 21.0858 9.97837L20.2071 9.65801C19.8776 9.53902 19.8776 9.05389 20.2071 8.9349V8.92574Z" fill="#FBBF24"/>
<path d="M20.4909 16.651L20.8844 15.7998C20.9302 15.7082 20.9119 15.5984 20.8387 15.5252L20.1796 14.8295C19.9325 14.5641 20.143 14.143 20.5 14.1979L21.4428 14.3352C21.5435 14.3535 21.6442 14.2986 21.6899 14.2071L22.1293 13.3833C22.2941 13.0721 22.77 13.1545 22.8433 13.5023L23.0263 14.4359C23.0446 14.5366 23.127 14.619 23.2277 14.6373L24.1613 14.8204C24.5183 14.8936 24.6007 15.3604 24.2803 15.5343L23.4565 15.9737C23.365 16.0195 23.3192 16.1201 23.3284 16.2208L23.4657 17.1636C23.5206 17.5206 23.0904 17.7311 22.8341 17.484L22.1385 16.8249C22.0652 16.7517 21.9554 16.7334 21.8638 16.7792L21.0126 17.1728C20.6922 17.3192 20.3444 16.9806 20.5 16.6602L20.4909 16.651Z" fill="#FBBF24"/>
<path d="M17.1957 22.2529L16.8753 21.3742C16.8387 21.2827 16.7471 21.2186 16.6465 21.2095L15.6854 21.182C15.3192 21.182 15.1728 20.7243 15.4565 20.5138L16.2163 19.9463C16.2986 19.8822 16.3352 19.7815 16.3078 19.6808L16.0332 18.7838C15.9325 18.4452 16.3261 18.1706 16.619 18.3719L17.4153 18.9028C17.4977 18.9577 17.6167 18.9577 17.6991 18.9028L18.4954 18.3719C18.7975 18.1706 19.1911 18.4452 19.0812 18.7838L18.8066 19.6808C18.7792 19.7815 18.8066 19.8822 18.8982 19.9463L19.6671 20.5138C19.96 20.7243 19.8044 21.1728 19.4382 21.182L18.4771 21.2095C18.3764 21.2095 18.2849 21.2735 18.2483 21.3742L17.9279 22.2529C17.8089 22.5824 17.3238 22.5824 17.2048 22.2529H17.1957Z" fill="#FBBF24"/>
</svg>
