<svg width="48" height="36" viewBox="0 0 48 36" fill="none" xmlns="http://www.w3.org/2000/svg">
<rect width="48" height="36" fill="#F5F5F5"/>
<mask id="mask0_92_785" style="mask-type:luminance" maskUnits="userSpaceOnUse" x="14" y="7" width="26" height="22">
<path d="M39.92 7.93506H14V28.0651H39.92V7.93506Z" fill="white"/>
</mask>
<g mask="url(#mask0_92_785)">
<path d="M16.89 15.1551L15.7 16.1451C15.5 16.3051 15.23 16.3651 14.99 16.2851C14.4 16.0951 13.84 16.6651 14.05 17.2551L15.1 20.1851C15.18 20.3951 15.34 20.5651 15.55 20.6351L21.08 22.6551C21.83 22.9251 22.65 22.8851 23.37 22.5451L29.54 19.5951C29.98 19.3851 30.31 19.0051 30.46 18.5351C30.64 17.9751 31.15 17.5951 31.74 17.5851L34.44 17.5551C35.16 17.5551 35.61 16.7651 35.26 16.1351L34.11 14.0851C33.92 13.7551 34.02 13.3251 34.33 13.1051L39.62 9.31505C40.36 8.78505 39.7 7.64505 38.87 8.02505L30.79 11.7251C30.69 11.7751 30.57 11.7951 30.46 11.7951L23.39 11.6151C22.37 11.5851 21.48 12.2851 21.26 13.2851L21.07 14.1651C20.99 14.5451 20.64 14.7951 20.26 14.7551L18.82 14.6051C18.14 14.5351 17.45 14.7351 16.92 15.1751L16.89 15.1551Z" fill="#FB923C"/>
<path d="M22.08 28.0651C19.47 28.0651 17.03 26.7851 15.53 24.6451C15.3 24.3151 15.38 23.8651 15.71 23.6351C16.04 23.4051 16.49 23.4851 16.72 23.8151C17.94 25.5651 19.94 26.6051 22.07 26.6051C22.47 26.6051 22.8 26.9351 22.8 27.3351C22.8 27.7351 22.47 28.0651 22.07 28.0651H22.08Z" fill="#22C55E"/>
<path d="M24.56 28.0651C24.16 28.0651 23.83 27.7351 23.83 27.3351C23.83 26.9351 24.16 26.6051 24.56 26.6051C26.69 26.6051 28.69 25.5651 29.91 23.8151C30.14 23.4851 30.59 23.4051 30.92 23.6351C31.25 23.8651 31.33 24.3151 31.1 24.6451C29.61 26.7851 27.16 28.0651 24.55 28.0651H24.56Z" fill="#22C55E"/>
</g>
</svg>
