<svg width="48" height="36" viewBox="0 0 48 36" fill="none" xmlns="http://www.w3.org/2000/svg">
<g clip-path="url(#clip0_92_1065)">
<path d="M0 0H24V36H0V0Z" fill="#22C55E"/>
<path d="M24 0H48V36H24V0Z" fill="#F5F5F5"/>
<path d="M30.5498 14.6304L30.5423 16.4708C30.5418 16.6703 30.6653 16.85 30.8544 16.9245L32.5978 17.6078C33.2568 17.8658 33.2291 18.7931 32.5569 18.9966L30.7784 19.5369C30.5858 19.5949 30.4518 19.7649 30.4406 19.9643L30.3411 21.8009C30.3036 22.4953 29.3993 22.7451 28.987 22.1756L27.8951 20.6689C27.7772 20.5056 27.5699 20.4301 27.3747 20.4795L25.5697 20.9318C24.8878 21.1031 24.3566 20.3307 24.7734 19.7744L25.8776 18.3035C25.9969 18.1444 26.0035 17.928 25.8936 17.759L24.8767 16.2012C24.4929 15.6124 25.0683 14.8854 25.7381 15.1111L27.5128 15.7083C27.7044 15.7733 27.9158 15.7145 28.0436 15.5613L29.2209 14.1467C29.6658 13.612 30.5526 13.9348 30.5498 14.6304Z" fill="#EF4444"/>
<path d="M27.5014 25.5087C27.5014 25.5087 27.5121 25.5087 27.5164 25.5087C27.8743 25.5087 27.9879 25.9928 27.6643 26.1469C26.5175 26.6939 25.2378 27 23.8873 27C18.9828 27 14.9765 22.9233 15.0001 17.9544C15.0237 12.9855 18.9936 9 23.8873 9C25.2399 9 26.5217 9.30608 27.6686 9.85311C27.9901 10.0072 27.8743 10.4913 27.5185 10.4913C27.5121 10.4913 27.5078 10.4913 27.5014 10.4913C23.4072 10.4913 20.0868 13.8517 20.0868 18C20.0868 22.1483 23.4072 25.5087 27.5014 25.5087Z" fill="#EF4444"/>
</g>
<defs>
<clipPath id="clip0_92_1065">
<rect width="48" height="36" fill="white"/>
</clipPath>
</defs>
</svg>
