<svg width="48" height="36" viewBox="0 0 48 36" fill="none" xmlns="http://www.w3.org/2000/svg">
<g clip-path="url(#clip0_92_1102)">
<path d="M0 0H48V18H0V0Z" fill="#FBBF24"/>
<path d="M0 18H48V27H0V18Z" fill="#3B82F6"/>
<path d="M0 27H48V36H0V27Z" fill="#EF4444"/>
<path d="M24.08 10.3C21.02 10.3 18.54 13.72 18.54 17.94H29.62C29.62 13.72 27.14 10.3 24.08 10.3Z" fill="#93C5FD"/>
<path d="M24.08 25.5799C27.14 25.5799 29.62 22.1599 29.62 17.9399H18.54C18.54 22.1599 21.02 25.5799 24.08 25.5799Z" fill="#22C55E"/>
<path d="M24.08 26.64C20.44 26.64 17.48 22.74 17.48 17.94C17.48 13.14 20.44 9.23999 24.08 9.23999C27.72 9.23999 30.68 13.14 30.68 17.94C30.68 22.74 27.72 26.64 24.08 26.64ZM24.08 11.36C21.65 11.36 19.6 14.37 19.6 17.94C19.6 21.51 21.65 24.52 24.08 24.52C26.51 24.52 28.56 21.51 28.56 17.94C28.56 14.37 26.51 11.36 24.08 11.36Z" fill="#EF4444"/>
<path d="M24.08 11.36C23.5 11.36 23.02 10.89 23.02 10.3C23.02 7.35004 26.5 5.04004 30.95 5.04004C31.53 5.04004 32.01 5.51004 32.01 6.10004C32.01 6.69004 31.54 7.16004 30.95 7.16004C28.2 7.16004 25.13 8.45004 25.13 10.31C25.13 10.89 24.66 11.37 24.07 11.37L24.08 11.36Z" fill="#A16207"/>
<path d="M24.08 11.36C23.5 11.36 23.02 10.89 23.02 10.3C23.02 8.45003 19.95 7.15003 17.2 7.15003C16.62 7.15003 16.14 6.68003 16.14 6.09003C16.14 5.50003 16.61 5.03003 17.2 5.03003C21.65 5.03003 25.13 7.34003 25.13 10.29C25.13 10.87 24.66 11.35 24.07 11.35L24.08 11.36Z" fill="#A16207"/>
<path d="M15.71 23.6799C15.25 23.6799 14.83 23.3799 14.7 22.9199C14.23 21.3299 14 19.6599 14 17.9399C14 16.2199 14.24 14.5499 14.7 12.9599C14.86 12.3999 15.45 12.0799 16.01 12.2399C16.57 12.3999 16.89 12.9899 16.73 13.5499C16.32 14.9399 16.11 16.4199 16.11 17.9299C16.11 19.4399 16.32 20.9199 16.73 22.3099C16.89 22.8699 16.57 23.4599 16.01 23.6199C15.91 23.6499 15.81 23.6599 15.71 23.6599V23.6799Z" fill="#FBBF24"/>
<path d="M32.46 23.68C32.36 23.68 32.26 23.67 32.16 23.64C31.6 23.47 31.28 22.89 31.45 22.33C31.86 20.95 32.07 19.48 32.07 17.95C32.07 16.42 31.86 14.95 31.45 13.57C31.28 13.01 31.6 12.42 32.16 12.26C32.72 12.09 33.31 12.41 33.47 12.97C33.94 14.55 34.18 16.22 34.18 17.95C34.18 19.68 33.94 21.36 33.47 22.93C33.33 23.39 32.91 23.69 32.46 23.69V23.68Z" fill="#FBBF24"/>
</g>
<defs>
<clipPath id="clip0_92_1102">
<rect width="48" height="36" fill="white"/>
</clipPath>
</defs>
</svg>
