<svg width="48" height="36" viewBox="0 0 48 36" fill="none" xmlns="http://www.w3.org/2000/svg">
<g clip-path="url(#clip0_92_1197)">
<path d="M0 0H48V12H0V0Z" fill="#EF4444"/>
<path d="M0 12H48V24H0V12Z" fill="#F5F5F5"/>
<path d="M0 24H48V36H0V24Z" fill="#262626"/>
<path d="M26.9606 14.5215C26.2055 14.7456 25.4339 14.8925 24.6575 14.9655V12H23.5305C22.9814 12 22.5242 12.3932 22.4241 12.9135C21.8815 13.0096 21.4695 13.4824 21.4695 14.052H22.4036V14.9655C21.6271 14.8925 20.8555 14.7456 20.1004 14.5215C19.0523 14.2104 18 14.9951 18 16.0884V21.412C18 22.0367 18.6952 22.4101 19.2164 22.0654L21.1445 20.2531L20.2449 21.8109C19.9814 22.2681 19.9814 22.8131 20.2449 23.2703C20.5083 23.7275 20.9811 24 21.5089 24H25.5521C26.0799 24 26.5518 23.7275 26.8161 23.2703C27.0796 22.8131 27.0796 22.2681 26.8161 21.8109L25.9166 20.2531L27.8446 22.0654C28.365 22.4109 29.061 22.0375 29.061 21.412V16.0884C29.061 14.9951 28.0088 14.2096 26.9606 14.5207V14.5215ZM25.8205 22.6949C25.7934 22.7417 25.7138 22.8501 25.5521 22.8501H21.5089C21.3472 22.8501 21.2668 22.7417 21.2405 22.6949C21.2134 22.6482 21.1601 22.525 21.2405 22.3847L22.9477 19.4274C23.1234 19.1237 23.414 19.0908 23.5305 19.0908C23.6471 19.0908 23.9376 19.1237 24.1133 19.4274L25.8205 22.3847C25.901 22.5242 25.8476 22.6482 25.8205 22.6949Z" fill="#FBBF24"/>
</g>
<defs>
<clipPath id="clip0_92_1197">
<rect width="48" height="36" fill="white"/>
</clipPath>
</defs>
</svg>
