<svg width="48" height="36" viewBox="0 0 48 36" fill="none" xmlns="http://www.w3.org/2000/svg">
<g clip-path="url(#clip0_92_1216)">
<path d="M0 0H48V12H0V0Z" fill="#262626"/>
<path d="M0 12H48V24H0V12Z" fill="#F5F5F5"/>
<path d="M0 24H48V36H0V24Z" fill="#22C55E"/>
<path d="M26.5187 20.63C28.4938 19.48 28.4938 16.52 26.5187 15.37L0 0V36L26.5187 20.63Z" fill="#EF4444"/>
<path d="M38.989 15.6874L39.3852 16.7898C39.4283 16.9092 39.5413 16.9898 39.6707 16.9932L40.862 17.0224C41.3124 17.0332 41.4976 17.5939 41.1399 17.8619L40.1938 18.5722C40.0913 18.6488 40.0482 18.7796 40.0849 18.9014L40.4251 20.0214C40.5539 20.4449 40.0674 20.7912 39.6969 20.5403L38.7158 19.8769C38.6098 19.8048 38.4694 19.8048 38.3633 19.8769L37.3823 20.5403C37.0118 20.7912 36.5259 20.4449 36.6541 20.0214L36.9943 18.9014C37.031 18.7802 36.9879 18.6493 36.8853 18.5722L35.9381 17.8619C35.5804 17.5933 35.7662 17.0332 36.2159 17.0224L37.4073 16.9932C37.5361 16.9904 37.6497 16.9092 37.6928 16.7898L38.089 15.6874C38.2387 15.2709 38.8393 15.2709 38.989 15.6874Z" fill="#EF4444"/>
<path d="M38.2507 21.7543C38.2507 21.7543 38.256 21.7543 38.2582 21.7543C38.4372 21.7543 38.494 21.9964 38.3321 22.0734C37.7587 22.347 37.1189 22.5 36.4437 22.5C33.9914 22.5 31.9883 20.4616 32.0001 17.9772C32.0118 15.4928 33.9968 13.5 36.4437 13.5C37.12 13.5 37.7609 13.653 38.3343 13.9266C38.495 14.0036 38.4372 14.2457 38.2593 14.2457C38.256 14.2457 38.2539 14.2457 38.2507 14.2457C36.2036 14.2457 34.5434 15.9258 34.5434 18C34.5434 20.0742 36.2036 21.7543 38.2507 21.7543Z" fill="#EF4444"/>
</g>
<defs>
<clipPath id="clip0_92_1216">
<rect width="48" height="36" fill="white"/>
</clipPath>
</defs>
</svg>
