<svg width="48" height="36" viewBox="0 0 48 36" fill="none" xmlns="http://www.w3.org/2000/svg">
<g clip-path="url(#clip0_92_1249)">
<path d="M0 7.2C0 3.22 2.87 0 6.4 0H41.6C45.13 0 48 3.22 48 7.2V28.8C48 32.78 45.13 36 41.6 36H6.4C2.87 36 0 32.78 0 28.8V7.2Z" fill="#22C55E"/>
<path d="M48 0H0V18H48V0Z" fill="#22C55E"/>
<path d="M48 18H0V36H48V18Z" fill="#93C5FD"/>
<path d="M47.02 19.47C48.25 19.04 48.25 16.96 47.02 16.53L0 0V36L47.02 19.47Z" fill="#EF4444"/>
<path d="M14.05 8.28978C8.44 8.10978 3.83 12.7098 4.01 18.3298C4.18 23.4198 8.31 27.5598 13.4 27.7198C19.01 27.8998 23.62 23.2998 23.44 17.6798C23.27 12.5898 19.14 8.44978 14.05 8.28978ZM6.65 17.9998C6.65 14.8198 8.76 12.1298 11.65 11.2398C12.03 11.1198 12.41 11.4098 12.41 11.7998V24.1898C12.41 24.5798 12.03 24.8698 11.65 24.7498C8.76 23.8598 6.65 21.1698 6.65 17.9898V17.9998ZM15.05 24.1998V11.7998C15.05 11.4098 15.43 11.1198 15.81 11.2398C18.7 12.1298 20.81 14.8198 20.81 17.9998C20.81 21.1798 18.7 23.8698 15.81 24.7598C15.43 24.8798 15.05 24.5898 15.05 24.1998Z" fill="#FBBF24"/>
</g>
<defs>
<clipPath id="clip0_92_1249">
<rect width="48" height="36" fill="white"/>
</clipPath>
</defs>
</svg>
