<svg width="48" height="36" viewBox="0 0 48 36" fill="none" xmlns="http://www.w3.org/2000/svg">
<g clip-path="url(#clip0_93_1566)">
<path d="M0 0H48V9H0V0Z" fill="#EF4444"/>
<path d="M0 9H48V18H0V9Z" fill="#FBBF24"/>
<path d="M0 18H48V27H0V18Z" fill="#FBBF24"/>
<path d="M0 27H48V36H0V27Z" fill="#EF4444"/>
<path d="M18.9678 11.3033C18.9383 11.2689 18.906 11.2342 18.8716 11.1997C18.499 10.8264 18.002 10.6206 17.4738 10.6206C17.2838 10.6206 17.0966 10.648 16.9157 10.7014C16.8374 10.6778 16.757 10.6596 16.6755 10.6469V10.3203C16.6755 10.2322 16.6397 10.1521 16.5814 10.0938C16.5231 10.0355 16.4437 10 16.3548 10C16.1778 10 16.0342 10.1436 16.0342 10.3203V10.6473C15.9537 10.6606 15.874 10.6789 15.7964 10.7017C15.6148 10.648 15.4269 10.6206 15.2359 10.6206C14.6623 10.6206 14.1183 10.8692 13.7432 11.3019C13.431 11.6609 13.2589 12.1213 13.2589 12.5976C13.2589 12.7749 13.4022 12.9182 13.5796 12.9182H14.2423C14.2721 12.9161 14.302 12.9147 14.3325 12.9147H18.3771C18.4077 12.9147 18.4375 12.9161 18.4674 12.9182H19.1301C19.3075 12.9182 19.4508 12.7749 19.4508 12.5979C19.4508 12.121 19.2787 11.6609 18.9678 11.3033ZM14.4045 12.2773H13.9392C13.9891 12.0736 14.0878 11.8828 14.2272 11.7216C14.3933 11.5299 14.609 11.3922 14.8471 11.3199C14.6142 11.5941 14.4621 11.9257 14.4045 12.2773ZM16.0342 12.2773H15.0582C15.108 12.0736 15.2067 11.8828 15.3461 11.7216C15.5284 11.5116 15.7694 11.3662 16.0342 11.3005V12.2773ZM16.6755 12.2773V11.3002C16.9097 11.3574 17.1243 11.4779 17.2992 11.6532C17.3221 11.676 17.3438 11.6988 17.3639 11.7223C17.5036 11.8828 17.6016 12.0736 17.6515 12.2773H16.6755ZM18.3051 12.2773C18.2475 11.9243 18.0947 11.592 17.8615 11.3184C18.0694 11.3813 18.2605 11.4948 18.4182 11.6532C18.4414 11.676 18.4628 11.6988 18.4828 11.7223C18.6226 11.8828 18.7206 12.0736 18.7705 12.2773H18.3051Z" fill="#EF4444"/>
<path d="M16.3548 13.5557V18.4266H12.1631V14.3469C12.1631 13.91 12.5175 13.5557 12.9544 13.5557H16.3548Z" fill="#EF4444"/>
<path d="M20.5465 14.3469V18.4266H16.3548V13.5557H19.7553C20.1922 13.5557 20.5465 13.91 20.5465 14.3469Z" fill="#F5F5F5"/>
<path d="M20.5465 18.4268V19.8084C20.5465 21.9153 18.991 23.6602 16.9659 23.9552C16.7664 23.9847 16.5627 24.0001 16.3548 24.0001V18.4268H20.5465Z" fill="#EF4444"/>
<path d="M12.1631 18.4268V19.8084C12.1631 21.9153 13.7186 23.6602 15.7437 23.9552C15.9432 23.9847 16.1469 24.0001 16.3548 24.0001V18.4268H12.1631Z" fill="#EF4444"/>
<path d="M18.3511 22.1703C18.297 22.1703 18.2422 22.1665 18.1888 22.1584C17.6466 22.0794 17.2374 21.6056 17.2374 21.0566V19.8801C17.2374 19.6701 17.4085 19.499 17.6185 19.499H19.0834C19.2934 19.499 19.4644 19.6701 19.4644 19.8801V21.0566C19.4644 21.6056 19.0553 22.0794 18.5127 22.1584C18.4593 22.1661 18.4048 22.1703 18.3508 22.1703H18.3511ZM17.6589 19.9205V21.0566C17.6589 21.398 17.9128 21.6923 18.25 21.7415C18.3174 21.7513 18.3855 21.7513 18.4519 21.7415C18.7891 21.6923 19.0433 21.398 19.0433 21.0566V19.9205H17.6589Z" fill="#FBBF24"/>
<path d="M14.7554 14.8311H13.9715C13.7056 14.8311 13.49 15.0466 13.49 15.3126V16.7912C13.49 17.0571 13.7056 17.2727 13.9715 17.2727H14.7554C15.0213 17.2727 15.2369 17.0571 15.2369 16.7912V15.3126C15.2369 15.0466 15.0213 14.8311 14.7554 14.8311Z" fill="#FBBF24"/>
<path d="M18.8428 14.8311H18.0589C17.793 14.8311 17.5774 15.0466 17.5774 15.3126V16.7912C17.5774 17.0571 17.793 17.2727 18.0589 17.2727H18.8428C19.1087 17.2727 19.3243 17.0571 19.3243 16.7912V15.3126C19.3243 15.0466 19.1087 14.8311 18.8428 14.8311Z" fill="#EF4444"/>
<path d="M22.4986 13.7667C22.3679 13.6364 22.1877 13.5557 21.9886 13.5557C21.5903 13.5557 21.2676 13.8784 21.2676 14.2767V23.2203C21.2676 23.6186 21.5903 23.9413 21.9886 23.9413C22.3869 23.9413 22.7096 23.6186 22.7096 23.2203V14.2767C22.7096 14.0776 22.6289 13.8974 22.4986 13.7667Z" fill="#F5F5F5"/>
<path d="M11.231 13.7667C11.1003 13.6364 10.9202 13.5557 10.721 13.5557C10.3228 13.5557 10 13.8784 10 14.2767V23.2203C10 23.6186 10.3228 23.9413 10.721 23.9413C11.1193 23.9413 11.4421 23.6186 11.4421 23.2203V14.2767C11.4421 14.0776 11.3613 13.8974 11.231 13.7667Z" fill="#F5F5F5"/>
<path d="M10.6905 17.0459H12.1631V18.4269H10.6905C10.3094 18.4269 10 18.1174 10 17.7364C10 17.3553 10.3094 17.0459 10.6905 17.0459Z" fill="#EF4444"/>
<path d="M20.5465 17.0459H22.0192C22.4002 17.0459 22.7096 17.3553 22.7096 17.7364C22.7096 18.1174 22.4002 18.4269 22.0192 18.4269H20.5465V17.0459Z" fill="#EF4444"/>
<path d="M13.2333 18.4268H13.2329C13.0401 18.4268 12.8838 18.5831 12.8838 18.7759V21.28C12.8838 21.4728 13.0401 21.6291 13.2329 21.6291H13.2333C13.4261 21.6291 13.5824 21.4728 13.5824 21.28V18.7759C13.5824 18.5831 13.4261 18.4268 13.2333 18.4268Z" fill="#FBBF24"/>
<path d="M14.6082 18.4268H14.6079C14.4151 18.4268 14.2588 18.5831 14.2588 18.7759V22.3979C14.2588 22.5907 14.4151 22.747 14.6079 22.747H14.6082C14.801 22.747 14.9573 22.5907 14.9573 22.3979V18.7759C14.9573 18.5831 14.801 18.4268 14.6082 18.4268Z" fill="#FBBF24"/>
<path d="M15.9836 18.4268H15.9832C15.7904 18.4268 15.6341 18.5831 15.6341 18.7759V23.218C15.6341 23.4108 15.7904 23.5671 15.9832 23.5671H15.9836C16.1764 23.5671 16.3327 23.4108 16.3327 23.218V18.7759C16.3327 18.5831 16.1764 18.4268 15.9836 18.4268Z" fill="#FBBF24"/>
<path d="M16.3548 19.2687C16.8198 19.2687 17.1967 18.8918 17.1967 18.4268C17.1967 17.9619 16.8198 17.585 16.3548 17.585C15.8899 17.585 15.513 17.9619 15.513 18.4268C15.513 18.8918 15.8899 19.2687 16.3548 19.2687Z" fill="#3B82F6"/>
</g>
<defs>
<clipPath id="clip0_93_1566">
<rect width="48" height="36" fill="white"/>
</clipPath>
</defs>
</svg>
