<svg width="48" height="36" viewBox="0 0 48 36" fill="none" xmlns="http://www.w3.org/2000/svg">
<g clip-path="url(#clip0_93_1765)">
<path d="M0 0H48V12H0V0Z" fill="#22C55E"/>
<path d="M0 12H48V24H0V12Z" fill="#FBBF24"/>
<path d="M0 24H48V36H0V24Z" fill="#EF4444"/>
<path d="M32 18C32 22.4183 28.4183 26 24 26C19.5817 26 16 22.4183 16 18C16 13.5817 19.5817 10 24 10C28.4183 10 32 13.5817 32 18Z" fill="#3B82F6"/>
<path d="M24.8014 14.6439L25.3654 16.2437C25.4267 16.417 25.5876 16.5339 25.7717 16.5389L27.4677 16.5812C28.1088 16.597 28.3725 17.4105 27.8633 17.7995L26.5165 18.8304C26.3705 18.9415 26.3091 19.1314 26.3614 19.3081L26.8457 20.9336C27.029 21.5481 26.3365 22.0507 25.809 21.6866L24.4124 20.7237C24.2615 20.6192 24.0616 20.6192 23.9107 20.7237L22.5141 21.6866C21.9866 22.0507 21.295 21.5481 21.4774 20.9336L21.9618 19.3081C22.014 19.1322 21.9526 18.9423 21.8067 18.8304L20.4582 17.7995C19.949 17.4097 20.2135 16.597 20.8538 16.5812L22.5498 16.5389C22.733 16.5348 22.8948 16.417 22.9561 16.2437L23.5201 14.6439C23.7332 14.0393 24.5883 14.0393 24.8014 14.6439Z" fill="#FBBF24"/>
</g>
<defs>
<clipPath id="clip0_93_1765">
<rect width="48" height="36" fill="white"/>
</clipPath>
</defs>
</svg>
