<svg width="48" height="36" viewBox="0 0 48 36" fill="none" xmlns="http://www.w3.org/2000/svg">
<rect width="48" height="36" fill="#1E3A8A"/>
<path d="M25.7655 26.3377L24.9022 26.3162C24.8081 26.3135 24.7265 26.2544 24.6951 26.1656L24.4083 25.3507C24.2998 25.0432 23.8641 25.0432 23.7556 25.3507L23.4688 26.1656C23.4374 26.2535 23.3549 26.3135 23.2617 26.3162L22.3984 26.3377C22.0721 26.3458 21.9376 26.76 22.1967 26.9581L22.8834 27.4834C22.9578 27.5408 22.9892 27.6367 22.9623 27.7263L22.7157 28.5538C22.6225 28.8666 22.9748 29.1221 23.2438 28.9375L23.9547 28.4471C24.0317 28.3942 24.133 28.3942 24.2101 28.4471L24.921 28.9375C25.19 29.123 25.5423 28.8666 25.4491 28.5538L25.2025 27.7263C25.1756 27.6367 25.207 27.5399 25.2814 27.4834L25.9672 26.9581C26.2263 26.76 26.0918 26.3458 25.7655 26.3377Z" fill="#FBBF24"/>
<path d="M19.3585 23.6844L18.4952 23.6629C18.4011 23.6602 18.3195 23.601 18.2882 23.5123L18.0013 22.6974C17.8928 22.3899 17.4571 22.3899 17.3487 22.6974L17.0618 23.5123C17.0304 23.6001 16.948 23.6602 16.8547 23.6629L15.9914 23.6844C15.6651 23.6925 15.5307 24.1066 15.7897 24.3048L16.4764 24.8301C16.5508 24.8875 16.5822 24.9834 16.5553 25.073L16.3088 25.9005C16.2155 26.2133 16.5679 26.4688 16.8368 26.2841L17.5477 25.7938C17.6248 25.7409 17.7261 25.7409 17.8032 25.7938L18.5141 26.2841C18.783 26.4697 19.1353 26.2133 19.0421 25.9005L18.7956 25.073C18.7687 24.9834 18.8 24.8866 18.8744 24.8301L19.5602 24.3048C19.8193 24.1066 19.6848 23.6925 19.3585 23.6844Z" fill="#FBBF24"/>
<path d="M16.3886 19.4942L16.142 18.6668C16.1151 18.5771 16.1465 18.4803 16.2209 18.4238L16.9067 17.8985C17.1658 17.7004 17.0313 17.2862 16.705 17.2782L15.8417 17.2566C15.7476 17.254 15.666 17.1948 15.6346 17.106L15.3478 16.2912C15.2393 15.9837 14.8036 15.9837 14.6952 16.2912L14.4083 17.106C14.3769 17.1939 14.2944 17.254 14.2012 17.2566L13.3379 17.2782C13.0116 17.2862 12.8771 17.7004 13.1362 17.8985L13.8229 18.4238C13.8973 18.4812 13.9287 18.5771 13.9018 18.6668L13.6553 19.4942C13.562 19.8071 13.9143 20.0626 14.1833 19.8779L14.8942 19.3875C14.9713 19.3346 15.0726 19.3346 15.1497 19.3875L15.8606 19.8779C16.1295 20.0635 16.4818 19.8071 16.3886 19.4942Z" fill="#FBBF24"/>
<path d="M19.3585 10.8719L18.4952 10.8504C18.4011 10.8477 18.3195 10.7885 18.2882 10.6998L18.0013 9.88491C17.8928 9.57743 17.4571 9.57743 17.3487 9.88491L17.0618 10.6998C17.0304 10.7876 16.948 10.8477 16.8547 10.8504L15.9914 10.8719C15.6651 10.88 15.5307 11.2941 15.7897 11.4923L16.4764 12.0176C16.5508 12.075 16.5822 12.1709 16.5553 12.2605L16.3088 13.088C16.2155 13.4008 16.5679 13.6563 16.8368 13.4716L17.5477 12.9813C17.6248 12.9284 17.7261 12.9284 17.8032 12.9813L18.5141 13.4716C18.783 13.6572 19.1353 13.4008 19.0421 13.088L18.7956 12.2605C18.7687 12.1709 18.8 12.0741 18.8744 12.0176L19.5602 11.4923C19.8193 11.2941 19.6848 10.88 19.3585 10.8719Z" fill="#FBBF24"/>
<path d="M25.7655 8.21762L24.9022 8.1961C24.8081 8.19341 24.7265 8.13424 24.6951 8.0455L24.4083 7.23061C24.2998 6.92313 23.8641 6.92313 23.7557 7.23061L23.4688 8.0455C23.4374 8.13335 23.3549 8.19341 23.2617 8.1961L22.3984 8.21762C22.0721 8.22568 21.9376 8.63985 22.1967 8.83797L22.8834 9.36329C22.9578 9.42066 22.9892 9.51658 22.9623 9.60623L22.7158 10.4337C22.6225 10.7465 22.9748 11.002 23.2438 10.8173L23.9547 10.327C24.0318 10.2741 24.1331 10.2741 24.2102 10.327L24.9211 10.8173C25.19 11.0029 25.5423 10.7465 25.4491 10.4337L25.2025 9.60623C25.1756 9.51658 25.207 9.41977 25.2814 9.36329L25.9672 8.83797C26.2263 8.63985 26.0918 8.22568 25.7655 8.21762Z" fill="#FBBF24"/>
<path d="M28.6029 11.4923L29.2896 12.0176C29.364 12.075 29.3953 12.1709 29.3685 12.2605L29.1219 13.088C29.0287 13.4008 29.381 13.6563 29.6499 13.4716L30.3608 12.9813C30.4379 12.9284 30.5392 12.9284 30.6163 12.9813L31.3272 13.4716C31.5962 13.6572 31.9485 13.4008 31.8552 13.088L31.6087 12.2605C31.5818 12.1709 31.6132 12.0741 31.6876 12.0176L32.3734 11.4923C32.6325 11.2941 32.498 10.88 32.1717 10.8719L31.3084 10.8504C31.2143 10.8477 31.1327 10.7885 31.1013 10.6998L30.8144 9.88491C30.706 9.57743 30.2703 9.57743 30.1618 9.88491L29.875 10.6998C29.8436 10.7876 29.7611 10.8477 29.6679 10.8504L28.8046 10.8719C28.4783 10.88 28.3438 11.2941 28.6029 11.4923Z" fill="#FBBF24"/>
<path d="M34.8251 17.2777L33.9619 17.2562C33.8677 17.2535 33.7861 17.1943 33.7548 17.1056L33.4679 16.2907C33.3594 15.9832 32.9237 15.9832 32.8153 16.2907L32.5284 17.1056C32.497 17.1934 32.4146 17.2535 32.3213 17.2562L31.458 17.2777C31.1317 17.2857 30.9973 17.6999 31.2563 17.898L31.943 18.4233C32.0174 18.4807 32.0488 18.5766 32.0219 18.6663L31.7754 19.4937C31.6822 19.8066 32.0345 20.0621 32.3034 19.8774L33.0143 19.387C33.0914 19.3342 33.1927 19.3342 33.2698 19.387L33.9807 19.8774C34.2496 20.063 34.6019 19.8066 34.5087 19.4937L34.2622 18.6663C34.2353 18.5766 34.2666 18.4798 34.3411 18.4233L35.0268 17.898C35.2859 17.6999 35.1515 17.2857 34.8251 17.2777Z" fill="#FBBF24"/>
<path d="M32.1716 23.6844L31.3084 23.6629C31.2151 23.6611 31.1326 23.601 31.1013 23.5123L30.8144 22.6974C30.7059 22.3899 30.2703 22.3899 30.1618 22.6974L29.8749 23.5123C29.8435 23.6001 29.762 23.6602 29.6678 23.6629L28.8045 23.6844C28.4782 23.6925 28.3438 24.1066 28.6028 24.3048L29.2886 24.8301C29.363 24.8866 29.3944 24.9834 29.3675 25.073L29.121 25.9005C29.0278 26.2133 29.3801 26.4688 29.649 26.2841L30.3599 25.7938C30.437 25.7409 30.5383 25.7409 30.6154 25.7938L31.3263 26.2841C31.5952 26.4697 31.9466 26.2133 31.8543 25.9005L31.6078 25.073C31.5809 24.9834 31.6123 24.8866 31.6867 24.8301L32.3733 24.3048C32.6324 24.1066 32.498 23.6925 32.1716 23.6844Z" fill="#FBBF24"/>
</svg>
