<svg width="48" height="36" viewBox="0 0 48 36" fill="none" xmlns="http://www.w3.org/2000/svg">
<rect width="48" height="36" fill="#93C5FD"/>
<path d="M28.8 0V15.8C28.8 16.18 28.75 16.55 28.64 16.9C28.59 17.08 28.53 17.26 28.45 17.43C28.38 17.6 28.29 17.76 28.2 17.91C27.73 18.67 27.01 19.26 26.15 19.56C25.94 19.64 25.71 19.7 25.47 19.74C25.25 19.78 25.03 19.8 24.8 19.8H0V0H28.8Z" fill="#1E3A8A"/>
<path fill-rule="evenodd" clip-rule="evenodd" d="M28.8 0V2.13L22.52 6.48L20.95 7.56L18.04 9.57L17.57 9.9L17.09 10.23L14.88 11.76L14.41 12.09L13.93 12.42L11.88 13.83L10.8 14.58L3.25 19.8H0V17.67L5.77 13.68L7.34 12.6L10.77 10.23L11.24 9.9L11.71 9.57L13.93 8.04L14.41 7.71L14.88 7.38L16.92 5.97L18 5.23L25.56 0H28.8Z" fill="#EF4444"/>
<path fill-rule="evenodd" clip-rule="evenodd" d="M24.61 0L18 4.57L16.92 5.32L14.41 7.06L13.93 7.38L13.45 7.71L11.24 9.24L10.77 9.57L10.29 9.9L6.39 12.6L4.82 13.68L0 17.01V18.33L6.72 13.68L8.28 12.6L11.24 10.56L11.71 10.23L12.19 9.9L14.4 8.37L14.88 8.04L15.35 7.71L16.92 6.63L18 5.88L26.5 0H24.61ZM21.56 6.48L20 7.56L17.57 9.24L17.09 9.57L16.62 9.9L14.4 11.43L13.93 11.76L13.45 12.09L11.88 13.18L10.8 13.92L2.3 19.8H4.2L10.8 15.24L11.88 14.49L14.41 12.74L14.88 12.42L15.35 12.09L17.57 10.56L18.04 10.23L18.52 9.9L21.9 7.56L23.47 6.48L28.8 2.79V1.48L21.56 6.48ZM14.88 8.04L15.35 7.71L16.92 6.63V5.97L14.88 7.38L14.41 7.71L13.93 8.04L14.4 8.37L14.88 8.04Z" fill="#F5F5F5"/>
<path fill-rule="evenodd" clip-rule="evenodd" d="M28.45 17.43C28.38 17.6 28.29 17.76 28.2 17.91C27.73 18.67 27.01 19.26 26.15 19.56C25.94 19.64 25.71 19.7 25.47 19.74L18 14.57L16.92 13.83L14.88 12.42L14.41 12.09L13.93 11.76L11.71 10.23L11.24 9.9L10.77 9.57L7.86 7.56L6.29 6.48L0 2.13V0H3.25L10.8 5.22L11.88 5.97L13.93 7.38L14.41 7.71L14.88 8.04L17.09 9.57L17.57 9.9L18.04 10.23L21.47 12.6L23.04 13.68L28.45 17.43Z" fill="#EF4444"/>
<path fill-rule="evenodd" clip-rule="evenodd" d="M23.99 13.68L22.42 12.6L18.52 9.9L18.04 9.57L17.57 9.24L15.35 7.71L14.88 7.38L14.41 7.06L11.88 5.31L10.8 4.56L4.2 0H2.3L10.8 5.88L11.88 6.62L13.45 7.71L13.93 8.04L14.4 8.37L16.62 9.9L17.09 10.23L17.57 10.56L20.52 12.6L22.08 13.68L28.2 17.91C28.29 17.76 28.38 17.6 28.45 17.43C28.53 17.26 28.59 17.08 28.64 16.9L23.99 13.68ZM18 13.92L16.92 13.17L15.35 12.09L14.88 11.76L14.4 11.43L12.19 9.9L11.71 9.57L11.24 9.24L8.81 7.56L7.24 6.48L0 1.47V2.79L5.34 6.48L6.91 7.56L10.29 9.9L10.77 10.23L11.24 10.56L13.45 12.09L13.93 12.42L14.41 12.74L16.92 14.48L18 15.23L24.61 19.8H24.8C25.03 19.8 25.25 19.78 25.47 19.74C25.71 19.7 25.94 19.64 26.15 19.56L18 13.92Z" fill="#F5F5F5"/>
<path fill-rule="evenodd" clip-rule="evenodd" d="M28.8 7.56V12.6H16.92V19.8H11.88V12.6H0V7.56H11.88V0H16.92V7.56H28.8Z" fill="#EF4444"/>
<path fill-rule="evenodd" clip-rule="evenodd" d="M16.92 12.6V19.8H18V13.68H28.8V12.6H16.92ZM18 6.48V0H16.92V7.56H28.8V6.48H18ZM10.8 6.48H0V7.56H11.88V0H10.8V6.48ZM0 12.6V13.68H10.8V19.8H11.88V12.6H0Z" fill="#F5F5F5"/>
<path d="M43.878 17.134V25.2073C43.878 28.2179 38.4441 30 38.4441 30C38.4441 30 33.0034 28.2179 33.0034 25.2073V17.134C33.0034 16.5076 33.511 16 34.1374 16H42.744C43.3704 16 43.878 16.5076 43.878 17.134Z" fill="#F5F5F5"/>
<path d="M37.6847 19.2334V22.4418C37.6847 22.9589 37.2655 23.378 36.7484 23.378H33V24.8834H36.7484C37.2655 24.8834 37.6847 25.3025 37.6847 25.8196V29.7098L38.4407 30L39.19 29.7098V25.8264C39.19 25.3093 39.6092 24.8901 40.1262 24.8901H43.8746V23.378H40.1262C39.6092 23.378 39.19 22.9589 39.19 22.4418V19.2334H37.6847Z" fill="#EF4444"/>
<path d="M43.878 17.134V19.2334H33.0034V17.134C33.0034 16.5076 33.511 16 34.1374 16H42.744C43.3704 16 43.878 16.5076 43.878 17.134Z" fill="#EF4444"/>
<path d="M41.8982 16.8276H34.9765C34.5407 16.8276 34.1874 17.1809 34.1874 17.6167V17.6174C34.1874 18.0532 34.5407 18.4065 34.9765 18.4065H41.8982C42.334 18.4065 42.6873 18.0532 42.6873 17.6174V17.6167C42.6873 17.1809 42.334 16.8276 41.8982 16.8276Z" fill="#FBBF24"/>
<path d="M36.2041 20.9922L35.66 20.448C35.5026 20.2907 35.2475 20.2907 35.0901 20.448L34.5459 20.9922C34.3886 21.1496 34.3886 21.4047 34.5459 21.5621L35.0901 22.1062C35.2475 22.2636 35.5026 22.2636 35.66 22.1062L36.2041 21.5621C36.3615 21.4047 36.3615 21.1496 36.2041 20.9922Z" fill="#22C55E"/>
<path d="M42.5696 20.9922L42.0255 20.448C41.8681 20.2907 41.613 20.2907 41.4556 20.448L40.9115 20.9922C40.7541 21.1496 40.7541 21.4047 40.9115 21.5621L41.4556 22.1062C41.613 22.2636 41.8681 22.2636 42.0255 22.1062L42.5696 21.5621C42.727 21.4047 42.727 21.1496 42.5696 20.9922Z" fill="#22C55E"/>
</svg>
