<svg width="48" height="36" viewBox="0 0 48 36" fill="none" xmlns="http://www.w3.org/2000/svg">
<rect width="48" height="36" fill="#93C5FD"/>
<path d="M24.2596 5.45781L24.829 7.07301C24.8909 7.24801 25.0534 7.36608 25.2393 7.3711L26.9516 7.4138C27.5988 7.42971 27.8651 8.25113 27.351 8.64384L25.9912 9.68463C25.8438 9.79684 25.7818 9.98858 25.8346 10.1669L26.3236 11.8081C26.5086 12.4286 25.8095 12.936 25.2769 12.5684L23.8669 11.5962C23.7145 11.4907 23.5127 11.4907 23.3603 11.5962L21.9502 12.5684C21.4177 12.936 20.7194 12.4286 20.9036 11.8081L21.3926 10.1669C21.4453 9.98942 21.3834 9.79767 21.236 9.68463L19.8745 8.64384C19.3604 8.25029 19.6275 7.42971 20.2739 7.4138L21.9862 7.3711C22.1713 7.36691 22.3346 7.24801 22.3965 7.07301L22.9659 5.45781C23.1811 4.8474 24.0444 4.8474 24.2596 5.45781Z" fill="#F5F5F5"/>
<path d="M37.0853 14.5689L36.7708 16.2524C36.737 16.4349 36.8186 16.6184 36.9771 16.7157L38.4387 17.6088C38.9912 17.9462 38.8111 18.7907 38.1695 18.8738L36.4715 19.0952C36.2878 19.1187 36.1382 19.2538 36.0948 19.4346L35.6977 21.1004C35.5477 21.7302 34.6885 21.8201 34.4111 21.2355L33.676 19.6886C33.5968 19.521 33.422 19.4201 33.2373 19.4353L31.5301 19.5721C30.8851 19.6242 30.534 18.8356 31.0038 18.3904L32.2479 17.2136C32.3823 17.0862 32.4245 16.8892 32.3534 16.7176L31.6947 15.1355C31.4462 14.5376 32.0879 13.9606 32.6556 14.27L34.1599 15.0892C34.3222 15.1781 34.5231 15.1567 34.6643 15.0362L35.965 13.922C36.4565 13.501 37.2042 13.9326 37.0853 14.5689Z" fill="#F5F5F5"/>
<path d="M11.2606 13.9223L12.5613 15.0364C12.7024 15.157 12.9021 15.178 13.0656 15.0894L14.5699 14.2703C15.1384 13.9604 15.7797 14.5386 15.5308 15.1358L14.8736 16.7171C14.802 16.8879 14.8443 17.0849 14.9791 17.213L16.2232 18.3898C16.6937 18.8346 16.3419 19.6236 15.6969 19.5716L13.9897 19.4347C13.805 19.4195 13.6302 19.5204 13.551 19.688L12.8159 21.2349C12.5385 21.8195 11.68 21.7293 11.5293 21.0998L11.1322 19.434C11.0891 19.2539 10.9396 19.1189 10.7555 19.0946L9.05598 18.874C8.41397 18.7903 8.235 17.9461 8.78686 17.6091L10.2484 16.7159C10.4066 16.6198 10.4886 16.4352 10.4547 16.2526L10.1402 14.5691C10.0214 13.9329 10.769 13.5013 11.2606 13.9223Z" fill="#F5F5F5"/>
<path d="M26.1757 23.2032L25.6533 24.8343C25.597 25.0111 25.655 25.2034 25.8001 25.3197L27.1387 26.3884C27.6448 26.7922 27.3606 27.6076 26.7136 27.6098L25.0012 27.6174C24.816 27.6178 24.6508 27.7331 24.585 27.9071L23.983 29.5102C23.7555 30.1164 22.8918 30.0983 22.6896 29.4836L22.1535 27.8569C22.0958 27.6808 21.9351 27.5589 21.7499 27.5508L20.0389 27.4734C19.3925 27.4445 19.1427 26.6182 19.6644 26.2351L21.0457 25.223C21.195 25.1134 21.2615 24.9232 21.2124 24.744L20.7565 23.0921C20.5847 22.4678 21.2933 21.9754 21.818 22.3533L23.2082 23.354C23.3581 23.4625 23.5601 23.4664 23.7152 23.3644L25.1449 22.4215C25.6852 22.0652 26.3731 22.5868 26.1757 23.2032Z" fill="#F5F5F5"/>
</svg>
