<svg width="48" height="36" viewBox="0 0 48 36" fill="none" xmlns="http://www.w3.org/2000/svg">
<g clip-path="url(#clip0_93_2511)">
<path d="M0 0H48V18H0V0Z" fill="#F5F5F5"/>
<path d="M0 18H48V36H0V18Z" fill="#22C55E"/>
<path d="M39.4975 16.1272L38.6561 14.6695L37.8147 13.2095C37.4462 12.575 36.5298 12.575 36.1636 13.2095L35.3199 14.6695L34.4785 16.1272C34.1123 16.764 34.5694 17.5577 35.304 17.5577H36.059C35.9248 18.5538 35.072 19.3247 34.0395 19.3247H31.2082C30.8694 19.3247 30.7375 18.8858 31.0217 18.6993C33.5961 17.0164 34.6172 15.47 34.6172 12.1634C34.6172 11.6653 34.4171 11.2173 34.0896 10.8921C33.7644 10.5646 33.3164 10.3645 32.8183 10.3645H23.8172C22.7574 10.3645 21.8978 11.2241 21.8978 12.2839V13.7075C21.8978 14.1419 21.6067 14.5444 21.1792 14.6195C20.6265 14.715 20.1467 14.292 20.1467 13.7575V11.8245C20.1467 11.4106 20.3491 11.0286 20.6811 10.7852C21.1041 10.4714 21.4134 10.012 21.5316 9.48212C21.5862 9.23424 21.3907 9 21.1382 9H16.8264C15.6006 9 14.6068 9.99381 14.6068 11.2196V11.3015C14.6068 11.3265 14.5864 11.3469 14.5613 11.3469C13.3333 11.3469 12.3372 12.3453 12.3418 13.5711C12.3418 13.6279 12.3895 13.6734 12.4464 13.6734H14.0883C14.3749 13.6734 14.6068 13.9054 14.6068 14.1919V19.6385C14.6068 19.9683 14.3407 20.2344 14.011 20.2344C13.7677 20.2344 13.5448 20.0888 13.4606 19.8614C13.14 19.0154 12.3213 18.4173 11.3639 18.4219C11.1592 18.4241 11 18.5992 11 18.8016V22.3721C11 22.786 11.3343 23.1203 11.7482 23.1203H15.9031C16.3716 23.1203 16.7514 23.5001 16.7514 23.9685C16.7514 24.2028 16.5899 24.4075 16.3602 24.4529C15.3618 24.6508 14.6068 25.5332 14.6068 26.5884C14.6068 26.8135 14.7888 27 15.0162 27H18.5593C18.9891 27 19.3371 26.6521 19.3371 26.2222V23.9663C19.3371 23.5001 19.7169 23.1203 20.1831 23.1203H26.4984C26.9646 23.1203 27.3444 23.4978 27.3444 23.9663C27.3444 24.2051 27.1761 24.4075 26.9442 24.4552C25.9481 24.6576 25.1999 25.5377 25.1999 26.5907C25.1999 26.8158 25.3841 27 25.6092 27H29.1546C29.5822 27 29.9301 26.6521 29.9301 26.2222V23.325C29.9301 22.1196 30.9057 21.144 32.1111 21.144H34.0395C36.0749 21.144 37.7442 19.5589 37.8852 17.5577H38.6743C39.4066 17.5577 39.8659 16.764 39.4975 16.1272Z" fill="#EF4444"/>
</g>
<defs>
<clipPath id="clip0_93_2511">
<rect width="48" height="36" fill="white"/>
</clipPath>
</defs>
</svg>
