<svg width="48" height="36" viewBox="0 0 48 36" fill="none" xmlns="http://www.w3.org/2000/svg">
<g clip-path="url(#clip0_95_6)">
<rect width="48" height="36" fill="#F5F5F5"/>
<path fill-rule="evenodd" clip-rule="evenodd" d="M27 0H20V15H0V22H20V36H27V22H48V15H27V0Z" fill="#EF4444"/>
<path fill-rule="evenodd" clip-rule="evenodd" d="M10 3.5C9.26363 3.5 8.66668 4.09695 8.66668 4.83333V6.16623H7.33333C6.59695 6.16623 6 6.76319 6 7.49957C6 8.23595 6.59695 8.8329 7.33333 8.8329H8.66668V10.1667C8.66668 10.903 9.26363 11.5 10 11.5C10.7364 11.5 11.3333 10.903 11.3333 10.1667V8.8329H12.6667C13.403 8.8329 14 8.23595 14 7.49957C14 6.76319 13.403 6.16623 12.6667 6.16623H11.3333V4.83333C11.3333 4.09695 10.7364 3.5 10 3.5Z" fill="#EF4444"/>
<path fill-rule="evenodd" clip-rule="evenodd" d="M37 3.5C36.2636 3.5 35.6667 4.09695 35.6667 4.83333V6.16623H34.3333C33.597 6.16623 33 6.76319 33 7.49957C33 8.23595 33.597 8.8329 34.3333 8.8329H35.6667V10.1667C35.6667 10.903 36.2636 11.5 37 11.5C37.7364 11.5 38.3333 10.903 38.3333 10.1667V8.8329H39.6667C40.403 8.8329 41 8.23595 41 7.49957C41 6.76319 40.403 6.16623 39.6667 6.16623H38.3333V4.83333C38.3333 4.09695 37.7364 3.5 37 3.5Z" fill="#EF4444"/>
<path fill-rule="evenodd" clip-rule="evenodd" d="M10 25C9.26363 25 8.66668 25.597 8.66668 26.3333V27.6662H7.33333C6.59695 27.6662 6 28.2632 6 28.9996C6 29.7359 6.59695 30.3329 7.33333 30.3329H8.66668V31.6667C8.66668 32.403 9.26363 33 10 33C10.7364 33 11.3333 32.403 11.3333 31.6667V30.3329H12.6667C13.403 30.3329 14 29.7359 14 28.9996C14 28.2632 13.403 27.6662 12.6667 27.6662H11.3333V26.3333C11.3333 25.597 10.7364 25 10 25Z" fill="#EF4444"/>
<path fill-rule="evenodd" clip-rule="evenodd" d="M37 25C36.2636 25 35.6667 25.597 35.6667 26.3333V27.6662H34.3333C33.597 27.6662 33 28.2632 33 28.9996C33 29.7359 33.597 30.3329 34.3333 30.3329H35.6667V31.6667C35.6667 32.403 36.2636 33 37 33C37.7364 33 38.3333 32.403 38.3333 31.6667V30.3329H39.6667C40.403 30.3329 41 29.7359 41 28.9996C41 28.2632 40.403 27.6662 39.6667 27.6662H38.3333V26.3333C38.3333 25.597 37.7364 25 37 25Z" fill="#EF4444"/>
</g>
<defs>
<clipPath id="clip0_95_6">
<rect width="48" height="36" fill="white"/>
</clipPath>
</defs>
</svg>
