<svg width="48" height="36" viewBox="0 0 48 36" fill="none" xmlns="http://www.w3.org/2000/svg">
<g clip-path="url(#clip0_95_80)">
<path d="M0 0H48V12H0V0Z" fill="#EF4444"/>
<path d="M0 12H48V24H0V12Z" fill="#FBBF24"/>
<path d="M0 24H48V36H0V24Z" fill="#22C55E"/>
<path d="M25.2622 12.7142L26.1504 15.2338C26.2471 15.5068 26.5005 15.691 26.7905 15.6988L29.4617 15.7655C30.4714 15.7903 30.8867 17.0717 30.0847 17.6843L27.9634 19.3079C27.7335 19.4829 27.6369 19.782 27.7192 20.0603L28.482 22.6204C28.7707 23.5883 27.68 24.3799 26.8492 23.8064L24.6496 22.2899C24.4119 22.1254 24.0971 22.1254 23.8593 22.2899L21.6597 23.8064C20.829 24.3799 19.7396 23.5883 20.0269 22.6204L20.7898 20.0603C20.8721 19.7833 20.7754 19.4842 20.5455 19.3079L18.4216 17.6843C17.6196 17.0704 18.0363 15.7903 19.0447 15.7655L21.7159 15.6988C22.0045 15.6923 22.2592 15.5068 22.3559 15.2338L23.2441 12.7142C23.5798 11.7619 24.9265 11.7619 25.2622 12.7142Z" fill="#262626"/>
</g>
<defs>
<clipPath id="clip0_95_80">
<rect width="48" height="36" fill="white"/>
</clipPath>
</defs>
</svg>
