<svg width="48" height="36" viewBox="0 0 48 36" fill="none" xmlns="http://www.w3.org/2000/svg">
<g clip-path="url(#clip0_95_92)">
<path d="M0 0H48V24H0V0Z" fill="#F5F5F5"/>
<path d="M0 24H48V36H0V24Z" fill="#EF4444"/>
<path d="M32.2577 9.67039V6.69049C32.2577 5.87226 31.5931 5.21126 30.7785 5.21126H29.2278C28.4096 5.21126 27.7486 5.87584 27.7486 6.69049V10.1599C27.7486 10.6494 27.352 11.046 26.8624 11.046C26.3729 11.046 25.9763 10.6494 25.9763 10.1599V5.47923C25.9763 4.66101 25.3118 4 24.4971 4H22.9464C22.1282 4 21.4672 4.66458 21.4672 5.47923V10.1563C21.4672 10.6458 21.0706 11.0424 20.5811 11.0424C20.0916 11.0424 19.695 10.6458 19.695 10.1563V6.69049C19.695 5.87226 19.0304 5.21126 18.2157 5.21126H16.665C15.8468 5.21126 15.1858 5.87584 15.1858 6.69049V9.67039C15.1858 10.3743 14.8321 11.0424 14.2282 11.4033C13.4958 11.8428 13.0063 12.6431 13.0063 13.5578V19.757C13.0063 21.1469 14.1318 22.2724 15.5217 22.2724H31.9326C33.3225 22.2724 34.448 21.1469 34.448 19.757V13.5578C34.448 12.6431 33.9585 11.8392 33.226 11.4033C32.6222 11.0424 32.2684 10.3743 32.2684 9.67039H32.2577Z" fill="#EF4444"/>
<path d="M17.4341 15.2656C18.3381 15.2656 19.0741 16.0017 19.0741 16.9056V19.8784C19.0741 20.1714 18.8383 20.4072 18.5453 20.4072H16.3229C16.0299 20.4072 15.7941 20.1714 15.7941 19.8784V16.9056C15.7941 16.0017 16.5302 15.2656 17.4341 15.2656Z" fill="#262626"/>
<path d="M17.4341 7.76611C18.0094 7.76611 18.481 8.23418 18.481 8.81301V10.7103C18.481 10.8961 18.331 11.0461 18.1452 11.0461H16.7267C16.5409 11.0461 16.3908 10.8961 16.3908 10.7103V8.81301C16.3908 8.23775 16.8589 7.76611 17.4377 7.76611H17.4341Z" fill="#262626"/>
<path d="M23.7191 7.76611C24.2943 7.76611 24.766 8.23418 24.766 8.81301V10.7103C24.766 10.8961 24.6159 11.0461 24.4301 11.0461H23.0116C22.8258 11.0461 22.6758 10.8961 22.6758 10.7103V8.81301C22.6758 8.23775 23.1438 7.76611 23.7226 7.76611H23.7191Z" fill="#262626"/>
<path d="M30.004 7.76611C30.5793 7.76611 31.0509 8.23418 31.0509 8.81301V10.7103C31.0509 10.8961 30.9009 11.0461 30.7151 11.0461H29.2966C29.1108 11.0461 28.9607 10.8961 28.9607 10.7103V8.81301C28.9607 8.23775 29.4288 7.76611 30.0076 7.76611H30.004Z" fill="#262626"/>
<path d="M23.7191 14.3867C24.7767 14.3867 25.6378 15.2478 25.6378 16.3054V19.7498C25.6378 20.1107 25.3448 20.4037 24.9839 20.4037H22.4578C22.0969 20.4037 21.8039 20.1107 21.8039 19.7498V16.3054C21.8039 15.2478 22.665 14.3867 23.7227 14.3867H23.7191Z" fill="#262626"/>
<path d="M30.004 15.2656C30.908 15.2656 31.644 16.0017 31.644 16.9056V19.8784C31.644 20.1714 31.4082 20.4072 31.1152 20.4072H28.8928C28.5998 20.4072 28.364 20.1714 28.364 19.8784V16.9056C28.364 16.0017 29.1 15.2656 30.004 15.2656Z" fill="#262626"/>
<path d="M25.9844 25.556L24.791 24.3626C24.791 24.3626 24.791 24.3626 24.7874 24.359C24.5016 24.0767 24.3301 23.698 24.3301 23.2942V20.4072H23.1188V23.2942C23.1188 23.698 22.9473 24.0767 22.6615 24.359C22.6615 24.359 22.6615 24.359 22.6579 24.3626L21.4645 25.556C20.875 26.1455 20.875 27.1031 21.4645 27.6926L22.6579 28.8896L22.6865 28.9182C22.9652 29.1969 23.1224 29.572 23.1224 29.9651V31.0477C23.1224 31.2085 22.9938 31.3371 22.833 31.3371H21.8254C21.6253 31.3371 21.4645 31.4979 21.4645 31.698V32.3983C21.4645 32.5984 21.6253 32.7592 21.8254 32.7592H22.8187C22.9723 32.7592 23.1081 32.8735 23.1224 33.0271C23.1295 33.1165 23.0974 33.1987 23.0402 33.2558C22.9866 33.3094 22.9151 33.3416 22.8365 33.3416H21.8289C21.6289 33.3416 21.4681 33.5024 21.4681 33.7024V34.4028C21.4681 34.6029 21.6289 34.7636 21.8289 34.7636H22.8365C22.9973 34.7636 23.126 34.8923 23.126 35.0531V35.3782C23.126 35.7176 23.4011 36.0106 23.7405 36.0035C23.9049 36.0035 24.0514 35.932 24.1586 35.8248C24.2693 35.7141 24.3372 35.564 24.3372 35.3961V30.0008C24.3372 29.5863 24.5016 29.1897 24.7946 28.8967H24.7981L25.9915 27.6962C26.5811 27.1066 26.5811 26.1491 25.9915 25.5595L25.9844 25.556ZM25.1268 27.0852L24.3015 27.9106L24.18 28.0321C23.9263 28.2857 23.5118 28.2857 23.2582 28.0321L23.1367 27.9106L22.3113 27.0852C22.0576 26.8315 22.0576 26.4171 22.3113 26.1634L23.2546 25.2201C23.5083 24.9664 23.9227 24.9664 24.1764 25.2201L25.1197 26.1634C25.3734 26.4171 25.3734 26.8315 25.1197 27.0852H25.1268Z" fill="#FBBF24"/>
</g>
<defs>
<clipPath id="clip0_95_92">
<rect width="48" height="36" fill="white"/>
</clipPath>
</defs>
</svg>
