<svg width="48" height="36" viewBox="0 0 48 36" fill="none" xmlns="http://www.w3.org/2000/svg">
<g clip-path="url(#clip0_95_293)">
<path d="M0 0H48V12H0V0Z" fill="#22C55E"/>
<path d="M0 12H48V24H0V12Z" fill="#F5F5F5"/>
<path d="M0 24H48V36H0V24Z" fill="#EF4444"/>
<path d="M18.942 20.63C20.3527 19.48 20.3527 16.52 18.942 15.37L0 0V36L18.942 20.63Z" fill="#3B82F6"/>
<g clip-path="url(#clip1_95_293)">
<path d="M26.361 14.3608H31.8917V20.1515C31.8917 22.1009 29.3502 20.5991 29.1336 21.6388C28.7581 20.5702 26.3754 22.1154 26.3754 20.0359L26.361 14.3608Z" fill="#F5F5F5"/>
<path d="M29.1336 22C28.9812 22 28.844 21.904 28.7935 21.7588C28.7336 21.5884 28.517 21.5632 27.9372 21.5747C27.4137 21.5856 26.8209 21.5978 26.4116 21.1964C26.1444 20.9343 26.0144 20.5552 26.0144 20.0361L26 14.3617C26 14.2657 26.0375 14.174 26.1054 14.1061C26.1733 14.0383 26.265 14 26.361 14H31.8917C32.091 14 32.2527 14.1617 32.2527 14.361V20.1516C32.2527 20.6144 32.1249 20.9733 31.8736 21.2173C31.4534 21.6253 30.8282 21.6072 30.2765 21.5913C29.8318 21.5783 29.5148 21.5798 29.4866 21.7126C29.4534 21.8715 29.3191 21.9884 29.1574 21.9993C29.1495 21.9993 29.1415 22 29.1336 22ZM28.1632 20.8491C28.4982 20.8491 28.8513 20.8773 29.1184 21.0513C29.4404 20.844 29.9162 20.8585 30.2982 20.8693C30.7069 20.8816 31.1704 20.8946 31.3711 20.6996C31.4773 20.5964 31.5307 20.4123 31.5307 20.1516V14.722H26.7227L26.7365 20.0354C26.7365 20.3466 26.7971 20.5632 26.9162 20.6801C27.109 20.8693 27.522 20.8607 27.922 20.8527C28 20.8513 28.0809 20.8491 28.1625 20.8491H28.1632Z" fill="#D4D4D4"/>
<path d="M29.5069 15.712C29.5069 15.5019 29.3365 15.3315 29.1264 15.3315C28.9162 15.3315 28.7458 15.5019 28.7458 15.712V19.9178C28.7458 20.128 28.9162 20.2983 29.1264 20.2983C29.3365 20.2983 29.5069 20.128 29.5069 19.9178V15.712Z" fill="#A16207"/>
<path d="M29.7126 15.3315H28.5408C28.1636 15.3315 27.8578 15.6373 27.8578 16.0146V16.0153C27.8578 16.3925 28.1636 16.6983 28.5408 16.6983H29.7126C30.0899 16.6983 30.3957 16.3925 30.3957 16.0153V16.0146C30.3957 15.6373 30.0899 15.3315 29.7126 15.3315Z" fill="#22C55E"/>
</g>
</g>
<defs>
<clipPath id="clip0_95_293">
<rect width="48" height="36" fill="white"/>
</clipPath>
<clipPath id="clip1_95_293">
<rect width="6.25271" height="8" fill="white" transform="translate(26 14)"/>
</clipPath>
</defs>
</svg>
