<svg width="48" height="36" viewBox="0 0 48 36" fill="none" xmlns="http://www.w3.org/2000/svg">
<g clip-path="url(#clip0_95_464)">
<path d="M0 0H16V36H0V0Z" fill="#93C5FD"/>
<path d="M16 0H32V36H16V0Z" fill="#F5F5F5"/>
<path d="M32 0H48V36H32V0Z" fill="#93C5FD"/>
<path d="M20.9422 20.5432C20.7714 20.5432 20.6006 20.4783 20.4706 20.3483C20.2106 20.0883 20.2106 19.6659 20.4706 19.4059L23.5284 16.3481C23.7884 16.0882 24.2108 16.0873 24.4708 16.3481C24.7307 16.6081 24.7315 17.0305 24.4708 17.2905L21.4129 20.3483C21.283 20.4783 21.1121 20.5432 20.9413 20.5432H20.9422Z" fill="#A16207"/>
<path d="M27.0578 20.5434C26.887 20.5434 26.717 20.4784 26.5862 20.3485L23.5284 17.2906C23.2685 17.0307 23.2685 16.6082 23.5284 16.3483C23.7884 16.0883 24.2108 16.0883 24.4708 16.3483L27.5286 19.4061C27.7885 19.6661 27.7885 20.0885 27.5286 20.3485C27.3986 20.4784 27.2278 20.5434 27.057 20.5434H27.0578Z" fill="#A16207"/>
<path d="M25.9538 16.2687L24.5499 14.8647C24.2459 14.5608 23.7532 14.5608 23.4493 14.8647L22.0453 16.2687C21.7414 16.5726 21.7414 17.0653 22.0453 17.3692L23.4493 18.7732C23.7532 19.0771 24.2459 19.0771 24.5499 18.7732L25.9538 17.3692C26.2577 17.0653 26.2577 16.5726 25.9538 16.2687Z" fill="#FBBF24"/>
<path d="M24 21.8062C21.243 21.8062 19 19.5632 19 16.8062C19 15.9405 19.225 15.0864 19.6516 14.3374C19.8332 14.0175 20.2406 13.905 20.5606 14.0874C20.8805 14.2691 20.9922 14.6765 20.8105 14.9965C20.4981 15.5455 20.3331 16.1713 20.3331 16.8062C20.3331 18.8283 21.9778 20.4731 24 20.4731C26.0222 20.4731 27.6669 18.8283 27.6669 16.8062C27.6669 16.1713 27.5019 15.5447 27.1895 14.9965C27.0078 14.6765 27.1195 14.2699 27.4394 14.0874C27.7594 13.9058 28.1668 14.0175 28.3484 14.3374C28.775 15.0864 29 15.9405 29 16.8062C29 19.5632 26.757 21.8062 24 21.8062Z" fill="#22C55E"/>
<path d="M26.8554 20.2538C26.4913 20.2538 26.1946 19.9614 26.1888 19.5964C26.1771 18.7591 25.9422 17.9342 25.5089 17.2102C25.0823 16.4969 24.4774 15.9045 23.7584 15.4979C23.4376 15.3163 23.3251 14.9097 23.5068 14.5898C23.6884 14.2698 24.0942 14.1565 24.4149 14.3381C25.3348 14.8589 26.1088 15.6154 26.6537 16.5261C27.2061 17.4509 27.5069 18.5058 27.5219 19.5773C27.5269 19.9455 27.2328 20.248 26.8654 20.253C26.862 20.253 26.8587 20.253 26.8554 20.253V20.2538Z" fill="#22C55E"/>
</g>
<defs>
<clipPath id="clip0_95_464">
<rect width="48" height="36" fill="white"/>
</clipPath>
</defs>
</svg>
