<svg width="48" height="36" viewBox="0 0 48 36" fill="none" xmlns="http://www.w3.org/2000/svg">
<g clip-path="url(#clip0_95_504)">
<path d="M0 0H20V36H0V0Z" fill="#EF4444"/>
<path d="M20 0H48V18H20V0Z" fill="#FBBF24"/>
<path d="M20 18H48V36H20V18Z" fill="#22C55E"/>
<path d="M11.0518 12.5951L11.792 14.6949C11.8726 14.9224 12.0837 15.0758 12.3254 15.0824L14.5514 15.1379C15.3928 15.1586 15.7389 16.2264 15.0706 16.7369L13.3029 18.0899C13.1113 18.2358 13.0307 18.485 13.0993 18.7169L13.735 20.8503C13.9756 21.6569 13.0667 22.3166 12.3744 21.8387L10.5413 20.575C10.3432 20.4378 10.0809 20.4378 9.88279 20.575L8.04975 21.8387C7.35746 22.3166 6.44965 21.6569 6.68912 20.8503L7.32481 18.7169C7.39338 18.4861 7.31283 18.2369 7.12126 18.0899L5.35135 16.7369C4.68301 16.2253 5.03024 15.1586 5.87057 15.1379L8.09656 15.0824C8.33712 15.0769 8.54937 14.9224 8.62992 14.6949L9.37011 12.5951C9.64985 11.8016 10.7721 11.8016 11.0518 12.5951Z" fill="#262626"/>
</g>
<defs>
<clipPath id="clip0_95_504">
<rect width="48" height="36" fill="white"/>
</clipPath>
</defs>
</svg>
