<svg width="48" height="36" viewBox="0 0 48 36" fill="none" xmlns="http://www.w3.org/2000/svg">
<g clip-path="url(#clip0_95_698)">
<path d="M47.88 0H0V36H47.88V0Z" fill="#22C55E"/>
<path d="M45.13 20.4L5.55001 34.1L2.59001 35.13L0.0700098 36H0.0100098V0H0.0700098L2.59001 0.87L5.56001 1.9L45.12 15.6C47.27 16.34 47.27 19.66 45.12 20.4H45.13Z" fill="#FBBF24"/>
<path d="M45.48 14.58L3.37001 0H5.49294e-06V1.12L2.05001 1.83L5.02001 2.86L7.99001 3.89L44.77 16.62C45.42 16.85 45.66 17.48 45.66 18C45.66 18.52 45.43 19.16 44.77 19.38L7.99001 32.11L5.02001 33.14L2.05001 34.17L-0.00999451 34.88V36H3.35001L45.47 21.42C46.89 20.93 47.81 19.59 47.81 18C47.81 16.41 46.89 15.07 45.47 14.58H45.48Z" fill="#F5F5F5"/>
<path d="M20.97 20.13L5.02 33.14L2.58 35.13L1.51 36H0V0H1.51C1.84 0.27 2.2 0.57 2.59 0.87C3.32 1.47 4.14 2.14 5.02 2.85C10.14 7.03 17.2 12.79 20.97 15.86C22.26 16.91 22.26 19.07 20.97 20.12V20.13Z" fill="#EF4444"/>
<path d="M21.66 15.03L7.99 3.88L5.56 1.9L3.23 0H0V0.16L2.05 1.83L20.29 16.71C20.65 17.01 20.86 17.48 20.86 18.01C20.86 18.54 20.65 19.01 20.29 19.31L2.06 34.16L0 35.84V36H3.22L5.55 34.1L7.99 32.11L21.65 20.97C22.52 20.26 23.02 19.18 23.01 18C23.01 16.82 22.51 15.74 21.65 15.03H21.66Z" fill="#262626"/>
</g>
<defs>
<clipPath id="clip0_95_698">
<rect width="47.88" height="36" fill="white"/>
</clipPath>
</defs>
</svg>
