<svg width="48" height="36" viewBox="0 0 48 36" fill="none" xmlns="http://www.w3.org/2000/svg">
<rect width="48" height="36" fill="#EF4444"/>
<path d="M21.8516 18.7771C22.1203 18.5391 22.0158 18.0964 21.6671 18.0113C19.1387 17.3956 19.2045 15.3967 19.1062 14.9312C18.999 14.4245 17.8722 12.3395 15.3349 12.7769C13.7479 13.05 13.0603 12.249 12.7687 11.6097C12.6694 11.3927 12.3559 11.4059 12.2848 11.6334C10.9858 15.8051 14.3618 19.8705 17.7282 20.0005C19.9396 20.0866 21.2078 19.3488 21.8525 18.7771H21.8516ZM17.0686 16.6412L16.5092 16.534C16.4486 16.5226 16.3871 16.549 16.3546 16.6017L16.0551 17.0865C15.9418 17.27 15.6617 17.2085 15.6344 16.9951L15.5633 16.4295C15.5554 16.368 15.5106 16.318 15.4509 16.3039L14.8967 16.1696C14.6877 16.1186 14.6587 15.8332 14.8537 15.7418L15.3692 15.4994C15.4254 15.4731 15.4588 15.4151 15.4544 15.3537L15.4114 14.7854C15.3947 14.5711 15.6581 14.4552 15.8057 14.6124L16.1956 15.0278C16.2378 15.0726 16.3037 15.0867 16.3607 15.0638L16.8877 14.8478C17.0871 14.7661 17.2776 14.9804 17.174 15.1692L16.8991 15.6681C16.8693 15.7216 16.8763 15.7884 16.9158 15.8358L17.2847 16.2697C17.4243 16.4339 17.2794 16.6816 17.0677 16.6412H17.0686Z" fill="#F5F5F5"/>
<path d="M21.8015 16.2829C22.1098 16.4665 22.5006 16.2329 22.4751 15.8745C22.2951 13.2784 24.2202 12.7348 24.633 12.5003C25.0827 12.2447 26.7285 10.5391 25.5429 8.25305C24.8008 6.82326 25.3567 5.92569 25.8766 5.45406C26.054 5.29422 25.946 4.99825 25.708 5.00001C21.3387 5.02723 18.4888 9.47734 19.3846 12.7242C19.973 14.8575 21.0612 15.8429 21.8006 16.2829H21.8015ZM21.6136 9.81986L22.1309 9.58097C22.1871 9.5555 22.2213 9.49754 22.2169 9.43606L22.1774 8.86695C22.1625 8.65178 22.426 8.53849 22.5726 8.69569L22.9599 9.11374C23.0021 9.15941 23.0671 9.17346 23.1242 9.15063L23.6529 8.93721C23.8522 8.85641 24.0428 9.07246 23.9374 9.26041L23.6599 9.7575C23.63 9.81107 23.6362 9.87782 23.6757 9.92525L24.0419 10.3617C24.1807 10.5268 24.034 10.7736 23.8233 10.7324L23.2647 10.6217C23.2041 10.6094 23.1426 10.6366 23.1101 10.6884L22.808 11.1715C22.6938 11.3542 22.4137 11.2909 22.3882 11.0775L22.3206 10.5119C22.3135 10.4504 22.2687 10.4004 22.209 10.3855L21.6566 10.2476C21.4476 10.1957 21.4204 9.90944 21.6162 9.81898L21.6136 9.81986Z" fill="#F5F5F5"/>
<path d="M36.0995 15.7806C34.7487 11.6256 29.6443 10.2591 26.8216 12.0973C24.9676 13.3048 24.3581 14.6398 24.1631 15.4785C24.0815 15.8281 24.4231 16.1293 24.7568 15.9967C27.1764 15.0376 28.2777 16.7072 28.6264 17.0304C29.0067 17.3817 31.1312 18.433 32.95 16.6097C34.0874 15.4697 35.1114 15.7262 35.7192 16.0792C35.9247 16.1987 36.1741 16.0072 36.1003 15.7806H36.0995ZM31.5027 15.3846L30.9441 15.2704C30.8835 15.2581 30.822 15.2844 30.7887 15.3362L30.4839 15.8175C30.3689 15.9993 30.0887 15.9352 30.065 15.7209L30.0009 15.1544C29.9938 15.093 29.9499 15.0429 29.8902 15.0271L29.3387 14.8857C29.1296 14.8321 29.1051 14.5458 29.3009 14.4571L29.8191 14.2209C29.8753 14.1954 29.9095 14.1374 29.906 14.076L29.87 13.5077C29.856 13.2926 30.1203 13.1801 30.2661 13.3391L30.6508 13.7598C30.6921 13.8055 30.7579 13.8204 30.815 13.7975L31.3446 13.5868C31.5448 13.5077 31.7337 13.7238 31.6274 13.9108L31.3464 14.4071C31.3156 14.4606 31.3218 14.5274 31.3613 14.5748L31.7249 15.0139C31.8619 15.1799 31.7143 15.4258 31.5036 15.3828L31.5027 15.3846Z" fill="#F5F5F5"/>
<path d="M29.6733 18.994C27.9598 17.5932 26.5037 17.4176 25.6447 17.4861C25.2864 17.5142 25.1037 17.9305 25.3303 18.2089C26.9779 20.2236 25.7203 21.779 25.5183 22.2093C25.2987 22.6783 24.9413 25.0215 27.23 26.2019C28.6615 26.9405 28.7265 27.9935 28.5746 28.6794C28.5228 28.9121 28.7819 29.0913 28.9751 28.9526C32.525 26.4056 32.2799 21.1273 29.6724 18.9949L29.6733 18.994ZM29.4002 24.123L28.8425 24.0062C28.7819 23.9931 28.7204 24.0194 28.687 24.0712L28.3787 24.5507C28.2619 24.7317 27.9827 24.6658 27.9598 24.4515L27.8992 23.885C27.8922 23.8236 27.8492 23.7726 27.7894 23.7568L27.2379 23.6119C27.0297 23.5574 27.006 23.2711 27.2028 23.1833L27.7227 22.9506C27.7789 22.9251 27.814 22.868 27.8105 22.8065L27.778 22.2374C27.7657 22.0223 28.031 21.9116 28.175 22.0714L28.557 22.4939C28.5983 22.5396 28.6633 22.5554 28.7213 22.5325L29.2517 22.3253C29.452 22.2471 29.6399 22.4649 29.5328 22.6511L29.2491 23.1447C29.2184 23.1982 29.2236 23.265 29.2631 23.3124L29.6241 23.7533C29.7602 23.9202 29.6109 24.1652 29.401 24.1213L29.4002 24.123Z" fill="#F5F5F5"/>
<path d="M23.3982 19.4264C21.9772 21.6071 20.1144 20.8808 19.6428 20.8193C19.1299 20.7517 16.7884 21.1223 16.3572 23.6614C16.0876 25.2492 15.104 25.6313 14.404 25.6945C14.1669 25.7156 14.0746 26.0168 14.2652 26.1591C17.7686 28.7701 22.7246 26.9355 23.9655 23.8036C24.7814 21.7459 24.5065 20.3047 24.1816 19.5072C24.0463 19.1744 23.594 19.1261 23.3973 19.4273L23.3982 19.4264ZM20.4376 24.7785L19.8808 24.6573C19.8202 24.6441 19.7587 24.6696 19.7244 24.7214L19.4135 25.1992C19.2959 25.3792 19.0174 25.3116 18.9955 25.0982L18.9384 24.5308C18.9323 24.4693 18.8883 24.4184 18.8295 24.4026L18.2797 24.2542C18.0716 24.198 18.0496 23.9117 18.2472 23.8247L18.7689 23.5955C18.8251 23.5709 18.8602 23.5138 18.8576 23.4515L18.8286 22.8823C18.8172 22.6672 19.0833 22.5583 19.2265 22.719L19.6059 23.1441C19.6472 23.1897 19.7121 23.2055 19.7701 23.1836L20.3023 22.9798C20.5035 22.9025 20.6896 23.1221 20.5807 23.3074L20.2935 23.8001C20.2628 23.8537 20.2672 23.9204 20.3067 23.9679L20.665 24.4114C20.8003 24.5791 20.6501 24.8233 20.4393 24.7776L20.4376 24.7785Z" fill="#F5F5F5"/>
</svg>
