<svg width="48" height="36" viewBox="0 0 48 36" fill="none" xmlns="http://www.w3.org/2000/svg">
<g clip-path="url(#clip0_95_651)">
<path d="M0 0H48V12H0V0Z" fill="#22D3EE"/>
<path d="M0 12H48V24H0V12Z" fill="#F5F5F5"/>
<path d="M0 24H48V36H0V24Z" fill="#22D3EE"/>
<path d="M24.0949 15.7551L24.421 16.6549C24.4565 16.7524 24.5495 16.8182 24.656 16.821L25.6367 16.8448C26.0074 16.8537 26.1599 17.3113 25.8655 17.5301L25.0867 18.11C25.0022 18.1725 24.9668 18.2793 24.997 18.3787L25.277 19.293C25.383 19.6387 24.9826 19.9214 24.6776 19.7166L23.87 19.175C23.7827 19.1162 23.6671 19.1162 23.5798 19.175L22.7722 19.7166C22.4672 19.9214 22.0673 19.6387 22.1728 19.293L22.4528 18.3787C22.483 18.2798 22.4476 18.1729 22.3632 18.11L21.5834 17.5301C21.2889 17.3108 21.4419 16.8537 21.8121 16.8448L22.7929 16.821C22.8988 16.8187 22.9924 16.7524 23.0278 16.6549L23.354 15.7551C23.4772 15.415 23.9716 15.415 24.0949 15.7551Z" fill="#22D3EE"/>
<path d="M12.6663 13.2551L12.9924 14.1549C13.0279 14.2524 13.121 14.3182 13.2274 14.321L14.2082 14.3448C14.5789 14.3537 14.7314 14.8113 14.4369 15.0301L13.6581 15.61C13.5737 15.6725 13.5382 15.7793 13.5684 15.8787L13.8485 16.793C13.9545 17.1387 13.554 17.4214 13.249 17.2166L12.4414 16.675C12.3541 16.6162 12.2385 16.6162 12.1513 16.675L11.3437 17.2166C11.0387 17.4214 10.6387 17.1387 10.7442 16.793L11.0243 15.8787C11.0545 15.7798 11.019 15.6729 10.9346 15.61L10.1548 15.0301C9.86034 14.8108 10.0133 14.3537 10.3836 14.3448L11.3643 14.321C11.4703 14.3187 11.5638 14.2524 11.5993 14.1549L11.9254 13.2551C12.0486 12.915 12.5431 12.915 12.6663 13.2551Z" fill="#22D3EE"/>
<path d="M12.6663 18.9694L12.9924 19.8693C13.0279 19.9668 13.121 20.0326 13.2274 20.0354L14.2082 20.0592C14.5789 20.068 14.7314 20.5257 14.4369 20.7445L13.6581 21.3243C13.5737 21.3868 13.5382 21.4937 13.5684 21.593L13.8485 22.5074C13.9545 22.853 13.554 23.1357 13.249 22.9309L12.4414 22.3893C12.3541 22.3306 12.2385 22.3306 12.1513 22.3893L11.3437 22.9309C11.0387 23.1357 10.6387 22.853 10.7442 22.5074L11.0243 21.593C11.0545 21.4941 11.019 21.3873 10.9346 21.3243L10.1548 20.7445C9.86034 20.5252 10.0133 20.068 10.3836 20.0592L11.3643 20.0354C11.4703 20.033 11.5638 19.9668 11.5993 19.8693L11.9254 18.9694C12.0486 18.6293 12.5431 18.6293 12.6663 18.9694Z" fill="#22D3EE"/>
<path d="M34.7827 13.2551L34.4565 14.1549C34.4211 14.2524 34.328 14.3182 34.2216 14.321L33.2408 14.3448C32.8701 14.3537 32.7176 14.8113 33.0121 15.0301L33.7909 15.61C33.8753 15.6725 33.9108 15.7793 33.8806 15.8787L33.6005 16.793C33.4945 17.1387 33.895 17.4214 34.2 17.2166L35.0076 16.675C35.0949 16.6162 35.2104 16.6162 35.2977 16.675L36.1053 17.2166C36.4103 17.4214 36.8103 17.1387 36.7048 16.793L36.4247 15.8787C36.3945 15.7798 36.43 15.6729 36.5144 15.61L37.2942 15.0301C37.5886 14.8108 37.4357 14.3537 37.0654 14.3448L36.0847 14.321C35.9787 14.3187 35.8852 14.2524 35.8497 14.1549L35.5236 13.2551C35.4003 12.915 34.9059 12.915 34.7827 13.2551Z" fill="#22D3EE"/>
<path d="M34.7827 18.9694L34.4565 19.8693C34.4211 19.9668 34.328 20.0326 34.2216 20.0354L33.2408 20.0592C32.8701 20.068 32.7176 20.5257 33.0121 20.7445L33.7909 21.3243C33.8753 21.3868 33.9108 21.4937 33.8806 21.593L33.6005 22.5074C33.4945 22.853 33.895 23.1357 34.2 22.9309L35.0076 22.3893C35.0949 22.3306 35.2104 22.3306 35.2977 22.3893L36.1053 22.9309C36.4103 23.1357 36.8103 22.853 36.7048 22.5074L36.4247 21.593C36.3945 21.4941 36.43 21.3873 36.5144 21.3243L37.2942 20.7445C37.5886 20.5252 37.4357 20.068 37.0654 20.0592L36.0847 20.0354C35.9787 20.033 35.8852 19.9668 35.8497 19.8693L35.5236 18.9694C35.4003 18.6293 34.9059 18.6293 34.7827 18.9694Z" fill="#22D3EE"/>
</g>
<defs>
<clipPath id="clip0_95_651">
<rect width="48" height="36" fill="white"/>
</clipPath>
</defs>
</svg>
