<svg width="48" height="36" viewBox="0 0 48 36" fill="none" xmlns="http://www.w3.org/2000/svg">
<g clip-path="url(#clip0_95_849)">
<path d="M0 0H48V12H0V0Z" fill="#EF4444"/>
<path d="M0 12H48V24H0V12Z" fill="#F5F5F5"/>
<path d="M0 24H48V36H0V24Z" fill="#1E3A8A"/>
<path d="M24.1708 29.2628C20.0726 29.2628 16.738 25.9291 16.738 21.8299V12.0581H31.6027V21.8299C31.6027 25.9281 28.2681 29.2628 24.1699 29.2628H24.1708Z" fill="#F5F5F5"/>
<path d="M30.8648 12.7958V21.8296C30.8648 25.5214 27.8617 28.5245 24.1699 28.5245C20.478 28.5245 17.476 25.5214 17.476 21.8296V12.7958H30.8648ZM32.3407 11.3198H16V21.8296C16 26.342 19.6584 30.0004 24.1709 30.0004C28.6833 30.0004 32.3417 26.342 32.3417 21.8296V11.3198H32.3407Z" fill="#F5F5F5"/>
<path d="M31.6028 12.0578V21.8296C31.6028 25.9278 28.2681 29.2625 24.1699 29.2625C20.0717 29.2625 16.738 25.9278 16.738 21.8296V12.0578H31.6028ZM32.3407 11.3198H16V21.8296C16 26.342 19.6584 30.0004 24.1709 30.0004C28.6833 30.0004 32.3417 26.342 32.3417 21.8296V11.3198H32.3407Z" fill="#EF4444"/>
<path d="M18.6301 8.20277C18.6301 7.47621 18.0414 6.88721 17.3151 6.88721C16.5888 6.88721 16 7.47621 16 8.20277V9.47799C16 10.2046 16.5888 10.7936 17.3151 10.7936C18.0414 10.7936 18.6301 10.2046 18.6301 9.47799V8.20277Z" fill="#93C5FD"/>
<path d="M22.0593 7.71058C22.0593 6.98402 21.4705 6.39502 20.7442 6.39502C20.0179 6.39502 19.4292 6.98402 19.4292 7.71058V8.9858C19.4292 9.71237 20.0179 10.3014 20.7442 10.3014C21.4705 10.3014 22.0593 9.71237 22.0593 8.9858V7.71058Z" fill="#3B82F6"/>
<path d="M25.4884 7.31556C25.4884 6.589 24.8996 6 24.1733 6C23.447 6 22.8582 6.589 22.8582 7.31556V8.59079C22.8582 9.31735 23.447 9.90635 24.1733 9.90635C24.8996 9.90635 25.4884 9.31735 25.4884 8.59079V7.31556Z" fill="#93C5FD"/>
<path d="M28.9185 7.71058C28.9185 6.98402 28.3297 6.39502 27.6034 6.39502C26.8771 6.39502 26.2884 6.98402 26.2884 7.71058V8.9858C26.2884 9.71237 26.8771 10.3014 27.6034 10.3014C28.3297 10.3014 28.9185 9.71237 28.9185 8.9858V7.71058Z" fill="#3B82F6"/>
<path d="M32.3477 8.20277C32.3477 7.47621 31.7589 6.88721 31.0326 6.88721C30.3063 6.88721 29.7175 7.47621 29.7175 8.20277V9.47799C29.7175 10.2046 30.3063 10.7936 31.0326 10.7936C31.7589 10.7936 32.3477 10.2046 32.3477 9.47799V8.20277Z" fill="#93C5FD"/>
<path d="M30.8677 12.7959V21.8297C30.8677 23.4906 30.2586 25.0138 29.252 26.1847C28.4983 27.0644 27.5192 27.7463 26.4054 28.1399C25.7078 28.3888 24.956 28.5236 24.1738 28.5236C23.3915 28.5236 22.6398 28.3888 21.9421 28.1409C20.8283 27.7463 19.8492 27.0644 19.0945 26.1847C18.0879 25.0138 17.4789 23.4906 17.4789 21.8297V12.7959H30.8677Z" fill="#F5F5F5"/>
<path d="M21.9428 12.7959H17.4795V17.2592H21.9428V12.7959Z" fill="#EF4444"/>
<path d="M30.8688 12.7959H26.4055V17.2592H30.8688V12.7959Z" fill="#EF4444"/>
<path d="M26.4065 17.2598H21.9432V21.723H26.4065V17.2598Z" fill="#EF4444"/>
<path d="M21.9421 21.7227V26.1859H19.0945C18.0879 25.015 17.4789 23.4918 17.4789 21.8309V21.7227H21.9421Z" fill="#EF4444"/>
<path d="M30.8678 21.7227V21.8309C30.8678 23.4918 30.2587 25.015 29.2521 26.1859H26.4055V21.7227H30.8678Z" fill="#EF4444"/>
<path d="M26.4054 26.1826V28.1378C25.7078 28.3867 24.9561 28.5215 24.1738 28.5215C23.3916 28.5215 22.6398 28.3867 21.9422 28.1387V26.1826H26.4054Z" fill="#EF4444"/>
</g>
<defs>
<clipPath id="clip0_95_849">
<rect width="48" height="36" fill="white"/>
</clipPath>
</defs>
</svg>
