<svg width="48" height="36" viewBox="0 0 48 36" fill="none" xmlns="http://www.w3.org/2000/svg">
<g clip-path="url(#clip0_95_828)">
<path d="M0 0H48V18H0V0Z" fill="#1E3A8A"/>
<path d="M0 18H48V36H0V18Z" fill="#EF4444"/>
<path d="M29.72 11.855H17.7675C16.7111 11.855 15.8547 12.7114 15.8547 13.7678V22.2328C15.8547 23.2892 16.7111 24.1456 17.7675 24.1456H29.72C30.7765 24.1456 31.6329 23.2892 31.6329 22.2328V13.7678C31.6329 12.7114 30.7765 11.855 29.72 11.855Z" fill="#F5F5F5"/>
<path d="M29.7201 12.7093C30.3044 12.7093 30.7782 13.1831 30.7782 13.7675V22.2325C30.7782 22.8169 30.3044 23.2907 29.7201 23.2907H17.7675C17.1831 23.2907 16.7093 22.8169 16.7093 22.2325V13.7675C16.7093 13.1831 17.1831 12.7093 17.7675 12.7093H29.7201ZM29.7201 11H17.7675C16.2414 11 15 12.2414 15 13.7675V22.2325C15 23.7586 16.2414 25 17.7675 25H29.7201C31.2462 25 32.4876 23.7586 32.4876 22.2325V13.7675C32.4876 12.2414 31.2462 11 29.7201 11Z" fill="#F5F5F5"/>
<path d="M16.7093 20.3696H30.7777V22.2408C30.7777 22.8199 30.3076 23.2899 29.7286 23.2899H17.7584C17.1794 23.2899 16.7093 22.8199 16.7093 22.2408V20.3696Z" fill="#22C55E"/>
<path d="M24.5451 14.605H22.9426V20.1299H24.5451V14.605Z" fill="#FBBF24"/>
<path d="M24.6342 13.1111L24.9034 12.9124C25.6588 12.3542 26.7324 13.0299 26.5134 13.9428C26.4611 14.1624 26.3388 14.3728 26.1358 14.5427L24.7165 15.7312C24.1535 16.2029 23.3335 16.2029 22.7705 15.7312L21.3512 14.5427C21.1482 14.3728 21.0259 14.1624 20.9736 13.9428C20.7551 13.0294 21.8282 12.3542 22.5836 12.9124L22.8528 13.1111C23.3821 13.5021 24.1043 13.5021 24.6337 13.1111H24.6342Z" fill="#22C55E"/>
<path d="M18.167 16.5917L22.4724 20.4046C22.9158 20.7972 22.638 21.5301 22.0456 21.5301H17.8738C17.2307 21.5301 16.7093 21.0088 16.7093 20.3656V17.2477C16.7093 16.4924 17.6014 16.0907 18.167 16.5917Z" fill="#1E3A8A"/>
<path d="M29.3205 16.5917L25.0151 20.4046C24.5718 20.7972 24.8495 21.5301 25.4419 21.5301H29.6143C30.2574 21.5301 30.7788 21.0088 30.7788 20.3656V17.2477C30.7788 16.4924 29.8867 16.0907 29.3211 16.5917H29.3205Z" fill="#1E3A8A"/>
<path d="M21.4271 21.5301C21.4271 20.2507 22.4645 19.2134 23.7438 19.2134C25.0231 19.2134 26.0605 20.2507 26.0605 21.5301" fill="#EF4444"/>
</g>
<defs>
<clipPath id="clip0_95_828">
<rect width="48" height="36" fill="white"/>
</clipPath>
</defs>
</svg>
