<svg width="48" height="36" viewBox="0 0 48 36" fill="none" xmlns="http://www.w3.org/2000/svg">
<g clip-path="url(#clip0_95_1041)">
<path d="M0 0H48V4.5H0V0Z" fill="#F5F5F5"/>
<path d="M0 4.5H48V9H0V4.5Z" fill="#3B82F6"/>
<path d="M0 9H48V27H0V9Z" fill="#F5F5F5"/>
<path d="M0 27H48V31.5H0V27Z" fill="#3B82F6"/>
<path d="M0 31.5H48V36H0V31.5Z" fill="#F5F5F5"/>
<path d="M28.8178 18.0007L30.2 15.6067C30.4489 15.1756 30.4489 14.6615 30.2 14.2304C29.9511 13.7993 29.5067 13.543 29.0089 13.543H26.2444L24.8844 11.1874C24.6356 10.7563 24.1911 10.5 23.6933 10.5C23.1956 10.5 22.7511 10.7578 22.5022 11.1874L21.1422 13.543H18.3778C17.88 13.543 17.4356 13.8007 17.1867 14.2304C16.9378 14.6615 16.9378 15.1756 17.1867 15.6052L18.5689 17.9993L17.1867 20.3948C16.9378 20.8259 16.9378 21.34 17.1867 21.7696C17.4356 22.2007 17.88 22.457 18.3778 22.457H21.1422L22.5022 24.8126C22.7511 25.2437 23.1956 25.5 23.6933 25.5C24.1911 25.5 24.6356 25.2422 24.8844 24.8126L26.2444 22.457H29.0089C29.5067 22.457 29.9511 22.1993 30.2 21.7696C30.4489 21.3385 30.4489 20.8244 30.2 20.3933L28.8178 17.9993V18.0007ZM28.8252 15.0244L27.963 16.5193L27.1007 15.0244H28.8267H28.8252ZM27.1067 18.0007L25.3881 20.977H21.9956L20.277 18.0007L21.9956 15.0244H25.3881L27.1067 18.0007ZM23.6933 12.0867L24.5333 13.543H22.8519L23.6919 12.0867H23.6933ZM18.5615 15.0244H20.2874L19.4252 16.5193L18.563 15.0244H18.5615ZM18.5615 20.9756L19.4237 19.4807L20.2859 20.9756H18.56H18.5615ZM23.6933 23.9133L22.8533 22.457H24.5348L23.6948 23.9133H23.6933ZM27.0993 20.9756L27.9615 19.4807L28.8237 20.9756H27.0978H27.0993Z" fill="#3B82F6"/>
</g>
<defs>
<clipPath id="clip0_95_1041">
<rect width="48" height="36" fill="white"/>
</clipPath>
</defs>
</svg>
