<svg width="48" height="36" viewBox="0 0 48 36" fill="none" xmlns="http://www.w3.org/2000/svg">
<g clip-path="url(#clip0_95_1154)">
<path d="M0 0H48V12H0V0Z" fill="#FB923C"/>
<path d="M0 12H48V24H0V12Z" fill="#F5F5F5"/>
<path d="M0 24H48V36H0V24Z" fill="#22C55E"/>
<path fill-rule="evenodd" clip-rule="evenodd" d="M24 21.5714C25.9724 21.5714 27.5714 19.9724 27.5714 18C27.5714 16.0276 25.9724 14.4286 24 14.4286C22.0276 14.4286 20.4286 16.0276 20.4286 18C20.4286 19.9724 22.0276 21.5714 24 21.5714ZM24 23C26.7614 23 29 20.7614 29 18C29 15.2386 26.7614 13 24 13C21.2386 13 19 15.2386 19 18C19 20.7614 21.2386 23 24 23Z" fill="#3B82F6"/>
<path d="M25.7857 18.0001C25.7857 18.9863 24.9862 19.7858 24 19.7858C23.0138 19.7858 22.2143 18.9863 22.2143 18.0001C22.2143 17.0138 23.0138 16.2144 24 16.2144C24.9862 16.2144 25.7857 17.0138 25.7857 18.0001Z" fill="#3B82F6"/>
</g>
<defs>
<clipPath id="clip0_95_1154">
<rect width="48" height="36" fill="white"/>
</clipPath>
</defs>
</svg>
