<svg width="48" height="36" viewBox="0 0 48 36" fill="none" xmlns="http://www.w3.org/2000/svg">
<g clip-path="url(#clip0_95_1184)">
<path d="M0 0H48V12H0V0Z" fill="#EF4444"/>
<path d="M0 12H48V24H0V12Z" fill="#F5F5F5"/>
<path d="M0 24H48V36H0V24Z" fill="#262626"/>
<g clip-path="url(#clip1_95_1184)">
<path d="M18.5877 17.5687H15.905L17.9071 15.5666C18.2308 15.2429 18.2308 14.7173 17.9071 14.3927C17.5825 14.069 17.0578 14.069 16.7331 14.3927L13.9555 17.1703C13.6097 17.5161 13.5073 18.0316 13.6945 18.4844C13.8817 18.9372 14.3188 19.2286 14.8085 19.2286H18.5886C18.8948 19.2286 19.1447 19.4776 19.1447 19.7847C19.1447 20.0918 18.8957 20.3408 18.5886 20.3408H8.82997C8.37164 20.3408 8 20.7124 8 21.1708C8 21.6291 8.37164 22.0007 8.82997 22.0007H18.5877C19.8096 22.0007 20.8037 21.0066 20.8037 19.7847C20.8037 18.5628 19.8096 17.5687 18.5877 17.5687Z" fill="#22C55E"/>
<path d="M23.7455 20.3401H23.2733C23.1036 20.3401 22.9653 20.2018 22.9653 20.0321V14.9804C22.9653 14.522 22.5937 14.1504 22.1353 14.1504C21.677 14.1504 21.3054 14.522 21.3054 14.9804V20.0321C21.3054 21.1175 22.1879 22.0001 23.2733 22.0001H23.7455C24.2038 22.0001 24.5754 21.6284 24.5754 21.1701C24.5754 20.7118 24.2038 20.3401 23.7455 20.3401Z" fill="#22C55E"/>
<path d="M30.5079 15.0376C30.0496 15.0376 29.6779 15.4092 29.6779 15.8676V20.1438H29.3874V16.8792C29.3874 16.4209 29.0158 16.0492 28.5575 16.0492C28.0991 16.0492 27.7275 16.4209 27.7275 16.8792V20.1438H27.437V18.9403C27.437 18.482 27.0654 18.1103 26.607 18.1103C26.1487 18.1103 25.7771 18.482 25.7771 18.9403V20.5615C25.7771 21.2467 26.3341 21.8037 27.0193 21.8037H30.0938C30.779 21.8037 31.336 21.2467 31.336 20.5615V15.8676C31.336 15.4092 30.9644 15.0376 30.5061 15.0376H30.5079Z" fill="#22C55E"/>
<path d="M27.2646 15.6599H27.935C28.3933 15.6599 28.765 15.2883 28.765 14.83C28.765 14.3716 28.3933 14 27.935 14H27.2646C26.8062 14 26.4346 14.3716 26.4346 14.83C26.4346 15.2883 26.8062 15.6599 27.2646 15.6599Z" fill="#22C55E"/>
<path d="M34.4991 20.3401H34.027C33.8573 20.3401 33.719 20.2018 33.719 20.0321V14.9804C33.719 14.522 33.3473 14.1504 32.889 14.1504C32.4307 14.1504 32.059 14.522 32.059 14.9804V20.0321C32.059 21.1175 32.9425 22.0001 34.027 22.0001H34.4991C34.9575 22.0001 35.3291 21.6284 35.3291 21.1701C35.3291 20.7118 34.9575 20.3401 34.4991 20.3401Z" fill="#22C55E"/>
</g>
</g>
<defs>
<clipPath id="clip0_95_1184">
<rect width="48" height="36" fill="white"/>
</clipPath>
<clipPath id="clip1_95_1184">
<rect width="27.3291" height="8" fill="white" transform="translate(8 14)"/>
</clipPath>
</defs>
</svg>
