<svg width="48" height="36" viewBox="0 0 48 36" fill="none" xmlns="http://www.w3.org/2000/svg">
<g clip-path="url(#clip0_95_1217)">
<path d="M0 0H48V12H0V0Z" fill="#22C55E"/>
<path d="M0 12H48V24H0V12Z" fill="#F5F5F5"/>
<path d="M0 24H48V36H0V24Z" fill="#EF4444"/>
<path d="M0 10H48V11H0V10Z" fill="#F5F5F5"/>
<path d="M0 25H48V26H0V25Z" fill="#F5F5F5"/>
<path d="M20.2825 20.8486C19.5639 20.1581 19.1859 18.9518 19.2958 17.7011C19.4056 16.4505 19.9888 15.3292 20.8171 14.775C21.11 14.5792 21.1883 14.1825 20.9925 13.8896C20.7967 13.5967 20.4 13.5184 20.1071 13.7142C18.9484 14.4898 18.1694 15.9388 18.0247 17.5896C17.8791 19.2404 18.3925 20.8026 19.3979 21.7697C19.5214 21.8889 19.6814 21.9477 19.8406 21.9477C20.0083 21.9477 20.1761 21.8821 20.3012 21.7519C20.5455 21.4973 20.5379 21.0938 20.2833 20.8494L20.2825 20.8486Z" fill="#EF4444"/>
<path d="M30.182 17.5895C30.0364 15.9387 29.2583 14.4897 28.0996 13.7141C27.8067 13.5175 27.41 13.5966 27.2142 13.8895C27.0184 14.1824 27.0967 14.5791 27.3896 14.7749C28.2179 15.3291 28.8003 16.4504 28.9109 17.701C29.0208 18.9516 28.6428 20.1572 27.9242 20.8485C27.6697 21.0928 27.662 21.4972 27.9064 21.7509C28.0315 21.8812 28.1992 21.9467 28.3669 21.9467C28.5346 21.9467 28.6853 21.8871 28.8096 21.7688C29.8151 20.8025 30.3285 19.2394 30.1829 17.5886L30.182 17.5895Z" fill="#EF4444"/>
<path d="M27.2253 21.7231H26.6608C27.4006 20.8513 27.8646 19.6083 27.8646 18.2292C27.8646 16.7699 27.3538 15.4129 26.4625 14.5062C26.2156 14.255 25.8112 14.2508 25.5592 14.4977C25.3072 14.7446 25.3038 15.149 25.5507 15.401C26.1994 16.0616 26.5868 17.119 26.5868 18.23C26.5868 19.8459 25.8027 21.2089 24.7419 21.6065V14.9531C24.7419 14.6007 24.4558 14.3146 24.1034 14.3146C23.7509 14.3146 23.4648 14.6007 23.4648 14.9531V21.6056C22.4041 21.208 21.62 19.845 21.62 18.2292C21.62 17.119 22.0073 16.0616 22.6561 15.4001C22.9029 15.1481 22.8995 14.7446 22.6475 14.4968C22.3964 14.2499 21.992 14.2533 21.7443 14.5053C20.8529 15.4129 20.3421 16.7699 20.3421 18.2283C20.3421 19.6075 20.8061 20.8505 21.5459 21.7223H20.9814C20.629 21.7223 20.3429 22.0083 20.3429 22.3608C20.3429 22.7132 20.629 22.9993 20.9814 22.9993H27.2253C27.5777 22.9993 27.8638 22.7132 27.8638 22.3608C27.8638 22.0083 27.5777 21.7223 27.2253 21.7223V21.7231Z" fill="#EF4444"/>
<path d="M23.4487 14.277H24.7572C25.1096 14.277 25.3957 13.991 25.3957 13.6385C25.3957 13.2861 25.1096 13 24.7572 13H23.4487C23.0962 13 22.8101 13.2861 22.8101 13.6385C22.8101 13.991 23.0962 14.277 23.4487 14.277Z" fill="#EF4444"/>
</g>
<defs>
<clipPath id="clip0_95_1217">
<rect width="48" height="36" fill="white"/>
</clipPath>
</defs>
</svg>
