<svg width="48" height="36" viewBox="0 0 48 36" fill="none" xmlns="http://www.w3.org/2000/svg">
<g clip-path="url(#clip0_95_1346)">
<path d="M0 0H48V12H0V0Z" fill="#262626"/>
<path d="M0 12H48V24H0V12Z" fill="#F5F5F5"/>
<path d="M0 24H48V36H0V24Z" fill="#22C55E"/>
<path d="M26.5187 20.63C28.4938 19.48 28.4938 16.52 26.5187 15.37L0 0V36L26.5187 20.63Z" fill="#EF4444"/>
<path d="M10.2363 14.4166L10.7544 15.8864C10.8108 16.0457 10.9586 16.1531 11.1278 16.1577L12.686 16.1965C13.275 16.211 13.5173 16.9585 13.0494 17.3158L11.812 18.2629C11.6779 18.365 11.6215 18.5395 11.6695 18.7018L12.1145 20.1952C12.2829 20.7598 11.6467 21.2216 11.1621 20.8871L9.87893 20.0025C9.74026 19.9065 9.55663 19.9065 9.41795 20.0025L8.13483 20.8871C7.65022 21.2216 7.01476 20.7598 7.18239 20.1952L7.62737 18.7018C7.67537 18.5403 7.61898 18.3658 7.48488 18.2629L6.24595 17.3158C5.77811 16.9577 6.02117 16.211 6.6094 16.1965L8.16759 16.1577C8.33598 16.1538 8.48456 16.0457 8.54095 15.8864L9.05907 14.4166C9.2549 13.8611 10.0405 13.8611 10.2363 14.4166Z" fill="#F5F5F5"/>
</g>
<defs>
<clipPath id="clip0_95_1346">
<rect width="48" height="36" fill="white"/>
</clipPath>
</defs>
</svg>
