<svg width="48" height="36" viewBox="0 0 48 36" fill="none" xmlns="http://www.w3.org/2000/svg">
<g clip-path="url(#clip0_97_71)">
<path d="M0 0H48V18H0V0Z" fill="#262626"/>
<path d="M0 18H48V36H0V18Z" fill="#22C55E"/>
<path d="M0 12H48V24H0V12Z" fill="#EF4444"/>
<path fill-rule="evenodd" clip-rule="evenodd" d="M-2.5 9.5H50.5V26.5H-2.5V9.5ZM0 12V24H48V12H0Z" fill="#F5F5F5"/>
<path d="M24.6173 16.9347L29.8312 7.87599L30.3103 8.15171C31.0667 8.5866 32.0104 8.03998 32.0096 7.16779L32.0072 5.65011L32.0048 4.13242C32.004 3.26023 31.0587 2.71602 30.303 3.15332L28.9895 3.91377L27.676 4.67422C26.9212 5.11152 26.9228 6.20236 27.6784 6.63724L28.1575 6.91297L23.5032 14.9998L18.8505 6.91458L19.3296 6.63885C20.086 6.20396 20.0876 5.11313 19.332 4.67583L18.0185 3.91538L16.7058 3.15413C15.9509 2.71683 15.0056 3.26104 15.004 4.13322L15.0016 5.65091L15 7.16859C14.9992 8.04158 15.9429 8.58821 16.6993 8.15252L17.1784 7.87679L22.3923 16.9355L15.1286 29.5536C14.8625 30.0151 15.0217 30.6051 15.4831 30.8712C15.635 30.9588 15.7998 30.9998 15.963 30.9998C16.2966 30.9998 16.6214 30.8262 16.7998 30.5159L23.5032 18.868L30.2066 30.5159C30.385 30.8262 30.7098 30.9998 31.0434 30.9998C31.2066 30.9998 31.3722 30.958 31.5233 30.8712C31.9847 30.6051 32.1439 30.0159 31.8778 29.5536L24.6149 16.9347H24.6173Z" fill="#F5F5F5"/>
<path d="M30.5603 18.5684C30.5603 25.3385 27.4011 30.8273 23.5048 30.8273C21.041 30.8273 18.873 28.6335 17.6117 25.3088C17.4855 24.9752 17.3682 24.6311 17.2604 24.2758C16.742 22.5716 16.4494 20.6295 16.4494 18.5684C16.4494 16.5073 16.742 14.5652 17.2604 12.861C17.3682 12.5057 17.4855 12.1617 17.6117 11.8281C18.873 8.5033 21.041 6.30957 23.5048 6.30957C27.4011 6.30957 30.5603 11.7983 30.5603 18.5684Z" fill="#EF4444"/>
<path d="M23.5048 20.015C24.3039 20.015 24.9518 19.3672 24.9518 18.568C24.9518 17.7689 24.3039 17.1211 23.5048 17.1211C22.7057 17.1211 22.0579 17.7689 22.0579 18.568C22.0579 19.3672 22.7057 20.015 23.5048 20.015Z" fill="#F5F5F5"/>
<path d="M19.2114 18.568C19.2114 20.9924 18.6359 23.2826 17.6117 25.3083C17.4855 24.9747 17.3682 24.6307 17.2604 24.2754C16.742 22.5712 16.4494 20.6291 16.4494 18.568C16.4494 16.5069 16.742 14.5648 17.2604 12.8606C17.3682 12.5053 17.4855 12.1612 17.6117 11.8276C18.6359 13.8534 19.2114 16.1436 19.2114 18.568Z" fill="#262626"/>
<path d="M24.7106 8.97874C24.7106 8.3128 24.1708 7.77295 23.5048 7.77295C22.8389 7.77295 22.299 8.3128 22.299 8.97874V14.732C22.299 15.3979 22.8389 15.9377 23.5048 15.9377C24.1708 15.9377 24.7106 15.3979 24.7106 14.732V8.97874Z" fill="#F5F5F5"/>
<path d="M22.2982 28.1575C22.2982 28.8234 22.8381 29.3633 23.504 29.3633C24.17 29.3633 24.7098 28.8234 24.7098 28.1575V22.4043C24.7098 21.7383 24.17 21.1985 23.504 21.1985C22.8381 21.1985 22.2982 21.7383 22.2982 22.4043V28.1575Z" fill="#F5F5F5"/>
<path d="M27.7982 18.568C27.7982 20.9924 28.3738 23.2826 29.3979 25.3083C29.5241 24.9747 29.6415 24.6307 29.7492 24.2754C30.2677 22.5712 30.5603 20.6291 30.5603 18.568C30.5603 16.5069 30.2677 14.5648 29.7492 12.8606C29.6415 12.5053 29.5241 12.1612 29.3979 11.8276C28.3738 13.8534 27.7982 16.1436 27.7982 18.568Z" fill="#262626"/>
</g>
<defs>
<clipPath id="clip0_97_71">
<rect width="48" height="36" fill="white"/>
</clipPath>
</defs>
</svg>
