<svg width="48" height="36" viewBox="0 0 48 36" fill="none" xmlns="http://www.w3.org/2000/svg">
<rect width="48" height="36" fill="#EF4444"/>
<path fill-rule="evenodd" clip-rule="evenodd" d="M35.4267 17.3289L31.3511 16.6711C30.7778 16.5822 30.5778 15.8444 31.0356 15.4756L34.24 12.8667C34.84 12.3822 34.2933 11.4311 33.5733 11.7067L29.7067 13.1733C29.1556 13.3733 28.6178 12.84 28.8311 12.2933L30.2978 8.42667C30.5689 7.70667 29.6222 7.16444 29.1378 7.76L26.5289 10.9689C26.16 11.4222 25.4311 11.2311 25.3333 10.6489L24.6711 6.57333C24.5511 5.80889 23.4533 5.80889 23.3289 6.57333L22.6711 10.6489C22.5822 11.2222 21.8444 11.4222 21.4756 10.9689L18.8667 7.76C18.3822 7.16444 17.4311 7.70667 17.7067 8.42667L19.1733 12.2933C19.3733 12.8489 18.84 13.3822 18.2933 13.1733L14.4267 11.7067C13.7067 11.4311 13.1644 12.3822 13.76 12.8667L16.9689 15.4756C17.4267 15.8444 17.2311 16.5733 16.6533 16.6711L12.5733 17.3289C11.8089 17.4533 11.8089 18.5511 12.5733 18.6711L16.6533 19.3333C17.2222 19.4178 17.4267 20.1556 16.9689 20.5244L13.76 23.1378C13.1644 23.6178 13.7067 24.5689 14.4267 24.2978L18.2933 22.8267C18.8489 22.6267 19.3822 23.1644 19.1733 23.7067L17.7067 27.5733C17.4311 28.2933 18.3822 28.84 18.8667 28.24L21.4756 25.0356C21.8444 24.5778 22.5733 24.7689 22.6711 25.3511L23.3289 29.4267C23.4533 30.1911 24.5511 30.1911 24.6711 29.4267L25.3333 25.3511C25.4222 24.7778 26.16 24.5778 26.5289 25.0356L29.1378 28.24C29.6222 28.84 30.5689 28.2933 30.2978 27.5733L28.8311 23.7067C28.6267 23.1556 29.1644 22.6178 29.7067 22.8267L33.5733 24.2978C34.2933 24.5689 34.84 23.6178 34.24 23.1378L31.0356 20.5244C30.5778 20.1556 30.7689 19.4267 31.3511 19.3333L35.4267 18.6711C36.1911 18.5511 36.1911 17.4533 35.4267 17.3289ZM24 23.3778C21.0311 23.3778 18.6222 20.9689 18.6222 18C18.6222 15.0311 21.0311 12.6222 24 12.6222C26.9689 12.6222 29.3778 15.0311 29.3778 18C29.3778 20.9689 26.9689 23.3778 24 23.3778Z" fill="#FBBF24"/>
<path fill-rule="evenodd" clip-rule="evenodd" d="M27.7733 21.7731C27.9422 21.6042 28.0978 21.4265 28.24 21.2354C28.0844 21.4354 27.92 21.622 27.7422 21.7998C27.7511 21.7954 27.7644 21.782 27.7733 21.7731Z" fill="#FBBF24"/>
<path fill-rule="evenodd" clip-rule="evenodd" d="M22.8356 16.9593C22.3733 16.7682 21.8622 16.666 21.3333 16.666C20.9333 16.666 20.5422 16.7238 20.1733 16.8393C20.0578 17.2082 20 17.5949 20 17.9993C20 19.1905 20.52 20.2571 21.3467 20.9905C21.3378 20.8838 21.3333 20.7727 21.3333 20.666C21.3333 19.226 21.9022 17.9193 22.8356 16.9593Z" fill="#FBBF24"/>
<path fill-rule="evenodd" clip-rule="evenodd" d="M24 17.6885C23.1822 18.4174 22.6667 19.484 22.6667 20.6663C22.6667 21.0707 22.7244 21.4574 22.84 21.8263C23.2089 21.9418 23.6 21.9996 24 21.9996C24.4 21.9996 24.7911 21.9418 25.16 21.8263C25.2756 21.4574 25.3333 21.0707 25.3333 20.6663C25.3333 19.484 24.8178 18.4174 24 17.6885Z" fill="#FBBF24"/>
<path fill-rule="evenodd" clip-rule="evenodd" d="M24.0045 16.0444C24.7867 15.5911 25.6978 15.3333 26.6667 15.3333C26.7733 15.3333 26.8845 15.3378 26.9911 15.3467C26.2578 14.52 25.1911 14 24 14C22.8089 14 21.7422 14.52 21.0089 15.3467C21.1156 15.3378 21.2267 15.3333 21.3333 15.3333C22.3067 15.3333 23.2178 15.5911 24.0045 16.0444Z" fill="#FBBF24"/>
<path fill-rule="evenodd" clip-rule="evenodd" d="M25.1689 16.9593C26.0978 17.9193 26.6667 19.226 26.6667 20.666C26.6667 20.7727 26.6622 20.8838 26.6533 20.9905C27.48 20.2571 28 19.1905 28 17.9993C28 17.5949 27.9422 17.2082 27.8267 16.8393C27.4578 16.7238 27.0667 16.666 26.6667 16.666C26.1378 16.666 25.6311 16.7682 25.1689 16.9593Z" fill="#FBBF24"/>
</svg>
