<svg width="48" height="36" viewBox="0 0 48 36" fill="none" xmlns="http://www.w3.org/2000/svg">
<g clip-path="url(#clip0_97_136)">
<path d="M0 0H48V9H0V0Z" fill="#1E3A8A"/>
<path d="M0 9H48V27H0V9Z" fill="#EF4444"/>
<path d="M0 27H48V36H0V27Z" fill="#1E3A8A"/>
<path d="M32.1891 21.4443C31.8956 21.0412 31.7377 20.5559 31.7377 20.0576V18.1121C31.7377 17.1762 31.0505 16.401 30.1527 16.264C29.9905 16.2395 29.8679 16.1046 29.8679 15.9409V15.5638C29.8679 15.258 29.7871 14.9581 29.635 14.6934L29.0876 13.7452L28.8655 13.3601C28.6175 12.9304 27.9966 12.9304 27.7486 13.3601L27.5265 13.7452L26.9792 14.6934C26.8263 14.9581 26.7463 15.258 26.7463 15.5638V15.876C26.7463 16.0599 26.6121 16.2236 26.429 16.2416C26.2191 16.2618 26.0425 16.0974 26.0425 15.8912V15.059C26.0425 14.5276 25.9026 14.0062 25.6372 13.5462L24.9046 12.2778L24.3667 11.3461C24.0999 10.8846 23.4336 10.8846 23.1668 11.3461L22.6288 12.2778L21.8962 13.5462C21.6308 14.0062 21.4909 14.5283 21.4909 15.059V15.876C21.4909 16.0599 21.3568 16.2236 21.1737 16.2416C20.9638 16.2618 20.7872 16.0974 20.7872 15.8912V15.5638C20.7872 15.258 20.7064 14.9581 20.5542 14.6934L20.0069 13.7452L19.7848 13.3601C19.5368 12.9304 18.9159 12.9304 18.6679 13.3601L18.4458 13.7452L17.8985 14.6934C17.7456 14.9581 17.6655 15.258 17.6655 15.5638V15.9597C17.6655 16.1133 17.5509 16.2402 17.3987 16.2618C16.4923 16.3909 15.7958 17.1704 15.7958 18.1129V20.0584C15.7958 20.5566 15.6378 21.0419 15.3444 21.445L14.2497 22.9478C13.6282 23.8015 14.2382 25 15.2939 25H32.2403C33.2967 25 33.9067 23.8015 33.2844 22.9478L32.1898 21.445L32.1891 21.4443Z" fill="#F5F5F5"/>
</g>
<defs>
<clipPath id="clip0_97_136">
<rect width="48" height="36" fill="white"/>
</clipPath>
</defs>
</svg>
