<svg width="48" height="36" viewBox="0 0 48 36" fill="none" xmlns="http://www.w3.org/2000/svg">
<g clip-path="url(#clip0_97_282)">
<rect width="48" height="36" fill="#EF4444"/>
<path fill-rule="evenodd" clip-rule="evenodd" d="M24.49 9.90957L24.96 12.8496C25.03 13.2696 25.55 13.4096 25.82 13.0796L27.7 10.7696C28.05 10.3396 28.73 10.7296 28.54 11.2496L27.48 14.0296C27.33 14.4196 27.71 14.8096 28.11 14.6596L30.89 13.5996C31.41 13.3996 31.8 14.0896 31.37 14.4396L29.06 16.3196C28.73 16.5896 28.88 17.1196 29.29 17.1796L32.23 17.6496C32.78 17.7396 32.78 18.5296 32.23 18.6196L29.29 19.0896C28.87 19.1596 28.73 19.6796 29.06 19.9496L31.37 21.8296C31.8 22.1796 31.41 22.8596 30.89 22.6696L28.11 21.6096C27.72 21.4596 27.33 21.8396 27.48 22.2396L28.54 25.0196C28.74 25.5396 28.05 25.9296 27.7 25.4996L25.82 23.1896C25.55 22.8596 25.02 23.0096 24.96 23.4196L24.49 26.3596C24.4 26.9096 23.61 26.9096 23.52 26.3596L23.05 23.4196C22.98 22.9996 22.46 22.8596 22.19 23.1896L20.31 25.4996C19.96 25.9296 19.28 25.5396 19.47 25.0196L20.53 22.2396C20.68 21.8496 20.3 21.4596 19.9 21.6096L17.12 22.6696C16.6 22.8696 16.21 22.1796 16.64 21.8296L18.95 19.9496C19.28 19.6796 19.13 19.1496 18.72 19.0896L15.78 18.6196C15.23 18.5296 15.23 17.7396 15.78 17.6496L18.72 17.1796C19.14 17.1096 19.28 16.5896 18.95 16.3196L16.64 14.4396C16.21 14.0896 16.6 13.4096 17.12 13.5996L19.9 14.6596C20.29 14.8096 20.68 14.4296 20.53 14.0296L19.47 11.2496C19.27 10.7296 19.96 10.3396 20.31 10.7696L22.19 13.0796C22.46 13.4096 22.99 13.2596 23.05 12.8496L23.52 9.90957C23.61 9.35957 24.4 9.35957 24.49 9.90957Z" fill="#FBBF24"/>
<path d="M48 17.8998V35.9998H0V17.8998C0.88 18.4098 1.55 19.0898 2.14 19.6898C3.22 20.7898 4.08 21.6598 5.87 21.6598C7.66 21.6598 8.52 20.7898 9.6 19.6898C10.76 18.5098 12.2 17.0498 14.93 17.0498C15.78 17.0498 16.5 17.1898 17.13 17.4298H17.15C18.54 17.9398 19.47 18.8798 20.27 19.6898C21.35 20.7898 22.2 21.6598 24 21.6598C25.8 21.6598 26.65 20.7898 27.73 19.6898C28.53 18.8798 29.46 17.9398 30.85 17.4298H30.87C31.5 17.1898 32.21 17.0498 33.06 17.0498C35.8 17.0498 37.24 18.5098 38.4 19.6898C39.48 20.7898 40.33 21.6598 42.13 21.6598C43.93 21.6598 44.78 20.7898 45.86 19.6898C46.45 19.0898 47.12 18.4098 48 17.8998Z" fill="#3B82F6"/>
<path d="M48 17.8998V20.7198C47.82 20.8898 47.64 21.0698 47.46 21.2598C46.3 22.4398 44.86 23.8998 42.13 23.8998C39.4 23.8998 37.95 22.4398 36.79 21.2598C35.71 20.1598 34.86 19.2898 33.06 19.2898C31.61 19.2898 30.78 19.8598 29.94 20.6598C29.74 20.8498 29.54 21.0498 29.33 21.2598C29.14 21.4498 28.95 21.6498 28.74 21.8498C28.42 22.1598 28.07 22.4698 27.67 22.7398C27.22 23.0698 26.71 23.3498 26.12 23.5598H26.11C25.74 23.6898 25.34 23.7898 24.89 23.8498C24.61 23.8798 24.31 23.8998 24 23.8998C23.69 23.8998 23.39 23.8798 23.11 23.8498C22.66 23.7898 22.26 23.6898 21.89 23.5598H21.88C21.29 23.3598 20.79 23.0798 20.34 22.7398C19.94 22.4798 19.58 22.1698 19.26 21.8498C19.05 21.6498 18.86 21.4498 18.67 21.2598C18.46 21.0498 18.26 20.8498 18.06 20.6598C17.22 19.8598 16.38 19.2898 14.93 19.2898C13.14 19.2898 12.28 20.1598 11.2 21.2598C10.05 22.4398 8.61 23.8998 5.87 23.8998C3.13 23.8998 1.7 22.4398 0.54 21.2598C0.36 21.0698 0.18 20.8898 0 20.7198V17.8998C0.88 18.4098 1.55 19.0898 2.14 19.6898C3.22 20.7898 4.08 21.6598 5.87 21.6598C7.66 21.6598 8.52 20.7898 9.6 19.6898C10.76 18.5098 12.2 17.0498 14.93 17.0498C15.78 17.0498 16.5 17.1898 17.13 17.4298H17.15C18.54 17.9398 19.47 18.8798 20.27 19.6898C21.35 20.7898 22.2 21.6598 24 21.6598C25.8 21.6598 26.65 20.7898 27.73 19.6898C28.53 18.8798 29.46 17.9398 30.85 17.4298H30.87C31.5 17.1898 32.21 17.0498 33.06 17.0498C35.8 17.0498 37.24 18.5098 38.4 19.6898C39.48 20.7898 40.33 21.6598 42.13 21.6598C43.93 21.6598 44.78 20.7898 45.86 19.6898C46.45 19.0898 47.12 18.4098 48 17.8998Z" fill="#F5F5F5"/>
<path d="M48 23.7502V26.5802C47.82 26.7502 47.64 26.9302 47.46 27.1202C46.3 28.3002 44.86 29.7602 42.13 29.7602C39.4 29.7602 37.95 28.3002 36.79 27.1202C35.71 26.0202 34.86 25.1502 33.06 25.1502C31.26 25.1502 30.41 26.0202 29.33 27.1202C28.17 28.3002 26.74 29.7602 24 29.7602C21.26 29.7602 19.82 28.3002 18.67 27.1202C17.58 26.0202 16.73 25.1502 14.93 25.1502C13.13 25.1502 12.28 26.0202 11.2 27.1202C10.05 28.3002 8.61 29.7602 5.87 29.7602C3.13 29.7602 1.7 28.3002 0.54 27.1202C0.36 26.9302 0.18 26.7502 0 26.5802V23.7502C0.88 24.2702 1.55 24.9502 2.14 25.5502C3.22 26.6502 4.08 27.5202 5.87 27.5202C7.66 27.5202 8.52 26.6502 9.6 25.5502C10.76 24.3702 12.2 22.9102 14.93 22.9102C17.13 22.9102 18.49 23.8502 19.54 24.8402C19.8 25.0702 20.04 25.3202 20.27 25.5502C21.35 26.6502 22.2 27.5202 24 27.5202C25.8 27.5202 26.65 26.6502 27.73 25.5502H27.74C27.97 25.3102 28.21 25.0602 28.47 24.8302C29.52 23.8402 30.88 22.9102 33.06 22.9102C35.8 22.9102 37.24 24.3702 38.4 25.5502C39.48 26.6502 40.33 27.5202 42.13 27.5202C43.93 27.5202 44.78 26.6502 45.86 25.5502C46.45 24.9502 47.12 24.2702 48 23.7502Z" fill="#F5F5F5"/>
<path d="M48 29.6098V32.4298C47.82 32.5998 47.64 32.7798 47.46 32.9698C46.3 34.1498 44.86 35.6098 42.13 35.6098C39.4 35.6098 37.95 34.1498 36.79 32.9698C35.71 31.8698 34.86 30.9998 33.06 30.9998C31.26 30.9998 30.41 31.8698 29.33 32.9698C28.17 34.1498 26.74 35.6098 24 35.6098C21.26 35.6098 19.82 34.1498 18.67 32.9698C17.58 31.8698 16.73 30.9998 14.93 30.9998C13.13 30.9998 12.28 31.8698 11.2 32.9698C10.05 34.1498 8.61 35.6098 5.87 35.6098C3.13 35.6098 1.7 34.1498 0.54 32.9698C0.36 32.7798 0.18 32.5998 0 32.4298V29.6098C0.88 30.1198 1.55 30.7998 2.14 31.3998C3.22 32.4998 4.08 33.3698 5.87 33.3698C7.66 33.3698 8.52 32.4998 9.6 31.3998C10.76 30.2298 12.2 28.7598 14.93 28.7598C17.66 28.7598 19.11 30.2298 20.27 31.3998C21.35 32.4998 22.2 33.3698 24 33.3698C25.8 33.3698 26.65 32.4998 27.73 31.3998C28.89 30.2298 30.33 28.7598 33.06 28.7598C35.79 28.7598 37.24 30.2298 38.4 31.3998C39.48 32.4998 40.33 33.3698 42.13 33.3698C43.93 33.3698 44.78 32.4998 45.86 31.3998C46.45 30.7998 47.12 30.1198 48 29.6098Z" fill="#F5F5F5"/>
<path d="M20.4 3.73047H27.6C28.4 3.73047 29.04 4.37047 29.04 5.17047C29.04 5.97047 28.4 6.61047 27.6 6.61047H20.4C19.6 6.61047 18.96 5.97047 18.96 5.17047C18.96 4.37047 19.6 3.73047 20.4 3.73047Z" fill="#FBBF24"/>
</g>
<defs>
<clipPath id="clip0_97_282">
<rect width="48" height="36" fill="white"/>
</clipPath>
</defs>
</svg>
