<svg width="48" height="36" viewBox="0 0 48 36" fill="none" xmlns="http://www.w3.org/2000/svg">
<path d="M48 0H0V7.2H48V0Z" fill="#1E3A8A"/>
<path d="M48 7.2002H0V9.0002H48V7.2002Z" fill="#F5F5F5"/>
<path d="M48 9H0V27H48V9Z" fill="#EF4444"/>
<path d="M48 27H0V28.8H48V27Z" fill="#F5F5F5"/>
<path d="M48 28.7998H0V35.9998H48V28.7998Z" fill="#1E3A8A"/>
<path d="M13.96 10.4404C9.77999 10.4404 6.39999 13.8204 6.39999 18.0004C6.39999 22.1804 9.77999 25.5604 13.96 25.5604C18.14 25.5604 21.52 22.1804 21.52 18.0004C21.52 13.8204 18.14 10.4404 13.96 10.4404ZM17.98 17.7704L16.45 18.9404C16.28 19.0704 16.21 19.2804 16.27 19.4804L16.82 21.3204C17.03 22.0204 16.24 22.5904 15.64 22.1704L14.06 21.0804C13.89 20.9604 13.66 20.9604 13.49 21.0804L11.91 22.1704C11.31 22.5804 10.53 22.0104 10.73 21.3204L11.28 19.4804C11.34 19.2804 11.27 19.0704 11.1 18.9404L9.56999 17.7704C8.98999 17.3304 9.29 16.4104 10.02 16.3904L11.94 16.3404C12.15 16.3404 12.33 16.2004 12.4 16.0104L13.04 14.2004C13.28 13.5104 14.25 13.5104 14.49 14.2004L15.13 16.0104C15.2 16.2104 15.38 16.3404 15.59 16.3404L17.51 16.3904C18.24 16.4104 18.54 17.3304 17.96 17.7704H17.98Z" fill="#F5F5F5"/>
</svg>
