<svg width="48" height="36" viewBox="0 0 48 36" fill="none" xmlns="http://www.w3.org/2000/svg">
<rect width="48" height="36" fill="#22D3EE"/>
<path fill-rule="evenodd" clip-rule="evenodd" d="M5.74113 3.21123C6.02277 2.92959 6.47941 2.92959 6.76105 3.21123L8.29095 4.74112C8.57259 5.02277 8.57259 5.47941 8.29095 5.76105L6.76105 7.29094C6.47941 7.57259 6.02277 7.57259 5.74113 7.29094L4.21123 5.76105C3.92959 5.47941 3.92959 5.02277 4.21123 4.74112L5.74113 3.21123ZM4.21123 9.84069L5.74113 8.3108C6.02277 8.02915 6.47941 8.02915 6.76105 8.3108L8.29095 9.84069C8.57259 10.1223 8.57259 10.579 8.29095 10.8606L6.76105 12.3905C6.47941 12.6722 6.02277 12.6722 5.74113 12.3905L4.21123 10.8606C3.92959 10.579 3.92959 10.1223 4.21123 9.84069ZM5.74113 13.4104L4.21123 14.9403C3.92959 15.2219 3.92959 15.6785 4.21123 15.9602L5.74113 17.4901C6.02277 17.7717 6.47941 17.7717 6.76105 17.4901L8.29095 15.9602C8.57259 15.6785 8.57259 15.2219 8.29095 14.9403L6.76105 13.4104C6.47941 13.1287 6.02277 13.1287 5.74113 13.4104ZM4.21123 20.0398L5.74113 18.5099C6.02277 18.2283 6.47941 18.2283 6.76105 18.5099L8.29095 20.0398C8.57259 20.3215 8.57259 20.7781 8.29095 21.0597L6.76105 22.5896C6.47941 22.8713 6.02277 22.8713 5.74113 22.5896L4.21123 21.0597C3.92959 20.7781 3.92959 20.3215 4.21123 20.0398ZM5.74113 23.6104L4.21123 25.1403C3.92959 25.4219 3.92959 25.8786 4.21123 26.1602L5.74113 27.6901C6.02277 27.9718 6.47941 27.9718 6.76105 27.6901L8.29095 26.1602C8.57259 25.8786 8.57259 25.4219 8.29095 25.1403L6.76105 23.6104C6.47941 23.3288 6.02277 23.3288 5.74113 23.6104ZM4.21123 30.2389L5.74113 28.7091C6.02277 28.4274 6.47941 28.4274 6.76105 28.7091L8.29095 30.2389C8.57259 30.5206 8.57259 30.9772 8.29095 31.2589L6.76105 32.7888C6.47941 33.0704 6.02277 33.0704 5.74113 32.7888L4.21123 31.2589C3.92959 30.9772 3.92959 30.5206 4.21123 30.2389ZM5.23116 10.3507L6.25109 9.33073L7.27102 10.3507L6.25109 11.3706L5.23116 10.3507ZM5.23116 15.4502L6.25109 16.4701L7.27102 15.4502L6.25109 14.4303L5.23116 15.4502ZM5.23116 5.25109L6.25109 4.23116L7.27102 5.25109L6.25109 6.27102L5.23116 5.25109ZM5.23116 20.5498L6.25109 19.5299L7.27102 20.5498L6.25109 21.5697L5.23116 20.5498ZM6.25109 24.6303L5.23116 25.6503L6.25109 26.6702L7.27102 25.6503L6.25109 24.6303ZM5.23116 30.7489L6.25109 29.729L7.27102 30.7489L6.25109 31.7688L5.23116 30.7489Z" fill="#FBBF24"/>
<path fill-rule="evenodd" clip-rule="evenodd" d="M28.4481 10.3822L28.8874 13.1001C28.9519 13.4867 29.438 13.6156 29.6841 13.311L31.4238 11.173C31.7459 10.7747 32.3785 11.1378 32.197 11.6182L31.2187 14.1955C31.0782 14.5587 31.4355 14.916 31.8045 14.7813L34.3818 13.803C34.8622 13.6215 35.2253 14.2541 34.827 14.5762L32.689 16.3159C32.3844 16.562 32.5191 17.054 32.8999 17.1126L35.6178 17.5519C36.1274 17.6339 36.1274 18.3661 35.6178 18.4481L32.8999 18.8874C32.5133 18.9519 32.3844 19.438 32.689 19.6841L34.827 21.4238C35.2253 21.7459 34.8622 22.3785 34.3818 22.197L31.8045 21.2187C31.4413 21.0782 31.084 21.4355 31.2187 21.8045L32.197 24.3818C32.3785 24.8622 31.7459 25.2253 31.4238 24.827L29.6841 22.689C29.438 22.3844 28.946 22.5191 28.8874 22.8999L28.4481 25.6178C28.3661 26.1274 27.6339 26.1274 27.5519 25.6178L27.1126 22.8999C27.0481 22.5133 26.562 22.3844 26.3159 22.689L24.5762 24.827C24.2541 25.2253 23.6215 24.8622 23.803 24.3818L24.7813 21.8045C24.9218 21.4413 24.5645 21.084 24.1955 21.2187L21.6182 22.197C21.1378 22.3785 20.7747 21.7459 21.173 21.4238L23.311 19.6841C23.6156 19.438 23.4809 18.946 23.1001 18.8874L20.3822 18.4481C19.8726 18.3661 19.8726 17.6339 20.3822 17.5519L23.1001 17.1126C23.4867 17.0481 23.6156 16.562 23.311 16.3159L21.173 14.5762C20.7747 14.2541 21.1378 13.6215 21.6182 13.803L24.1955 14.7813C24.5587 14.9218 24.916 14.5645 24.7813 14.1955L23.803 11.6182C23.6215 11.1378 24.2541 10.7747 24.5762 11.173L26.3159 13.311C26.562 13.6156 27.054 13.4809 27.1126 13.1001L27.5519 10.3822C27.6339 9.8726 28.3661 9.8726 28.4481 10.3822Z" fill="#FBBF24"/>
</svg>
