<svg width="48" height="36" viewBox="0 0 48 36" fill="none" xmlns="http://www.w3.org/2000/svg">
<g clip-path="url(#clip0_97_646)">
<path d="M0 0H48V9H0V0Z" fill="#EF4444"/>
<path d="M0 9H48V27H0V9Z" fill="#F5F5F5"/>
<path d="M0 27H48V36H0V27Z" fill="#EF4444"/>
<path d="M27.5081 19.3038C28.2514 18.8783 28.5913 17.8932 28.1133 17.0651L26.5984 14.4411L25.0835 11.8171C24.454 10.7276 22.881 10.7276 22.2522 11.8171L20.7373 14.4411L19.2216 17.0644C18.7436 17.8925 19.0835 18.8783 19.8268 19.303L19.2216 20.3509C18.5921 21.4403 19.3786 22.803 20.6376 22.803H22.1784C22.1753 22.8328 22.1737 22.8634 22.1737 22.894V24.1185C22.1737 24.6052 22.5686 25 23.0552 25H24.2797C24.7664 25 25.1612 24.6052 25.1612 24.1185V22.894C25.1612 22.8634 25.1596 22.8328 25.1565 22.803H26.6973C27.9555 22.803 28.742 21.4403 28.1133 20.3509L27.5081 19.303V19.3038Z" fill="#22C55E"/>
</g>
<defs>
<clipPath id="clip0_97_646">
<rect width="48" height="36" fill="white"/>
</clipPath>
</defs>
</svg>
