<svg width="48" height="36" viewBox="0 0 48 36" fill="none" xmlns="http://www.w3.org/2000/svg">
<g clip-path="url(#clip0_97_748)">
<path d="M0 0H48V18H0V0Z" fill="#1E3A8A"/>
<path d="M0 18H48V36H0V18Z" fill="#EF4444"/>
<path d="M17.8753 7.48233C17.8181 7.41884 17.7546 7.349 17.6911 7.28552C16.9801 6.57447 16.0341 6.18085 15.0311 6.18085C14.6692 6.18085 14.3137 6.23164 13.9708 6.33322C13.8185 6.28878 13.6661 6.25069 13.5137 6.23164V5.60947C13.5137 5.44441 13.4439 5.29204 13.336 5.17776C13.228 5.06349 13.0757 5 12.9043 5C12.5678 5 12.2948 5.27299 12.2948 5.60947V6.23164C12.1424 6.25704 11.99 6.28878 11.844 6.33322C11.5012 6.23164 11.1393 6.18085 10.7775 6.18085C9.68548 6.18085 8.65065 6.657 7.93325 7.47598C7.33648 8.16163 7.0127 9.03775 7.0127 9.94561C7.0127 10.2821 7.28569 10.5551 7.62217 10.5551H8.88555C8.94269 10.5551 8.99983 10.5487 9.05696 10.5487H16.7579C16.815 10.5487 16.8722 10.5487 16.9293 10.5551H18.1927C18.5292 10.5551 18.8022 10.2821 18.8022 9.94561C18.8022 9.03775 18.472 8.16163 17.8816 7.48233H17.8753ZM9.18394 9.33614H8.29513C8.39036 8.94887 8.58081 8.58699 8.84111 8.27591C9.15854 7.90769 9.57121 7.64739 10.022 7.50772C9.57756 8.02831 9.29187 8.66318 9.17759 9.32979L9.18394 9.33614ZM12.2884 9.33614H10.4283C10.5235 8.94887 10.714 8.58699 10.9743 8.27591C11.3234 7.87594 11.7805 7.5966 12.2821 7.47598V9.33614H12.2884ZM13.5074 9.33614V7.47598C13.9518 7.58391 14.3644 7.81246 14.6946 8.14894C14.739 8.19338 14.7771 8.23782 14.8152 8.28226C15.0818 8.58699 15.266 8.94887 15.3612 9.33614H13.501H13.5074ZM16.6119 9.33614C16.5039 8.66318 16.2119 8.02831 15.7675 7.50772C16.1611 7.62835 16.5293 7.8442 16.8277 8.14259C16.8722 8.18703 16.9103 8.23147 16.9484 8.27591C17.215 8.58065 17.3991 8.94252 17.4943 9.32979H16.6055L16.6119 9.33614Z" fill="#FBBF24"/>
<path d="M18.18 11.7812H7.60947C7.27287 11.7812 7 12.0541 7 12.3907C7 12.7273 7.27287 13.0002 7.60947 13.0002H18.18C18.5166 13.0002 18.7895 12.7273 18.7895 12.3907C18.7895 12.0541 18.5166 11.7812 18.18 11.7812Z" fill="#FBBF24"/>
</g>
<defs>
<clipPath id="clip0_97_748">
<rect width="48" height="36" fill="white"/>
</clipPath>
</defs>
</svg>
