<svg width="48" height="36" viewBox="0 0 48 36" fill="none" xmlns="http://www.w3.org/2000/svg">
<rect width="48" height="36" fill="#FBBF24"/>
<path d="M42.24 2.87988H19.2C17.61 2.87988 16.32 4.22988 16.32 5.89988V30.0899C16.32 31.7599 17.61 33.1099 19.2 33.1099H42.24C43.83 33.1099 45.12 31.7599 45.12 30.0899V5.89988C45.12 4.22988 43.83 2.87988 42.24 2.87988ZM19.2 30.5999C18.6 30.5999 18.12 30.1199 18.12 29.5199C18.12 28.9199 18.6 28.4399 19.2 28.4399C19.8 28.4399 20.28 28.9199 20.28 29.5199C20.28 30.1199 19.8 30.5999 19.2 30.5999ZM19.2 7.19988C18.6 7.19988 18.12 6.71988 18.12 6.11988C18.12 5.51988 18.6 5.03988 19.2 5.03988C19.8 5.03988 20.28 5.51988 20.28 6.11988C20.28 6.71988 19.8 7.19988 19.2 7.19988ZM39.18 17.2599C39.18 17.2599 39.18 17.3299 39.16 17.3699V24.8399C39.16 25.2299 38.85 25.5399 38.46 25.5399H35.26C35.07 25.5399 34.89 25.3899 34.89 25.1899C34.88 24.2399 35.54 23.4399 36.44 23.2499C36.65 23.1999 36.82 23.0199 36.82 22.7999C36.82 22.3799 36.48 22.0399 36.06 22.0399H30.36C29.94 22.0399 29.6 22.3799 29.6 22.7999V24.8399C29.6 25.2299 29.29 25.5399 28.9 25.5399H25.7C25.49 25.5399 25.33 25.3599 25.33 25.1499C25.33 24.2199 26 23.4299 26.88 23.2399C27.09 23.1899 27.26 23.0199 27.26 22.7999C27.26 22.3799 26.92 22.0399 26.49 22.0399H23.5V25.1499C23.5 25.3699 23.32 25.5599 23.09 25.5599C22.86 25.5599 22.68 25.3799 22.68 25.1499V22.0299C22.33 22.0099 22.06 21.7199 22.06 21.3599V18.1299C22.06 17.9499 22.2 17.7899 22.38 17.7899C22.49 17.7899 22.59 17.7899 22.69 17.8099V11.7499C22.69 11.5299 22.87 11.3399 23.1 11.3399C23.33 11.3399 23.51 11.5199 23.51 11.7499V18.1299C23.86 18.3599 24.14 18.6999 24.29 19.0999C24.38 19.3499 24.66 19.4899 24.92 19.4199C25.16 19.3599 25.32 19.1199 25.32 18.8699V16.9399C25.32 15.9999 25.9 15.1899 26.72 14.8499C26.85 14.7999 26.93 14.6699 26.93 14.5299C26.93 14.3399 26.77 14.1799 26.58 14.1799H26.3C26 14.1799 25.77 13.9099 25.82 13.6099C25.86 13.3699 26.09 13.1999 26.33 13.1999H26.7C26.83 13.1999 26.93 13.0999 26.93 12.9699C26.93 12.8399 26.83 12.7399 26.7 12.7399H26.3C26 12.7399 25.77 12.4699 25.82 12.1699C25.86 11.9299 26.09 11.7599 26.33 11.7599H26.63C26.8 11.7599 26.93 11.6199 26.93 11.4599C26.93 10.8999 27.38 10.4399 27.95 10.4399H30.24C31.21 10.4399 32 11.2299 32 12.1999V12.9999C32 13.9299 32.75 14.6799 33.68 14.6799H37.72C37.95 14.6799 38.16 14.7399 38.35 14.8299V14.1999C38.35 13.9799 38.17 13.7899 37.94 13.7899H34.24C33.53 13.7899 32.96 13.1799 33.03 12.4499C33.09 11.8199 33.66 11.3499 34.3 11.3499H38.76C38.98 11.3499 39.17 11.5299 39.17 11.7599C39.17 11.9899 38.99 12.1699 38.76 12.1699H34.25C34.03 12.1699 33.84 12.3499 33.84 12.5799C33.84 12.8099 34.02 12.9899 34.25 12.9899H37.95C38.62 12.9899 39.17 13.5299 39.17 14.1999V17.2699L39.18 17.2599ZM42.6 30.5999C42 30.5999 41.52 30.1199 41.52 29.5199C41.52 28.9199 42 28.4399 42.6 28.4399C43.2 28.4399 43.68 28.9199 43.68 29.5199C43.68 30.1199 43.2 30.5999 42.6 30.5999ZM42.6 7.19988C42 7.19988 41.52 6.71988 41.52 6.11988C41.52 5.51988 42 5.03988 42.6 5.03988C43.2 5.03988 43.68 5.51988 43.68 6.11988C43.68 6.71988 43.2 7.19988 42.6 7.19988Z" fill="#713F12"/>
<path d="M2.88 5.75988C2.88 4.16988 4.17 2.87988 5.76 2.87988H8.16V33.1199H5.76C4.17 33.1199 2.88 31.8299 2.88 30.2399V5.75988Z" fill="#14532D"/>
<path d="M13.44 30.2399C13.44 31.8299 12.15 33.1199 10.56 33.1199H8.16V2.87988H10.56C12.15 2.87988 13.44 4.16988 13.44 5.75988V30.2399Z" fill="#FB923C"/>
</svg>
