<svg width="48" height="36" viewBox="0 0 48 36" fill="none" xmlns="http://www.w3.org/2000/svg">
<g clip-path="url(#clip0_97_872)">
<path d="M0 0H48V3.27273H0V0Z" fill="#EF4444"/>
<path d="M0 3.27246H48V6.54519H0V3.27246Z" fill="#F5F5F5"/>
<path d="M0 6.5459H48V9.81863H0V6.5459Z" fill="#EF4444"/>
<path d="M0 9.81836H48V13.0911H0V9.81836Z" fill="#F5F5F5"/>
<path d="M0 13.0908H48V16.3635H0V13.0908Z" fill="#EF4444"/>
<path d="M0 16.3633H48V19.636H0V16.3633Z" fill="#F5F5F5"/>
<path d="M0 19.6367H48V22.9094H0V19.6367Z" fill="#EF4444"/>
<path d="M0 22.9092H48V26.1819H0V22.9092Z" fill="#F5F5F5"/>
<path d="M0 26.1816H48V29.4544H0V26.1816Z" fill="#EF4444"/>
<path d="M0 29.4541H48V32.7268H0V29.4541Z" fill="#F5F5F5"/>
<path d="M0 32.7275H48V36.0003H0V32.7275Z" fill="#EF4444"/>
<path d="M0 0H16.35V14.35C16.35 15.4546 15.4546 16.35 14.35 16.35H0V0Z" fill="#1E3A8A"/>
<path d="M8.76351 4.4166L9.28164 5.8864C9.33802 6.04565 9.48584 6.15309 9.655 6.15766L11.2132 6.19652C11.8022 6.21099 12.0445 6.95847 11.5766 7.31583L10.3392 8.26293C10.2051 8.36503 10.1487 8.53952 10.1967 8.70182L10.6417 10.1952C10.8101 10.7598 10.1739 11.2216 9.68928 10.8871L8.40616 10.0025C8.26748 9.90646 8.08385 9.90646 7.94518 10.0025L6.66205 10.8871C6.17745 11.2216 5.54198 10.7598 5.70961 10.1952L6.15459 8.70182C6.20259 8.54028 6.14621 8.3658 6.0121 8.26293L4.77317 7.31583C4.30533 6.95771 4.54839 6.21099 5.13662 6.19652L6.69481 6.15766C6.8632 6.15385 7.01178 6.04565 7.06817 5.8864L7.5863 4.4166C7.78212 3.86113 8.56769 3.86113 8.76351 4.4166Z" fill="#F5F5F5"/>
</g>
<defs>
<clipPath id="clip0_97_872">
<rect width="48" height="36" fill="white"/>
</clipPath>
</defs>
</svg>
