<svg width="48" height="36" viewBox="0 0 48 36" fill="none" xmlns="http://www.w3.org/2000/svg">
<g clip-path="url(#clip0_97_925)">
<path d="M0 0H48V12H0V0Z" fill="#3B82F6"/>
<path d="M0 12H48V24H0V12Z" fill="#F5F5F5"/>
<path d="M0 24H48V36H0V24Z" fill="#22C55E"/>
<path d="M28.0648 20.6795L26.5109 17.9875L26.4254 17.8392C26.8397 17.3282 27.0896 16.6786 27.0896 15.9693C27.0879 14.3299 25.7597 13 24.1187 13C22.4776 13 21.151 14.3299 21.151 15.9693C21.151 16.6786 21.4008 17.3282 21.8151 17.8392L21.7297 17.9875L20.1741 20.6795C19.7502 21.413 20.1354 22.3479 20.9511 22.572C23.0257 23.1427 25.2148 23.1427 27.2878 22.572C28.1035 22.3479 28.4888 21.413 28.0648 20.6795ZM25.9724 15.9693C25.9724 16.2482 25.908 16.5125 25.7967 16.7511L25.239 15.7839C25.1004 15.5421 24.9005 15.3712 24.678 15.2649V14.2009C25.4276 14.4379 25.9724 15.1407 25.9724 15.9677V15.9693ZM22.2665 15.9693C22.2665 15.1423 22.8113 14.4395 23.5609 14.2025V15.2665C23.3368 15.3729 23.1386 15.5437 22.9999 15.7855L22.4422 16.7527C22.331 16.5141 22.2665 16.2498 22.2665 15.9709V15.9693Z" fill="#262626"/>
</g>
<defs>
<clipPath id="clip0_97_925">
<rect width="48" height="36" fill="white"/>
</clipPath>
</defs>
</svg>
