<svg width="48" height="36" viewBox="0 0 48 36" fill="none" xmlns="http://www.w3.org/2000/svg">
<g clip-path="url(#clip0_97_1067)">
<path d="M0 0H48V9H0V0Z" fill="#EF4444"/>
<path d="M0 9H48V27H0V9Z" fill="#262626"/>
<path d="M0 27H48V36H0V27Z" fill="#22C55E"/>
<path d="M28.1708 14.8787L29.1168 15.9824C29.2195 16.1019 29.3906 16.1455 29.5489 16.0924L31.0064 15.6002C31.5573 15.414 32.0187 15.9824 31.6979 16.4513L30.8502 17.6929C30.7581 17.827 30.7611 17.9979 30.857 18.1229L31.7426 19.2719C32.0775 19.7062 31.6336 20.3227 31.0783 20.1953L29.6081 19.8589C29.4491 19.8221 29.2788 19.8841 29.1805 20.0145L28.2706 21.2172C27.927 21.6718 27.1915 21.4846 27.1681 20.9368L27.108 19.4874C27.1013 19.3307 26.9938 19.1979 26.8368 19.1537L25.3879 18.7479C24.8406 18.5943 24.8296 17.8627 25.3705 17.6515L26.8034 17.0917C26.9584 17.0315 27.0619 16.8872 27.0638 16.7297L27.079 15.2761C27.0847 14.7267 27.8133 14.4615 28.1708 14.8787Z" fill="#F5F5F5"/>
<path d="M24.3342 23.0058C24.3342 23.0058 24.3414 23.0058 24.3442 23.0058C24.5829 23.0058 24.6586 23.3285 24.4428 23.4313C23.6783 23.7959 22.8252 24 21.9249 24C18.6552 24 15.9843 21.2822 16.0001 17.9696C16.0158 14.657 18.6624 12 21.9249 12C22.8266 12 23.6812 12.2041 24.4457 12.5687C24.6601 12.6715 24.5829 12.9942 24.3457 12.9942C24.3414 12.9942 24.3385 12.9942 24.3342 12.9942C21.6048 12.9942 19.3912 15.2344 19.3912 18C19.3912 20.7656 21.6048 23.0058 24.3342 23.0058Z" fill="#F5F5F5"/>
</g>
<defs>
<clipPath id="clip0_97_1067">
<rect width="48" height="36" fill="white"/>
</clipPath>
</defs>
</svg>
