<svg width="48" height="36" viewBox="0 0 48 36" fill="none" xmlns="http://www.w3.org/2000/svg">
<rect width="48" height="36" fill="#EF4444"/>
<path d="M25.0518 13.5951L25.792 15.6949C25.8726 15.9224 26.0837 16.0758 26.3254 16.0824L28.5514 16.1379C29.3928 16.1586 29.7389 17.2264 29.0706 17.7369L27.3029 19.0899C27.1113 19.2358 27.0307 19.485 27.0993 19.7169L27.735 21.8503C27.9756 22.6569 27.0667 23.3166 26.3744 22.8387L24.5413 21.575C24.3432 21.4378 24.0809 21.4378 23.8828 21.575L22.0498 22.8387C21.3575 23.3166 20.4497 22.6569 20.6891 21.8503L21.3248 19.7169C21.3934 19.4861 21.3128 19.2369 21.1213 19.0899L19.3514 17.7369C18.683 17.2253 19.0302 16.1586 19.8706 16.1379L22.0966 16.0824C22.3371 16.0769 22.5494 15.9224 22.6299 15.6949L23.3701 13.5951C23.6499 12.8016 24.7721 12.8016 25.0518 13.5951Z" fill="#22C55E"/>
<path fill-rule="evenodd" clip-rule="evenodd" d="M25.792 15.6949L25.0518 13.5951C24.7721 12.8016 23.6499 12.8016 23.3701 13.5951L22.6299 15.6949C22.5494 15.9224 22.3371 16.0769 22.0966 16.0824L19.8706 16.1379C19.0302 16.1586 18.683 17.2253 19.3514 17.7369L21.1213 19.0899C21.3128 19.2369 21.3934 19.4861 21.3248 19.7169L20.6891 21.8503C20.4497 22.6569 21.3575 23.3166 22.0498 22.8387L23.8828 21.575C24.0809 21.4378 24.3432 21.4378 24.5413 21.575L26.3744 22.8387C27.0667 23.3166 27.9756 22.6569 27.735 21.8503L27.0993 19.7169C27.0307 19.485 27.1113 19.2358 27.3029 19.0899L29.0706 17.7369C29.7389 17.2264 29.3928 16.1586 28.5514 16.1379L26.3254 16.0824C26.0837 16.0758 25.8726 15.9224 25.792 15.6949ZM25.1096 20.7521C24.5694 20.3788 23.8547 20.3788 23.3146 20.7521C23.3142 20.7523 23.3139 20.7525 23.3136 20.7528L21.7354 21.8408L22.2832 20.0024C22.4697 19.3749 22.2506 18.6959 21.7299 18.2964L20.2039 17.1299L22.1192 17.0821C22.1197 17.0821 22.1202 17.0821 22.1207 17.0821M24.211 14.2177L24.8489 16.0273L24.8494 16.0286C25.0682 16.6467 25.6438 17.0643 26.2984 17.082L28.2184 17.1299L26.6971 18.2943C26.6967 18.2946 26.6963 18.2949 26.6959 18.2952C26.1713 18.6953 25.9554 19.3752 26.1404 20.0005L26.6887 21.8408L25.1105 20.7528C25.1102 20.7525 25.1099 20.7523 25.1096 20.7521" fill="#22C55E"/>
</svg>
