<svg width="48" height="36" viewBox="0 0 48 36" fill="none" xmlns="http://www.w3.org/2000/svg">
<g clip-path="url(#clip0_97_1195)">
<path d="M0 0H16V36H0V0Z" fill="#1E3A8A"/>
<path d="M16 0H32V36H16V0Z" fill="#FBBF24"/>
<path d="M32 0H48V36H32V0Z" fill="#EF4444"/>
<path d="M28.8043 11C28.1441 11 27.6087 11.5355 27.6087 12.1957V13.769C27.6087 14.3286 27.2295 14.8172 26.6872 14.9558C25.814 15.1791 24.9644 14.5194 24.9644 13.6181V12.488V11.9644C24.9644 11.4319 24.5325 11 24 11H23.4902C23.0829 11 22.7447 11.2924 22.6717 11.6784C22.3049 11.7657 22.0312 12.0951 22.0312 12.4885H22.6086C22.8443 12.4885 23.0356 12.6798 23.0356 12.9155V13.6186C23.0356 14.5199 22.186 15.1791 21.3128 14.9563C20.7705 14.8177 20.3913 14.3291 20.3913 13.7695V12.1962C20.3913 11.536 19.8559 11.0005 19.1957 11.0005C18.5355 11 18 11.5355 18 12.1957V24.7612C18 25.4214 18.5355 25.9569 19.1957 25.9569C19.8559 25.9569 20.3913 25.4214 20.3913 24.7612V18.6182C20.3913 18.452 20.6009 18.384 20.7019 18.5161C20.7039 18.5186 20.7054 18.5206 20.7074 18.523C20.9692 18.8618 21.1112 19.2774 21.1112 19.7059V21.3843C21.1112 21.7077 21.3641 21.9848 21.6876 21.9907C22.011 21.9966 22.2856 21.7314 22.2856 21.4035V20.8024C22.2856 20.725 22.3838 20.6915 22.4311 20.7526C22.9143 21.3774 22.9414 22.2422 22.4982 22.896L22.1003 23.4827C21.7527 23.9955 21.8759 24.6917 22.3783 25.0536L23.3304 25.7399C23.7303 26.0284 24.2697 26.0284 24.6696 25.7399L25.6217 25.0536C26.1241 24.6912 26.2474 23.995 25.8997 23.4827L25.5018 22.896C25.0586 22.2422 25.0857 21.3774 25.5689 20.7526C25.6162 20.6915 25.7144 20.725 25.7144 20.8024V21.3843C25.7144 21.7077 25.9673 21.9848 26.2907 21.9907C26.6201 21.9966 26.8888 21.7314 26.8888 21.4035V19.7054C26.8888 19.2774 27.0308 18.8613 27.2926 18.5226C27.2926 18.5226 27.2961 18.5181 27.2981 18.5157C27.3991 18.3835 27.6087 18.4516 27.6087 18.6177V24.7607C27.6087 25.4209 28.1441 25.9564 28.8043 25.9564C29.4645 25.9564 30 25.4209 30 24.7607V12.1957C30 11.5355 29.4645 11 28.8043 11Z" fill="#A16207"/>
<path d="M27.84 14.9884V18.1761H20.16V14.9884C20.16 14.4642 20.6667 14.0391 21.2919 14.0391H26.7082C27.3333 14.0391 27.84 14.4642 27.84 14.9884Z" fill="#EF4444"/>
<path d="M27.84 17.8789V19.0483C27.84 19.8854 27.4013 20.6721 26.6616 21.1684L24 22.3589L21.3384 21.1684C20.5988 20.6721 20.16 19.8854 20.16 19.0483V17.8789H27.84Z" fill="#1E3A8A"/>
<path fill-rule="evenodd" clip-rule="evenodd" d="M27.1734 14.9884C27.1734 14.9525 27.1577 14.893 27.0801 14.8279C27.0011 14.7616 26.8718 14.7057 26.7082 14.7057H21.2919C21.1283 14.7057 20.999 14.7616 20.92 14.8279C20.8424 14.893 20.8267 14.9525 20.8267 14.9884V19.0483C20.8267 19.6301 21.1236 20.2017 21.666 20.5847L24.0001 21.6286L26.3341 20.5847C26.8765 20.2017 27.1734 19.6301 27.1734 19.0483V14.9884ZM26.6617 21.1684L24.0001 22.3589L21.3385 21.1684C20.5988 20.6721 20.1601 19.8854 20.1601 19.0483V14.9884C20.1601 14.4642 20.6668 14.0391 21.2919 14.0391H26.7082C27.3334 14.0391 27.8401 14.4642 27.8401 14.9884V19.0483C27.8401 19.8854 27.4013 20.6721 26.6617 21.1684Z" fill="#FBBF24"/>
<path d="M24.3366 16.4707L24.5735 17.1426C24.5993 17.2154 24.6668 17.2645 24.7442 17.2666L25.4565 17.2844C25.7257 17.291 25.8365 17.6327 25.6226 17.7961L25.057 18.229C24.9957 18.2757 24.9699 18.3555 24.9918 18.4297L25.1952 19.1124C25.2722 19.3705 24.9814 19.5816 24.7598 19.4287L24.1733 19.0243C24.1099 18.9804 24.0259 18.9804 23.9625 19.0243L23.376 19.4287C23.1544 19.5816 22.8639 19.3705 22.9406 19.1124L23.144 18.4297C23.1659 18.3558 23.1401 18.2761 23.0788 18.229L22.5125 17.7961C22.2986 17.6324 22.4097 17.291 22.6786 17.2844L23.3909 17.2666C23.4679 17.2649 23.5358 17.2154 23.5616 17.1426L23.7985 16.4707C23.888 16.2168 24.2471 16.2168 24.3366 16.4707Z" fill="#FBBF24"/>
</g>
<defs>
<clipPath id="clip0_97_1195">
<rect width="48" height="36" fill="white"/>
</clipPath>
</defs>
</svg>
