<svg width="48" height="36" viewBox="0 0 48 36" fill="none" xmlns="http://www.w3.org/2000/svg">
<rect x="1.25" y="1.25" width="45.5" height="33.5" fill="#EF4444"/>
<rect x="1.25" y="1.25" width="45.5" height="33.5" stroke="#FBBF24" stroke-width="2.5"/>
<path d="M28.3324 21.0882C32.522 20.1587 35.664 16.4133 35.664 11.9485C35.664 10.6628 34.6165 9.62245 33.3289 9.63289C32.0537 9.64333 31.042 10.7085 31.0329 11.9837C31.0218 13.4585 30.333 14.7748 29.2626 15.6358C28.6051 16.1641 27.6273 15.6867 27.6273 14.8433V12.7501C27.6273 12.4383 27.8804 12.1853 28.1922 12.1853H28.956C28.956 11.6641 28.5946 11.229 28.1087 11.1136C28.0122 10.6028 27.5647 10.216 27.0259 10.216H26.3515C25.647 10.216 25.0756 10.7874 25.0756 11.4919V13.3261C25.0756 13.7364 24.7429 14.0697 24.332 14.0697C23.9211 14.0697 23.5884 13.737 23.5884 13.3261V11.4919C23.5884 10.7874 23.017 10.216 22.3126 10.216H21.6381C21.0993 10.216 20.6519 10.6028 20.5553 11.1136C20.07 11.229 19.708 11.6647 19.708 12.1853H20.4718C20.7836 12.1853 21.0367 12.4383 21.0367 12.7501V14.8433C21.0367 15.6867 20.0589 16.1641 19.4014 15.6358C18.3311 14.7748 17.6423 13.4585 17.6312 11.9837C17.622 10.7085 16.6097 9.64398 15.3352 9.63289C14.0476 9.62245 13 10.6628 13 11.9485C13 16.4133 16.142 20.1587 20.3316 21.0882C20.8117 21.1945 20.98 21.7933 20.6329 22.141L19.4504 23.3235C18.9918 23.7821 18.9918 24.525 19.4504 24.9836C19.6793 25.2132 19.98 25.328 20.2801 25.328C20.5801 25.328 20.8815 25.2132 21.1104 24.9836L21.8631 24.2309C22.2265 23.8675 22.8592 24.1226 22.8513 24.6366C22.8442 25.0964 22.7065 25.5556 22.4358 25.9548L21.9095 26.731C21.4496 27.4094 21.6127 28.3304 22.2773 28.8092L23.5369 29.7172C23.775 29.8894 24.0522 29.9839 24.332 30.0002C24.6118 29.9839 24.8891 29.8894 25.1271 29.7172L26.3867 28.8092C27.0514 28.3304 27.2144 27.4094 26.7546 26.731L26.2282 25.9548C25.9575 25.5556 25.8192 25.0964 25.8127 24.6366C25.8049 24.1226 26.4376 23.8675 26.8009 24.2309L27.5536 24.9836C27.7826 25.2132 28.0833 25.328 28.384 25.328C28.6847 25.328 28.9847 25.2132 29.2137 24.9836C29.6722 24.525 29.6722 23.7821 29.2137 23.3235L28.0311 22.141C27.6834 21.7933 27.8523 21.1945 28.3324 21.0882Z" fill="#FBBF24"/>
<path d="M23.047 9.63297H25.6176C26.0684 9.63297 26.4336 9.2677 26.4336 8.81698C26.4336 8.36625 26.0684 8.00098 25.6176 8.00098H23.047C22.5963 8.00098 22.231 8.36625 22.231 8.81698C22.231 9.2677 22.5963 9.63297 23.047 9.63297Z" fill="#FBBF24"/>
<path d="M28.7667 16.1457V20.1011H19.9667V16.1457C19.9667 15.4953 20.5472 14.9678 21.2635 14.9678H27.4698C28.1861 14.9678 28.7667 15.4953 28.7667 16.1457Z" fill="#3B82F6"/>
<path fill-rule="evenodd" clip-rule="evenodd" d="M28.0792 19.4136V16.1457C28.0792 15.9357 27.87 15.6553 27.4698 15.6553H21.2635C20.8633 15.6553 20.6542 15.9357 20.6542 16.1457V19.4136H28.0792ZM28.7667 16.1457C28.7667 15.4953 28.1861 14.9678 27.4698 14.9678H21.2635C20.5472 14.9678 19.9667 15.4953 19.9667 16.1457V20.1011H28.7667V16.1457Z" fill="#FBBF24"/>
<path d="M28.7667 19.7344V21.2658C28.7667 22.362 28.2639 23.3921 27.4164 24.0421L24.3667 25.601L21.3169 24.0421C20.4694 23.3921 19.9667 22.362 19.9667 21.2658V19.7344H28.7667Z" fill="#22C55E"/>
<path fill-rule="evenodd" clip-rule="evenodd" d="M28.0792 21.2658V20.4219H20.6542V21.2658C20.6542 22.133 21.043 22.9415 21.6888 23.4601L24.3667 24.8289L27.0445 23.4601C27.6904 22.9415 28.0792 22.133 28.0792 21.2658ZM27.4164 24.0421L24.3667 25.601L21.3169 24.0421C20.4694 23.3921 19.9667 22.362 19.9667 21.2658V19.7344H28.7667V21.2658C28.7667 22.362 28.2639 23.3921 27.4164 24.0421Z" fill="#FBBF24"/>
</svg>
