<svg width="48" height="36" viewBox="0 0 48 36" fill="none" xmlns="http://www.w3.org/2000/svg">
<g clip-path="url(#clip0_97_1392)">
<rect width="48" height="36" fill="#EF4444"/>
<path d="M24 9.36C24.39 9.36 24.78 9.39 25.16 9.44L27 0H21L22.84 9.44C23.22 9.39 23.61 9.36 24 9.36Z" fill="#FBBF24"/>
<path d="M24 26.6396C23.61 26.6396 23.22 26.6096 22.84 26.5596L21 35.9996H27L25.16 26.5596C24.78 26.6096 24.39 26.6396 24 26.6396Z" fill="#FBBF24"/>
<path d="M32.64 18.0004C32.64 18.4404 32.61 18.8604 32.54 19.2804L48 21.6004V14.4004L32.54 16.7204C32.61 17.1404 32.64 17.5604 32.64 18.0004Z" fill="#FBBF24"/>
<path d="M18.33 11.49L7.2 0H0L17.09 12.82C17.46 12.33 17.87 11.88 18.33 11.49Z" fill="#FBBF24"/>
<path d="M30.91 12.82L48 0H40.8L29.67 11.49C30.13 11.89 30.54 12.33 30.91 12.82Z" fill="#FBBF24"/>
<path d="M15.36 18.0004C15.36 17.5604 15.39 17.1404 15.46 16.7204L0 14.4004V21.6004L15.46 19.2804C15.39 18.8604 15.36 18.4404 15.36 18.0004Z" fill="#FBBF24"/>
<path d="M17.09 23.1797L0 35.9997H7.2L18.33 24.5097C17.87 24.1197 17.46 23.6697 17.09 23.1797Z" fill="#FBBF24"/>
<path d="M29.67 24.5097L40.8 35.9997H48L30.91 23.1797C30.54 23.6697 30.13 24.1097 29.67 24.5097Z" fill="#FBBF24"/>
<path d="M24 24.4795C27.5788 24.4795 30.48 21.5783 30.48 17.9995C30.48 14.4207 27.5788 11.5195 24 11.5195C20.4212 11.5195 17.52 14.4207 17.52 17.9995C17.52 21.5783 20.4212 24.4795 24 24.4795Z" fill="#FBBF24"/>
</g>
<defs>
<clipPath id="clip0_97_1392">
<rect width="48" height="36" fill="white"/>
</clipPath>
</defs>
</svg>
