<svg width="48" height="36" viewBox="0 0 48 36" fill="none" xmlns="http://www.w3.org/2000/svg">
<g clip-path="url(#clip0_97_1363)">
<path d="M0 0H48V12H0V0Z" fill="#FBBF24"/>
<path d="M0 12H48V24H0V12Z" fill="#22C55E"/>
<path d="M0 24H48V36H0V24Z" fill="#EF4444"/>
<path d="M26.1037 9.19028L27.5841 13.3897C27.7451 13.8447 28.1675 14.1517 28.6508 14.1647L33.1028 14.2758C34.7856 14.3171 35.4779 16.4528 34.1412 17.4738L30.6057 20.1798C30.2226 20.4715 30.0615 20.9701 30.1986 21.4338L31.47 25.7007C31.9511 27.3139 30.1333 28.6331 28.7487 27.6774L25.0827 25.1499C24.6865 24.8756 24.1618 24.8756 23.7656 25.1499L20.0995 27.6774C18.7149 28.6331 16.8993 27.3139 17.3782 25.7007L18.6496 21.4338C18.7868 20.9722 18.6257 20.4737 18.2425 20.1798L14.7027 17.4738C13.366 16.4506 14.0605 14.3171 15.7411 14.2758L20.1931 14.1647C20.6742 14.1539 21.0987 13.8447 21.2598 13.3897L22.7402 9.19028C23.2997 7.60324 25.5442 7.60324 26.1037 9.19028Z" fill="#F5F5F5"/>
</g>
<defs>
<clipPath id="clip0_97_1363">
<rect width="48" height="36" fill="white"/>
</clipPath>
</defs>
</svg>
