<svg width="48" height="36" viewBox="0 0 48 36" fill="none" xmlns="http://www.w3.org/2000/svg">
<g clip-path="url(#clip0_97_1482)">
<path d="M0 0H16V36H0V0Z" fill="#EF4444"/>
<path d="M16 0H32V36H16V0Z" fill="#1E3A8A"/>
<path d="M32 0H48V36H32V0Z" fill="#EF4444"/>
<path d="M5.01748 19.7861C5.01748 18.9528 4.34199 18.2773 3.50874 18.2773C2.67549 18.2773 2 18.9528 2 19.7861V29.5959C2 30.4292 2.67549 31.1047 3.50874 31.1047C4.34199 31.1047 5.01748 30.4292 5.01748 29.5959V19.7861Z" fill="#FBBF24"/>
<path d="M14 19.7861C14 18.9528 13.3245 18.2773 12.4913 18.2773C11.658 18.2773 10.9825 18.9528 10.9825 19.7861V29.5959C10.9825 30.4292 11.658 31.1047 12.4913 31.1047C13.3245 31.1047 14 30.4292 14 29.5959V19.7861Z" fill="#FBBF24"/>
<path d="M9.399 28.0527H6.60035C5.99613 28.0527 5.50618 28.5427 5.50618 29.1469C5.50618 29.7511 5.99613 30.2411 6.60035 30.2411H9.399C10.0032 30.2411 10.4932 29.7511 10.4932 29.1469C10.4932 28.5427 10.0032 28.0527 9.399 28.0527Z" fill="#FBBF24"/>
<path d="M10.4938 25.0589C10.4938 23.6818 9.37746 22.5654 8.00034 22.5654C6.62323 22.5654 5.50685 23.6818 5.50685 25.0589C5.50685 26.436 6.62323 27.5524 8.00034 27.5524C9.37746 27.5524 10.4938 26.436 10.4938 25.0589Z" fill="#FBBF24"/>
<path d="M10.2488 14.2491C10.2488 13.007 9.24187 12 7.99971 12C6.75755 12 5.75058 13.007 5.75058 14.2491C5.75058 15.4913 6.75755 16.4983 7.99971 16.4983C9.24187 16.4983 10.2488 15.4913 10.2488 14.2491Z" fill="#FBBF24"/>
<path d="M5.70801 17.9223L6.26725 18.4007L7.40701 19.3751C7.7225 19.645 8.27688 19.645 8.59237 19.3751L9.73213 18.4007L10.2914 17.9223C10.7461 17.5339 10.3826 16.9199 9.69869 16.9199H6.30069C5.61683 16.9199 5.25332 17.5339 5.70801 17.9223Z" fill="#FBBF24"/>
<path d="M9.399 19.874H6.60035C5.99613 19.874 5.50618 20.364 5.50618 20.9682C5.50618 21.5724 5.99613 22.0624 6.60035 22.0624H9.399C10.0032 22.0624 10.4932 21.5724 10.4932 20.9682C10.4932 20.364 10.0032 19.874 9.399 19.874Z" fill="#FBBF24"/>
</g>
<defs>
<clipPath id="clip0_97_1482">
<rect width="48" height="36" fill="white"/>
</clipPath>
</defs>
</svg>
