<svg width="48" height="36" viewBox="0 0 48 36" fill="none" xmlns="http://www.w3.org/2000/svg">
<g clip-path="url(#clip0_97_1541)">
<path d="M0 0H48V5.14286H0V0Z" fill="#EF4444"/>
<path d="M0 5.14258H48V10.2854H0V5.14258Z" fill="#14532D"/>
<path d="M0 10.2861H48V15.429H0V10.2861Z" fill="#14532D"/>
<path d="M0 15.4287H48V20.5716H0V15.4287Z" fill="#14532D"/>
<path d="M0 20.5713H48V25.7141H0V20.5713Z" fill="#14532D"/>
<path d="M0 25.7139H48V30.8567H0V25.7139Z" fill="#14532D"/>
<path d="M0 30.8574H48V36.0003H0V30.8574Z" fill="#EF4444"/>
<path d="M35.0972 13.111C35.0695 12.8674 34.7152 12.8607 34.6801 13.1036C33.8953 18.5283 29.227 22.6966 23.5848 22.6966C17.9426 22.6966 13.2743 18.5283 12.4896 13.1036C12.4544 12.8607 12.1002 12.8674 12.0725 13.111C12.0239 13.5438 12 13.9788 12 14.4153C12 20.8131 17.187 26.0001 23.5848 26.0001C29.9826 26.0001 35.1697 20.8131 35.1697 14.4153C35.1704 13.9788 35.1457 13.5438 35.0972 13.111Z" fill="#FBBF24"/>
<path d="M24.0946 8.37809L24.5709 9.71204C24.6227 9.85657 24.7586 9.95407 24.9141 9.95822L26.3463 9.99349C26.8877 10.0066 27.1104 10.685 26.6804 11.0093L25.543 11.8689C25.4197 11.9616 25.3679 12.1199 25.412 12.2672L25.821 13.6226C25.9758 14.135 25.391 14.5541 24.9456 14.2505L23.7662 13.4476C23.6387 13.3605 23.4699 13.3605 23.3424 13.4476L22.163 14.2505C21.7176 14.5541 21.1335 14.135 21.2876 13.6226L21.6966 12.2672C21.7407 12.1206 21.6889 11.9623 21.5656 11.8689L20.4268 11.0093C19.9968 10.6843 20.2202 10.0066 20.7609 9.99349L22.1931 9.95822C22.3479 9.95476 22.4845 9.85657 22.5363 9.71204L23.0126 8.37809C23.1926 7.87397 23.9146 7.87397 24.0946 8.37809Z" fill="#FBBF24"/>
</g>
<defs>
<clipPath id="clip0_97_1541">
<rect width="48" height="36" fill="white"/>
</clipPath>
</defs>
</svg>
