<svg width="48" height="36" viewBox="0 0 48 36" fill="none" xmlns="http://www.w3.org/2000/svg">
<g clip-path="url(#clip0_97_1621)">
<path d="M0 0H24V36H0V0Z" fill="#F5F5F5"/>
<path d="M24 0H48V36H24V0Z" fill="#EF4444"/>
<path d="M11.7656 15.9968H10.2344C9.20521 15.9968 8.36859 15.1602 8.36859 14.131V12.6283H6.86582C5.83662 12.6283 5 11.7916 5 10.7624V9.23126C5 8.73244 5.19574 8.26204 5.54617 7.9116C5.78295 7.67482 6.0734 7.51066 6.39227 7.42857V7.36859H8.36543V5.86583C8.36543 4.83662 9.20205 4 10.2313 4H11.7624C12.2612 4 12.7316 4.19574 13.0821 4.54617C13.3189 4.78295 13.483 5.0734 13.5651 5.39227H13.6251V7.36543H15.1279C16.1602 7.36543 17 8.20205 17 9.23126V10.7624C17 11.7916 16.1634 12.6283 15.1342 12.6283H13.6314V14.131C13.6314 15.1602 12.7948 15.9968 11.7656 15.9968ZM6.82794 8.31571C6.59747 8.32518 6.38279 8.41673 6.21863 8.5809C6.04499 8.75454 5.95028 8.985 5.95028 9.23126V10.7624C5.95028 11.2676 6.36385 11.6811 6.86898 11.6811H8.40016C8.90529 11.6811 9.31886 12.0947 9.31886 12.5998V14.131C9.31886 14.6362 9.73244 15.0497 10.2376 15.0497H11.7687C12.2739 15.0497 12.6875 14.6362 12.6875 14.131V12.5998C12.6875 12.0947 13.101 11.6811 13.6062 11.6811H15.1373C15.6425 11.6811 16.056 11.2676 16.056 10.7624V9.23126C16.056 8.72613 15.6425 8.31255 15.1373 8.31255H13.603C13.0979 8.31255 12.6843 7.89897 12.6843 7.39384V5.82478C12.6748 5.59432 12.5801 5.37964 12.4159 5.21547C12.2423 5.04183 12.0118 4.94712 11.7656 4.94712H10.2344C9.72928 4.94712 9.31571 5.36069 9.31571 5.86583V7.397C9.31571 7.90213 8.90213 8.31571 8.397 8.31571H6.8311H6.82794Z" fill="#EF4444"/>
<path d="M11.0016 13.1559C9.26202 13.1559 7.8445 11.7384 7.8445 9.99886C7.8445 8.25932 9.26202 6.8418 11.0016 6.8418C12.7411 6.8418 14.1586 8.25932 14.1586 9.99886C14.1586 11.7384 12.7411 13.1559 11.0016 13.1559ZM11.0016 7.78892C9.78293 7.78892 8.79162 8.78023 8.79162 9.99886C8.79162 11.2175 9.78293 12.2088 11.0016 12.2088C12.2202 12.2088 13.2115 11.2175 13.2115 9.99886C13.2115 8.78023 12.2202 7.78892 11.0016 7.78892Z" fill="#D4D4D4"/>
</g>
<defs>
<clipPath id="clip0_97_1621">
<rect width="48" height="36" fill="white"/>
</clipPath>
</defs>
</svg>
