<svg width="48" height="36" viewBox="0 0 48 36" fill="none" xmlns="http://www.w3.org/2000/svg">
<rect x="3.5" y="3.5" width="41" height="29" fill="#22C55E"/>
<rect x="3.5" y="3.5" width="41" height="29" stroke="#DC2626" stroke-width="7"/>
<path d="M28.7233 23.8401C28.7233 23.8401 28.7316 23.8401 28.7349 23.8401C29.0134 23.8401 29.1017 24.2166 28.85 24.3365C27.958 24.7619 26.9627 25 25.9124 25C22.0978 25 18.9817 21.8292 19.0001 17.9645C19.0184 14.0999 22.1061 11 25.9124 11C26.9644 11 27.9614 11.2381 28.8533 11.6635C29.1034 11.7834 29.0134 12.1599 28.7366 12.1599C28.7316 12.1599 28.7283 12.1599 28.7233 12.1599C25.5389 12.1599 22.9564 14.7735 22.9564 18C22.9564 21.2265 25.5389 23.8401 28.7233 23.8401Z" fill="#F5F5F5"/>
</svg>
