<svg width="48" height="36" viewBox="0 0 48 36" fill="none" xmlns="http://www.w3.org/2000/svg">
<g clip-path="url(#clip0_97_1774)">
<path d="M0 0H16V36H0V0Z" fill="#22C55E"/>
<path d="M16 0H32V36H16V0Z" fill="#F5F5F5"/>
<path d="M32 0H48V36H32V0Z" fill="#EF4444"/>
<path d="M24.0001 23.942C22.6335 23.942 21.3365 23.5077 20.2485 22.6855C19.1978 21.8907 18.4111 20.7614 18.0344 19.5049C17.9056 19.0764 18.1495 18.6252 18.578 18.4963C19.0066 18.3675 19.4578 18.6114 19.5866 19.0399C20.1659 20.9721 21.9805 22.3217 24.0001 22.3217C26.0198 22.3217 27.8344 20.9721 28.4137 19.0399C28.5425 18.6114 28.9937 18.3683 29.4223 18.4963C29.8508 18.6252 30.0939 19.0764 29.9659 19.5049C29.5892 20.7614 28.8025 21.8916 27.7518 22.6855C26.6646 23.5069 25.3668 23.942 24.0001 23.942Z" fill="#22C55E"/>
<path d="M24.0006 21.0002C26.2097 21.0002 28.0007 19.2093 28.0007 17.0001C28.0007 14.7909 26.2097 13 24.0006 13C21.7914 13 20.0005 14.7909 20.0005 17.0001C20.0005 19.2093 21.7914 21.0002 24.0006 21.0002Z" fill="#713F12"/>
</g>
<defs>
<clipPath id="clip0_97_1774">
<rect width="48" height="36" fill="white"/>
</clipPath>
</defs>
</svg>
