<svg width="48" height="36" viewBox="0 0 48 36" fill="none" xmlns="http://www.w3.org/2000/svg">
<g clip-path="url(#clip0_97_1808)">
<path d="M0 0H48V2.57143H0V0Z" fill="#EF4444"/>
<path d="M0 2.57129H48V5.14272H0V2.57129Z" fill="#F5F5F5"/>
<path d="M0 5.14258H48V7.71401H0V5.14258Z" fill="#EF4444"/>
<path d="M0 7.71387H48V10.2853H0V7.71387Z" fill="#F5F5F5"/>
<path d="M0 10.2861H48V12.8576H0V10.2861Z" fill="#EF4444"/>
<path d="M0 12.8574H48V15.4289H0V12.8574Z" fill="#F5F5F5"/>
<path d="M0 15.4287H48V18.0001H0V15.4287Z" fill="#EF4444"/>
<path d="M0 18H48V20.5714H0V18Z" fill="#F5F5F5"/>
<path d="M0 20.5713H48V23.1427H0V20.5713Z" fill="#EF4444"/>
<path d="M0 23.1426H48V25.714H0V23.1426Z" fill="#F5F5F5"/>
<path d="M0 25.7139H48V28.2853H0V25.7139Z" fill="#EF4444"/>
<path d="M0 28.2861H48V30.8576H0V28.2861Z" fill="#F5F5F5"/>
<path d="M0 30.8574H48V33.4289H0V30.8574Z" fill="#EF4444"/>
<path d="M0 33.4287H48V36.0001H0V33.4287Z" fill="#F5F5F5"/>
<path d="M0 0H24V18.56C24 19.6646 23.1046 20.56 22 20.56H0V0Z" fill="#1E3A8A"/>
<path d="M13.0312 15.2861C13.0312 15.2861 13.0385 15.2861 13.0414 15.2861C13.2844 15.2861 13.3615 15.6088 13.1418 15.7115C12.3634 16.0762 11.4947 16.2803 10.5781 16.2803C7.24896 16.2803 4.52952 13.5625 4.54553 10.2499C4.56153 6.93729 7.25624 4.28027 10.5781 4.28027C11.4962 4.28027 12.3663 4.48433 13.1447 4.84901C13.363 4.95176 13.2844 5.27448 13.0429 5.27448C13.0385 5.27448 13.0356 5.27448 13.0312 5.27448C10.2521 5.27448 7.9983 7.51472 7.9983 10.2803C7.9983 13.0458 10.2521 15.2861 13.0312 15.2861Z" fill="#FBBF24"/>
<path fill-rule="evenodd" clip-rule="evenodd" d="M16.0219 6.81729L16.2216 8.0527C16.2508 8.22843 16.4718 8.28701 16.5837 8.14856L17.3744 7.17673C17.5209 6.99568 17.8084 7.16075 17.7259 7.37908L17.2813 8.5506C17.2174 8.71568 17.3798 8.87809 17.5475 8.81685L18.719 8.37221C18.9374 8.28967 19.1024 8.57722 18.9214 8.72366L17.9496 9.51444C17.8111 9.62626 17.8723 9.84992 18.0454 9.87654L19.2808 10.0762C19.5125 10.1135 19.5125 10.4463 19.2808 10.4836L18.0454 10.6833C17.8697 10.7126 17.8111 10.9336 17.9496 11.0454L18.9214 11.8362C19.1024 11.9826 18.9374 12.2702 18.719 12.1876L17.5475 11.743C17.3824 11.6791 17.22 11.8415 17.2813 12.0092L17.7259 13.1808C17.8084 13.3991 17.5209 13.5642 17.3744 13.3831L16.5837 12.4113C16.4718 12.2728 16.2482 12.3341 16.2216 12.5071L16.0219 13.7426C15.9846 13.9742 15.6518 13.9742 15.6145 13.7426L15.4148 12.5071C15.3855 12.3314 15.1645 12.2728 15.0527 12.4113L14.2619 13.3831C14.1155 13.5642 13.8279 13.3991 13.9105 13.1808L14.3551 12.0092C14.419 11.8442 14.2566 11.6817 14.0889 11.743L12.9174 12.1876C12.699 12.2702 12.5339 11.9826 12.715 11.8362L13.6868 11.0454C13.8253 10.9336 13.764 10.7099 13.591 10.6833L12.3556 10.4836C12.1239 10.4463 12.1239 10.1135 12.3556 10.0762L13.591 9.87654C13.7667 9.84726 13.8253 9.62626 13.6868 9.51444L12.715 8.72366C12.5339 8.57722 12.699 8.28967 12.9174 8.37221L14.0889 8.81685C14.2539 8.88075 14.4164 8.71834 14.3551 8.5506L13.9105 7.37908C13.8279 7.16075 14.1155 6.99568 14.2619 7.17673L15.0527 8.14856C15.1645 8.28701 15.3882 8.22577 15.4148 8.0527L15.6145 6.81729C15.6518 6.58564 15.9846 6.58564 16.0219 6.81729Z" fill="#FBBF24"/>
</g>
<defs>
<clipPath id="clip0_97_1808">
<rect width="48" height="36" fill="white"/>
</clipPath>
</defs>
</svg>
