<svg width="48" height="36" viewBox="0 0 48 36" fill="none" xmlns="http://www.w3.org/2000/svg">
<g clip-path="url(#clip0_97_1885)">
<rect width="48" height="36" fill="#93C5FD"/>
<path d="M0 0H48V18H0V0Z" fill="#22C55E"/>
<path d="M0 18H48V36H0V18Z" fill="#FBBF24"/>
<path d="M0 12H48V24H0V12Z" fill="#262626"/>
<path fill-rule="evenodd" clip-rule="evenodd" d="M-2.5 9.5H50.5V26.5H-2.5V9.5ZM0 12V24H48V12H0Z" fill="#F5F5F5"/>
<path d="M26.5187 20.63C28.4938 19.48 28.4938 16.52 26.5187 15.37L0 0V36L26.5187 20.63Z" fill="#EF4444"/>
<path d="M10.0518 12.5951L10.792 14.6949C10.8726 14.9224 11.0837 15.0758 11.3254 15.0824L13.5514 15.1379C14.3928 15.1586 14.7389 16.2264 14.0706 16.7369L12.3029 18.0899C12.1113 18.2358 12.0307 18.485 12.0993 18.7169L12.735 20.8503C12.9756 21.6569 12.0667 22.3166 11.3744 21.8387L9.54134 20.575C9.34323 20.4378 9.0809 20.4378 8.88279 20.575L7.04975 21.8387C6.35746 22.3166 5.44965 21.6569 5.68912 20.8503L6.32481 18.7169C6.39338 18.4861 6.31283 18.2369 6.12126 18.0899L4.35135 16.7369C3.68301 16.2253 4.03024 15.1586 4.87057 15.1379L7.09656 15.0824C7.33712 15.0769 7.54937 14.9224 7.62992 14.6949L8.37011 12.5951C8.64985 11.8016 9.7721 11.8016 10.0518 12.5951Z" fill="#FBBF24"/>
<path d="M11.811 19.7348H6.81403C6.29814 19.7348 5.91678 19.2545 6.03334 18.752L6.64066 16.136C6.7249 15.7729 7.04847 15.5156 7.42135 15.5156H11.2037C11.5766 15.5156 11.9001 15.7726 11.9844 16.136L12.5917 18.752C12.7082 19.2545 12.3269 19.7348 11.811 19.7348Z" fill="#F5F5F5"/>
<path d="M10.0511 17.0002L12.9094 14.142C13.1134 13.9379 13.1134 13.6071 12.9094 13.4031C12.7053 13.199 12.3745 13.199 12.1705 13.4031L9.31249 16.261L6.4542 13.4034C6.25046 13.1993 5.9197 13.1993 5.71563 13.4034C5.51156 13.6074 5.51156 13.9382 5.71563 14.1423L8.5736 17.0002L5.71563 19.8582C5.51156 20.0623 5.51156 20.393 5.71563 20.5971C5.8175 20.699 5.95137 20.7502 6.08492 20.7502C6.21846 20.7502 6.35233 20.6993 6.4542 20.5971L9.31217 17.7391L12.1701 20.5971C12.272 20.699 12.4059 20.7502 12.5394 20.7502C12.673 20.7502 12.8068 20.6993 12.9087 20.5971C13.1128 20.393 13.1128 20.0623 12.9087 19.8582L10.0507 17.0002H10.0511Z" fill="#262626"/>
</g>
<defs>
<clipPath id="clip0_97_1885">
<rect width="48" height="36" fill="white"/>
</clipPath>
</defs>
</svg>
