<svg width="48" height="36" viewBox="0 0 48 36" fill="none" xmlns="http://www.w3.org/2000/svg">
<g clip-path="url(#clip0_97_1991)">
<rect width="48" height="36" fill="#22C55E"/>
<path d="M48 0L0 36V0H48Z" fill="#3B82F6"/>
<path fill-rule="evenodd" clip-rule="evenodd" d="M48 0.36V4.33L5.78 36H0V31.68L42.24 0H47.79L48 0.36Z" fill="#EF4444"/>
<path fill-rule="evenodd" clip-rule="evenodd" d="M38.77 0L0 29.08V31.68L42.24 0H38.77ZM47.79 0L48 0.36V0H47.79ZM5.78 36H9.25L48 6.93V4.33L5.78 36Z" fill="#F5F5F5"/>
<path fill-rule="evenodd" clip-rule="evenodd" d="M14.2801 3.23888L14.5546 4.93758C14.5949 5.17921 14.8988 5.25975 15.0525 5.06938L16.1399 3.73311C16.3412 3.48417 16.7366 3.71115 16.6231 4.01135L16.0117 5.62219C15.9239 5.84917 16.1472 6.07249 16.3778 5.98828L17.9887 5.3769C18.2889 5.26341 18.5158 5.6588 18.2669 5.86015L16.9306 6.94746C16.7403 7.10123 16.8245 7.40875 17.0624 7.44536L18.7611 7.71993C19.0796 7.77119 19.0796 8.22881 18.7611 8.28007L17.0624 8.55464C16.8208 8.59491 16.7403 8.89877 16.9306 9.05254L18.2669 10.1399C18.5158 10.3412 18.2889 10.7366 17.9887 10.6231L16.3778 10.0117C16.1508 9.92385 15.9275 10.1472 16.0117 10.3778L16.6231 11.9887C16.7366 12.2889 16.3412 12.5158 16.1399 12.2669L15.0525 10.9306C14.8988 10.7403 14.5913 10.8245 14.5546 11.0624L14.2801 12.7611C14.2288 13.0796 13.7712 13.0796 13.7199 12.7611L13.4454 11.0624C13.4051 10.8208 13.1012 10.7403 12.9475 10.9306L11.8602 12.2669C11.6588 12.5158 11.2634 12.2889 11.3769 11.9887L11.9883 10.3778C12.0761 10.1508 11.8528 9.92751 11.6222 10.0117L10.0113 10.6231C9.71115 10.7366 9.48417 10.3412 9.73311 10.1399L11.0694 9.05254C11.2597 8.89877 11.1755 8.59125 10.9376 8.55464L9.23888 8.28007C8.92037 8.22881 8.92037 7.77119 9.23888 7.71993L10.9376 7.44536C11.1792 7.40509 11.2597 7.10123 11.0694 6.94746L9.73311 5.86015C9.48417 5.6588 9.71115 5.26341 10.0113 5.3769L11.6222 5.98828C11.8492 6.07615 12.0725 5.85283 11.9883 5.62219L11.3769 4.01135C11.2634 3.71115 11.6588 3.48417 11.8602 3.73311L12.9475 5.06938C13.1012 5.25975 13.4087 5.17554 13.4454 4.93758L13.7199 3.23888C13.7712 2.92037 14.2288 2.92037 14.2801 3.23888Z" fill="#FBBF24"/>
</g>
<defs>
<clipPath id="clip0_97_1991">
<rect width="48" height="36" fill="white"/>
</clipPath>
</defs>
</svg>
