<svg width="48" height="36" viewBox="0 0 48 36" fill="none" xmlns="http://www.w3.org/2000/svg">
<g clip-path="url(#clip0_97_2036)">
<path d="M0 0H16V36H0V0Z" fill="#22C55E"/>
<path d="M16 0H32V36H16V0Z" fill="#F5F5F5"/>
<path d="M32 0H48V36H32V0Z" fill="#22C55E"/>
<path d="M28.1147 19.8958C28.911 19.44 29.2751 18.3847 28.763 17.4975L27.1401 14.6865L25.5172 11.8754C24.8428 10.7082 23.1576 10.7082 22.4841 11.8754L20.8612 14.6865L19.2374 17.4967C18.7253 18.3838 19.0894 19.44 19.8857 19.8949L19.2374 21.0175C18.563 22.1847 19.4056 23.6444 20.7544 23.6444H22.405C22.4017 23.6764 22.4 23.7092 22.4 23.742V25.0538C22.4 25.5751 22.823 25.9981 23.3443 25.9981H24.6561C25.1774 25.9981 25.6004 25.5751 25.6004 25.0538V23.742C25.6004 23.7092 25.5987 23.6764 25.5954 23.6444H27.246C28.594 23.6444 29.4365 22.1847 28.763 21.0175L28.1147 19.8949V19.8958Z" fill="#22C55E"/>
</g>
<defs>
<clipPath id="clip0_97_2036">
<rect width="48" height="36" fill="white"/>
</clipPath>
</defs>
</svg>
