<svg width="48" height="36" viewBox="0 0 48 36" fill="none" xmlns="http://www.w3.org/2000/svg">
<g clip-path="url(#clip0_97_2112)">
<path d="M0 0H48V12H0V0Z" fill="#3B82F6"/>
<path d="M0 12H48V24H0V12Z" fill="#F5F5F5"/>
<path d="M0 24H48V36H0V24Z" fill="#3B82F6"/>
<path d="M27.3944 21.9987H21.4112C20.3262 21.9987 19.6488 20.8246 20.1907 19.8851L20.3676 19.579L21.6871 17.2949L21.7273 17.2259L23.1823 14.7046C23.7242 13.7651 25.0802 13.7651 25.622 14.7046L27.0796 17.2271L27.1185 17.2949L28.4368 19.579L28.6137 19.8851C29.1555 20.8246 28.4782 21.9987 27.3944 21.9987Z" fill="#93C5FD"/>
<path d="M27.3944 22.0003H21.4112C20.3262 22.0003 19.6488 20.8262 20.1907 19.8867H28.6137C29.1555 20.8262 28.4782 22.0003 27.3944 22.0003Z" fill="#22C55E"/>
<path d="M27.1185 17.2955L27.0796 17.2277C26.253 16.889 25.3486 16.7021 24.4028 16.7021C23.457 16.7021 22.5539 16.8878 21.7273 17.2265L21.6872 17.2955L20.3676 19.5796C21.4162 18.5749 22.8387 17.9565 24.4028 17.9565C25.967 17.9565 27.3882 18.5749 28.4368 19.5796L27.1185 17.2955Z" fill="#3B82F6"/>
</g>
<defs>
<clipPath id="clip0_97_2112">
<rect width="48" height="36" fill="white"/>
</clipPath>
</defs>
</svg>
