<svg width="48" height="36" viewBox="0 0 48 36" fill="none" xmlns="http://www.w3.org/2000/svg">
<rect width="48" height="36" fill="#F5F5F5"/>
<path d="M23.2798 32.5725L11.3274 20.4541C10.5462 19.6631 11.1028 18.3155 12.2258 18.3155H20.4382C22.4498 18.3253 23.2212 15.6985 21.5221 14.6244L5.83949 4.59567C5.18523 4.18554 4.48215 4 3.78883 4C2.83186 4 1.91395 4.36131 1.21086 4.98627C0.517547 5.61123 0.0390601 6.49985 0 7.56424V36H21.8444C23.6314 36 24.5298 33.8419 23.2798 32.5725ZM22.401 34.2228C22.3424 34.3595 22.1861 34.5938 21.8346 34.5938H2.38267C1.84559 34.5938 1.40616 34.1544 1.40616 33.6173V7.62283C1.46475 6.23619 2.66585 5.40616 3.78883 5.40616C4.24779 5.40616 4.67745 5.53311 5.07782 5.77724L20.7702 15.8059C21.1022 16.0208 21.0729 16.3235 21.0241 16.4895C20.9753 16.6457 20.8386 16.9191 20.4382 16.9191H12.2161C11.1419 16.9094 10.1752 17.5539 9.76503 18.5499C9.34513 19.5459 9.56973 20.6787 10.3216 21.4403L22.274 33.5685C22.5182 33.8126 22.4596 34.0861 22.401 34.2228Z" fill="#1E3A8A"/>
<path d="M22.274 33.5686L10.3216 21.4404C9.56974 20.6788 9.34514 19.546 9.76504 18.55C10.1752 17.5539 11.1419 16.9095 12.2161 16.9095H20.4382C20.8386 16.9192 20.9753 16.6458 21.0241 16.4896C21.0729 16.3236 21.1022 16.0208 20.7702 15.806L5.07782 5.77732C4.67746 5.5332 4.2478 5.40625 3.78884 5.40625C2.66586 5.40625 1.46476 6.23628 1.40617 7.62291V33.6174C1.40617 34.1545 1.8456 34.5939 2.38268 34.5939H21.8346C22.1862 34.5939 22.3424 34.3596 22.401 34.2228C22.4596 34.0861 22.5182 33.8127 22.274 33.5686ZM4.39427 12.9449C4.6091 13.189 4.8337 13.4233 5.08759 13.6284C5.10712 13.6479 5.12665 13.6479 5.14618 13.6479C5.19501 13.6479 5.23407 13.6186 5.23407 13.56C5.23407 12.1637 6.36681 11.0309 7.77297 11.0309C8.47606 11.0309 9.10102 11.3141 9.55997 11.773C10.0189 12.232 10.3021 12.8667 10.3021 13.56C10.3021 13.6382 10.39 13.687 10.4486 13.6382C10.7025 13.4233 10.9368 13.189 11.1419 12.9449C11.3665 12.691 11.7766 12.9351 11.6497 13.2476C11.2493 14.2631 10.3998 15.3373 9.01313 15.7669C8.64206 15.8744 8.22216 15.9427 7.77297 15.9525C7.31402 15.9427 6.89412 15.8744 6.52305 15.7572C5.13642 15.3373 4.29662 14.2534 3.88649 13.2378C3.76931 12.9351 4.17944 12.6812 4.39427 12.9449ZM11.4153 27.7682L10.1068 27.983C9.91151 28.0123 9.85292 28.2467 9.9994 28.3638L11.0345 29.2036C11.2298 29.3599 11.054 29.6626 10.8197 29.5747L9.56974 29.106C9.39397 29.0376 9.22796 29.2134 9.28655 29.3892L9.76504 30.6391C9.85292 30.8637 9.54044 31.0394 9.3842 30.8539L8.54441 29.8188C8.42723 29.6723 8.19287 29.7309 8.16357 29.9165L7.94874 31.2347C7.90968 31.4789 7.55814 31.4789 7.51908 31.2347L7.30425 29.9165C7.27496 29.7309 7.0406 29.6723 6.92342 29.8188L6.08362 30.8539C5.92738 31.0394 5.6149 30.8539 5.70279 30.6391L6.18127 29.3892C6.24963 29.2134 6.07386 29.0376 5.89809 29.106L4.64816 29.5747C4.4138 29.6626 4.23803 29.3599 4.43333 29.2036L5.46843 28.3638C5.6149 28.2467 5.54655 28.0025 5.36101 27.983L4.0525 27.7682C3.80837 27.7291 3.80837 27.3678 4.0525 27.3287L5.36101 27.1237C5.55631 27.0846 5.6149 26.8503 5.46843 26.7331L4.43333 25.8933C4.23803 25.737 4.4138 25.4343 4.64816 25.5222L5.89809 25.9909C6.07386 26.0593 6.23986 25.8933 6.18127 25.7077L5.70279 24.4676C5.6149 24.2332 5.92738 24.0575 6.08362 24.2528L6.92342 25.2878C7.0406 25.4343 7.27496 25.366 7.30425 25.1804L7.51908 23.8719C7.55814 23.618 7.90968 23.618 7.94874 23.8719L8.16357 25.1804C8.19287 25.366 8.42723 25.4343 8.54441 25.2878L9.3842 24.2528C9.54044 24.0575 9.85292 24.2332 9.76504 24.4676L9.28655 25.7077C9.2182 25.8835 9.39397 26.0593 9.56974 25.9909L10.8197 25.5222C11.054 25.4343 11.2298 25.737 11.0345 25.8933L9.9994 26.7331C9.85292 26.8503 9.92128 27.0944 10.1068 27.1237L11.4153 27.3287C11.6595 27.3678 11.6595 27.7291 11.4153 27.7682Z" fill="#DC2626"/>
</svg>
