<svg width="48" height="36" viewBox="0 0 48 36" fill="none" xmlns="http://www.w3.org/2000/svg">
<rect width="48" height="36" fill="#1E3A8A"/>
<path d="M28.8 0V15.8C28.8 16.18 28.75 16.55 28.64 16.9C28.59 17.08 28.53 17.26 28.45 17.43C28.38 17.6 28.29 17.76 28.2 17.91C27.73 18.67 27.01 19.26 26.15 19.56C25.94 19.64 25.71 19.7 25.47 19.74C25.25 19.78 25.03 19.8 24.8 19.8H0V0H28.8Z" fill="#1E3A8A"/>
<path fill-rule="evenodd" clip-rule="evenodd" d="M28.8 0V2.13L22.52 6.48L20.95 7.56L18.04 9.57L17.57 9.9L17.09 10.23L14.88 11.76L14.41 12.09L13.93 12.42L11.88 13.83L10.8 14.58L3.25 19.8H0V17.67L5.77 13.68L7.34 12.6L10.77 10.23L11.24 9.9L11.71 9.57L13.93 8.04L14.41 7.71L14.88 7.38L16.92 5.97L18 5.23L25.56 0H28.8Z" fill="#EF4444"/>
<path fill-rule="evenodd" clip-rule="evenodd" d="M24.61 0L18 4.57L16.92 5.32L14.41 7.06L13.93 7.38L13.45 7.71L11.24 9.24L10.77 9.57L10.29 9.9L6.39 12.6L4.82 13.68L0 17.01V18.33L6.72 13.68L8.28 12.6L11.24 10.56L11.71 10.23L12.19 9.9L14.4 8.37L14.88 8.04L15.35 7.71L16.92 6.63L18 5.88L26.5 0H24.61ZM21.56 6.48L20 7.56L17.57 9.24L17.09 9.57L16.62 9.9L14.4 11.43L13.93 11.76L13.45 12.09L11.88 13.18L10.8 13.92L2.3 19.8H4.2L10.8 15.24L11.88 14.49L14.41 12.74L14.88 12.42L15.35 12.09L17.57 10.56L18.04 10.23L18.52 9.9L21.9 7.56L23.47 6.48L28.8 2.79V1.48L21.56 6.48ZM14.88 8.04L15.35 7.71L16.92 6.63V5.97L14.88 7.38L14.41 7.71L13.93 8.04L14.4 8.37L14.88 8.04Z" fill="#F5F5F5"/>
<path fill-rule="evenodd" clip-rule="evenodd" d="M28.45 17.43C28.38 17.6 28.29 17.76 28.2 17.91C27.73 18.67 27.01 19.26 26.15 19.56C25.94 19.64 25.71 19.7 25.47 19.74L18 14.57L16.92 13.83L14.88 12.42L14.41 12.09L13.93 11.76L11.71 10.23L11.24 9.9L10.77 9.57L7.86 7.56L6.29 6.48L0 2.13V0H3.25L10.8 5.22L11.88 5.97L13.93 7.38L14.41 7.71L14.88 8.04L17.09 9.57L17.57 9.9L18.04 10.23L21.47 12.6L23.04 13.68L28.45 17.43Z" fill="#EF4444"/>
<path fill-rule="evenodd" clip-rule="evenodd" d="M23.99 13.68L22.42 12.6L18.52 9.9L18.04 9.57L17.57 9.24L15.35 7.71L14.88 7.38L14.41 7.06L11.88 5.31L10.8 4.56L4.2 0H2.3L10.8 5.88L11.88 6.62L13.45 7.71L13.93 8.04L14.4 8.37L16.62 9.9L17.09 10.23L17.57 10.56L20.52 12.6L22.08 13.68L28.2 17.91C28.29 17.76 28.38 17.6 28.45 17.43C28.53 17.26 28.59 17.08 28.64 16.9L23.99 13.68ZM18 13.92L16.92 13.17L15.35 12.09L14.88 11.76L14.4 11.43L12.19 9.9L11.71 9.57L11.24 9.24L8.81 7.56L7.24 6.48L0 1.47V2.79L5.34 6.48L6.91 7.56L10.29 9.9L10.77 10.23L11.24 10.56L13.45 12.09L13.93 12.42L14.41 12.74L16.92 14.48L18 15.23L24.61 19.8H24.8C25.03 19.8 25.25 19.78 25.47 19.74C25.71 19.7 25.94 19.64 26.15 19.56L18 13.92Z" fill="#F5F5F5"/>
<path fill-rule="evenodd" clip-rule="evenodd" d="M28.8 7.56V12.6H16.92V19.8H11.88V12.6H0V7.56H11.88V0H16.92V7.56H28.8Z" fill="#EF4444"/>
<path fill-rule="evenodd" clip-rule="evenodd" d="M16.92 12.6V19.8H18V13.68H28.8V12.6H16.92ZM18 6.48V0H16.92V7.56H28.8V6.48H18ZM10.8 6.48H0V7.56H11.88V0H10.8V6.48ZM0 12.6V13.68H10.8V19.8H11.88V12.6H0Z" fill="#F5F5F5"/>
<path d="M41.1091 25.0574L41.4709 26.0557C41.5102 26.1639 41.6134 26.2369 41.7316 26.24L42.8196 26.2664C43.2309 26.2762 43.4001 26.7839 43.0734 27.0267L42.2093 27.67C42.1157 27.7393 42.0763 27.8579 42.1099 27.9681L42.4206 28.9825C42.5382 29.366 42.0939 29.6796 41.7555 29.4524L40.8595 28.8516C40.7627 28.7863 40.6345 28.7863 40.5376 28.8516L39.6416 29.4524C39.3033 29.6796 38.8595 29.366 38.9766 28.9825L39.2873 27.9681C39.3208 27.8584 39.2814 27.7399 39.1878 27.67L38.3227 27.0267C37.996 26.7834 38.1657 26.2762 38.5765 26.2664L39.6645 26.24C39.7821 26.2374 39.8859 26.1639 39.9252 26.0557L40.287 25.0574C40.4238 24.6801 40.9723 24.6801 41.1091 25.0574Z" fill="#EF4444"/>
<path d="M34.9581 13.5281L35.3199 14.5264C35.3593 14.6346 35.4625 14.7076 35.5806 14.7107L36.6687 14.7371C37.08 14.7469 37.2491 15.2546 36.9225 15.4974L36.0584 16.1407C35.9648 16.21 35.9254 16.3286 35.9589 16.4388L36.2696 17.4532C36.3872 17.8367 35.943 18.1503 35.6046 17.9231L34.7086 17.3223C34.6117 17.2571 34.4835 17.2571 34.3867 17.3223L33.4907 17.9231C33.1523 18.1503 32.7086 17.8367 32.8256 17.4532L33.1364 16.4388C33.1699 16.3291 33.1305 16.2106 33.0369 16.1407L32.1717 15.4974C31.8451 15.2541 32.0148 14.7469 32.4255 14.7371L33.5136 14.7107C33.6312 14.7081 33.7349 14.6346 33.7743 14.5264L34.1361 13.5281C34.2728 13.1508 34.8214 13.1508 34.9581 13.5281Z" fill="#EF4444"/>
<path d="M38.4109 3.3777L38.7727 4.37606C38.8121 4.48423 38.9153 4.5572 39.0334 4.56031L40.1215 4.5867C40.5328 4.59653 40.702 5.10425 40.3753 5.34699L39.5112 5.9903C39.4176 6.05965 39.3782 6.17817 39.4117 6.28841L39.7225 7.30281C39.84 7.68632 39.3958 7.99996 39.0574 7.77275L38.1614 7.17187C38.0646 7.10666 37.9363 7.10666 37.8395 7.17187L36.9435 7.77275C36.6051 7.99996 36.1614 7.68632 36.2785 7.30281L36.5892 6.28841C36.6227 6.17869 36.5833 6.06017 36.4897 5.9903L35.6246 5.34699C35.2979 5.10374 35.4676 4.59653 35.8783 4.5867L36.9664 4.56031C37.084 4.55772 37.1877 4.48423 37.2271 4.37606L37.5889 3.3777C37.7256 3.0004 38.2742 3.0004 38.4109 3.3777Z" fill="#EF4444"/>
<path d="M43.8638 11.1502L44.2256 12.1485C44.2649 12.2567 44.3682 12.3297 44.4863 12.3328L45.5743 12.3592C45.9856 12.369 46.1548 12.8767 45.8281 13.1194L44.9641 13.7628C44.8704 13.8321 44.831 13.9506 44.8646 14.0609L45.1753 15.0753C45.2929 15.4588 44.8486 15.7724 44.5102 15.5452L43.6142 14.9443C43.5174 14.8791 43.3892 14.8791 43.2923 14.9443L42.3964 15.5452C42.058 15.7724 41.6142 15.4588 41.7313 15.0753L42.042 14.0609C42.0755 13.9512 42.0362 13.8326 41.9425 13.7628L41.0774 13.1194C40.7507 12.8762 40.9204 12.369 41.3312 12.3592L42.4192 12.3328C42.5368 12.3302 42.6406 12.2567 42.6799 12.1485L43.0417 11.1502C43.1785 10.7729 43.727 10.7729 43.8638 11.1502Z" fill="#EF4444"/>
</svg>
