<svg width="48" height="36" viewBox="0 0 48 36" fill="none" xmlns="http://www.w3.org/2000/svg">
<g clip-path="url(#clip0_97_2221)">
<path d="M0 0H12V36H0V0Z" fill="#EF4444"/>
<path d="M12 0H48V12H12V0Z" fill="#F5F5F5"/>
<path d="M12 12H48V24H12V12Z" fill="#EF4444"/>
<path d="M12 24H48V36H12V24Z" fill="#22C55E"/>
<path d="M9.38824 5.41067H8.14907C7.8809 5.41067 7.74682 5.08651 7.93616 4.89717L8.80918 4.02415C9.0383 3.79503 9.06261 3.41783 8.83938 3.18281C8.61615 2.9478 8.22864 2.93748 7.9951 3.17176L7.10292 4.06393C6.91358 4.25327 6.58943 4.11919 6.58943 3.85102V2.61185C6.58943 2.29653 6.35146 2.02026 6.03688 2.0011C5.69504 1.98048 5.41067 2.25159 5.41067 2.58901V3.85102C5.41067 4.11919 5.08651 4.25327 4.89717 4.06393L4.02415 3.19091C3.79503 2.96179 3.41783 2.93748 3.18281 3.16071C2.9478 3.38394 2.93748 3.77145 3.17176 4.00499L4.06393 4.89717C4.25327 5.08651 4.11919 5.41067 3.85102 5.41067H2.61185C2.29653 5.41067 2.02026 5.64863 2.0011 5.96321C1.98048 6.30505 2.25159 6.58942 2.58901 6.58942H3.85102C4.11919 6.58942 4.25327 6.91358 4.06393 7.10292L3.1887 7.97815C2.96621 8.20064 2.93674 8.56311 3.14376 8.7996C3.26164 8.93442 3.42519 9.00146 3.58801 9.00146C3.73904 9.00146 3.88933 8.944 4.005 8.82907L4.89717 7.93689C5.08651 7.74756 5.41067 7.88164 5.41067 8.14981V9.38898C5.41067 9.7043 5.64863 9.98057 5.96321 9.99972C6.30505 10.0204 6.58943 9.74924 6.58943 9.41182V8.14981C6.58943 7.88164 6.91358 7.74756 7.10292 7.93689L7.9951 8.82907C8.11002 8.944 8.26105 9.00146 8.41208 9.00146C8.57564 9.00146 8.73845 8.93442 8.85633 8.7996C9.06335 8.56311 9.03388 8.20064 8.81139 7.97815L7.93616 7.10292C7.74682 6.91358 7.8809 6.58942 8.14907 6.58942H9.41108C9.7485 6.58942 10.0204 6.30579 9.99899 5.96321C9.97983 5.64863 9.70356 5.41067 9.38824 5.41067Z" fill="#F5F5F5"/>
</g>
<defs>
<clipPath id="clip0_97_2221">
<rect width="48" height="36" fill="white"/>
</clipPath>
</defs>
</svg>
