<svg width="48" height="36" viewBox="0 0 48 36" fill="none" xmlns="http://www.w3.org/2000/svg">
<g clip-path="url(#clip0_98_2742)">
<path d="M0 0H24V18H0V0Z" fill="#F5F5F5"/>
<path d="M0 18H24V36H0V18Z" fill="#1E3A8A"/>
<path d="M24 0H48V18H24V0Z" fill="#EF4444"/>
<path d="M24 18H48V36H24V18Z" fill="#F5F5F5"/>
<path d="M36.8415 23.4761L37.4336 25.1559C37.4981 25.3379 37.667 25.4607 37.8603 25.4659L39.6411 25.5103C40.3142 25.5269 40.5912 26.3811 40.0565 26.7895L38.6423 27.8719C38.489 27.9886 38.4246 28.188 38.4795 28.3735L38.988 30.0803C39.1805 30.7255 38.4533 31.2532 37.8995 30.871L36.4331 29.86C36.2746 29.7502 36.0647 29.7502 35.9062 29.86L34.4398 30.871C33.886 31.2532 33.1597 30.7255 33.3513 30.0803L33.8598 28.3735C33.9147 28.1889 33.8503 27.9895 33.697 27.8719L32.2811 26.7895C31.7464 26.3802 32.0242 25.5269 32.6965 25.5103L34.4772 25.4659C34.6697 25.4615 34.8395 25.3379 34.9039 25.1559L35.4961 23.4761C35.7199 22.8413 36.6177 22.8413 36.8415 23.4761Z" fill="#EF4444"/>
<path d="M12.8415 5.47611L13.4336 7.15589C13.4981 7.33789 13.667 7.46067 13.8603 7.46589L15.6411 7.51031C16.3142 7.52685 16.5912 8.38111 16.0565 8.78952L14.6423 9.87192C14.489 9.98861 14.4246 10.188 14.4795 10.3735L14.988 12.0803C15.1805 12.7255 14.4533 13.2532 13.8995 12.871L12.4331 11.86C12.2746 11.7502 12.0647 11.7502 11.9062 11.86L10.4398 12.871C9.88597 13.2532 9.15972 12.7255 9.3513 12.0803L9.85985 10.3735C9.91471 10.1889 9.85027 9.98948 9.69701 9.87192L8.28108 8.78952C7.74641 8.38024 8.02419 7.52685 8.69645 7.51031L10.4772 7.46589C10.6697 7.46154 10.8395 7.33789 10.9039 7.15589L11.4961 5.47611C11.7199 4.8413 12.6177 4.8413 12.8415 5.47611Z" fill="#1E3A8A"/>
</g>
<defs>
<clipPath id="clip0_98_2742">
<rect width="48" height="36" fill="white"/>
</clipPath>
</defs>
</svg>
