<svg width="48" height="36" viewBox="0 0 48 36" fill="none" xmlns="http://www.w3.org/2000/svg">
<g clip-path="url(#clip0_98_2792)">
<rect width="48" height="36" fill="#262626"/>
<path d="M0 0L48 36V0H0Z" fill="#EF4444"/>
<path d="M11.9763 17.2267L12.2637 18.0266C12.295 18.1133 12.377 18.1718 12.4709 18.1742L13.3354 18.1954C13.6622 18.2033 13.7966 18.6101 13.537 18.8046L12.8505 19.32C12.7761 19.3756 12.7448 19.4705 12.7714 19.5588L13.0183 20.3716C13.1117 20.6789 12.7588 20.9302 12.4899 20.7481L11.778 20.2667C11.7011 20.2144 11.5992 20.2144 11.5222 20.2667L10.8103 20.7481C10.5415 20.9302 10.1889 20.6789 10.2819 20.3716L10.5288 19.5588C10.5554 19.4709 10.5241 19.376 10.4497 19.32L9.76237 18.8046C9.50281 18.6097 9.63766 18.2033 9.96402 18.1954L10.8285 18.1742C10.9219 18.1722 11.0044 18.1133 11.0357 18.0266L11.3231 17.2267C11.4318 16.9244 11.8676 16.9244 11.9763 17.2267Z" fill="#F5F5F5"/>
<path d="M7.35035 21.0363L7.63781 21.8362C7.6691 21.9229 7.75111 21.9813 7.84496 21.9838L8.70946 22.005C9.03624 22.0128 9.17067 22.4196 8.91111 22.6141L8.22458 23.1296C8.15017 23.1851 8.11889 23.2801 8.14552 23.3684L8.3924 24.1812C8.48583 24.4884 8.13284 24.7397 7.86398 24.5577L7.15208 24.0763C7.07514 24.024 6.97326 24.024 6.89632 24.0763L6.18443 24.5577C5.91557 24.7397 5.563 24.4884 5.656 24.1812L5.90288 23.3684C5.92952 23.2805 5.89823 23.1855 5.82383 23.1296L5.13645 22.6141C4.87689 22.4192 5.01175 22.0128 5.3381 22.005L6.20261 21.9838C6.29603 21.9817 6.37847 21.9229 6.40975 21.8362L6.69721 21.0363C6.80586 20.734 7.2417 20.734 7.35035 21.0363Z" fill="#F5F5F5"/>
<path d="M16.6022 21.0363L16.8896 21.8362C16.9209 21.9229 17.0029 21.9813 17.0968 21.9838L17.9613 22.005C18.2881 22.0128 18.4225 22.4196 18.1629 22.6141L17.4764 23.1296C17.402 23.1851 17.3707 23.2801 17.3974 23.3684L17.6442 24.1812C17.7377 24.4884 17.3847 24.7397 17.1158 24.5577L16.4039 24.0763C16.327 24.024 16.2251 24.024 16.1482 24.0763L15.4363 24.5577C15.1674 24.7397 14.8148 24.4884 14.9078 24.1812L15.1547 23.3684C15.1813 23.2805 15.1501 23.1855 15.0757 23.1296L14.3883 22.6141C14.1287 22.4192 14.2636 22.0128 14.5899 22.005L15.4544 21.9838C15.5479 21.9817 15.6303 21.9229 15.6616 21.8362L15.949 21.0363C16.0577 20.734 16.4935 20.734 16.6022 21.0363Z" fill="#F5F5F5"/>
<path d="M11.9763 27.4172L12.2637 28.2171C12.295 28.3037 12.377 28.3622 12.4709 28.3647L13.3354 28.3858C13.6622 28.3937 13.7966 28.8005 13.537 28.995L12.8505 29.5104C12.7761 29.566 12.7448 29.6609 12.7714 29.7493L13.0183 30.562C13.1117 30.8693 12.7588 31.1206 12.4899 30.9386L11.778 30.4571C11.7011 30.4049 11.5992 30.4049 11.5222 30.4571L10.8103 30.9386C10.5415 31.1206 10.1889 30.8693 10.2819 30.562L10.5288 29.7493C10.5554 29.6614 10.5241 29.5664 10.4497 29.5104L9.76237 28.995C9.50281 28.8001 9.63766 28.3937 9.96402 28.3858L10.8285 28.3647C10.9219 28.3626 11.0044 28.3037 11.0357 28.2171L11.3231 27.4172C11.4318 27.1149 11.8676 27.1149 11.9763 27.4172Z" fill="#F5F5F5"/>
<path d="M33.5779 3.17414L31.6085 5.4974C31.5322 5.58706 31.4905 5.7011 31.4905 5.81907V7.81122C31.4905 8.13289 31.1901 8.3704 30.8763 8.29569L28.8401 7.80807C28.2825 7.67437 27.9781 8.43489 28.4744 8.72275L29.8798 9.53832C30.1394 9.68933 30.2078 10.033 30.0253 10.2713C29.9467 10.3743 29.8303 10.4428 29.7021 10.4616L27.1932 10.8266C27.0304 10.8502 26.8904 10.9524 26.8181 11.1003L26.0513 12.6638C25.8987 12.9752 26.1032 13.3425 26.4476 13.3779L29.7194 13.7137C29.8366 13.7255 29.9545 13.6956 30.0521 13.6288L31.058 12.9383C31.2609 12.7991 31.5362 12.8289 31.7045 13.0098L34.1189 15.6029C34.2133 15.7043 34.3455 15.7617 34.4831 15.7617H37.6746C37.9774 15.7617 38.2094 15.4943 38.1677 15.1947L37.92 13.4322C37.8563 12.9776 38.3887 12.6858 38.7371 12.9847C39.5747 13.7027 40.5342 14.8809 39.7714 16.1007C39.5158 16.5089 39.9161 17.0138 40.3652 16.8384C40.5767 16.7558 40.7828 16.6497 40.9676 16.5144C41.3695 16.2187 41.909 16.6119 41.7368 17.0799C41.6164 17.4047 41.4127 17.7311 41.0824 18.0276C40.6428 18.4216 41.1123 19.1153 41.6377 18.8463C42.3707 18.4704 42.9527 17.7476 42.9975 16.4114C43.0699 14.2879 41.5582 13.0633 40.2212 12.3995C39.7784 12.1793 39.9003 11.5147 40.3911 11.4589L40.8661 11.4046C41.2492 11.3606 41.4387 10.917 41.2067 10.6103L38.0671 6.45297C37.9546 6.30354 37.7674 6.2304 37.5834 6.26264L35.5157 6.62835C35.2444 6.67633 34.9856 6.49465 34.9385 6.22332L34.4501 3.41323C34.3777 2.99718 33.8531 2.85405 33.5794 3.1765L33.5779 3.17414Z" fill="#FBBF24"/>
</g>
<defs>
<clipPath id="clip0_98_2792">
<rect width="48" height="36" fill="white"/>
</clipPath>
</defs>
</svg>
