<svg width="48" height="36" viewBox="0 0 48 36" fill="none" xmlns="http://www.w3.org/2000/svg">
<g clip-path="url(#clip0_98_2882)">
<path d="M0 0H48V18H0V0Z" fill="#1E3A8A"/>
<path d="M0 18H48V36H0V18Z" fill="#EF4444"/>
<path d="M26.5187 20.63C28.4938 19.48 28.4938 16.52 26.5187 15.37L0 0V36L26.5187 20.63Z" fill="#F5F5F5"/>
<path fill-rule="evenodd" clip-rule="evenodd" d="M11.3081 12.2628L11.6101 14.1313C11.6544 14.3971 11.9887 14.4857 12.1578 14.2763L13.3538 12.8064C13.5753 12.5326 14.0103 12.7823 13.8854 13.1125L13.2129 14.8844C13.1162 15.1341 13.3619 15.3797 13.6156 15.2871L15.3875 14.6146C15.7177 14.4897 15.9674 14.9247 15.6936 15.1462L14.2237 16.3422C14.0143 16.5113 14.1069 16.8496 14.3687 16.8899L16.2372 17.1919C16.5876 17.2483 16.5876 17.7517 16.2372 17.8081L14.3687 18.1101C14.1029 18.1544 14.0143 18.4887 14.2237 18.6578L15.6936 19.8538C15.9674 20.0753 15.7177 20.5103 15.3875 20.3854L13.6156 19.7129C13.3659 19.6162 13.1203 19.8619 13.2129 20.1156L13.8854 21.8875C14.0103 22.2177 13.5753 22.4674 13.3538 22.1936L12.1578 20.7237C11.9887 20.5143 11.6504 20.6069 11.6101 20.8687L11.3081 22.7372C11.2517 23.0876 10.7483 23.0876 10.6919 22.7372L10.3899 20.8687C10.3456 20.6029 10.0113 20.5143 9.84221 20.7237L8.64617 22.1936C8.42468 22.4674 7.98975 22.2177 8.11459 21.8875L8.78711 20.1156C8.88376 19.8659 8.63811 19.6203 8.3844 19.7129L6.61248 20.3854C6.28226 20.5103 6.03258 20.0753 6.30642 19.8538L7.77631 18.6578C7.98572 18.4887 7.8931 18.1504 7.63134 18.1101L5.76277 17.8081C5.41241 17.7517 5.41241 17.2483 5.76277 17.1919L7.63134 16.8899C7.89713 16.8456 7.98572 16.5113 7.77631 16.3422L6.30642 15.1462C6.03258 14.9247 6.28226 14.4897 6.61248 14.6146L8.3844 15.2871C8.63408 15.3838 8.87974 15.1381 8.78711 14.8844L8.11459 13.1125C7.98975 12.7823 8.42468 12.5326 8.64617 12.8064L9.84221 14.2763C10.0113 14.4857 10.3496 14.3931 10.3899 14.1313L10.6919 12.2628C10.7483 11.9124 11.2517 11.9124 11.3081 12.2628Z" fill="#FBBF24"/>
<path d="M2.71545 4.07978L3.3918 4.65911C3.4652 4.7218 3.56905 4.73274 3.65406 4.68667L4.43627 4.2607C4.73188 4.09958 5.06535 4.40026 4.93594 4.71077L4.59418 5.53302C4.55699 5.62186 4.57894 5.72432 4.64906 5.79092L5.29596 6.40283C5.54061 6.63413 5.35769 7.04441 5.0223 7.01734L4.13457 6.94617C4.03851 6.93828 3.94764 6.99075 3.90644 7.07788L3.52421 7.88226C3.37996 8.18625 2.93356 8.13931 2.8552 7.81201L2.64871 6.94582C2.62632 6.85217 2.54856 6.78193 2.45281 6.76934L1.56909 6.65462C1.23525 6.61107 1.14219 6.17209 1.42915 5.99687L2.18915 5.53244C2.2714 5.48244 2.31401 5.38644 2.29641 5.29153L2.13288 4.41613C2.07108 4.08529 2.45984 3.86084 2.71545 4.07978Z" fill="#FBBF24"/>
<path d="M2.71545 28.0798L3.3918 28.6591C3.4652 28.7218 3.56905 28.7327 3.65406 28.6867L4.43627 28.2607C4.73188 28.0996 5.06535 28.4003 4.93594 28.7108L4.59418 29.533C4.55699 29.6219 4.57894 29.7243 4.64906 29.7909L5.29596 30.4028C5.54061 30.6341 5.35769 31.0444 5.0223 31.0173L4.13457 30.9462C4.03851 30.9383 3.94764 30.9907 3.90644 31.0779L3.52421 31.8823C3.37996 32.1863 2.93356 32.1393 2.8552 31.812L2.64871 30.9458C2.62632 30.8522 2.54856 30.7819 2.45281 30.7693L1.56909 30.6546C1.23525 30.6111 1.14219 30.1721 1.42915 29.9969L2.18915 29.5324C2.2714 29.4824 2.31401 29.3864 2.29641 29.2915L2.13288 28.4161C2.07108 28.0853 2.45984 27.8608 2.71545 28.0798Z" fill="#FBBF24"/>
<path d="M23.2154 16.0798L23.8918 16.6591C23.9652 16.7218 24.069 16.7327 24.1541 16.6867L24.9363 16.2607C25.2319 16.0996 25.5654 16.4003 25.4359 16.7108L25.0942 17.533C25.057 17.6219 25.0789 17.7243 25.1491 17.7909L25.796 18.4028C26.0406 18.6341 25.8577 19.0444 25.5223 19.0173L24.6346 18.9462C24.5385 18.9383 24.4476 18.9907 24.4064 19.0779L24.0242 19.8823C23.88 20.1863 23.4336 20.1393 23.3552 19.812L23.1487 18.9458C23.1263 18.8522 23.0486 18.7819 22.9528 18.7693L22.0691 18.6546C21.7353 18.6111 21.6422 18.1721 21.9291 17.9969L22.6892 17.5324C22.7714 17.4824 22.814 17.3864 22.7964 17.2915L22.6329 16.4161C22.5711 16.0853 22.9598 15.8608 23.2154 16.0798Z" fill="#FBBF24"/>
</g>
<defs>
<clipPath id="clip0_98_2882">
<rect width="48" height="36" fill="white"/>
</clipPath>
</defs>
</svg>
