<svg width="48" height="36" viewBox="0 0 48 36" fill="none" xmlns="http://www.w3.org/2000/svg">
<g clip-path="url(#clip0_98_2931)">
<path d="M0 0H12V36H0V0Z" fill="#F5F5F5"/>
<path d="M12 0H24V36H12V0Z" fill="#14532D"/>
<path d="M24 0H36V36H24V0Z" fill="#14532D"/>
<path d="M36 0H48V36H36V0Z" fill="#14532D"/>
<path d="M30.1534 12.6981L31.1556 13.4059C31.2644 13.4825 31.4098 13.4837 31.5228 13.409L32.5625 12.7182C32.9555 12.4569 33.4512 12.8267 33.3053 13.2715L32.9203 14.4494C32.8783 14.5767 32.92 14.7149 33.0246 14.7973L33.9894 15.5539C34.3543 15.8399 34.145 16.4293 33.6763 16.4367L32.436 16.4568C32.3017 16.4588 32.1813 16.5431 32.1335 16.6686L31.6904 17.8273C31.5232 18.2651 30.8982 18.2599 30.7538 17.8196L30.3728 16.6541C30.3315 16.5281 30.2159 16.4417 30.0815 16.4372L28.842 16.3968C28.3737 16.3812 28.1967 15.7891 28.5761 15.5095L29.5808 14.7688C29.6895 14.689 29.7383 14.5511 29.7035 14.4227L29.3811 13.2388C29.2593 12.7914 29.7747 12.4306 30.1534 12.6981Z" fill="#F5F5F5"/>
<path d="M31.1397 21.2351C31.1397 21.2351 31.1455 21.231 31.1479 21.2294C31.3434 21.0925 31.5905 21.3134 31.4727 21.5213C31.0556 22.2586 30.4738 22.9151 29.7363 23.4315C27.058 25.3068 23.3112 24.6125 21.4241 21.89C19.5369 19.1674 20.1809 15.4729 22.8534 13.6016C23.592 13.0844 24.4091 12.7614 25.2445 12.6216C25.4791 12.5828 25.6009 12.8915 25.4066 13.0275C25.4031 13.03 25.4008 13.0316 25.3973 13.0341C23.1614 14.5996 22.6331 17.7044 24.2194 19.9698C25.8056 22.2352 28.9038 22.8007 31.1397 21.2351Z" fill="#F5F5F5"/>
</g>
<defs>
<clipPath id="clip0_98_2931">
<rect width="48" height="36" fill="white"/>
</clipPath>
</defs>
</svg>
