<svg width="48" height="36" viewBox="0 0 48 36" fill="none" xmlns="http://www.w3.org/2000/svg">
<g clip-path="url(#clip0_98_11352)">
<path d="M0 0H48V7.2H0V0Z" fill="#EF4444"/>
<path d="M0 7.2002H48V14.4002H0V7.2002Z" fill="#F5F5F5"/>
<path d="M0 14.4004H48V21.6004H0V14.4004Z" fill="#EF4444"/>
<path d="M0 21.5996H48V28.7996H0V21.5996Z" fill="#F5F5F5"/>
<path d="M0 28.7998H48V35.9998H0V28.7998Z" fill="#EF4444"/>
<path d="M26.5187 20.63C28.4938 19.48 28.4938 16.52 26.5187 15.37L0 0V36L26.5187 20.63Z" fill="#3B82F6"/>
<path d="M11.0518 13.5951L11.792 15.6949C11.8726 15.9224 12.0837 16.0758 12.3254 16.0824L14.5514 16.1379C15.3928 16.1586 15.7389 17.2264 15.0706 17.7369L13.3029 19.0899C13.1113 19.2358 13.0307 19.485 13.0993 19.7169L13.735 21.8503C13.9756 22.6569 13.0667 23.3166 12.3744 22.8387L10.5413 21.575C10.3432 21.4378 10.0809 21.4378 9.88279 21.575L8.04975 22.8387C7.35746 23.3166 6.44965 22.6569 6.68912 21.8503L7.32481 19.7169C7.39338 19.4861 7.31283 19.2369 7.12126 19.0899L5.35135 17.7369C4.68301 17.2253 5.03024 16.1586 5.87057 16.1379L8.09656 16.0824C8.33712 16.0769 8.54937 15.9224 8.62992 15.6949L9.37011 13.5951C9.64985 12.8016 10.7721 12.8016 11.0518 13.5951Z" fill="#F5F5F5"/>
</g>
<defs>
<clipPath id="clip0_98_11352">
<rect width="48" height="36" fill="white"/>
</clipPath>
</defs>
</svg>
