<svg width="48" height="36" viewBox="0 0 48 36" fill="none" xmlns="http://www.w3.org/2000/svg">
<g clip-path="url(#clip0_98_3101)">
<path d="M19.2 0H0V36H19.2V0Z" fill="#14532D"/>
<path d="M48 0H19.2V36H48V0Z" fill="#EF4444"/>
<path d="M19.2 8.63965C14.04 8.63965 9.84 12.8396 9.84 17.9996C9.84 23.1596 14.04 27.3596 19.2 27.3596C24.36 27.3596 28.56 23.1596 28.56 17.9996C28.56 12.8396 24.36 8.63965 19.2 8.63965ZM25.99 13.9396L21.21 16.1696L23.85 11.5996C24.71 12.2296 25.44 13.0196 25.99 13.9396ZM20.02 10.1196C20.87 10.2096 21.67 10.4296 22.42 10.7696L20.02 14.9296V10.1196ZM18.38 16.0096L14.22 11.8496C15.38 10.9096 16.81 10.2796 18.38 10.1196V16.0096ZM15.32 15.2796L12.42 13.9296C12.61 13.6096 12.82 13.2996 13.05 13.0196L15.32 15.2896V15.2796ZM15.49 17.1796H11.33C11.39 16.5696 11.53 15.9796 11.73 15.4196L15.5 17.1796H15.49ZM15.52 18.8196L11.73 20.5896C11.53 20.0296 11.39 19.4396 11.33 18.8196H15.53H15.52ZM18.38 25.8796C17.53 25.7896 16.73 25.5696 15.98 25.2296L18.38 21.0696V25.8796ZM20.02 19.9896L24.18 24.1496C23.02 25.0896 21.59 25.7196 20.02 25.8796V19.9896ZM23.08 20.7196L25.98 22.0696C25.79 22.3896 25.58 22.6996 25.35 22.9796L23.08 20.7096V20.7196ZM22.91 18.8196H27.08C27.02 19.4296 26.88 20.0196 26.68 20.5796L22.91 18.8196ZM22.94 17.1796L26.68 15.4296C26.87 15.9896 27.01 16.5696 27.07 17.1796H22.93H22.94ZM12.43 22.0796L17.18 19.8696L14.56 24.3996C13.7 23.7796 12.98 22.9896 12.43 22.0796Z" fill="#FBBF24"/>
<path d="M13.11 12.5992C13.11 11.7992 13.75 11.1592 14.55 11.1592H23.91C24.71 11.1592 25.35 11.7992 25.35 12.5992V19.0792C25.35 22.4592 22.61 25.1992 19.23 25.1992C15.85 25.1992 13.11 22.4592 13.11 19.0792V12.5992Z" fill="#EF4444"/>
<path d="M14.91 13.849V18.889C14.91 21.139 16.55 23.159 18.8 23.379C21.38 23.629 23.55 21.609 23.55 19.079V13.849C23.55 13.359 23.15 12.959 22.66 12.959H15.8C15.31 12.959 14.91 13.359 14.91 13.849Z" fill="#F5F5F5"/>
<path d="M19.23 18.7199C19.7271 18.7199 20.13 18.317 20.13 17.8199C20.13 17.3229 19.7271 16.9199 19.23 16.9199C18.7329 16.9199 18.33 17.3229 18.33 17.8199C18.33 18.317 18.7329 18.7199 19.23 18.7199Z" fill="#3B82F6"/>
<path d="M19.23 21.5998C19.7271 21.5998 20.13 21.1969 20.13 20.6998C20.13 20.2027 19.7271 19.7998 19.23 19.7998C18.7329 19.7998 18.33 20.2027 18.33 20.6998C18.33 21.1969 18.7329 21.5998 19.23 21.5998Z" fill="#3B82F6"/>
<path d="M19.23 15.4797C19.7271 15.4797 20.13 15.0767 20.13 14.5797C20.13 14.0826 19.7271 13.6797 19.23 13.6797C18.7329 13.6797 18.33 14.0826 18.33 14.5797C18.33 15.0767 18.7329 15.4797 19.23 15.4797Z" fill="#3B82F6"/>
<path d="M21.75 18.7199C22.2471 18.7199 22.65 18.317 22.65 17.8199C22.65 17.3229 22.2471 16.9199 21.75 16.9199C21.2529 16.9199 20.85 17.3229 20.85 17.8199C20.85 18.317 21.2529 18.7199 21.75 18.7199Z" fill="#3B82F6"/>
<path d="M16.71 18.7199C17.2071 18.7199 17.61 18.317 17.61 17.8199C17.61 17.3229 17.2071 16.9199 16.71 16.9199C16.2129 16.9199 15.81 17.3229 15.81 17.8199C15.81 18.317 16.2129 18.7199 16.71 18.7199Z" fill="#3B82F6"/>
</g>
<defs>
<clipPath id="clip0_98_3101">
<rect width="48" height="36" fill="white"/>
</clipPath>
</defs>
</svg>
