<svg width="48" height="36" viewBox="0 0 48 36" fill="none" xmlns="http://www.w3.org/2000/svg">
<g clip-path="url(#clip0_98_3194)">
<path d="M0 0H48V12H0V0Z" fill="#EF4444"/>
<path d="M0 12H48V24H0V12Z" fill="#F5F5F5"/>
<path d="M0 24H48V36H0V24Z" fill="#3B82F6"/>
<path fill-rule="evenodd" clip-rule="evenodd" d="M24 21.9286C26.1697 21.9286 27.9286 20.1697 27.9286 18C27.9286 15.8303 26.1697 14.0714 24 14.0714C21.8303 14.0714 20.0714 15.8303 20.0714 18C20.0714 20.1697 21.8303 21.9286 24 21.9286ZM24 23C26.7614 23 29 20.7614 29 18C29 15.2386 26.7614 13 24 13C21.2386 13 19 15.2386 19 18C19 20.7614 21.2386 23 24 23Z" fill="#22C55E"/>
<path d="M24.4033 15.7976L24.7584 16.8474C24.7971 16.9612 24.8984 17.0379 25.0143 17.0412L26.0822 17.0689C26.4859 17.0793 26.6519 17.6132 26.3313 17.8684L25.4833 18.545C25.3913 18.6179 25.3527 18.7425 25.3856 18.8584L25.6906 19.9252C25.806 20.3285 25.3699 20.6583 25.0378 20.4194L24.1584 19.7875C24.0634 19.7189 23.9375 19.7189 23.8425 19.7875L22.9631 20.4194C22.631 20.6583 22.1955 20.3285 22.3103 19.9252L22.6153 18.8584C22.6482 18.7431 22.6096 18.6184 22.5177 18.545L21.6686 17.8684C21.3479 17.6126 21.5145 17.0793 21.9176 17.0689L22.9856 17.0412C23.101 17.0385 23.2028 16.9612 23.2414 16.8474L23.5965 15.7976C23.7307 15.4008 24.2691 15.4008 24.4033 15.7976Z" fill="#FBBF24"/>
</g>
<defs>
<clipPath id="clip0_98_3194">
<rect width="48" height="36" fill="white"/>
</clipPath>
</defs>
</svg>
