<svg width="48" height="36" viewBox="0 0 48 36" fill="none" xmlns="http://www.w3.org/2000/svg">
<rect width="48" height="36" fill="#450A0A"/>
<path d="M9.52 3.65L15.08 2.36C15.45 2.27 15.45 1.74 15.08 1.65L8.04 0C8.04 0 7.99 0 7.96 0H0V36H7.96C7.96 36 8.02 36 8.04 36L15.08 34.36C15.45 34.27 15.45 33.74 15.08 33.65L9.52 32.36C9.15 32.27 9.15 31.74 9.52 31.65L15.08 30.36C15.45 30.27 15.45 29.74 15.08 29.65L9.52 28.36C9.15 28.27 9.15 27.74 9.52 27.65L15.08 26.36C15.45 26.27 15.45 25.74 15.08 25.65L9.52 24.36C9.15 24.27 9.15 23.74 9.52 23.65L15.08 22.36C15.45 22.27 15.45 21.74 15.08 21.65L9.52 20.36C9.15 20.27 9.15 19.74 9.52 19.65L15.08 18.36C15.45 18.27 15.45 17.74 15.08 17.65L9.52 16.36C9.15 16.27 9.15 15.74 9.52 15.65L15.08 14.36C15.45 14.27 15.45 13.74 15.08 13.65L9.52 12.36C9.15 12.27 9.15 11.74 9.52 11.65L15.08 10.36C15.45 10.27 15.45 9.74 15.08 9.65L9.52 8.36C9.15 8.27 9.15 7.74 9.52 7.65L15.08 6.36C15.45 6.27 15.45 5.74 15.08 5.65L9.52 4.36C9.15 4.27 9.15 3.74 9.52 3.65Z" fill="#F5F5F5"/>
</svg>
