<svg width="48" height="36" viewBox="0 0 48 36" fill="none" xmlns="http://www.w3.org/2000/svg">
<g clip-path="url(#clip0_98_3310)">
<path d="M0 0H48V12H0V0Z" fill="#EF4444"/>
<path d="M0 12H48V24H0V12Z" fill="#1E3A8A"/>
<path d="M0 24H48V36H0V24Z" fill="#F5F5F5"/>
<path d="M18.6843 5.84825C18.8893 5.78794 19.0992 5.7397 19.3115 5.70472V7.42585C18.6131 7.59832 17.9787 7.98187 17.4987 8.53548C17.1308 8.96003 16.8715 9.46177 16.74 9.9985H15.0177C15.1697 9.0722 15.5701 8.19897 16.184 7.47651C15.5568 7.66707 14.9888 8.03011 14.5509 8.53548C14.1831 8.96003 13.9238 9.46177 13.7923 9.9985H12.8443C12.3775 9.9985 12 10.376 12 10.8428C12 9.58842 12.4535 8.37506 13.2761 7.42947C14.2639 6.28969 15.6967 5.63477 17.208 5.63477C17.711 5.63477 18.2067 5.70713 18.6843 5.84825Z" fill="#F5F5F5"/>
<path d="M28.3115 10.8428C28.3115 10.376 27.934 9.9985 27.4672 9.9985H26.5192C26.3878 9.46177 26.1297 8.96003 25.7618 8.53668C25.7087 8.47517 25.652 8.41486 25.5917 8.35456C25.1756 7.93724 24.6727 7.63813 24.1251 7.47289C24.739 8.19415 25.1419 9.06858 25.2938 9.9985H23.5715C23.44 9.46177 23.1819 8.96003 22.814 8.53668C22.761 8.47517 22.7043 8.41486 22.644 8.35456C22.1832 7.89262 21.6176 7.57541 21 7.42464V5.70351C21.2147 5.73729 21.427 5.78553 21.6333 5.84704C22.1097 5.70713 22.603 5.63477 23.1035 5.63477C24.4954 5.63477 25.804 6.17631 26.7858 7.1605C26.8762 7.25096 26.9619 7.34263 27.0391 7.43309C27.858 8.37506 28.3115 9.58721 28.3115 10.8428Z" fill="#F5F5F5"/>
<path d="M28.3115 10.8435C28.3115 11.3103 27.934 11.6878 27.4672 11.6878H25.7208C25.6424 11.6818 25.564 11.6781 25.4832 11.6781H14.8283C14.7475 11.6781 14.6691 11.6818 14.5907 11.6878H12.8443C12.3775 11.6878 12 11.3103 12 10.8435C12 10.3767 12.3775 9.99922 12.8443 9.99922H19.3115V4.84428C19.3115 4.37872 19.689 4 20.1558 4C20.3897 4 20.5996 4.09408 20.7528 4.24725C20.906 4.40043 21 4.6115 21 4.84428V9.99922H27.4672C27.934 9.99922 28.3115 10.3767 28.3115 10.8435Z" fill="#FBBF24"/>
<path d="M25.7208 11.6874H14.5907C14.6691 11.6814 14.7475 11.6777 14.8283 11.6777H25.4832C25.564 11.6777 25.6424 11.6814 25.7208 11.6874Z" fill="#FBBF24"/>
<path d="M28.2958 14.2033C28.2898 14.1503 28.2826 14.0972 28.2741 14.0465C28.1017 12.9948 27.3466 12.1361 26.3528 11.8152H26.3516C26.2225 11.773 26.0886 11.7405 25.9524 11.7175C25.8764 11.7043 25.7992 11.6946 25.7208 11.6874C25.6424 11.6814 25.564 11.6777 25.4832 11.6777H14.8283C14.7475 11.6777 14.6691 11.6814 14.5907 11.6874C14.5123 11.6946 14.4351 11.7043 14.3592 11.7175C14.2229 11.7405 14.089 11.773 13.9599 11.8152C12.9649 12.1361 12.2099 12.9948 12.0374 14.0465C12.0289 14.0984 12.0217 14.1503 12.0157 14.2033C12.006 14.3035 12 14.4036 12 14.5061V23.8438C12 25.3708 12.4221 26.8012 13.1543 28.0242C13.1796 28.0677 13.2061 28.1099 13.2339 28.1521C13.7549 28.9879 14.4243 29.7224 15.2047 30.3195C15.2963 30.3906 15.3904 30.4594 15.4857 30.5257C16.8088 31.4544 18.4202 31.9996 20.1558 31.9996C21.8914 31.9996 23.5027 31.4544 24.8258 30.5257C24.9211 30.4594 25.0152 30.3906 25.1069 30.3195C25.8872 29.7224 26.5566 28.9879 27.0777 28.1521C27.1054 28.1099 27.1319 28.0677 27.1573 28.0242C27.8894 26.8012 28.3115 25.3708 28.3115 23.8438V14.5061C28.3115 14.4036 28.3055 14.3035 28.2958 14.2033ZM26.623 23.8438C26.623 24.5458 26.5084 25.2381 26.2877 25.8966C26.1574 26.285 25.6532 26.3779 25.3963 26.0595L24.1432 24.4963C23.9309 24.2322 23.8417 23.8885 23.9104 23.5568C23.9611 23.3071 23.9888 23.0478 23.9888 22.7812V22.5629H21.4342C21.2823 22.5629 21.1448 22.6245 21.0447 22.7246C20.9446 22.8247 20.883 22.9622 20.883 23.1141V26.5455C21.0471 26.5142 21.2063 26.472 21.3619 26.4201C21.655 26.3212 21.9794 26.4249 22.1724 26.6661L23.9032 28.8227C23.9828 28.9216 23.9635 29.0675 23.8597 29.1411C23.8585 29.1423 23.8573 29.1423 23.8561 29.1435C22.7682 29.907 21.4885 30.311 20.1558 30.311C18.823 30.311 17.5433 29.907 16.4542 29.1423C16.453 29.1423 16.453 29.1411 16.4518 29.1411C16.3481 29.0675 16.3288 28.9216 16.4084 28.8215L18.1391 26.6661C18.3321 26.4261 18.6554 26.3212 18.9484 26.4189C19.1064 26.472 19.2693 26.5142 19.4357 26.5467V23.1214C19.4357 22.8126 19.186 22.5629 18.8773 22.5629H16.3227V22.7812C16.3227 22.9935 16.3396 23.201 16.3734 23.4036C16.447 23.8535 16.3167 24.3118 16.032 24.6676L14.9453 26.0197C14.6764 26.355 14.1409 26.2573 14.007 25.8484C13.7971 25.2043 13.6886 24.5277 13.6886 23.8438V17.642C13.6886 17.1306 14.3326 16.9038 14.6535 17.3031L15.9633 18.9337C16.1961 19.2244 16.3227 19.585 16.3227 19.9565V21.1156H18.8845C19.0365 21.1156 19.174 21.0541 19.2741 20.954C19.3742 20.8539 19.4357 20.7164 19.4357 20.5644V17.063H18.7482C18.384 17.063 18.0402 16.8978 17.8135 16.6144L15.7353 14.0273C15.5219 13.7619 15.7112 13.3663 16.0526 13.3663H24.259C24.6003 13.3663 24.7897 13.7619 24.5762 14.0273L22.498 16.6144C22.2713 16.8978 21.9275 17.063 21.5633 17.063H20.883V20.5716C20.883 20.872 21.1267 21.1156 21.427 21.1156H23.9888V19.7877C23.9888 19.5259 24.0781 19.2702 24.2433 19.0664L25.7075 17.2428C26.0115 16.864 26.623 17.0787 26.623 17.5648V23.8438Z" fill="#EF4444"/>
<path d="M26.623 17.5647V23.8437C26.623 24.5457 26.5084 25.238 26.2877 25.8966C26.1574 26.2849 25.6532 26.3778 25.3963 26.0594L24.1432 24.4963C23.9309 24.2321 23.8417 23.8884 23.9104 23.5567C23.9611 23.307 23.9888 23.0477 23.9888 22.7812V22.5629H21.4343C21.2823 22.5629 21.1448 22.6244 21.0447 22.7245C20.9446 22.8246 20.8831 22.9621 20.8831 23.114V26.5454C21.0471 26.5141 21.2063 26.4719 21.3619 26.42C21.655 26.3211 21.9794 26.4248 22.1724 26.6661L23.9032 28.8226C23.9828 28.9215 23.9635 29.0674 23.8598 29.141C23.8585 29.1422 23.8573 29.1422 23.8561 29.1434C22.7682 29.9069 21.4885 30.3109 20.1558 30.3109C18.823 30.3109 17.5433 29.9069 16.4542 29.1422C16.453 29.1422 16.453 29.141 16.4518 29.141C16.3481 29.0674 16.3288 28.9215 16.4084 28.8214L18.1391 26.6661C18.3321 26.426 18.6554 26.3211 18.9484 26.4188C19.1064 26.4719 19.2693 26.5141 19.4357 26.5467V23.1213C19.4357 22.8125 19.186 22.5629 18.8773 22.5629H16.3227V22.7812C16.3227 22.9934 16.3396 23.2009 16.3734 23.4035C16.447 23.8534 16.3167 24.3117 16.0321 24.6675L14.9453 26.0196C14.6764 26.3549 14.1409 26.2572 14.007 25.8483C13.7971 25.2042 13.6886 24.5276 13.6886 23.8437V17.6419C13.6886 17.1305 14.3326 16.9038 14.6535 17.303L15.9633 18.9336C16.1961 19.2243 16.3227 19.5849 16.3227 19.9564V21.1155H18.8845C19.0365 21.1155 19.174 21.054 19.2741 20.9539C19.3742 20.8538 19.4357 20.7163 19.4357 20.5643V17.063H18.7482C18.384 17.063 18.0402 16.8977 17.8135 16.6143L15.7353 14.0272C15.5219 13.7618 15.7112 13.3662 16.0526 13.3662H24.259C24.6003 13.3662 24.7897 13.7618 24.5762 14.0272L22.498 16.6143C22.2713 16.8977 21.9276 17.063 21.5633 17.063H20.8831V20.5716C20.8831 20.8719 21.1267 21.1155 21.427 21.1155H23.9888V19.7876C23.9888 19.5258 24.0781 19.2702 24.2433 19.0663L25.7075 17.2427C26.0115 16.8639 26.623 17.0786 26.623 17.5647Z" fill="#F5F5F5"/>
</g>
<defs>
<clipPath id="clip0_98_3310">
<rect width="48" height="36" fill="white"/>
</clipPath>
</defs>
</svg>
