<svg width="48" height="36" viewBox="0 0 48 36" fill="none" xmlns="http://www.w3.org/2000/svg">
<g clip-path="url(#clip0_98_3334)">
<path d="M0 0H48V18H0V0Z" fill="#3B82F6"/>
<path d="M0 18H48V27H0V18Z" fill="#FBBF24"/>
<path d="M0 27H48V36H0V27Z" fill="#22C55E"/>
<path fill-rule="evenodd" clip-rule="evenodd" d="M38.2241 5.1911L38.4437 6.55006C38.4759 6.74336 38.719 6.8078 38.842 6.6555L39.7119 5.58649C39.873 5.38733 40.1893 5.56892 40.0985 5.80908L39.6094 7.09775C39.5391 7.27933 39.7177 7.45799 39.9023 7.39063L41.1909 6.90152C41.4311 6.81073 41.6127 7.12704 41.4135 7.28812L40.3445 8.15797C40.1922 8.28098 40.2596 8.527 40.4499 8.55629L41.8089 8.77595C42.0637 8.81695 42.0637 9.18305 41.8089 9.22405L40.4499 9.44371C40.2566 9.47593 40.1922 9.71902 40.3445 9.84203L41.4135 10.7119C41.6127 10.873 41.4311 11.1893 41.1909 11.0985L39.9023 10.6094C39.7207 10.5391 39.542 10.7177 39.6094 10.9023L40.0985 12.1909C40.1893 12.4311 39.873 12.6127 39.7119 12.4135L38.842 11.3445C38.719 11.1922 38.473 11.2596 38.4437 11.4499L38.2241 12.8089C38.183 13.0637 37.817 13.0637 37.7759 12.8089L37.5563 11.4499C37.5241 11.2566 37.281 11.1922 37.158 11.3445L36.2881 12.4135C36.127 12.6127 35.8107 12.4311 35.9015 12.1909L36.3906 10.9023C36.4609 10.7207 36.2823 10.542 36.0977 10.6094L34.8091 11.0985C34.5689 11.1893 34.3873 10.873 34.5865 10.7119L35.6555 9.84203C35.8078 9.71902 35.7404 9.473 35.5501 9.44371L34.1911 9.22405C33.9363 9.18305 33.9363 8.81695 34.1911 8.77595L35.5501 8.55629C35.7434 8.52407 35.8078 8.28098 35.6555 8.15797L34.5865 7.28812C34.3873 7.12704 34.5689 6.81073 34.8091 6.90152L36.0977 7.39063C36.2793 7.46092 36.458 7.28226 36.3906 7.09775L35.9015 5.80908C35.8107 5.56892 36.127 5.38733 36.2881 5.58649L37.158 6.6555C37.281 6.8078 37.527 6.74044 37.5563 6.55006L37.7759 5.1911C37.817 4.9363 38.183 4.9363 38.2241 5.1911Z" fill="#FBBF24"/>
</g>
<defs>
<clipPath id="clip0_98_3334">
<rect width="48" height="36" fill="white"/>
</clipPath>
</defs>
</svg>
