<svg width="48" height="36" viewBox="0 0 48 36" fill="none" xmlns="http://www.w3.org/2000/svg">
<rect width="48" height="36" fill="#14532D"/>
<path d="M14.95 9.26953C14.55 9.26953 14.23 9.58953 14.23 9.98953V17.4295C14.23 18.3895 13.45 19.1595 12.5 19.1595H8.52C8.12 19.1595 7.8 19.4795 7.8 19.8795C7.8 20.2795 8.12 20.5995 8.52 20.5995H12.5C14.25 20.5995 15.67 19.1795 15.67 17.4295V9.98953C15.67 9.58953 15.35 9.26953 14.95 9.26953Z" fill="#F5F5F5"/>
<path d="M9.68 18.3495H10.84C11.24 18.3495 11.56 18.0295 11.56 17.6295V10.9795C11.56 10.8295 11.68 10.7195 11.82 10.7195H12.08V17.6295C12.08 18.0295 12.4 18.3495 12.8 18.3495C13.2 18.3495 13.52 18.0295 13.52 17.6295V9.99953C13.52 9.59953 13.2 9.27953 12.8 9.27953H11.82C10.88 9.27953 10.12 10.0395 10.12 10.9795V16.9095H9.68C9.44 16.9095 9.24 16.7095 9.24 16.4695V9.98953C9.24 9.58953 8.92 9.26953 8.52 9.26953C8.12 9.26953 7.8 9.58953 7.8 9.98953V16.4695C7.8 17.4995 8.64 18.3495 9.68 18.3495Z" fill="#F5F5F5"/>
<path d="M26.15 19.1695H17.91V9.98953C17.91 9.58953 17.59 9.26953 17.19 9.26953C16.79 9.26953 16.47 9.58953 16.47 9.98953V19.8895C16.47 20.2895 16.79 20.6095 17.19 20.6095H26.15C26.55 20.6095 26.87 20.2895 26.87 19.8895C26.87 19.4895 26.55 19.1695 26.15 19.1695Z" fill="#F5F5F5"/>
<path d="M19.36 18.3495C19.76 18.3495 20.08 18.0295 20.08 17.6295V10.7095H21.03V17.6295C21.03 18.0295 21.35 18.3495 21.75 18.3495C22.15 18.3495 22.47 18.0295 22.47 17.6295V9.98953C22.47 9.58953 22.15 9.26953 21.75 9.26953H19.36C18.96 9.26953 18.64 9.58953 18.64 9.98953V17.6295C18.64 18.0295 18.96 18.3495 19.36 18.3495Z" fill="#F5F5F5"/>
<path d="M23.49 9.26953C23.09 9.26953 22.77 9.58953 22.77 9.98953C22.77 10.3895 23.09 10.7095 23.49 10.7095C24.8 10.7095 25.87 11.7795 25.87 13.0895V16.7095C25.87 16.8195 25.78 16.9195 25.66 16.9195H23.49C23.09 16.9195 22.77 17.2395 22.77 17.6395C22.77 18.0395 23.09 18.3595 23.49 18.3595H25.66C26.57 18.3595 27.31 17.6195 27.31 16.7095V13.0895C27.31 10.9895 25.6 9.26953 23.49 9.26953Z" fill="#F5F5F5"/>
<path d="M31.9 9.98953C31.9 9.58953 31.58 9.26953 31.18 9.26953C30.78 9.26953 30.46 9.58953 30.46 9.98953V17.0295C30.46 18.2095 29.5 19.1695 28.32 19.1695C27.92 19.1695 27.6 19.4895 27.6 19.8895C27.6 20.2895 27.92 20.6095 28.32 20.6095C30.29 20.6095 31.9 18.9995 31.9 17.0295V9.98953Z" fill="#F5F5F5"/>
<path d="M39.48 9.26953C39.08 9.26953 38.76 9.58953 38.76 9.98953V17.0295C38.76 18.2095 37.8 19.1695 36.62 19.1695C36.22 19.1695 35.9 19.4895 35.9 19.8895C35.9 20.2895 36.22 20.6095 36.62 20.6095C38.59 20.6095 40.2 18.9995 40.2 17.0295V9.98953C40.2 9.58953 39.88 9.26953 39.48 9.26953Z" fill="#F5F5F5"/>
<path d="M28.82 18.3504C29.22 18.3504 29.54 18.0304 29.54 17.6304V10.1604C29.54 9.76043 29.22 9.44043 28.82 9.44043C28.42 9.44043 28.1 9.76043 28.1 10.1604V17.6304C28.1 18.0304 28.42 18.3504 28.82 18.3504Z" fill="#F5F5F5"/>
<path d="M36.62 16.8597C36.62 16.8597 36.62 16.8697 36.62 16.8897C36.62 16.9097 36.61 16.9097 36.59 16.9097H34.75C34.31 16.9097 33.94 16.5497 33.94 16.0997V13.8897C33.94 13.4897 33.62 13.1697 33.22 13.1697C32.82 13.1697 32.5 13.4897 32.5 13.8897V16.0997C32.5 17.3397 33.51 18.3497 34.75 18.3497H36.59C37.14 18.3497 37.64 18.0497 37.89 17.5597C38.14 17.0797 38.11 16.4897 37.8 16.0397L33.45 9.7497C33.22 9.4197 32.78 9.3397 32.45 9.5697C32.12 9.7997 32.04 10.2397 32.27 10.5697L36.62 16.8597Z" fill="#F5F5F5"/>
<path d="M34.7 19.1201H32.35C31.95 19.1201 31.63 19.4401 31.63 19.8401C31.63 20.2401 31.95 20.5601 32.35 20.5601H34.7C35.1 20.5601 35.42 20.2401 35.42 19.8401C35.42 19.4401 35.1 19.1201 34.7 19.1201Z" fill="#F5F5F5"/>
<path d="M37.07 14.29C37.21 14.5 37.43 14.61 37.67 14.61C37.74 14.61 37.81 14.61 37.88 14.58C38.18 14.49 38.39 14.21 38.39 13.89V9.98996C38.39 9.58996 38.07 9.26996 37.67 9.26996C37.27 9.26996 36.95 9.58996 36.95 9.98996V11.5L35.69 9.58996C35.47 9.25996 35.02 9.16996 34.69 9.38996C34.36 9.60996 34.27 10.06 34.49 10.39L37.07 14.29Z" fill="#F5F5F5"/>
<path d="M24 16.0595C24.4 16.0595 24.72 15.7395 24.72 15.3395V12.2395C24.72 11.8395 24.4 11.5195 24 11.5195C23.6 11.5195 23.28 11.8395 23.28 12.2395V15.3395C23.28 15.7395 23.6 16.0595 24 16.0595Z" fill="#F5F5F5"/>
<path d="M15.72 25.6504H32.28C32.68 25.6504 33 25.9704 33 26.3704C33 26.7704 32.68 27.0904 32.28 27.0904H15.72C15.32 27.0904 15 26.7704 15 26.3704C15 25.9704 15.32 25.6504 15.72 25.6504Z" fill="#F5F5F5"/>
</svg>
