<svg width="48" height="36" viewBox="0 0 48 36" fill="none" xmlns="http://www.w3.org/2000/svg">
<g clip-path="url(#clip0_98_3737)">
<path d="M0 0H48V18H0V0Z" fill="#EF4444"/>
<path d="M0 18H48V36H0V18Z" fill="#F5F5F5"/>
<path d="M12.6476 6.65091L12.865 7.25569C12.8886 7.32122 12.9506 7.36542 13.0216 7.3673L13.6752 7.38329C13.9223 7.38925 14.0239 7.69681 13.8277 7.84385L13.3086 8.23356C13.2524 8.27557 13.2287 8.34737 13.2488 8.41415L13.4355 9.02865C13.5061 9.26097 13.2393 9.45096 13.036 9.31332L12.4977 8.94933C12.4396 8.90982 12.3625 8.90982 12.3044 8.94933L11.7661 9.31332C11.5628 9.45096 11.2963 9.26097 11.3666 9.02865L11.5533 8.41415C11.5734 8.34768 11.5497 8.27588 11.4935 8.23356L10.9738 7.84385C10.7775 7.6965 10.8795 7.38925 11.1262 7.38329L11.7799 7.3673C11.8505 7.36574 11.9128 7.32122 11.9365 7.25569L12.1538 6.65091C12.236 6.42235 12.5655 6.42235 12.6476 6.65091Z" fill="#F5F5F5"/>
<path d="M14.4478 10.6128L14.6652 11.2176C14.6888 11.2831 14.7508 11.3273 14.8218 11.3292L15.4754 11.3452C15.7225 11.3512 15.8241 11.6587 15.6279 11.8058L15.1088 12.1955C15.0526 12.2375 15.0289 12.3093 15.049 12.3761L15.2357 12.9906C15.3063 13.2229 15.0395 13.4129 14.8362 13.2752L14.2979 12.9112C14.2398 12.8717 14.1627 12.8717 14.1046 12.9112L13.5663 13.2752C13.3631 13.4129 13.0965 13.2229 13.1668 12.9906L13.3535 12.3761C13.3736 12.3096 13.3499 12.2378 13.2937 12.1955L12.774 11.8058C12.5777 11.6584 12.6797 11.3512 12.9264 11.3452L13.5801 11.3292C13.6507 11.3276 13.713 11.2831 13.7367 11.2176L13.954 10.6128C14.0362 10.3843 14.3657 10.3843 14.4478 10.6128Z" fill="#F5F5F5"/>
<path d="M19.8483 6.65091L20.0657 7.25569C20.0893 7.32122 20.1513 7.36542 20.2223 7.3673L20.8759 7.38329C21.123 7.38925 21.2246 7.69681 21.0284 7.84385L20.5093 8.23356C20.4531 8.27557 20.4294 8.34737 20.4495 8.41415L20.6362 9.02865C20.7068 9.26097 20.44 9.45096 20.2367 9.31332L19.6984 8.94933C19.6403 8.90982 19.5632 8.90982 19.5051 8.94933L18.9668 9.31332C18.7635 9.45096 18.497 9.26097 18.5673 9.02865L18.754 8.41415C18.7741 8.34768 18.7504 8.27588 18.6942 8.23356L18.1745 7.84385C17.9782 7.6965 18.0802 7.38925 18.3269 7.38329L18.9806 7.3673C19.0512 7.36574 19.1135 7.32122 19.1372 7.25569L19.3545 6.65091C19.4367 6.42235 19.7662 6.42235 19.8483 6.65091Z" fill="#F5F5F5"/>
<path d="M18.4082 10.6128L18.6256 11.2176C18.6492 11.2831 18.7112 11.3273 18.7822 11.3292L19.4358 11.3452C19.6829 11.3512 19.7845 11.6587 19.5883 11.8058L19.0692 12.1955C19.013 12.2375 18.9893 12.3093 19.0095 12.3761L19.1961 12.9906C19.2667 13.2229 18.9999 13.4129 18.7966 13.2752L18.2583 12.9112C18.2002 12.8717 18.1231 12.8717 18.065 12.9112L17.5267 13.2752C17.3235 13.4129 17.0569 13.2229 17.1272 12.9906L17.3139 12.3761C17.334 12.3096 17.3103 12.2378 17.2541 12.1955L16.7344 11.8058C16.5381 11.6584 16.6401 11.3512 16.8869 11.3452L17.5405 11.3292C17.6111 11.3276 17.6734 11.2831 17.6971 11.2176L17.9144 10.6128C17.9966 10.3843 18.3261 10.3843 18.4082 10.6128Z" fill="#F5F5F5"/>
<path d="M16.248 4.13138L16.4653 4.73616C16.489 4.80168 16.551 4.84589 16.622 4.84777L17.2756 4.86376C17.5226 4.86972 17.6243 5.17728 17.428 5.32432L16.909 5.71403C16.8527 5.75604 16.8291 5.82784 16.8492 5.89462L17.0359 6.50912C17.1065 6.74143 16.8396 6.93143 16.6363 6.79379L16.0981 6.4298C16.0399 6.39029 15.9629 6.39029 15.9047 6.4298L15.3665 6.79379C15.1632 6.93143 14.8966 6.74143 14.967 6.50912L15.1536 5.89462C15.1738 5.82815 15.1501 5.75635 15.0938 5.71403L14.5741 5.32432C14.3779 5.17697 14.4799 4.86972 14.7266 4.86376L15.3802 4.84777C15.4509 4.8462 15.5132 4.80168 15.5368 4.73616L15.7542 4.13138C15.8363 3.90282 16.1659 3.90282 16.248 4.13138Z" fill="#F5F5F5"/>
<path d="M12.3342 14.0058C12.3342 14.0058 12.3414 14.0058 12.3442 14.0058C12.5829 14.0058 12.6586 14.3285 12.4428 14.4313C11.6783 14.7959 10.8252 15 9.92487 15C6.65523 15 3.98435 12.2822 4.00007 8.96961C4.01579 5.65702 6.66237 3 9.92487 3C10.8266 3 11.6812 3.20405 12.4457 3.56874C12.6601 3.67149 12.5829 3.99421 12.3457 3.99421C12.3414 3.99421 12.3385 3.99421 12.3342 3.99421C9.60477 3.99421 7.39118 6.23444 7.39118 9C7.39118 11.7656 9.60477 14.0058 12.3342 14.0058Z" fill="#F5F5F5"/>
</g>
<defs>
<clipPath id="clip0_98_3737">
<rect width="48" height="36" fill="white"/>
</clipPath>
</defs>
</svg>
