<svg width="48" height="36" viewBox="0 0 48 36" fill="none" xmlns="http://www.w3.org/2000/svg">
<g clip-path="url(#clip0_98_3751)">
<path d="M0 0H48V12H0V0Z" fill="#F5F5F5"/>
<path d="M0 12H48V24H0V12Z" fill="#1E3A8A"/>
<path d="M0 24H48V36H0V24Z" fill="#EF4444"/>
<g clip-path="url(#clip1_98_3751)">
<path fill-rule="evenodd" clip-rule="evenodd" d="M18.9509 6.941C18.9381 7.13641 18.9253 7.32621 18.9124 7.51121C18.9084 7.56967 18.9044 7.62734 18.9004 7.685C18.8884 7.85798 18.8764 8.02696 18.8644 8.19114C18.8532 8.35371 18.8412 8.51148 18.83 8.66524C18.8027 9.01201 18.7763 9.33876 18.7499 9.64629C18.7459 9.69594 18.7411 9.7456 18.7371 9.79445C18.7282 9.89856 18.7186 9.99947 18.7098 10.0988C18.6978 10.2285 18.6858 10.355 18.6738 10.4776C18.641 10.8035 18.6089 11.1038 18.5753 11.3809C18.5689 11.433 18.5633 11.4834 18.5569 11.5339C18.5545 11.5507 18.5529 11.5675 18.5505 11.5836C18.5441 11.6324 18.5384 11.6797 18.532 11.7269C18.5216 11.8086 18.5104 11.8871 18.5 11.9648C18.464 12.217 18.4271 12.4461 18.3895 12.6535C18.3823 12.6919 18.3751 12.7296 18.3679 12.7672C18.3118 13.0555 18.2541 13.3006 18.1917 13.508C18.1644 13.5969 18.1372 13.6794 18.1092 13.7555C17.3884 15.4973 16.2472 16.4511 13.7846 17.3593C11.3219 16.4511 10.1807 15.4973 9.45195 13.7555C9.42473 13.6826 9.3991 13.6033 9.37347 13.5184C9.34224 13.4151 9.31261 13.303 9.28378 13.1813C9.27897 13.1612 9.27417 13.1404 9.26936 13.1196C9.20689 12.8473 9.14843 12.5286 9.09317 12.1522C9.08036 12.0657 9.06835 11.976 9.05553 11.8831C9.04592 11.8134 9.03711 11.7429 9.0283 11.6708C9.0235 11.6356 9.01949 11.6004 9.01469 11.5643C9.00748 11.5107 9.00107 11.4554 8.99467 11.4002C8.98506 11.3161 8.97465 11.2304 8.96504 11.1415C8.96183 11.1127 8.95863 11.0822 8.95542 11.0526C8.94902 10.9933 8.94261 10.9325 8.9362 10.8708C8.9322 10.8292 8.9274 10.7875 8.92339 10.7459C8.92019 10.713 8.91698 10.6802 8.91378 10.6474C8.90817 10.5913 8.90257 10.5336 8.89696 10.476C8.88495 10.3566 8.87374 10.2333 8.86253 10.1068C8.8409 9.86412 8.81848 9.60785 8.79686 9.33716C8.79125 9.26989 8.78644 9.20182 8.78084 9.13374C8.77764 9.0953 8.77443 9.05766 8.77203 9.01922C8.76883 8.97918 8.76562 8.93914 8.76242 8.89829C8.76002 8.86466 8.75761 8.83022 8.75521 8.79498C8.7488 8.71249 8.7424 8.6292 8.73599 8.54511C8.72718 8.42178 8.71757 8.29525 8.70876 8.16551C8.70155 8.0646 8.69435 7.96209 8.68714 7.85798C8.66712 7.56567 8.6463 7.25974 8.62547 6.941C8.8337 6.86252 9.04272 6.78884 9.25334 6.71997C10.7261 6.24026 12.2573 6 13.7886 6C15.3198 6 16.8502 6.24026 18.323 6.71997C18.5336 6.78884 18.7427 6.86252 18.9509 6.941Z" fill="#1E3A8A"/>
<path d="M18.9509 6.94043C18.9381 7.13584 18.9253 7.32564 18.9124 7.51064C18.9084 7.5691 18.9044 7.62676 18.9004 7.68442C18.8884 7.85741 18.8764 8.02639 18.8644 8.19056C18.8532 8.35314 18.8412 8.5109 18.83 8.66467C18.8027 9.01144 18.7763 9.33819 18.7499 9.64571C18.7459 9.69537 18.7411 9.74502 18.7371 9.79387C18.7282 9.89798 18.7186 9.99889 18.7098 10.0982C18.6978 10.2279 18.6858 10.3545 18.6738 10.477C18.641 10.8029 18.6089 11.1033 18.5753 11.3804C18.5689 11.4324 18.5633 11.4829 18.5569 11.5333C18.5545 11.5501 18.5529 11.567 18.5505 11.583C18.544 11.6318 18.5384 11.6791 18.532 11.7263C18.5216 11.808 18.5104 11.8865 18.5 11.9642C18.464 12.2165 18.4271 12.4455 18.3895 12.6529C18.3823 12.6914 18.3751 12.729 18.3679 12.7666C18.3118 13.055 18.2541 13.3 18.1917 13.5074C18.1644 13.5963 18.1372 13.6788 18.1092 13.7549C17.3884 15.4968 16.2472 16.4506 13.7846 17.3587C11.3219 16.4506 10.1807 15.4968 9.45195 13.7549C9.42472 13.682 9.39909 13.6027 9.37347 13.5178C9.34223 13.4145 9.3126 13.3024 9.28377 13.1807C9.27896 13.1607 9.27416 13.1398 9.26935 13.119C9.20689 12.8467 9.14842 12.528 9.09317 12.1516C9.08035 12.0651 9.06754 11.9754 9.05553 11.8825C9.04592 11.8128 9.03711 11.7424 9.0283 11.6703C9.02349 11.635 9.01949 11.5998 9.01468 11.5638C9.00747 11.5101 9.00107 11.4548 8.99466 11.3996C8.98425 11.3155 8.97464 11.2298 8.96503 11.1409C8.96183 11.1121 8.95862 11.0816 8.95542 11.052C8.94901 10.9928 8.94261 10.9319 8.9362 10.8702C8.93219 10.8286 8.92739 10.7869 8.92338 10.7453C8.92018 10.7125 8.91698 10.6796 8.91377 10.6468C8.90817 10.5907 8.90256 10.5331 8.89696 10.4754C8.88494 10.3561 8.87373 10.2327 8.86252 10.1062C8.8409 9.86355 8.81847 9.60727 8.79685 9.33659C8.79124 9.26931 8.78644 9.20124 8.78083 9.13317C8.77763 9.09473 8.77443 9.05709 8.77202 9.01865C8.76882 8.9786 8.76562 8.93856 8.76241 8.89772C8.76001 8.86408 8.75761 8.82964 8.75521 8.79441C8.7488 8.71192 8.74239 8.62863 8.73599 8.54454C8.72718 8.42121 8.71757 8.29467 8.70876 8.16494C8.70155 8.06403 8.69434 7.96152 8.68713 7.85741C8.66711 7.5651 8.64629 7.25917 8.62547 6.94043C8.41564 7.01891 8.20662 7.103 8 7.1927C8.26749 11.237 8.49333 13.0021 8.85051 13.9759C8.85291 13.9831 8.85691 13.9911 8.85932 13.9984C8.86012 14 8.86012 14.0008 8.86092 14.0024C9.66257 15.9188 10.9367 16.9912 13.5627 17.9602C13.634 17.9866 13.7093 17.9994 13.7846 17.9994C13.8599 17.9994 13.9343 17.9866 14.0056 17.9602C16.6356 16.9903 17.9074 15.9172 18.701 14C18.7026 13.996 18.7042 13.992 18.7058 13.9879C18.7074 13.9847 18.7082 13.9815 18.7098 13.9775C19.075 12.9925 19.3113 11.1673 19.5763 7.1927C19.3697 7.103 19.1607 7.01891 18.9509 6.94043Z" fill="#EF4444"/>
<path d="M18.323 6.71973C18.106 10.0665 17.9074 11.9677 17.6599 13.0104C17.6127 13.2115 17.5638 13.3812 17.5118 13.5222C16.8799 15.0414 15.9253 15.8559 13.7846 16.6751C11.6455 15.8567 10.6877 15.0422 10.0486 13.5214C9.99734 13.3812 9.94929 13.2171 9.90364 13.0224C9.66178 12.007 9.47598 10.1722 9.25334 6.71973C9.04272 6.7886 8.8337 6.86228 8.62547 6.94076C8.6463 7.2595 8.66712 7.56543 8.68714 7.85774C8.69435 7.96185 8.70155 8.06436 8.70876 8.16527C8.71757 8.29501 8.72718 8.42154 8.73599 8.54487C8.7424 8.62896 8.7488 8.71225 8.75521 8.79474C8.75761 8.82998 8.76002 8.86441 8.76242 8.89805C8.76562 8.93889 8.76883 8.97894 8.77203 9.01898C8.77443 9.05742 8.77764 9.09506 8.78084 9.1335C8.78644 9.20157 8.79125 9.26965 8.79686 9.33692C8.81848 9.60761 8.8409 9.86388 8.86253 10.1065C8.87374 10.2331 8.88495 10.3564 8.89696 10.4757C8.90257 10.5334 8.90817 10.5911 8.91378 10.6471C8.91698 10.68 8.92019 10.7128 8.92339 10.7456C8.9274 10.7873 8.9322 10.8289 8.9362 10.8706C8.94261 10.9322 8.94902 10.9931 8.95542 11.0523C8.95863 11.082 8.96183 11.1124 8.96504 11.1412C8.97465 11.2301 8.98426 11.3158 8.99467 11.3999C9.00107 11.4552 9.00748 11.5104 9.01469 11.5641C9.01949 11.6001 9.0235 11.6354 9.0283 11.6706C9.03711 11.7427 9.04592 11.8132 9.05553 11.8828C9.06754 11.9757 9.08036 12.0654 9.09317 12.1519C9.14843 12.5283 9.20689 12.8471 9.26936 13.1194C9.27417 13.1402 9.27897 13.161 9.28378 13.181C9.31261 13.3027 9.34224 13.4149 9.37347 13.5182C9.3991 13.6031 9.42473 13.6824 9.45195 13.7552C10.1807 15.4971 11.3219 16.4509 13.7846 17.3591C16.2472 16.4509 17.3884 15.4971 18.1092 13.7552C18.1372 13.6792 18.1644 13.5967 18.1917 13.5078C18.2541 13.3003 18.3118 13.0553 18.3679 12.767C18.3751 12.7293 18.3823 12.6917 18.3895 12.6533C18.4271 12.4458 18.464 12.2168 18.5 11.9645C18.5104 11.8868 18.5216 11.8084 18.532 11.7267C18.5384 11.6794 18.5441 11.6322 18.5505 11.5833C18.5529 11.5673 18.5545 11.5505 18.5569 11.5337C18.5633 11.4832 18.5689 11.4328 18.5753 11.3807C18.6089 11.1036 18.641 10.8033 18.6738 10.4773C18.6858 10.3548 18.6978 10.2283 18.7098 10.0985C18.7186 9.99923 18.7282 9.89832 18.7371 9.79421C18.7411 9.74535 18.7459 9.6957 18.7499 9.64605C18.7763 9.33852 18.8027 9.01177 18.83 8.665C18.8412 8.51124 18.8532 8.35347 18.8644 8.1909C18.8764 8.02672 18.8884 7.85774 18.9004 7.68476C18.9044 7.62709 18.9084 7.56943 18.9124 7.51097C18.9253 7.32597 18.9381 7.13617 18.9509 6.94076C18.7427 6.86228 18.5336 6.7886 18.323 6.71973Z" fill="#1E3A8A"/>
<path fill-rule="evenodd" clip-rule="evenodd" d="M17.6599 13.0109C17.6126 13.2119 17.5638 13.3817 17.5117 13.5226C16.8799 15.0418 15.9252 15.8563 13.7846 16.6756C11.6455 15.8571 10.6877 15.0427 10.0486 13.5218C9.99733 13.3817 9.94927 13.2175 9.90363 13.0229L12.2613 10.8189C13.1038 10.0317 14.4725 10.0317 15.315 10.8189L17.6599 13.0109Z" fill="#F5F5F5"/>
</g>
<path d="M13.8617 7.25891L14.0282 7.73134C14.0463 7.78253 14.0938 7.81706 14.1482 7.81853L14.6491 7.83102C14.8384 7.83568 14.9163 8.07594 14.7659 8.1908L14.3681 8.49523C14.325 8.52805 14.3069 8.58413 14.3223 8.6363L14.4654 9.11633C14.5195 9.29781 14.315 9.44623 14.1592 9.33871L13.7468 9.05437C13.7022 9.02351 13.6432 9.02351 13.5986 9.05437L13.1862 9.33871C13.0304 9.44623 12.8262 9.29781 12.8801 9.11633L13.0231 8.6363C13.0385 8.58438 13.0204 8.52829 12.9773 8.49523L12.5791 8.1908C12.4287 8.07569 12.5068 7.83568 12.6959 7.83102L13.1967 7.81853C13.2509 7.81731 13.2986 7.78253 13.3167 7.73134L13.4833 7.25891C13.5462 7.08036 13.7987 7.08036 13.8617 7.25891Z" fill="#FBBF24"/>
</g>
<defs>
<clipPath id="clip0_98_3751">
<rect width="48" height="36" fill="white"/>
</clipPath>
<clipPath id="clip1_98_3751">
<rect width="11.5763" height="12" fill="white" transform="translate(8 6)"/>
</clipPath>
</defs>
</svg>
