<svg width="48" height="36" viewBox="0 0 48 36" fill="none" xmlns="http://www.w3.org/2000/svg">
<g clip-path="url(#clip0_98_3763)">
<path d="M0 0H48V12H0V0Z" fill="#F5F5F5"/>
<path d="M0 12H48V24H0V12Z" fill="#1E3A8A"/>
<path d="M0 24H48V36H0V24Z" fill="#EF4444"/>
<g clip-path="url(#clip1_98_3763)">
<path d="M27.0075 6.89254H14.8177C13.343 6.89254 12.1259 8.0495 12.0536 9.52224C11.9718 11.198 11.8919 13.7008 11.8919 17.0993C11.8919 23.2995 16.0442 26.7948 19.5724 28.7553C20.407 29.2196 21.422 29.2196 22.2566 28.7553C25.7848 26.7967 29.9361 23.307 29.9276 17.0984C29.9276 13.7018 29.8506 11.2018 29.7707 9.52506C29.7002 8.05044 28.4831 6.8916 27.0066 6.8916L27.0075 6.89254Z" fill="#EF4444"/>
<path d="M20.9154 30C20.3055 30 19.6955 29.8459 19.1391 29.5367C16.8609 28.2707 15.0329 26.7669 13.7058 25.0677C11.9107 22.7679 11 20.0865 11 17.0996C11 14.1128 11.0545 11.6852 11.1626 9.47932C11.2575 7.5282 12.8637 6 14.8177 6H27.0075C28.9643 6 30.5705 7.53007 30.6635 9.48402C30.7679 11.6889 30.8214 14.2509 30.8214 17.0996C30.8252 20.0893 29.9173 22.7716 28.1231 25.0705C26.7979 26.7679 24.9699 28.2707 22.6908 29.5367C22.1353 29.8449 21.5254 30 20.9154 30ZM14.8177 7.78571C13.8167 7.78571 12.9944 8.56767 12.9455 9.56579C12.8393 11.7434 12.7848 14.2782 12.7848 17.0996C12.7848 21.6532 15.2143 25.312 20.0056 27.9756C20.5742 28.2914 21.2538 28.2914 21.8224 27.9756C26.6137 25.3149 29.0404 21.656 29.0338 17.1006C29.0338 14.2791 28.9812 11.7453 28.8778 9.56861C28.8299 8.56861 28.0085 7.78571 27.0056 7.78571H14.8177Z" fill="#F5F5F5"/>
<path d="M25.9173 15.6279C25.1184 15.6279 23.7942 15.6279 22.9727 15.6279C22.5695 15.6279 22.2425 15.3008 22.2425 14.8967C22.2425 14.4935 22.5695 14.1655 22.9737 14.1655H24.0141C24.7312 14.1655 25.3477 13.6147 25.3816 12.8986C25.4173 12.1345 24.8083 11.5029 24.0517 11.5029H22.9859C22.5761 11.5029 22.2434 11.1702 22.2434 10.7604V10.3065C22.2434 9.58937 21.6927 8.97283 20.9765 8.93899C20.2124 8.90328 19.5808 9.5123 19.5808 10.2689V10.7604C19.5808 11.1702 19.2481 11.5029 18.8383 11.5029H17.8101C17.093 11.5029 16.4765 12.0537 16.4427 12.7698C16.4069 13.5339 17.016 14.1655 17.7725 14.1655H18.8506C19.2538 14.1655 19.5818 14.4926 19.5818 14.8967C19.5818 15.2999 19.2547 15.6279 18.8506 15.6279H15.906C15.1889 15.6279 14.5724 16.1787 14.5385 16.8948C14.5028 17.6589 15.1118 18.2905 15.8684 18.2905H18.8383C19.2481 18.2905 19.5808 18.6232 19.5808 19.033V21.9653C19.5808 22.6824 20.1316 23.299 20.8477 23.3328C21.6118 23.3685 22.2434 22.7595 22.2434 22.0029V19.033C22.2434 18.6232 22.5761 18.2905 22.9859 18.2905H25.9558C26.7124 18.2905 27.3214 17.6589 27.2857 16.8948C27.2519 16.1787 26.6353 15.6279 25.9182 15.6279H25.9173Z" fill="#F5F5F5"/>
<path d="M27.6457 22.57C26.4577 24.6743 24.5141 26.4826 21.8243 27.976C21.2547 28.2918 20.5761 28.2918 20.0066 27.976C17.3158 26.4807 15.3703 24.6715 14.1814 22.5653C16.0658 21.179 18.3929 20.3613 20.9107 20.3613C23.4286 20.3613 25.7603 21.1809 27.6457 22.57Z" fill="#1E3A8A"/>
</g>
</g>
<defs>
<clipPath id="clip0_98_3763">
<rect width="48" height="36" fill="white"/>
</clipPath>
<clipPath id="clip1_98_3763">
<rect width="19.8214" height="24" fill="white" transform="translate(11 6)"/>
</clipPath>
</defs>
</svg>
