<svg width="48" height="36" viewBox="0 0 48 36" fill="none" xmlns="http://www.w3.org/2000/svg">
<g clip-path="url(#clip0_98_3919)">
<path d="M0 0H48V18H0V0Z" fill="#F5F5F5"/>
<path d="M0 18H48V36H0V18Z" fill="#93C5FD"/>
<path d="M27.5017 9.73588C27.4625 9.68933 27.4196 9.6437 27.373 9.59807C26.8775 9.10067 26.2158 8.82687 25.5121 8.82687C25.2593 8.82687 25.0102 8.86338 24.7692 8.93456C24.6652 8.90262 24.5584 8.87889 24.4498 8.86155V8.42712C24.4498 8.30939 24.4014 8.20261 24.3239 8.12503C24.2463 8.04746 24.1413 8 24.0227 8C23.7872 8 23.5956 8.19166 23.5956 8.42712V8.86246C23.4888 8.8798 23.3829 8.90444 23.2789 8.93456C23.0379 8.86338 22.7869 8.82687 22.5332 8.82687C21.7693 8.82687 21.0456 9.15725 20.5454 9.73405C20.1302 10.2114 19.9011 10.8247 19.9011 11.459C19.9011 11.6944 20.0919 11.8852 20.3282 11.8852H21.2099C21.25 11.8824 21.2893 11.8806 21.3303 11.8806H26.715C26.7561 11.8806 26.7953 11.8824 26.8355 11.8852H27.7171C27.9535 11.8852 28.1442 11.6944 28.1442 11.459C28.1442 10.8238 27.9152 10.2114 27.5017 9.73588ZM21.4262 11.0319H20.8065C20.8731 10.7608 21.0045 10.5071 21.1898 10.2926C21.4116 10.0371 21.6981 9.85361 22.0157 9.75778C21.7054 10.1228 21.5028 10.5646 21.4262 11.0319ZM23.5956 11.0319H22.2959C22.3625 10.7608 22.494 10.5071 22.6802 10.2926C22.922 10.0124 23.2433 9.81893 23.5956 9.73223V11.0319ZM24.4498 11.0319V9.73131C24.7619 9.80798 25.0476 9.96769 25.2803 10.2013C25.3104 10.2315 25.3396 10.2625 25.3661 10.2935C25.5523 10.5071 25.6828 10.7608 25.7494 11.0319H24.4498ZM26.6192 11.0319C26.5425 10.5627 26.339 10.1201 26.0287 9.75596C26.3052 9.83901 26.5599 9.99051 26.7698 10.2013C26.8008 10.2315 26.8291 10.2625 26.8556 10.2935C27.0417 10.5071 27.1723 10.7608 27.2389 11.0319H26.6192Z" fill="#FBBF24"/>
<path d="M27.2389 11.0318H26.6192C26.5425 10.5626 26.339 10.12 26.0287 9.75586C26.3052 9.83891 26.5599 9.99041 26.7698 10.2012C26.8008 10.2314 26.8291 10.2624 26.8556 10.2934C27.0418 10.507 27.1723 10.7607 27.2389 11.0318Z" fill="#EF4444"/>
<path d="M25.7494 11.032H24.4498V9.73145C24.7619 9.80811 25.0476 9.96782 25.2803 10.2015C25.3104 10.2316 25.3396 10.2626 25.3661 10.2936C25.5523 10.5072 25.6828 10.7609 25.7494 11.032Z" fill="#EF4444"/>
<path d="M23.5956 9.73242V11.032H22.2959C22.3626 10.761 22.494 10.5073 22.6802 10.2928C22.922 10.0126 23.2433 9.81912 23.5956 9.73242Z" fill="#EF4444"/>
<path d="M22.0157 9.75781C21.7054 10.1229 21.5028 10.5646 21.4262 11.0319H20.8065C20.8731 10.7608 21.0045 10.5071 21.1898 10.2926C21.4116 10.0371 21.6981 9.85364 22.0157 9.75781Z" fill="#EF4444"/>
<path d="M24.0227 26.8301C18.7722 26.8301 14.5 22.558 14.5 17.3074C14.5 15.0377 15.3123 12.84 16.7862 11.1178C17.2106 10.6222 17.9562 10.5647 18.4518 10.9882C18.9474 11.4126 19.0049 12.1582 18.5814 12.6538C17.4734 13.9479 16.8629 15.6008 16.8629 17.3074C16.8629 21.2556 20.0745 24.4682 24.0236 24.4682C27.9727 24.4682 31.1843 21.2556 31.1843 17.3074C31.1843 15.6008 30.5737 13.9489 29.4658 12.6538C29.0414 12.1582 29.0998 11.4126 29.5954 10.9882C30.0909 10.5638 30.8366 10.6213 31.261 11.1178C32.7349 12.84 33.5472 15.0377 33.5472 17.3074C33.5472 22.558 29.275 26.8301 24.0245 26.8301H24.0227Z" fill="#22C55E"/>
<path d="M32.3644 25.6377H31.313C31.3075 24.9907 30.7809 24.4668 30.132 24.4668H17.9133C17.2644 24.4668 16.7388 24.9898 16.7324 25.6377H15.681C15.0284 25.6377 14.5 26.1662 14.5 26.8187C14.5 27.4713 15.0284 27.9997 15.681 27.9997H17.9133C18.5622 27.9997 19.0879 27.4767 19.0943 26.8288H28.9519C28.9574 27.4758 29.484 27.9997 30.1329 27.9997H32.3653C33.0178 27.9997 33.5463 27.4713 33.5463 26.8187C33.5463 26.1662 33.0178 25.6377 32.3653 25.6377H32.3644Z" fill="#F5F5F5"/>
<path d="M28.4418 18.7673C27.9663 20.3663 26.7269 22.0127 24.0227 23.2631C21.3185 22.0127 20.0791 20.3663 19.6036 18.7673C18.7475 15.8934 20.3574 13.1709 20.3574 13.1709H27.6879C27.6879 13.1709 29.2978 15.8934 28.4418 18.7673Z" fill="#93C5FD"/>
<path d="M28.4418 18.7676C27.9663 20.3666 26.7269 22.013 24.0227 23.2633C21.3185 22.013 20.0791 20.3666 19.6036 18.7676H28.4418Z" fill="#22C55E"/>
<path d="M24.0227 23.8104C23.9442 23.8104 23.8657 23.794 23.7927 23.7602C21.2728 22.5948 19.6866 20.9675 19.0788 18.9231C18.1652 15.8557 19.8153 13.0118 19.8865 12.8923C19.9851 12.7253 20.164 12.623 20.3574 12.623H27.6879C27.8814 12.623 28.0603 12.7253 28.1598 12.8923C28.23 13.0118 29.881 15.8557 28.9665 18.924C28.3587 20.9684 26.7725 22.5957 24.2527 23.7602C24.1797 23.794 24.1012 23.8104 24.0227 23.8104ZM20.6896 13.7182C20.341 14.4392 19.5014 16.5037 20.1284 18.611C20.6248 20.2803 21.9345 21.6401 24.0227 22.6568C26.1108 21.6401 27.4205 20.2803 27.917 18.611C28.5476 16.4936 27.7071 14.4374 27.3566 13.7182H20.6887H20.6896Z" fill="#FBBF24"/>
<path d="M24.0227 18.2272C23.7206 18.2272 23.4751 17.9817 23.4751 17.6796V14.8093C23.4751 14.5072 23.7206 14.2617 24.0227 14.2617C24.3248 14.2617 24.5703 14.5072 24.5703 14.8093V17.6796C24.5703 17.9817 24.3248 18.2272 24.0227 18.2272Z" fill="#F5F5F5"/>
</g>
<defs>
<clipPath id="clip0_98_3919">
<rect width="48" height="36" fill="white"/>
</clipPath>
</defs>
</svg>
