<svg width="48" height="36" viewBox="0 0 48 36" fill="none" xmlns="http://www.w3.org/2000/svg">
<rect width="48" height="36" fill="#93C5FD"/>
<path d="M25.6829 10.9522L26.8672 14.3118C26.9961 14.6758 27.334 14.9213 27.7206 14.9318L31.2822 15.0206C32.6285 15.0537 33.1823 16.7622 32.113 17.579L29.2846 19.7438C28.9781 19.9772 28.8492 20.376 28.9589 20.747L29.976 24.1606C30.3609 25.4511 28.9067 26.5065 27.799 25.7419L24.8661 23.7199C24.5492 23.5005 24.1294 23.5005 23.8125 23.7199L20.8796 25.7419C19.7719 26.5065 18.3194 25.4511 18.7026 24.1606L19.7197 20.747C19.8294 20.3778 19.7005 19.979 19.394 19.7438L16.5622 17.579C15.4928 16.7605 16.0484 15.0537 17.3929 15.0206L20.9545 14.9318C21.3394 14.9231 21.679 14.6758 21.8079 14.3118L22.9922 10.9522C23.4398 9.68259 25.2354 9.68259 25.6829 10.9522Z" fill="#F5F5F5"/>
</svg>
