<svg width="48" height="36" viewBox="0 0 48 36" fill="none" xmlns="http://www.w3.org/2000/svg">
<g clip-path="url(#clip0_98_4089)">
<path d="M0 0H48V4H0V0Z" fill="#22C55E"/>
<path d="M0 4H48V8H0V4Z" fill="#22C55E"/>
<path d="M0 8H48V12H0V8Z" fill="#F5F5F5"/>
<path d="M0 12H48V24H0V12Z" fill="#EF4444"/>
<path d="M0 24H48V28H0V24Z" fill="#F5F5F5"/>
<path d="M0 28H48V32H0V28Z" fill="#22C55E"/>
<path d="M0 32H48V36H0V32Z" fill="#22C55E"/>
<path d="M25.0518 13.5951L25.792 15.6949C25.8726 15.9224 26.0837 16.0758 26.3254 16.0824L28.5514 16.1379C29.3928 16.1586 29.7389 17.2264 29.0706 17.7369L27.3029 19.0899C27.1113 19.2358 27.0307 19.485 27.0993 19.7169L27.735 21.8503C27.9756 22.6569 27.0667 23.3166 26.3744 22.8387L24.5413 21.575C24.3432 21.4378 24.0809 21.4378 23.8828 21.575L22.0498 22.8387C21.3575 23.3166 20.4497 22.6569 20.6891 21.8503L21.3248 19.7169C21.3934 19.4861 21.3128 19.2369 21.1213 19.0899L19.3514 17.7369C18.683 17.2253 19.0302 16.1586 19.8706 16.1379L22.0966 16.0824C22.3371 16.0769 22.5494 15.9224 22.6299 15.6949L23.3701 13.5951C23.6499 12.8016 24.7721 12.8016 25.0518 13.5951Z" fill="#FBBF24"/>
</g>
<defs>
<clipPath id="clip0_98_4089">
<rect width="48" height="36" fill="white"/>
</clipPath>
</defs>
</svg>
