<svg width="48" height="36" viewBox="0 0 48 36" fill="none" xmlns="http://www.w3.org/2000/svg">
<g clip-path="url(#clip0_98_4143)">
<rect width="48" height="36" fill="#93C5FD"/>
<path d="M0 0H48V18H0V0Z" fill="#262626"/>
<path d="M0 18H48V36H0V18Z" fill="#22C55E"/>
<path d="M0 12H48V24H0V12Z" fill="#EF4444"/>
<path fill-rule="evenodd" clip-rule="evenodd" d="M-2.5 9.5H50.5V26.5H-2.5V9.5ZM0 12V24H48V12H0Z" fill="#F5F5F5"/>
<path d="M26.5187 20.63C28.4938 19.48 28.4938 16.52 26.5187 15.37L0 0V36L26.5187 20.63Z" fill="#22D3EE"/>
<path d="M11.0518 13.0951L11.792 15.1949C11.8726 15.4224 12.0837 15.5758 12.3254 15.5824L14.5514 15.6379C15.3928 15.6586 15.7389 16.7264 15.0706 17.2369L13.3029 18.5899C13.1113 18.7358 13.0307 18.985 13.0993 19.2169L13.735 21.3503C13.9756 22.1569 13.0667 22.8166 12.3744 22.3387L10.5413 21.075C10.3432 20.9378 10.0809 20.9378 9.88279 21.075L8.04975 22.3387C7.35746 22.8166 6.44965 22.1569 6.68912 21.3503L7.32481 19.2169C7.39338 18.9861 7.31283 18.7369 7.12126 18.5899L5.35135 17.2369C4.68301 16.7253 5.03024 15.6586 5.87057 15.6379L8.09656 15.5824C8.33712 15.5769 8.54937 15.4224 8.62992 15.1949L9.37011 13.0951C9.64985 12.3016 10.7721 12.3016 11.0518 13.0951Z" fill="#FBBF24"/>
</g>
<defs>
<clipPath id="clip0_98_4143">
<rect width="48" height="36" fill="white"/>
</clipPath>
</defs>
</svg>
