<svg width="48" height="36" viewBox="0 0 48 36" fill="none" xmlns="http://www.w3.org/2000/svg">
<g clip-path="url(#clip0_98_4174)">
<path d="M0 0H48V12H0V0Z" fill="#3B82F6"/>
<path d="M0 12H48V24H0V12Z" fill="#F5F5F5"/>
<path d="M0 24H48V36H0V24Z" fill="#3B82F6"/>
<path d="M28.0608 16.8423C27.8252 16.8423 27.6002 16.7028 27.5056 16.4702C27.0435 15.345 26.0668 14.4897 24.8965 14.1792C24.5754 14.0951 24.3848 13.7666 24.4689 13.4455C24.5529 13.1244 24.883 12.9339 25.2026 13.0179C26.7344 13.423 28.0098 14.5423 28.6159 16.0111C28.7419 16.3172 28.5964 16.6683 28.2888 16.7943C28.2138 16.8258 28.1373 16.8393 28.0608 16.8393V16.8423Z" fill="#FBBF24"/>
<path d="M19.7187 16.8428C19.6422 16.8428 19.5656 16.8278 19.4906 16.7978C19.1846 16.6717 19.0375 16.3207 19.1635 16.0146C19.7682 14.5442 21.045 13.4249 22.5769 13.0198C22.898 12.9358 23.2266 13.1264 23.3106 13.4474C23.3946 13.7685 23.2041 14.0956 22.883 14.1811C21.7112 14.4902 20.7359 15.3469 20.2738 16.4722C20.1778 16.7033 19.9542 16.8443 19.7187 16.8443V16.8428Z" fill="#FBBF24"/>
<path d="M23.8897 20.659C22.3338 20.659 21.069 19.3927 21.069 17.8383V16.731C21.069 16.3994 21.3376 16.1309 21.6692 16.1309C22.0007 16.1309 22.2693 16.3994 22.2693 16.731V17.8383C22.2693 18.7325 22.997 19.4587 23.8897 19.4587C24.7824 19.4587 25.5101 18.731 25.5101 17.8383V16.731C25.5101 16.3994 25.7787 16.1309 26.1103 16.1309C26.4419 16.1309 26.7104 16.3994 26.7104 16.731V17.8383C26.7104 19.3942 25.4441 20.659 23.8897 20.659Z" fill="#3B82F6"/>
<path d="M23.8897 20.0545H22.1583C21.6992 20.0545 21.4126 19.5579 21.6422 19.1603L22.5079 17.6599L23.3736 16.1595C23.6031 15.7619 24.1763 15.7619 24.4058 16.1595L25.2716 17.6599L26.1373 19.1603C26.3668 19.5579 26.0803 20.0545 25.6212 20.0545H23.8897Z" fill="#FBBF24"/>
<path d="M23.8897 23.0003C21.1935 23.0003 19 20.8067 19 18.112C19 17.6964 19.3376 17.3604 19.7517 17.3604C20.1658 17.3604 20.5034 17.6979 20.5034 18.112C20.5034 19.9785 22.0218 21.4969 23.8882 21.4969C25.7547 21.4969 27.2731 19.9785 27.2731 18.112C27.2731 17.6964 27.6107 17.3604 28.0248 17.3604C28.4389 17.3604 28.7764 17.6979 28.7764 18.112C28.7764 20.8082 26.5829 23.0018 23.8867 23.0018L23.8897 23.0003Z" fill="#22C55E"/>
</g>
<defs>
<clipPath id="clip0_98_4174">
<rect width="48" height="36" fill="white"/>
</clipPath>
</defs>
</svg>
