<svg width="48" height="36" viewBox="0 0 48 36" fill="none" xmlns="http://www.w3.org/2000/svg">
<g clip-path="url(#clip0_98_4217)">
<path d="M0 0H48V12H0V0Z" fill="#EF4444"/>
<path d="M0 12H48V24H0V12Z" fill="#F5F5F5"/>
<path d="M0 24H48V36H0V24Z" fill="#262626"/>
<path d="M16.8415 14.4761L17.4336 16.1559C17.4981 16.3379 17.667 16.4607 17.8603 16.4659L19.6411 16.5103C20.3142 16.5269 20.5911 17.3811 20.0565 17.7895L18.6423 18.8719C18.489 18.9886 18.4246 19.188 18.4795 19.3735L18.988 21.0803C19.1804 21.7255 18.4533 22.2532 17.8995 21.871L16.4331 20.86C16.2746 20.7502 16.0647 20.7502 15.9062 20.86L14.4398 21.871C13.886 22.2532 13.1597 21.7255 13.3513 21.0803L13.8598 19.3735C13.9147 19.1889 13.8503 18.9895 13.697 18.8719L12.2811 17.7895C11.7464 17.3802 12.0242 16.5269 12.6965 16.5103L14.4772 16.4659C14.6697 16.4615 14.8395 16.3379 14.9039 16.1559L15.4961 14.4761C15.7199 13.8413 16.6177 13.8413 16.8415 14.4761Z" fill="#22C55E"/>
<path d="M31.9081 14.4761L32.5003 16.1559C32.5647 16.3379 32.7337 16.4607 32.927 16.4659L34.7078 16.5103C35.3809 16.5269 35.6578 17.3811 35.1231 17.7895L33.709 18.8719C33.5557 18.9886 33.4913 19.188 33.5461 19.3735L34.0547 21.0803C34.2471 21.7255 33.52 22.2532 32.9662 21.871L31.4997 20.86C31.3412 20.7502 31.1314 20.7502 30.9729 20.86L29.5065 21.871C28.9526 22.2532 28.2264 21.7255 28.418 21.0803L28.9265 19.3735C28.9814 19.1889 28.9169 18.9895 28.7637 18.8719L27.3477 17.7895C26.8131 17.3802 27.0909 16.5269 27.7631 16.5103L29.5439 16.4659C29.7364 16.4615 29.9062 16.3379 29.9706 16.1559L30.5627 14.4761C30.7865 13.8413 31.6843 13.8413 31.9081 14.4761Z" fill="#22C55E"/>
</g>
<defs>
<clipPath id="clip0_98_4217">
<rect width="48" height="36" fill="white"/>
</clipPath>
</defs>
</svg>
