<svg width="48" height="36" viewBox="0 0 48 36" fill="none" xmlns="http://www.w3.org/2000/svg">
<g clip-path="url(#clip0_98_4320)">
<path d="M0 0H48V7.2H0V0Z" fill="#22C55E"/>
<path d="M0 7.2002H48V14.4002H0V7.2002Z" fill="#FBBF24"/>
<path d="M0 14.4004H48V21.6004H0V14.4004Z" fill="#22C55E"/>
<path d="M0 21.5996H48V28.7996H0V21.5996Z" fill="#FBBF24"/>
<path d="M0 28.7998H48V35.9998H0V28.7998Z" fill="#22C55E"/>
<path d="M0 0H21.6V19.6C21.6 20.7046 20.7046 21.6 19.6 21.6H0V0Z" fill="#EF4444"/>
<path d="M11.4726 7.27592L12.0647 8.95569C12.1292 9.13769 12.2981 9.26047 12.4914 9.2657L14.2722 9.31011C14.9453 9.32666 15.2223 10.1809 14.6876 10.5893L13.2734 11.6717C13.1201 11.7884 13.0557 11.9878 13.1106 12.1733L13.6191 13.8801C13.8116 14.5253 13.0844 15.0531 12.5306 14.6708L11.0642 13.6598C10.9057 13.55 10.6958 13.55 10.5373 13.6598L9.0709 14.6708C8.51707 15.0531 7.79082 14.5253 7.9824 13.8801L8.49095 12.1733C8.54581 11.9887 8.48137 11.7893 8.32811 11.6717L6.91218 10.5893C6.37751 10.18 6.6553 9.32666 7.32756 9.31011L9.10835 9.2657C9.3008 9.26135 9.4706 9.13769 9.53504 8.95569L10.1272 7.27592C10.351 6.6411 11.2488 6.6411 11.4726 7.27592Z" fill="#F5F5F5"/>
</g>
<defs>
<clipPath id="clip0_98_4320">
<rect width="48" height="36" fill="white"/>
</clipPath>
</defs>
</svg>
