<svg width="48" height="36" viewBox="0 0 48 36" fill="none" xmlns="http://www.w3.org/2000/svg">
<g clip-path="url(#clip0_98_4454)">
<path d="M0 0H48V12H0V0Z" fill="#EF4444"/>
<path d="M0 12H48V24H0V12Z" fill="#F5F5F5"/>
<path d="M0 24H48V36H0V24Z" fill="#22C55E"/>
<path d="M24.8994 13.2241L25.1891 14.0147C25.2206 14.1004 25.3032 14.1582 25.3978 14.1606L26.2691 14.1815C26.5984 14.1893 26.7338 14.5914 26.4723 14.7836L25.7804 15.2931C25.7054 15.348 25.6739 15.4419 25.7007 15.5292L25.9495 16.3325C26.0437 16.6362 25.6879 16.8846 25.417 16.7046L24.6996 16.2288C24.622 16.1771 24.5194 16.1771 24.4418 16.2288L23.7244 16.7046C23.4534 16.8846 23.0981 16.6362 23.1918 16.3325L23.4406 15.5292C23.4675 15.4423 23.436 15.3484 23.361 15.2931L22.6683 14.7836C22.4067 14.591 22.5426 14.1893 22.8715 14.1815L23.7427 14.1606C23.8369 14.1586 23.9199 14.1004 23.9515 14.0147L24.2412 13.2241C24.3506 12.9253 24.7899 12.9253 24.8994 13.2241Z" fill="#FBBF24"/>
<path d="M17.3686 16.6128L17.6583 17.4034C17.6899 17.489 17.7725 17.5468 17.8671 17.5493L18.7383 17.5702C19.0676 17.578 19.2031 17.9801 18.9415 18.1723L18.2497 18.6817C18.1747 18.7367 18.1431 18.8305 18.17 18.9178L18.4188 19.7212C18.5129 20.0249 18.1572 20.2732 17.8863 20.0933L17.1688 19.6175C17.0913 19.5658 16.9886 19.5658 16.9111 19.6175L16.1936 20.0933C15.9227 20.2732 15.5674 20.0249 15.6611 19.7212L15.9099 18.9178C15.9367 18.8309 15.9052 18.7371 15.8302 18.6817L15.1375 18.1723C14.8759 17.9797 15.0118 17.578 15.3407 17.5702L16.212 17.5493C16.3061 17.5472 16.3892 17.489 16.4207 17.4034L16.7104 16.6128C16.8199 16.314 17.2591 16.314 17.3686 16.6128Z" fill="#FBBF24"/>
<path d="M32.0536 16.6128L32.3433 17.4034C32.3748 17.489 32.4574 17.5468 32.552 17.5493L33.4233 17.5702C33.7526 17.578 33.8881 17.9801 33.6265 18.1723L32.9346 18.6817C32.8596 18.7367 32.8281 18.8305 32.8549 18.9178L33.1037 19.7212C33.1979 20.0249 32.8422 20.2732 32.5712 20.0933L31.8538 19.6175C31.7762 19.5658 31.6736 19.5658 31.596 19.6175L30.8786 20.0933C30.6076 20.2732 30.2523 20.0249 30.346 19.7212L30.5949 18.9178C30.6217 18.8309 30.5902 18.7371 30.5152 18.6817L29.8225 18.1723C29.5609 17.9797 29.6968 17.578 30.0257 17.5702L30.8969 17.5493C30.9911 17.5472 31.0741 17.489 31.1057 17.4034L31.3954 16.6128C31.5048 16.314 31.9441 16.314 32.0536 16.6128Z" fill="#FBBF24"/>
<path d="M27.5873 19.4794C27.5509 19.4389 27.5103 19.3944 27.4698 19.3539C27.0161 18.9001 26.4125 18.649 25.7725 18.649C25.5416 18.649 25.3147 18.6814 25.096 18.7462C24.9988 18.7179 24.9015 18.6935 24.8043 18.6814V18.2844C24.8043 18.1791 24.7597 18.0819 24.6909 18.0089C24.622 17.936 24.5248 17.8955 24.4154 17.8955C24.2007 17.8955 24.0265 18.0697 24.0265 18.2844V18.6814C23.9293 18.6976 23.8321 18.7179 23.7389 18.7462C23.5202 18.6814 23.2892 18.649 23.0583 18.649C22.3616 18.649 21.7013 18.9528 21.2435 19.4754C20.8627 19.9129 20.6561 20.4719 20.6561 21.0512C20.6561 21.2659 20.8303 21.4401 21.045 21.4401H21.8512C21.8876 21.4401 21.9241 21.436 21.9605 21.436H26.8743C26.9108 21.436 26.9473 21.436 26.9837 21.4401H27.7899C28.0046 21.4401 28.1788 21.2659 28.1788 21.0512C28.1788 20.4719 27.9681 19.9129 27.5914 19.4794H27.5873ZM22.0415 20.6623H21.4744C21.5352 20.4152 21.6567 20.1843 21.8228 19.9858C22.0253 19.7508 22.2887 19.5848 22.5763 19.4956C22.2927 19.8278 22.1104 20.2329 22.0375 20.6583L22.0415 20.6623ZM24.0225 20.6623H22.8355C22.8963 20.4152 23.0178 20.1843 23.1839 19.9858C23.4067 19.7306 23.6984 19.5524 24.0184 19.4754V20.6623H24.0225ZM24.8003 20.6623V19.4754C25.0838 19.5442 25.3471 19.6901 25.5578 19.9048C25.5861 19.9331 25.6104 19.9615 25.6348 19.9899C25.8049 20.1843 25.9224 20.4152 25.9831 20.6623H24.7962H24.8003ZM26.7812 20.6623C26.7123 20.2329 26.526 19.8278 26.2424 19.4956C26.4936 19.5726 26.7285 19.7103 26.9189 19.9007C26.9473 19.9291 26.9716 19.9574 26.9959 19.9858C27.166 20.1803 27.2835 20.4112 27.3443 20.6583H26.7771L26.7812 20.6623Z" fill="#FBBF24"/>
<path d="M27.7818 22.2227H21.0369C20.8221 22.2227 20.648 22.3968 20.648 22.6115C20.648 22.8263 20.8221 23.0004 21.0369 23.0004H27.7818C27.9965 23.0004 28.1707 22.8263 28.1707 22.6115C28.1707 22.3968 27.9965 22.2227 27.7818 22.2227Z" fill="#FBBF24"/>
</g>
<defs>
<clipPath id="clip0_98_4454">
<rect width="48" height="36" fill="white"/>
</clipPath>
</defs>
</svg>
