<svg width="48" height="36" viewBox="0 0 48 36" fill="none" xmlns="http://www.w3.org/2000/svg">
<rect width="48" height="36" fill="#EF4444"/>
<path d="M32.3 19.31C33.29 18.8 33.29 17.2 32.3 16.69L0 0V36L32.3 19.31Z" fill="#FBBF24"/>
<path d="M19.57 19.15C20.24 18.57 20.24 17.43 19.57 16.85L0 0V36L19.57 19.15Z" fill="#262626"/>
<path d="M6.87 14.8901L7.97 15.8301C8.09 15.9301 8.26 15.9501 8.4 15.8701L9.68 15.1701C10.16 14.9101 10.71 15.3901 10.49 15.9001L9.92 17.2401C9.86 17.3801 9.89 17.5501 10.01 17.6601L11.06 18.6501C11.46 19.0201 11.16 19.6901 10.61 19.6501L9.16 19.5401C9 19.5301 8.85 19.6101 8.79 19.7601L8.16 21.0701C7.92 21.5701 7.19 21.4901 7.07 20.9601L6.74 19.5501C6.7 19.4001 6.58 19.2801 6.42 19.2601L4.98 19.0801C4.43 19.0101 4.29 18.3001 4.76 18.0101L6.01 17.2501C6.14 17.1701 6.22 17.0101 6.19 16.8601L5.93 15.4401C5.83 14.9001 6.47 14.5301 6.89 14.8901H6.87Z" fill="#F5F5F5"/>
</svg>
