<svg width="48" height="36" viewBox="0 0 48 36" fill="none" xmlns="http://www.w3.org/2000/svg">
<rect width="48" height="36" fill="#EF4444"/>
<path d="M34 18C34 23.5228 29.5228 28 24 28C18.4772 28 14 23.5228 14 18C14 12.4772 18.4772 8 24 8C29.5228 8 34 12.4772 34 18Z" fill="#F5F5F5"/>
<path d="M26.8096 14.4753L27.9063 15.7931C28.0254 15.9358 28.2211 15.99 28.4007 15.93L30.0539 15.3737C30.6787 15.1632 31.2141 15.8415 30.8563 16.3892L29.9106 17.8397C29.808 17.9963 29.8142 18.1979 29.9256 18.3469L30.9542 19.7171C31.3432 20.235 30.8475 20.9548 30.2124 20.7953L28.531 20.3739C28.3491 20.3279 28.156 20.3982 28.0462 20.5503L27.0291 21.9539C26.645 22.4844 25.8035 22.2513 25.7678 21.6048L25.675 19.894C25.6648 19.709 25.54 19.5506 25.3604 19.4959L23.702 18.9931C23.0756 18.8028 23.0509 17.9395 23.664 17.6994L25.2879 17.063C25.4636 16.9946 25.5792 16.8261 25.5787 16.6403L25.5717 14.9259C25.5691 14.278 26.3952 13.9773 26.8096 14.4753Z" fill="#EF4444"/>
<path d="M26.8818 24.1792C26.8818 24.1792 26.8906 24.1792 26.8941 24.1792C27.1888 24.1792 27.2823 24.5776 27.0159 24.7045C26.072 25.1547 25.0187 25.4066 23.9073 25.4066C19.8707 25.4066 16.5733 22.0513 16.5927 17.9617C16.6121 13.8721 19.8795 10.5918 23.9073 10.5918C25.0205 10.5918 26.0755 10.8437 27.0194 11.2939C27.284 11.4208 27.1888 11.8192 26.8959 11.8192C26.8906 11.8192 26.8871 11.8192 26.8818 11.8192C23.5121 11.8192 20.7793 14.5849 20.7793 17.9992C20.7793 21.4135 23.5121 24.1792 26.8818 24.1792Z" fill="#EF4444"/>
</svg>
