<svg width="48" height="36" viewBox="0 0 48 36" fill="none" xmlns="http://www.w3.org/2000/svg">
<rect width="48" height="36" fill="#DC2626"/>
<path d="M0 0H20V16C20 17.1046 19.1046 18 18 18H0V0Z" fill="#F5F5F5"/>
<path d="M14.0855 7.33222H12.5712C12.0698 7.33222 11.6617 6.92569 11.6617 6.42253V4.9097C11.6633 4.40653 11.2569 4 10.7538 4H9.23955C8.73813 4 8.33 4.40653 8.33 4.9097V6.42419C8.33 6.92569 7.92354 7.33389 7.42046 7.33389H5.90955C5.40646 7.33222 5 7.73875 5 8.24192V9.75641C5 10.2579 5.40646 10.6661 5.90955 10.6661H7.42379C7.9252 10.6661 8.33333 11.0726 8.33333 11.5758V13.0903C8.33333 13.5918 8.7398 14 9.24288 14H10.7571C11.2585 14 11.6667 13.5935 11.6667 13.0903V11.5758C11.6667 11.0743 12.0731 10.6661 12.5762 10.6661H14.0905C14.5919 10.6661 15 10.2596 15 9.75641V8.24192C15 7.74042 14.5935 7.33222 14.0905 7.33222H14.0855Z" fill="#DC2626"/>
</svg>
