<svg width="48" height="36" viewBox="0 0 48 36" fill="none" xmlns="http://www.w3.org/2000/svg">
<rect width="48" height="36" fill="#EF4444"/>
<path d="M30.6643 14.1455L31.8416 15.5602C31.9695 15.7134 32.1796 15.7716 32.3724 15.7072L34.1471 15.11C34.8178 14.884 35.3926 15.6121 35.0085 16.2001L33.9933 17.7572C33.8831 17.9254 33.8898 18.1418 34.0094 18.3018L35.1136 19.7726C35.5312 20.3287 34.9991 21.1014 34.3172 20.9301L32.5122 20.4777C32.317 20.4284 32.1097 20.5038 31.9918 20.6671L30.8999 22.1739C30.4877 22.7434 29.5842 22.4932 29.5459 21.7991L29.4463 19.9626C29.4354 19.764 29.3014 19.5939 29.1086 19.5351L27.3283 18.9954C26.6558 18.7911 26.6292 17.8644 27.2874 17.6067L29.0308 16.9234C29.2193 16.85 29.3434 16.6692 29.3429 16.4697L29.3354 14.6292C29.3326 13.9337 30.2194 13.6109 30.6643 14.1455Z" fill="#F5F5F5"/>
<path d="M26.5014 25.5087C26.5014 25.5087 26.5121 25.5087 26.5164 25.5087C26.8743 25.5087 26.9879 25.9928 26.6643 26.1469C25.5175 26.6939 24.2378 27 22.8873 27C17.9828 27 13.9765 22.9233 14.0001 17.9544C14.0237 12.9855 17.9936 9 22.8873 9C24.2399 9 25.5218 9.30608 26.6686 9.85311C26.9901 10.0072 26.8743 10.4913 26.5185 10.4913C26.5121 10.4913 26.5078 10.4913 26.5014 10.4913C22.4072 10.4913 19.0868 13.8517 19.0868 18C19.0868 22.1483 22.4072 25.5087 26.5014 25.5087Z" fill="#F5F5F5"/>
</svg>
