<svg width="48" height="36" viewBox="0 0 48 36" fill="none" xmlns="http://www.w3.org/2000/svg">
<rect width="48" height="36" fill="#EF4444"/>
<path d="M0 0H26V18C26 19.1046 25.1046 20 24 20H0V0Z" fill="#1E3A8A"/>
<path fill-rule="evenodd" clip-rule="evenodd" d="M13.3361 4.28666L13.6656 6.3251C13.7139 6.61505 14.0785 6.7117 14.263 6.48325L15.5678 4.87974C15.8094 4.581 16.2839 4.85338 16.1477 5.21362L15.4141 7.14662C15.3086 7.419 15.5766 7.68698 15.8534 7.58594L17.7864 6.85228C18.1466 6.71609 18.419 7.19055 18.1203 7.43218L16.5167 8.73696C16.2883 8.92147 16.3893 9.2905 16.6749 9.33443L18.7133 9.66392C19.0956 9.72543 19.0956 10.2746 18.7133 10.3361L16.6749 10.6656C16.385 10.7139 16.2883 11.0785 16.5167 11.263L18.1203 12.5678C18.419 12.8094 18.1466 13.2839 17.7864 13.1477L15.8534 12.4141C15.581 12.3086 15.313 12.5766 15.4141 12.8534L16.1477 14.7864C16.2839 15.1466 15.8094 15.419 15.5678 15.1203L14.263 13.5167C14.0785 13.2883 13.7095 13.3893 13.6656 13.6749L13.3361 15.7133C13.2746 16.0956 12.7254 16.0956 12.6639 15.7133L12.3344 13.6749C12.2861 13.385 11.9215 13.2883 11.737 13.5167L10.4322 15.1203C10.1906 15.419 9.71609 15.1466 9.85228 14.7864L10.5859 12.8534C10.6914 12.581 10.4234 12.313 10.1466 12.4141L8.21362 13.1477C7.85338 13.2839 7.581 12.8094 7.87974 12.5678L9.48325 11.263C9.7117 11.0785 9.61065 10.7095 9.3251 10.6656L7.28666 10.3361C6.90445 10.2746 6.90445 9.72543 7.28666 9.66392L9.3251 9.33443C9.61505 9.28611 9.7117 8.92147 9.48325 8.73696L7.87974 7.43218C7.581 7.19055 7.85338 6.71609 8.21362 6.85228L10.1466 7.58594C10.419 7.69138 10.687 7.42339 10.5859 7.14662L9.85228 5.21362C9.71609 4.85338 10.1906 4.581 10.4322 4.87974L11.737 6.48325C11.9215 6.7117 12.2905 6.61065 12.3344 6.3251L12.6639 4.28666C12.7254 3.90445 13.2746 3.90445 13.3361 4.28666Z" fill="#F5F5F5"/>
</svg>
