<svg width="48" height="36" viewBox="0 0 48 36" fill="none" xmlns="http://www.w3.org/2000/svg">
<g clip-path="url(#clip0_98_4934)">
<rect width="48" height="36" fill="#EF4444"/>
<path d="M0 0H48V2.76923H0V0Z" fill="#EF4444"/>
<path d="M0 2.76953H48V5.53876H0V2.76953Z" fill="#F5F5F5"/>
<path d="M0 5.53809H48V8.30732H0V5.53809Z" fill="#EF4444"/>
<path d="M0 8.30762H48V11.0768H0V8.30762Z" fill="#F5F5F5"/>
<path d="M0 11.0771H48V13.8464H0V11.0771Z" fill="#EF4444"/>
<path d="M0 13.8457H48V16.6149H0V13.8457Z" fill="#F5F5F5"/>
<path d="M0 16.6152H48V19.3845H0V16.6152Z" fill="#EF4444"/>
<path d="M0 19.3848H48V22.154H0V19.3848Z" fill="#F5F5F5"/>
<path d="M0 22.1543H48V24.9235H0V22.1543Z" fill="#EF4444"/>
<path d="M0 24.9229H48V27.6921H0V24.9229Z" fill="#F5F5F5"/>
<path d="M0 27.6924H48V30.4616H0V27.6924Z" fill="#EF4444"/>
<path d="M0 30.4619H48V33.2311H0V30.4619Z" fill="#F5F5F5"/>
<path d="M0 33.2305H48V35.9997H0V33.2305Z" fill="#EF4444"/>
<path d="M0 0H30V17.39C30 18.4946 29.1046 19.39 28 19.39H0V0Z" fill="#1E3A8A"/>
<path d="M5.3537 3.24288L5.72379 4.29274C5.76406 4.40649 5.86965 4.48323 5.99047 4.4865L7.10346 4.51425C7.52417 4.52459 7.69724 5.05851 7.36307 5.31376L6.47921 5.99026C6.38342 6.06319 6.34314 6.18783 6.37743 6.30375L6.69528 7.37049C6.81556 7.77378 6.36111 8.10359 6.01496 7.86467L5.09844 7.23279C4.99939 7.16421 4.86822 7.16421 4.76917 7.23279L3.85265 7.86467C3.50651 8.10359 3.0526 7.77378 3.17234 7.37049L3.49018 6.30375C3.52447 6.18837 3.48419 6.06374 3.3884 5.99026L2.50345 5.31376C2.16928 5.05796 2.3429 4.52459 2.76306 4.51425L3.87605 4.4865C3.99633 4.48378 4.10246 4.40649 4.14274 4.29274L4.51283 3.24288C4.6527 2.84612 5.21382 2.84612 5.3537 3.24288Z" fill="#F5F5F5"/>
<path d="M12.0648 3.24288L12.4349 4.29274C12.4752 4.40649 12.5808 4.48323 12.7016 4.4865L13.8146 4.51425C14.2353 4.52459 14.4083 5.05851 14.0742 5.31376L13.1903 5.99026C13.0945 6.06319 13.0543 6.18783 13.0885 6.30375L13.4064 7.37049C13.5267 7.77378 13.0722 8.10359 12.7261 7.86467L11.8095 7.23279C11.7105 7.16421 11.5793 7.16421 11.4803 7.23279L10.5638 7.86467C10.2176 8.10359 9.76371 7.77378 9.88344 7.37049L10.2013 6.30375C10.2356 6.18837 10.1953 6.06374 10.0995 5.99026L9.21456 5.31376C8.88038 5.05796 9.054 4.52459 9.47416 4.51425L10.5872 4.4865C10.7074 4.48378 10.8136 4.40649 10.8538 4.29274L11.2239 3.24288C11.3638 2.84612 11.9249 2.84612 12.0648 3.24288Z" fill="#F5F5F5"/>
<path d="M18.7759 3.24288L19.146 4.29274C19.1863 4.40649 19.2919 4.48323 19.4127 4.4865L20.5257 4.51425C20.9464 4.52459 21.1195 5.05851 20.7853 5.31376L19.9014 5.99026C19.8056 6.06319 19.7654 6.18783 19.7997 6.30375L20.1175 7.37049C20.2378 7.77378 19.7833 8.10359 19.4372 7.86467L18.5207 7.23279C18.4216 7.16421 18.2904 7.16421 18.1914 7.23279L17.2749 7.86467C16.9287 8.10359 16.4748 7.77378 16.5946 7.37049L16.9124 6.30375C16.9467 6.18837 16.9064 6.06374 16.8106 5.99026L15.9257 5.31376C15.5915 5.05796 15.7651 4.52459 16.1853 4.51425L17.2983 4.4865C17.4186 4.48378 17.5247 4.40649 17.565 4.29274L17.9351 3.24288C18.0749 2.84612 18.636 2.84612 18.7759 3.24288Z" fill="#F5F5F5"/>
<path d="M25.487 3.24288L25.8571 4.29274C25.8974 4.40649 26.003 4.48323 26.1238 4.4865L27.2368 4.51425C27.6575 4.52459 27.8306 5.05851 27.4964 5.31376L26.6125 5.99026C26.5168 6.06319 26.4765 6.18783 26.5108 6.30375L26.8286 7.37049C26.9489 7.77378 26.4944 8.10359 26.1483 7.86467L25.2318 7.23279C25.1327 7.16421 25.0016 7.16421 24.9025 7.23279L23.986 7.86467C23.6398 8.10359 23.1859 7.77378 23.3057 7.37049L23.6235 6.30375C23.6578 6.18837 23.6175 6.06374 23.5217 5.99026L22.6368 5.31376C22.3026 5.05796 22.4762 4.52459 22.8964 4.51425L24.0094 4.4865C24.1297 4.48378 24.2358 4.40649 24.2761 4.29274L24.6462 3.24288C24.786 2.84612 25.3472 2.84612 25.487 3.24288Z" fill="#F5F5F5"/>
<path d="M5.3537 10.7429L5.72379 11.7927C5.76406 11.9065 5.86965 11.9832 5.99047 11.9865L7.10346 12.0143C7.52417 12.0246 7.69724 12.5585 7.36307 12.8138L6.47921 13.4903C6.38342 13.5632 6.34314 13.6878 6.37743 13.8038L6.69528 14.8705C6.81556 15.2738 6.36111 15.6036 6.01496 15.3647L5.09844 14.7328C4.99939 14.6642 4.86822 14.6642 4.76917 14.7328L3.85265 15.3647C3.50651 15.6036 3.0526 15.2738 3.17234 14.8705L3.49018 13.8038C3.52447 13.6884 3.48419 13.5637 3.3884 13.4903L2.50345 12.8138C2.16928 12.558 2.3429 12.0246 2.76306 12.0143L3.87605 11.9865C3.99633 11.9838 4.10246 11.9065 4.14274 11.7927L4.51283 10.7429C4.6527 10.3461 5.21382 10.3461 5.3537 10.7429Z" fill="#F5F5F5"/>
<path d="M12.0648 10.7429L12.4349 11.7927C12.4752 11.9065 12.5808 11.9832 12.7016 11.9865L13.8146 12.0143C14.2353 12.0246 14.4083 12.5585 14.0742 12.8138L13.1903 13.4903C13.0945 13.5632 13.0543 13.6878 13.0885 13.8038L13.4064 14.8705C13.5267 15.2738 13.0722 15.6036 12.7261 15.3647L11.8095 14.7328C11.7105 14.6642 11.5793 14.6642 11.4803 14.7328L10.5638 15.3647C10.2176 15.6036 9.76371 15.2738 9.88344 14.8705L10.2013 13.8038C10.2356 13.6884 10.1953 13.5637 10.0995 13.4903L9.21456 12.8138C8.88038 12.558 9.054 12.0246 9.47416 12.0143L10.5872 11.9865C10.7074 11.9838 10.8136 11.9065 10.8538 11.7927L11.2239 10.7429C11.3638 10.3461 11.9249 10.3461 12.0648 10.7429Z" fill="#F5F5F5"/>
<path d="M18.7759 10.7429L19.146 11.7927C19.1863 11.9065 19.2919 11.9832 19.4127 11.9865L20.5257 12.0143C20.9464 12.0246 21.1195 12.5585 20.7853 12.8138L19.9014 13.4903C19.8056 13.5632 19.7654 13.6878 19.7997 13.8038L20.1175 14.8705C20.2378 15.2738 19.7833 15.6036 19.4372 15.3647L18.5207 14.7328C18.4216 14.6642 18.2904 14.6642 18.1914 14.7328L17.2749 15.3647C16.9287 15.6036 16.4748 15.2738 16.5946 14.8705L16.9124 13.8038C16.9467 13.6884 16.9064 13.5637 16.8106 13.4903L15.9257 12.8138C15.5915 12.558 15.7651 12.0246 16.1853 12.0143L17.2983 11.9865C17.4186 11.9838 17.5247 11.9065 17.565 11.7927L17.9351 10.7429C18.0749 10.3461 18.636 10.3461 18.7759 10.7429Z" fill="#F5F5F5"/>
<path d="M25.487 10.7429L25.8571 11.7927C25.8974 11.9065 26.003 11.9832 26.1238 11.9865L27.2368 12.0143C27.6575 12.0246 27.8306 12.5585 27.4964 12.8138L26.6125 13.4903C26.5168 13.5632 26.4765 13.6878 26.5108 13.8038L26.8286 14.8705C26.9489 15.2738 26.4944 15.6036 26.1483 15.3647L25.2318 14.7328C25.1327 14.6642 25.0016 14.6642 24.9025 14.7328L23.986 15.3647C23.6398 15.6036 23.1859 15.2738 23.3057 14.8705L23.6235 13.8038C23.6578 13.6884 23.6175 13.5637 23.5217 13.4903L22.6368 12.8138C22.3026 12.558 22.4762 12.0246 22.8964 12.0143L24.0094 11.9865C24.1297 11.9838 24.2358 11.9065 24.2761 11.7927L24.6462 10.7429C24.786 10.3461 25.3472 10.3461 25.487 10.7429Z" fill="#F5F5F5"/>
</g>
<defs>
<clipPath id="clip0_98_4934">
<rect width="48" height="36" fill="white"/>
</clipPath>
</defs>
</svg>
