<svg width="48" height="36" viewBox="0 0 48 36" fill="none" xmlns="http://www.w3.org/2000/svg">
<g clip-path="url(#clip0_98_4943)">
<path d="M0 0H48V4H0V0Z" fill="#F5F5F5"/>
<path d="M0 4H48V8H0V4Z" fill="#3B82F6"/>
<path d="M0 8H48V12H0V8Z" fill="#F5F5F5"/>
<path d="M0 12H48V16H0V12Z" fill="#3B82F6"/>
<path d="M0 16H48V20H0V16Z" fill="#F5F5F5"/>
<path d="M0 20H48V24H0V20Z" fill="#3B82F6"/>
<path d="M0 24H48V28H0V24Z" fill="#F5F5F5"/>
<path d="M0 28H48V32H0V28Z" fill="#3B82F6"/>
<path d="M0 32H48V36H0V32Z" fill="#F5F5F5"/>
<path d="M0 0H20V18C20 19.1046 19.1046 20 18 20H0V0Z" fill="#F5F5F5"/>
<path fill-rule="evenodd" clip-rule="evenodd" d="M10.3361 4.28666L10.6656 6.3251C10.7139 6.61505 11.0785 6.7117 11.263 6.48325L12.5678 4.87974C12.8094 4.581 13.2839 4.85338 13.1477 5.21362L12.4141 7.14662C12.3086 7.419 12.5766 7.68698 12.8534 7.58594L14.7864 6.85228C15.1466 6.71609 15.419 7.19055 15.1203 7.43218L13.5167 8.73696C13.2883 8.92147 13.3893 9.2905 13.6749 9.33443L15.7133 9.66392C16.0956 9.72543 16.0956 10.2746 15.7133 10.3361L13.6749 10.6656C13.385 10.7139 13.2883 11.0785 13.5167 11.263L15.1203 12.5678C15.419 12.8094 15.1466 13.2839 14.7864 13.1477L12.8534 12.4141C12.581 12.3086 12.313 12.5766 12.4141 12.8534L13.1477 14.7864C13.2839 15.1466 12.8094 15.419 12.5678 15.1203L11.263 13.5167C11.0785 13.2883 10.7095 13.3893 10.6656 13.6749L10.3361 15.7133C10.2746 16.0956 9.72543 16.0956 9.66392 15.7133L9.33443 13.6749C9.28611 13.385 8.92147 13.2883 8.73696 13.5167L7.43218 15.1203C7.19055 15.419 6.71609 15.1466 6.85228 14.7864L7.58594 12.8534C7.69138 12.581 7.42339 12.313 7.14662 12.4141L5.21362 13.1477C4.85338 13.2839 4.581 12.8094 4.87974 12.5678L6.48325 11.263C6.7117 11.0785 6.61065 10.7095 6.3251 10.6656L4.28666 10.3361C3.90445 10.2746 3.90445 9.72543 4.28666 9.66392L6.3251 9.33443C6.61505 9.28611 6.7117 8.92147 6.48325 8.73696L4.87974 7.43218C4.581 7.19055 4.85338 6.71609 5.21362 6.85228L7.14662 7.58594C7.419 7.69138 7.68698 7.42339 7.58594 7.14662L6.85228 5.21362C6.71609 4.85338 7.19055 4.581 7.43218 4.87974L8.73696 6.48325C8.92147 6.7117 9.2905 6.61065 9.33443 6.3251L9.66392 4.28666C9.72543 3.90445 10.2746 3.90445 10.3361 4.28666Z" fill="#FBBF24"/>
</g>
<defs>
<clipPath id="clip0_98_4943">
<rect width="48" height="36" fill="white"/>
</clipPath>
</defs>
</svg>
