<svg width="48" height="36" viewBox="0 0 48 36" fill="none" xmlns="http://www.w3.org/2000/svg">
<g clip-path="url(#clip0_98_5200)">
<path d="M48 0H0V18H48V0Z" fill="#93C5FD"/>
<path d="M48 18H0V36H48V18Z" fill="#22C55E"/>
<path d="M48 11.2812H0V24.7212H48V11.2812Z" fill="#F5F5F5"/>
<path d="M0 25.4405H48V24.0005H0V25.4405ZM0 10.5605V12.0005H48V10.5605H0Z" fill="#EF4444"/>
<path d="M9.76 8.39883C9.9 8.39883 9.95 8.58883 9.82 8.65883C9.36 8.87883 8.85 8.99883 8.31 8.99883C6.35 8.99883 4.75 7.36883 4.76 5.37883C4.76 3.38883 6.36 1.79883 8.31 1.79883C8.85 1.79883 9.36 1.91883 9.82 2.13883C9.95 2.19883 9.9 2.39883 9.76 2.39883C8.12 2.39883 6.79 3.73883 6.79 5.39883C6.79 7.05883 8.12 8.39883 9.76 8.39883Z" fill="#F5F5F5"/>
<path d="M13.74 6.28969L13.96 6.88969C13.98 6.95969 14.05 6.99969 14.12 6.99969L14.77 7.01969C15.02 7.01969 15.12 7.32969 14.92 7.47969L14.4 7.86969C14.34 7.90969 14.32 7.97969 14.34 8.04969L14.53 8.65969C14.6 8.88969 14.33 9.07969 14.13 8.93969L13.59 8.57969C13.53 8.53969 13.45 8.53969 13.4 8.57969L12.86 8.93969C12.66 9.07969 12.39 8.88969 12.46 8.65969L12.65 8.04969C12.67 7.97969 12.65 7.90969 12.59 7.86969L12.07 7.47969C11.87 7.32969 11.98 7.02969 12.22 7.01969L12.87 6.99969C12.94 6.99969 13 6.94969 13.03 6.88969L13.25 6.28969C13.33 6.05969 13.66 6.05969 13.74 6.28969Z" fill="#F5F5F5"/>
<path d="M18.42 6.28969L18.64 6.88969C18.66 6.95969 18.73 6.99969 18.8 6.99969L19.45 7.01969C19.7 7.01969 19.8 7.32969 19.6 7.47969L19.08 7.86969C19.02 7.90969 19 7.97969 19.02 8.04969L19.21 8.65969C19.28 8.88969 19.01 9.07969 18.81 8.93969L18.27 8.57969C18.21 8.53969 18.13 8.53969 18.08 8.57969L17.54 8.93969C17.34 9.07969 17.07 8.88969 17.14 8.65969L17.33 8.04969C17.35 7.97969 17.33 7.90969 17.27 7.86969L16.75 7.47969C16.55 7.32969 16.66 7.02969 16.9 7.01969L17.55 6.99969C17.62 6.99969 17.68 6.94969 17.71 6.88969L17.93 6.28969C18.01 6.05969 18.34 6.05969 18.42 6.28969Z" fill="#F5F5F5"/>
<path d="M18.42 1.96937L18.64 2.56937C18.66 2.63937 18.73 2.67938 18.8 2.67938L19.45 2.69938C19.7 2.69938 19.8 3.00938 19.6 3.15938L19.08 3.54937C19.02 3.58937 19 3.65938 19.02 3.72938L19.21 4.33938C19.28 4.56938 19.01 4.75937 18.81 4.61937L18.27 4.25938C18.21 4.21938 18.13 4.21938 18.08 4.25938L17.54 4.61937C17.34 4.75937 17.07 4.56938 17.14 4.33938L17.33 3.72938C17.35 3.65938 17.33 3.58937 17.27 3.54937L16.75 3.15938C16.55 3.00938 16.66 2.70938 16.9 2.69938L17.55 2.67938C17.62 2.67938 17.68 2.62937 17.71 2.56937L17.93 1.96937C18.01 1.73937 18.34 1.73937 18.42 1.96937Z" fill="#F5F5F5"/>
<path d="M23.1 6.28969L23.32 6.88969C23.34 6.95969 23.41 6.99969 23.48 6.99969L24.13 7.01969C24.38 7.01969 24.48 7.32969 24.28 7.47969L23.76 7.86969C23.7 7.90969 23.68 7.97969 23.7 8.04969L23.89 8.65969C23.96 8.88969 23.69 9.07969 23.49 8.93969L22.95 8.57969C22.89 8.53969 22.81 8.53969 22.76 8.57969L22.22 8.93969C22.02 9.07969 21.75 8.88969 21.82 8.65969L22.01 8.04969C22.03 7.97969 22.01 7.90969 21.95 7.86969L21.43 7.47969C21.23 7.32969 21.34 7.02969 21.58 7.01969L22.23 6.99969C22.3 6.99969 22.36 6.94969 22.39 6.88969L22.61 6.28969C22.69 6.05969 23.02 6.05969 23.1 6.28969Z" fill="#F5F5F5"/>
<path d="M23.1 1.96937L23.32 2.56937C23.34 2.63937 23.41 2.67938 23.48 2.67938L24.13 2.69938C24.38 2.69938 24.48 3.00938 24.28 3.15938L23.76 3.54937C23.7 3.58937 23.68 3.65938 23.7 3.72938L23.89 4.33938C23.96 4.56938 23.69 4.75937 23.49 4.61937L22.95 4.25938C22.89 4.21938 22.81 4.21938 22.76 4.25938L22.22 4.61937C22.02 4.75937 21.75 4.56938 21.82 4.33938L22.01 3.72938C22.03 3.65938 22.01 3.58937 21.95 3.54937L21.43 3.15938C21.23 3.00938 21.34 2.70938 21.58 2.69938L22.23 2.67938C22.3 2.67938 22.36 2.62937 22.39 2.56937L22.61 1.96937C22.69 1.73937 23.02 1.73937 23.1 1.96937Z" fill="#F5F5F5"/>
</g>
<defs>
<clipPath id="clip0_98_5200">
<rect width="48" height="36" fill="white"/>
</clipPath>
</defs>
</svg>
