<svg width="48" height="36" viewBox="0 0 48 36" fill="none" xmlns="http://www.w3.org/2000/svg">
<g clip-path="url(#clip0_98_5231)">
<path d="M0 0H24V36H0V0Z" fill="#FBBF24"/>
<path d="M24 0H48V36H24V0Z" fill="#F5F5F5"/>
<path d="M30.7686 12.4092C30.4671 12.1078 29.9726 12.1164 29.682 12.4356C29.4103 12.7342 29.4367 13.2001 29.7221 13.4855L30.0115 13.7749C30.1519 13.9153 30.1519 14.1423 30.0115 14.2827L29.1307 15.1635C28.9564 15.3378 28.9564 15.6203 29.1307 15.7945L29.7445 16.4083C29.9187 16.5825 30.2006 16.5825 30.3749 16.4083L31.2563 15.5269C31.399 15.3842 31.6323 15.387 31.7715 15.5349C31.9062 15.6782 31.8919 15.9063 31.7532 16.0455L30.8826 16.9161C30.7084 17.0897 30.7084 17.3723 30.8826 17.5465L31.4964 18.1603C31.6707 18.3345 31.9526 18.3345 32.1268 18.1603L33.0083 17.2789C33.1481 17.139 33.3756 17.139 33.5155 17.2789L34.5631 18.3265L35.3253 17.5643C35.4342 17.4559 35.5735 17.386 35.7231 17.3637L30.7686 12.4092ZM40.791 19.5266H38.69C38.1886 19.5289 37.7043 19.3449 37.3495 18.9901L37.3444 18.985C37.322 19.1306 37.255 19.2704 37.1426 19.3821L36.6079 19.9169C36.5277 19.9977 36.4612 20.0888 36.4108 20.1874C36.6847 20.5249 36.8263 20.9519 36.8246 21.392V23.493C36.8246 24.5275 37.663 25.3659 38.6975 25.3659H40.791C41.8255 25.3659 42.6639 24.5275 42.6639 23.493V21.3995C42.6639 20.365 41.8255 19.5266 40.791 19.5266ZM41.0208 22.7927C41.183 22.8185 41.3389 22.8947 41.4638 23.0196C41.622 23.1778 41.7011 23.3853 41.7011 23.5927C41.7011 23.8002 41.622 24.0077 41.4638 24.1658C41.3057 24.324 41.0982 24.4037 40.8907 24.4037C40.6833 24.4037 40.4758 24.324 40.3176 24.1658C40.1921 24.0409 40.1165 23.885 40.0907 23.7228C39.87 23.8157 39.619 23.8157 39.3978 23.7228C39.372 23.885 39.2958 24.0409 39.1708 24.1658C39.0127 24.324 38.8052 24.4037 38.5977 24.4037C38.3903 24.4037 38.1828 24.324 38.0246 24.1658C37.8665 24.0077 37.7874 23.8002 37.7874 23.5927C37.7874 23.3853 37.8665 23.1778 38.0246 23.0196C38.1496 22.8947 38.3055 22.8185 38.4677 22.7927C38.3748 22.5715 38.3748 22.3204 38.4677 22.0998C38.3055 22.074 38.1496 21.9984 38.0246 21.8728C37.8665 21.7147 37.7874 21.5072 37.7874 21.2997C37.7874 21.0923 37.8665 20.8848 38.0246 20.7266C38.341 20.4103 38.8545 20.4103 39.1708 20.7266C39.2958 20.8516 39.372 21.0075 39.3978 21.1697C39.619 21.0768 39.87 21.0768 40.0907 21.1697C40.1165 21.0075 40.1921 20.8516 40.3176 20.7266C40.634 20.4103 41.1475 20.4103 41.4638 20.7266C41.622 20.8848 41.7011 21.0923 41.7011 21.2997C41.7011 21.5072 41.622 21.7147 41.4638 21.8728C41.3389 21.9984 41.183 22.074 41.0208 22.0998C41.1137 22.3204 41.1137 22.5715 41.0208 22.7927Z" fill="#737373"/>
<path d="M35.056 19.9174L34.5213 19.3821C34.4089 19.2704 34.3419 19.1306 34.3195 18.985L34.3144 18.9901C33.9596 19.3449 33.4754 19.5289 32.9739 19.5266H30.8729C29.8384 19.5266 29 20.365 29 21.3995V23.493C29 24.5275 29.8384 25.3659 30.8729 25.3659H32.9664C34.0009 25.3659 34.8393 24.5275 34.8393 23.493V21.392C34.8376 20.9519 34.9792 20.5249 35.2531 20.1874C35.2027 20.0888 35.1362 19.9977 35.056 19.9174ZM33.1963 22.7927C33.3584 22.8185 33.5143 22.8947 33.6393 23.0196C33.7974 23.1778 33.8765 23.3853 33.8765 23.5927C33.8765 23.8002 33.7974 24.0077 33.6393 24.1658C33.4811 24.324 33.2736 24.4037 33.0662 24.4037C32.8587 24.4037 32.6512 24.324 32.4931 24.1658C32.3681 24.0409 32.2919 23.885 32.2661 23.7228C32.0449 23.8157 31.7939 23.8157 31.5732 23.7228C31.5474 23.885 31.4718 24.0409 31.3463 24.1658C31.1881 24.324 30.9806 24.4037 30.7732 24.4037C30.5657 24.4037 30.3583 24.324 30.2001 24.1658C30.0419 24.0077 29.9628 23.8002 29.9628 23.5927C29.9628 23.3853 30.0419 23.1778 30.2001 23.0196C30.325 22.8947 30.4809 22.8185 30.6431 22.7927C30.5502 22.5715 30.5502 22.3204 30.6431 22.0998C30.4809 22.074 30.325 21.9984 30.2001 21.8728C30.0419 21.7147 29.9628 21.5072 29.9628 21.2997C29.9628 21.0923 30.0419 20.8848 30.2001 20.7266C30.5164 20.4103 31.0299 20.4103 31.3463 20.7266C31.4718 20.8516 31.5474 21.0075 31.5732 21.1697C31.7939 21.0768 32.0449 21.0768 32.2661 21.1697C32.2919 21.0075 32.3681 20.8516 32.4931 20.7266C32.8094 20.4103 33.3229 20.4103 33.6393 20.7266C33.7974 20.8848 33.8765 21.0923 33.8765 21.2997C33.8765 21.5072 33.7974 21.7147 33.6393 21.8728C33.5143 21.9984 33.3584 22.074 33.1963 22.0998C33.2891 22.3204 33.2891 22.5715 33.1963 22.7927ZM42.5332 15.1635L41.6524 14.2827C41.512 14.1423 41.512 13.9153 41.6524 13.7749L41.9418 13.4855C42.2272 13.2001 42.2536 12.7342 41.9819 12.4356C41.6914 12.1164 41.1968 12.1078 40.8953 12.4092L35.9408 17.3637C36.0904 17.386 36.2297 17.4559 36.3386 17.5643L37.1008 18.3265L38.1484 17.2789C38.2883 17.139 38.5158 17.139 38.6556 17.2789L39.5371 18.1603C39.7113 18.3345 39.9933 18.3345 40.1675 18.1603L40.7813 17.5465C40.9555 17.3723 40.9555 17.0897 40.7813 16.9161L39.9107 16.0455C39.772 15.9063 39.7577 15.6782 39.8924 15.5349C40.0316 15.387 40.2649 15.3842 40.4076 15.5269L41.289 16.4083C41.4633 16.5825 41.7452 16.5825 41.9194 16.4083L42.5332 15.7945C42.7075 15.6203 42.7075 15.3378 42.5332 15.1635Z" fill="#FBBF24"/>
<path d="M37.3444 18.9854C37.322 19.1309 37.255 19.2708 37.1426 19.3825L36.6079 19.9172C36.5277 19.998 36.4612 20.0892 36.4108 20.1877C36.3323 20.339 36.2904 20.5081 36.2904 20.6818V26.5263C36.2904 26.7704 36.1059 26.9836 35.8623 26.9996C35.852 26.9996 35.8423 27.0008 35.832 27.0008C35.8216 27.0008 35.8119 27.0002 35.8016 26.9996C35.558 26.9836 35.3735 26.7704 35.3735 26.5263V20.6818C35.3735 20.5081 35.3316 20.339 35.2531 20.1877C35.2027 20.0892 35.1362 19.998 35.056 19.9178L34.5213 19.3825C34.4089 19.2708 34.3419 19.1309 34.3195 18.9854C34.2857 18.7676 34.3534 18.5372 34.5213 18.3693L34.5631 18.3269L35.3253 17.5647C35.4342 17.4563 35.5735 17.3864 35.7231 17.3641C35.7592 17.3583 35.7953 17.3555 35.832 17.3555C35.8686 17.3555 35.9047 17.3583 35.9408 17.3641C36.0904 17.3864 36.2297 17.4563 36.3386 17.5647L37.1008 18.3269L37.1426 18.3693C37.3106 18.5372 37.3782 18.7676 37.3444 18.9854Z" fill="#DC2626"/>
<path d="M38.8654 11.4898H36.1827V10.4221C36.4389 10.4846 36.6733 10.6164 36.8647 10.8078C36.8899 10.833 36.9134 10.8577 36.9352 10.8834C37.0876 11.0588 37.1948 11.2674 37.2492 11.4898H37.9639C37.9009 11.1041 37.7335 10.7413 37.479 10.4422C37.706 10.5109 37.9146 10.6347 38.0877 10.8078C38.1129 10.833 38.1364 10.8577 38.1582 10.8834C38.3106 11.0588 38.4178 11.2674 38.4722 11.4898H38.8654C39.0591 11.4898 39.2155 11.6462 39.2155 11.84C39.2155 11.319 39.0276 10.8164 38.6877 10.4255C38.6556 10.3883 38.6201 10.3499 38.5828 10.3126C38.1754 9.90459 37.6326 9.67993 37.055 9.67993C36.8475 9.67993 36.6429 9.70973 36.4452 9.76819C36.3598 9.7424 36.2715 9.72292 36.1827 9.70859V9.35212C36.1827 9.25584 36.1437 9.16815 36.0801 9.10454C36.0165 9.04092 35.9294 9.00195 35.8325 9.00195C35.6388 9.00195 35.4824 9.15898 35.4824 9.35212V9.70916C35.3941 9.72349 35.307 9.74355 35.2222 9.76876C35.0239 9.71031 34.8181 9.67993 34.6095 9.67993C33.9826 9.67993 33.3882 9.95158 32.9785 10.4244C32.6375 10.8164 32.4489 11.3202 32.4489 11.8405C32.4489 11.6468 32.6054 11.4904 32.7991 11.4904H33.1922C33.2467 11.2674 33.3544 11.0594 33.5069 10.8834C33.6885 10.6737 33.9241 10.523 34.1843 10.4439C33.9298 10.7436 33.7636 11.1058 33.7006 11.4904H34.4152C34.4697 11.2674 34.5774 11.0594 34.7299 10.8834C34.9287 10.6536 35.1924 10.4949 35.4818 10.4232V11.4909H32.7991C32.6054 11.4909 32.4489 11.6474 32.4489 11.8411C32.4489 12.0348 32.6054 12.1913 32.7991 12.1913H33.5235C33.5562 12.189 33.5883 12.1873 33.6221 12.1873H38.0424C38.0756 12.1873 38.1083 12.189 38.141 12.1913H38.8654C39.0591 12.1913 39.2155 12.0348 39.2155 11.8411C39.2155 11.6474 39.0591 11.4909 38.8654 11.4909V11.4898Z" fill="#FBBF24"/>
<path d="M37.6132 12.8906H34.0508C33.857 12.8906 33.7006 13.0477 33.7006 13.2408C33.7006 13.4339 33.8576 13.591 34.0508 13.591H37.6132C37.8069 13.591 37.9633 13.4339 37.9633 13.2408C37.9633 13.0477 37.8063 12.8906 37.6132 12.8906Z" fill="#FBBF24"/>
<path d="M36.5472 14.293H35.1161C34.9224 14.293 34.766 14.45 34.766 14.6431C34.766 14.8363 34.923 14.9933 35.1161 14.9933H36.5472C36.7409 14.9933 36.8974 14.8363 36.8974 14.6431C36.8974 14.45 36.7403 14.293 36.5472 14.293Z" fill="#FBBF24"/>
</g>
<defs>
<clipPath id="clip0_98_5231">
<rect width="48" height="36" fill="white"/>
</clipPath>
</defs>
</svg>
