<svg width="48" height="36" viewBox="0 0 48 36" fill="none" xmlns="http://www.w3.org/2000/svg">
<g clip-path="url(#clip0_98_5274)">
<path d="M0 0H48V12H0V0Z" fill="#FBBF24"/>
<path d="M0 12H48V24H0V12Z" fill="#1E3A8A"/>
<path d="M0 24H48V36H0V24Z" fill="#EF4444"/>
<path d="M13.0259 18.2976L13.396 19.3474C13.4363 19.4612 13.5419 19.5379 13.6627 19.5412L14.7757 19.5689C15.1964 19.5793 15.3695 20.1132 15.0353 20.3684L14.1514 21.045C14.0556 21.1179 14.0154 21.2425 14.0497 21.3584L14.3675 22.4252C14.4878 22.8285 14.0333 23.1583 13.6872 22.9194L12.7707 22.2875C12.6716 22.2189 12.5404 22.2189 12.4414 22.2875L11.5249 22.9194C11.1787 23.1583 10.7248 22.8285 10.8446 22.4252L11.1624 21.3584C11.1967 21.2431 11.1564 21.1184 11.0606 21.045L10.1757 20.3684C9.84151 20.1126 10.0151 19.5793 10.4353 19.5689L11.5483 19.5412C11.6686 19.5385 11.7747 19.4612 11.815 19.3474L12.1851 18.2976C12.3249 17.9008 12.886 17.9008 13.0259 18.2976Z" fill="#F5F5F5"/>
<path d="M19.8116 13.2976L20.1817 14.3474C20.222 14.4612 20.3276 14.5379 20.4484 14.5412L21.5614 14.5689C21.9821 14.5793 22.1552 15.1132 21.821 15.3684L20.9372 16.045C20.8414 16.1179 20.8011 16.2425 20.8354 16.3584L21.1532 17.4252C21.2735 17.8285 20.8191 18.1583 20.4729 17.9194L19.5564 17.2875C19.4573 17.2189 19.3262 17.2189 19.2271 17.2875L18.3106 17.9194C17.9645 18.1583 17.5105 17.8285 17.6303 17.4252L17.9481 16.3584C17.9824 16.2431 17.9421 16.1184 17.8463 16.045L16.9614 15.3684C16.6272 15.1126 16.8008 14.5793 17.221 14.5689L18.334 14.5412C18.4543 14.5385 18.5604 14.4612 18.6007 14.3474L18.9708 13.2976C19.1106 12.9008 19.6718 12.9008 19.8116 13.2976Z" fill="#F5F5F5"/>
<path d="M28.7402 13.2976L29.1103 14.3474C29.1506 14.4612 29.2562 14.5379 29.377 14.5412L30.49 14.5689C30.9107 14.5793 31.0838 15.1132 30.7496 15.3684L29.8657 16.045C29.7699 16.1179 29.7297 16.2425 29.7639 16.3584L30.0818 17.4252C30.2021 17.8285 29.7476 18.1583 29.4015 17.9194L28.485 17.2875C28.3859 17.2189 28.2547 17.2189 28.1557 17.2875L27.2392 17.9194C26.893 18.1583 26.4391 17.8285 26.5588 17.4252L26.8767 16.3584C26.911 16.2431 26.8707 16.1184 26.7749 16.045L25.89 15.3684C25.5558 15.1126 25.7294 14.5793 26.1496 14.5689L27.2626 14.5412C27.3828 14.5385 27.489 14.4612 27.5292 14.3474L27.8993 13.2976C28.0392 12.9008 28.6003 12.9008 28.7402 13.2976Z" fill="#F5F5F5"/>
<path d="M35.5259 18.2976L35.896 19.3474C35.9363 19.4612 36.0419 19.5379 36.1627 19.5412L37.2757 19.5689C37.6964 19.5793 37.8695 20.1132 37.5353 20.3684L36.6514 21.045C36.5556 21.1179 36.5154 21.2425 36.5497 21.3584L36.8675 22.4252C36.9878 22.8285 36.5333 23.1583 36.1872 22.9194L35.2707 22.2875C35.1716 22.2189 35.0404 22.2189 34.9414 22.2875L34.0249 22.9194C33.6787 23.1583 33.2248 22.8285 33.3446 22.4252L33.6624 21.3584C33.6967 21.2431 33.6564 21.1184 33.5606 21.045L32.6757 20.3684C32.3415 20.1126 32.5151 19.5793 32.9353 19.5689L34.0483 19.5412C34.1686 19.5385 34.2747 19.4612 34.315 19.3474L34.6851 18.2976C34.8249 17.9008 35.386 17.9008 35.5259 18.2976Z" fill="#F5F5F5"/>
</g>
<defs>
<clipPath id="clip0_98_5274">
<rect width="48" height="36" fill="white"/>
</clipPath>
</defs>
</svg>
