<svg width="48" height="36" viewBox="0 0 48 36" fill="none" xmlns="http://www.w3.org/2000/svg">
<rect width="48" height="36" fill="#EF4444"/>
<path d="M0 0H24V18C24 19.1046 23.1046 20 22 20H0V0Z" fill="#1E3A8A"/>
<path d="M12.3265 3.72672L12.614 4.52661C12.6453 4.61328 12.7273 4.67175 12.8211 4.67424L13.6856 4.69538C14.0124 4.70326 14.1468 5.11005 13.8873 5.30453L13.2007 5.81996C13.1263 5.87553 13.095 5.97049 13.1217 6.05881L13.3686 6.87156C13.462 7.17883 13.109 7.43012 12.8401 7.24808L12.1283 6.76665C12.0513 6.7144 11.9494 6.7144 11.8725 6.76665L11.1606 7.24808C10.8918 7.43012 10.5392 7.17883 10.6322 6.87156L10.8791 6.05881C10.9057 5.9709 10.8744 5.87594 10.8 5.81996L10.1126 5.30453C9.85309 5.10964 9.98794 4.70326 10.3143 4.69538L11.1788 4.67424C11.2722 4.67216 11.3546 4.61328 11.3859 4.52661L11.6734 3.72672C11.782 3.42443 12.2179 3.42443 12.3265 3.72672Z" fill="#F5F5F5"/>
<path d="M7.70066 7.53531L7.98812 8.33521C8.0194 8.42187 8.10141 8.48034 8.19526 8.48283L9.05976 8.50398C9.38653 8.51186 9.52096 8.91864 9.2614 9.11312L8.57488 9.62856C8.50048 9.68412 8.46919 9.77908 8.49583 9.8674L8.7427 10.6802C8.83613 10.9874 8.48314 11.2387 8.21428 11.0567L7.5024 10.5752C7.42546 10.523 7.32358 10.523 7.24664 10.5752L6.53476 11.0567C6.2659 11.2387 5.91333 10.9874 6.00634 10.6802L6.25321 9.8674C6.27985 9.77949 6.24856 9.68454 6.17416 9.62856L5.48679 9.11312C5.22723 8.91823 5.36209 8.51186 5.68844 8.50398L6.55293 8.48283C6.64636 8.48076 6.72879 8.42187 6.76007 8.33521L7.04753 7.53531C7.15618 7.23302 7.59202 7.23302 7.70066 7.53531Z" fill="#F5F5F5"/>
<path d="M16.9524 7.53531L17.2398 8.33521C17.2711 8.42187 17.3531 8.48034 17.447 8.48283L18.3114 8.50398C18.6382 8.51186 18.7727 8.91864 18.5131 9.11312L17.8266 9.62856C17.7522 9.68412 17.7209 9.77908 17.7475 9.8674L17.9944 10.6802C18.0878 10.9874 17.7348 11.2387 17.466 11.0567L16.7541 10.5752C16.6772 10.523 16.5753 10.523 16.4983 10.5752L15.7864 11.0567C15.5176 11.2387 15.165 10.9874 15.258 10.6802L15.5049 9.8674C15.5315 9.77949 15.5003 9.68454 15.4259 9.62856L14.7385 9.11312C14.4789 8.91823 14.6138 8.51186 14.9401 8.50398L15.8046 8.48283C15.8981 8.48076 15.9805 8.42187 16.0118 8.33521L16.2992 7.53531C16.4079 7.23302 16.8437 7.23302 16.9524 7.53531Z" fill="#F5F5F5"/>
<path d="M12.3265 12.9181L12.614 13.718C12.6453 13.8047 12.7273 13.8632 12.8211 13.8656L13.6856 13.8868C14.0124 13.8947 14.1468 14.3015 13.8873 14.4959L13.2007 15.0114C13.1263 15.0669 13.095 15.1619 13.1217 15.2502L13.3686 16.063C13.462 16.3702 13.109 16.6215 12.8401 16.4395L12.1283 15.9581C12.0513 15.9058 11.9494 15.9058 11.8725 15.9581L11.1606 16.4395C10.8918 16.6215 10.5392 16.3702 10.6322 16.063L10.8791 15.2502C10.9057 15.1623 10.8744 15.0673 10.8 15.0114L10.1126 14.4959C9.85309 14.301 9.98794 13.8947 10.3143 13.8868L11.1788 13.8656C11.2722 13.8636 11.3546 13.8047 11.3859 13.718L11.6734 12.9181C11.782 12.6158 12.2179 12.6158 12.3265 12.9181Z" fill="#F5F5F5"/>
</svg>
