<svg width="48" height="36" viewBox="0 0 48 36" fill="none" xmlns="http://www.w3.org/2000/svg">
<g clip-path="url(#clip0_98_5494)">
<rect width="48" height="36" fill="#F5F5F5"/>
<path d="M14.45 16.2409L8.75 12.1809L0 5.96094V8.61094L5.03 12.1809L12.26 17.3209C12.72 17.6509 12.72 18.3409 12.26 18.6709L5 23.8309L0 27.3909V30.0409L8.73 23.8309L14.45 19.7609C15.02 19.3609 15.36 18.7009 15.36 18.0009C15.36 17.3009 15.02 16.6409 14.45 16.2409Z" fill="#FBBF24"/>
<path d="M48 0V12.18H27.29C26.14 12.18 25.01 11.84 24.06 11.19L7.53 0H48Z" fill="#EF4444"/>
<path d="M48 23.8301V36.0001H7.53L24.06 24.8201C25.01 24.1701 26.14 23.8301 27.29 23.8301H48Z" fill="#3B82F6"/>
<path d="M48 14.34V21.67H26.62C25.47 21.67 24.35 22.01 23.4 22.66L21.66 23.83L3.67 36H0V30.04L8.73 23.83L14.45 19.76C15.02 19.36 15.36 18.7 15.36 18C15.36 17.3 15.02 16.64 14.45 16.24L8.75 12.18L0 5.96V0H3.68L21.67 12.18L23.4 13.35C24.35 14 25.47 14.34 26.63 14.34H48Z" fill="#22C55E"/>
<path d="M12.26 18.6694L5 23.8294L0 27.3894V8.60938L5.03 12.1794L12.26 17.3194C12.72 17.6494 12.72 18.3394 12.26 18.6694Z" fill="#262626"/>
</g>
<defs>
<clipPath id="clip0_98_5494">
<rect width="48" height="36" fill="white"/>
</clipPath>
</defs>
</svg>
