<svg width="48" height="36" viewBox="0 0 48 36" fill="none" xmlns="http://www.w3.org/2000/svg">
<rect width="48" height="36" fill="#22C55E"/>
<path d="M46 5.6393C44.66 6.2293 42.78 6.8693 40.83 6.9293C40.69 6.9293 40.57 6.8193 40.57 6.6793C40.57 6.4793 40.73 6.3093 40.94 6.3093H41.44C41.44 5.9693 41.2 5.6893 40.89 5.6093C40.83 5.2793 40.54 5.0293 40.19 5.0293H39.75C39.29 5.0293 38.92 5.3993 38.92 5.8593V6.3893C38.92 6.6893 38.67 6.9293 38.37 6.9193C36.5 6.8093 34.71 6.1993 33.43 5.6293C32.81 5.3593 32.25 6.0893 32.66 6.6193C33.66 7.9093 35.38 9.4293 38.16 9.8393C38.43 9.8793 38.63 10.1093 38.63 10.3793V10.9293C38.63 11.1793 38.82 11.3993 39.07 11.4093C39.32 11.4093 39.54 11.2093 39.54 10.9493V10.1093C39.54 10.0093 39.62 9.9293 39.72 9.9293C39.82 9.9293 39.9 10.0093 39.9 10.1093V10.9493C39.9 11.1993 40.11 11.4093 40.36 11.4093C40.61 11.4093 40.82 11.1993 40.82 10.9493V10.3793C40.82 10.1093 41.02 9.8793 41.29 9.8393C44.07 9.4193 45.8 7.8993 46.79 6.6193C47.2 6.0893 46.63 5.3593 46.01 5.6293L46 5.6393Z" fill="#FB923C"/>
<path d="M33 17C33 15.8954 33.8954 15 35 15H38V36H33V17Z" fill="#EF4444"/>
<path d="M38 15H43V36H38V15Z" fill="#262626"/>
<path d="M43 15H46C47.1046 15 48 15.8954 48 17V36H43V15Z" fill="#FB923C"/>
</svg>
