<svg width="48" height="36" viewBox="0 0 48 36" fill="none" xmlns="http://www.w3.org/2000/svg">
<g clip-path="url(#clip0_98_5612)">
<path d="M48 0H0V5.14H48V0Z" fill="#22C55E"/>
<path d="M48 5.14062H0V10.2806H48V5.14062Z" fill="#FBBF24"/>
<path d="M48 10.2891H0V15.4291H48V10.2891Z" fill="#EF4444"/>
<path d="M48 15.4297H0V20.5697H48V15.4297Z" fill="#262626"/>
<path d="M48 20.5703H0V25.7103H48V20.5703Z" fill="#EF4444"/>
<path d="M48 25.7109H0V30.8509H48V25.7109Z" fill="#FBBF24"/>
<path d="M48 30.8594H0V35.9994H48V30.8594Z" fill="#22C55E"/>
<path d="M23.86 20.04L23.13 20.57L16.03 25.71L8.93 30.85L3.36 34.89L1.83 36H0V0H1.84L3.37 1.11L8.94 5.15L16.04 10.29L23.14 15.43L23.87 15.96C25.26 16.96 25.26 19.03 23.87 20.04H23.86Z" fill="#F5F5F5"/>
<path d="M24.9 15.43C24.77 15.31 24.64 15.19 24.49 15.09L17.87 10.29L10.77 5.15L4.44 0.55L3.68 0H0L2.46 1.79L7.1 5.15L14.2 10.29L21.29 15.43L23.23 16.84C23.61 17.11 23.83 17.54 23.83 18C23.83 18.46 23.61 18.89 23.23 19.17L21.29 20.58L14.2 25.72L7.1 30.86L2.47 34.22L0.01 36H3.69L4.45 35.45L10.79 30.86L17.89 25.72L24.51 20.92C24.65 20.82 24.79 20.7 24.92 20.58C25.61 19.91 26 19 26 18.01C26 17.02 25.61 16.11 24.92 15.44L24.9 15.43Z" fill="#262626"/>
<path d="M9.93999 11.8505L10.8 14.2705C10.89 14.5305 11.14 14.7105 11.42 14.7205L14.02 14.7805C15 14.8005 15.41 16.0305 14.63 16.6205L12.57 18.1805C12.35 18.3505 12.25 18.6405 12.33 18.9005L13.07 21.3605C13.35 22.2905 12.29 23.0505 11.48 22.5005L9.33999 21.0405C9.10999 20.8805 8.79999 20.8805 8.56999 21.0405L6.42999 22.5005C5.61999 23.0505 4.55999 22.2905 4.83999 21.3605L5.57999 18.9005C5.65999 18.6305 5.56999 18.3505 5.33999 18.1805L3.26999 16.6205C2.48999 16.0305 2.89999 14.8005 3.87999 14.7805L6.47999 14.7205C6.75999 14.7205 7.00999 14.5405 7.09999 14.2705L7.95999 11.8505C8.28999 10.9405 9.59999 10.9405 9.91999 11.8505H9.93999Z" fill="#EF4444"/>
<path d="M10.08 15.4805H7.92C7.32353 15.4805 6.84 15.964 6.84 16.5605V18.7205C6.84 19.3169 7.32353 19.8005 7.92 19.8005H10.08C10.6765 19.8005 11.16 19.3169 11.16 18.7205V16.5605C11.16 15.964 10.6765 15.4805 10.08 15.4805Z" fill="#FBBF24"/>
</g>
<defs>
<clipPath id="clip0_98_5612">
<rect width="48" height="36" fill="white"/>
</clipPath>
</defs>
</svg>
